<?xml version="1.0" encoding="UTF-8"?>
<svg id="ambulance" data-name="ambulance" xmlns="http://www.w3.org/2000/svg" viewBox="0 0 200.82 114.1">
  <defs>
    <style>
      .cls-1 {
        fill: #646465;
      }

      .cls-1, .cls-2, .cls-3, .cls-4, .cls-5, .cls-6, .cls-7, .cls-8, .cls-9, .cls-10, .cls-11, .cls-12, .cls-13, .cls-14, .cls-15, .cls-16, .cls-17, .cls-18, .cls-19, .cls-20, .cls-21, .cls-22, .cls-23, .cls-24, .cls-25, .cls-26, .cls-27, .cls-28 {
        stroke-width: 0px;
      }

      .cls-2 {
        fill: #0cbdd0;
      }

      .cls-3 {
        fill: #c76b13;
      }

      .cls-4 {
        fill: #1e1e18;
      }

      .cls-5 {
        fill: #193d4b;
      }

      .cls-6 {
        fill: #062120;
      }

      .cls-7 {
        fill: #f6b73d;
      }

      .cls-8 {
        fill: #e72617;
      }

      .cls-9 {
        fill: #08090b;
      }

      .cls-10 {
        fill: #7b7d7d;
      }

      .cls-11 {
        fill: #919292;
      }

      .cls-12 {
        fill: #515151;
      }

      .cls-13 {
        fill: #afb0b0;
      }

      .cls-14 {
        fill: #333b3f;
      }

      .cls-15 {
        fill: #3f1109;
      }

      .cls-16 {
        fill: #02a4b2;
      }

      .cls-17 {
        fill: #dfe5ed;
      }

      .cls-18 {
        fill: #151e1f;
      }

      .cls-19 {
        fill: #077586;
      }

      .cls-20 {
        fill: #c5c5c5;
      }

      .cls-21 {
        fill: #2a2b2c;
      }

      .cls-22 {
        fill: #c8432c;
      }

      .cls-23 {
        fill: #c04412;
      }

      .cls-24 {
        fill: #ee4b17;
      }

      .cls-25 {
        fill: #bbcac7;
      }

      .cls-26 {
        fill: #95171a;
      }

      .cls-27 {
        fill: #f3ebb2;
      }

      .cls-28 {
        fill: #2a1510;
      }
    </style>
    <script>
    const images = document.querySelectorAll('#ambulance');

    function logId() {
    console.log('You clicked on', this.id);
    }

    images.forEach(image => image.addEventListener('click', logId));
    </script>
  </defs>
  <g id="Layer_1-2" data-name="Layer 1">
    <g>
      <path class="cls-17" d="m134.52,6.42c5.09-.09,25.21.45,27.97-.26.11.32,1.51.76,1.68.78,3.21.4,26.97-.55,29.78,0,.72.14,2.37,1.74,2.98,1.29.24,1.32-.3.57-.26,1.04-2.43.29-16.94-.37-17.74,0-.5.23-.4.85-.39,1.29-22.4-.3-44.92.26-67.33.26-.09,0-.17,0-.26,0-7.94,0-15.89.22-23.83-.26-.11-.52.26-1.15-.39-1.55-1.08.11-2.5-.15-3.5,0-.14-.59.35-2.52-.39-2.85-.69-.3-12.8.23-15.02,0-3.82,2.66-2.99,6.83-1.68,10.62.03.08-.03.18,0,.26-3.48,5.29-8.75,9.31-11.91,14.76-.5.08-1.51.87-2.07,1.04-.58.17-1.98.47-2.07.52-.38.02-.22-.28-.26-.52q5.05-5.57,10.1-11.14c1.73-1.77,3.71-3.29,5.18-5.31.2-.99-2.6-7.1,2.46-10.75,2.48.22,14.82-.29,15.54,0,.52.21.26,1.04.78,1.29,16.4-.19,32.81.26,49.21,0,.08,0,.77-.51,1.42-.52Z"/>
      <g>
        <path class="cls-22" d="m196.68,9.27c0,.1.42-.74.52,1.55h-18.13c-.25,0-.27-.26-.52-.26-.01-.44-.11-1.06.39-1.29.8-.37,15.31.29,17.74,0Z"/>
        <path class="cls-12" d="m197.19,10.82c0,.09,0,.17,0,.26-5.96-.3-12.14-.18-18.13-.26h18.13Z"/>
      </g>
      <path class="cls-18" d="m7.62,86.96c2.79-.06,5.5-.14,8.29-.26,1.38-.06,2.77.04,4.14,0-2.12,4.02-2.51,13.04-1.68,14.76.14.3,2.83,2.47,2.72-.78v2.07c-.16-.02-.67.97-2.72-1.04l-11.4-.26c-1.38-.57-8.97-12.04-6.47-14.5,1.25-.05,2.51.07,3.76,0,1.2-.06,2.22.02,3.37,0Z"/>
      <g>
        <path class="cls-18" d="m164.04,4.87c-.04-4.07-.98-1.34-1.17-1.29-2.26.58-28.39-.53-29.78,0-.28.11.08.75-.39.78-.29-1.63.8-3.77,2.46-4.14,1.29-.29,25.12-.26,26.42,0,2.16.43,3.2,2.68,2.46,4.66Z"/>
        <path class="cls-9" d="m164.04,4.87c-.37,1-.56,1.04-1.55,1.29-2.76.71-22.88.17-27.97.26-.78-.5-1.63-1.07-1.81-2.07.47-.02.11-.67.39-.78,1.39-.53,27.52.58,29.78,0,.19-.05,1.12-2.77,1.17,1.29Z"/>
      </g>
      <path class="cls-17" d="m23.68,62.62c.51-.05,1.04.02,1.55,0,.09,0,.17,0,.26,0q-9.32,5.83-18.65,11.65c-3.06,1.14.43-1.77,2.46-3.37,3.37-2.65,8.02-5.16,11.91-6.99.17-.14.21-.61.39-.78.66-.09,1.43-.45,2.07-.52Z"/>
      <path class="cls-21" d="m49.83,32.84s-.42-.01-.26-.39c.42-1.01,8.84-9.19,10.36-10.75q-5.05,5.57-10.1,11.14Z"/>
      <path class="cls-19" d="m179.07,10.82c5.99.08,12.17-.05,18.13.26.05,1.29-.03,2.59,0,3.88-1.82-.23-3.65.2-5.44.26-26.75.89-53.65-.66-80.41,0-.41-.3-.36-.52-.39-.52,1.17-.65.15-2.67.26-3.88,22.41,0,44.94-.56,67.33-.26.25,0,.27.26.52.26Z"/>
      <g>
        <path class="cls-9" d="m170.52,101.98c-1.42.06-2.85-.04-4.27,0-.56.26-.35,2.85-2.72,6.73,10.62-22.56-24.01-30.91-24.6-6.34-.16.22-4.49.16-5.18.13-4.5-29.75,41.02-31.39,36.78-.52Z"/>
        <path class="cls-14" d="m150.32,76.09c1.06-.08,2.54-.05,3.63,0,6.51.32,13.2,3.18,16.57,9.06,1.78,3.11,2.6,7.07,2.85,10.62.14,1.97-.1,3.98,0,5.96-.9.03-1.9.22-2.85.26,4.25-30.87-41.28-29.23-36.78.52-.52-.02-2.92.13-3.11-.13.13-2.35-.18-4.77,0-7.12.29-3.76,1.36-6.93,3.37-10.1,3.49-5.52,9.95-8.6,16.32-9.06Z"/>
      </g>
      <g>
        <path class="cls-9" d="m188.91,91.62c-.66.33-1.5.25-1.55.65-.07.51,7.04,6.21,8.42,5.57.97-1,1.99-1.49,3.24-2.07-3.69,6.92-18.82,5.71-25.64,5.96-.1-1.97.14-3.99,0-5.96,7.71-.77,6.83-5.32,15.54-4.14Z"/>
        <path class="cls-18" d="m190.46,85.15c.26,0,.52,0,.78,0,2.3.05,4.46,0,6.73,0,1.17,0,2.43-.22,2.85.39-.01,3.22-.28,7.35-1.81,10.23-1.25.58-2.26,1.07-3.24,2.07-1.38.64-8.49-5.06-8.42-5.57.05-.39.89-.32,1.55-.65.16-.08.66.14.78-.13.21-.51-.15-4.9,0-6.34.26,0,.52,0,.78,0Z"/>
      </g>
      <path class="cls-22" d="m197.19,14.97c.02.86,0,1.73,0,2.59-4.52-.24-6.03,1.12-5.44-2.33,1.79-.06,3.62-.49,5.44-.26Z"/>
      <path class="cls-18" d="m83.24,9.01c.99-.15,2.42.11,3.5,0,.65.4.27,1.03.39,1.55.13.59-.3,1.34.39,1.81,3.51-.43,21.99.46,23.05,0,.58-.26.36-1.1.39-1.55.09,0,.17,0,.26,0-.11,1.21.91,3.24-.26,3.88-9.55-.04-19.21.24-28.75.78.06-.97.09-2.12-.26-2.07.16-1.18-.12-2.76,0-4.01.37-.58.81-.31,1.29-.39Z"/>
      <path class="cls-22" d="m110.95,10.82c-.03.45.19,1.3-.39,1.55-1.05.46-19.54-.43-23.05,0-.69-.47-.26-1.22-.39-1.81,7.93.47,15.89.26,23.83.26Z"/>
      <path class="cls-26" d="m134,85.15c-2.01,3.17-3.08,6.34-3.37,10.1H61.23c-.2-1.48-2.66-8.71-3.37-9.84,16.74.16,33.5-.52,50.24-.52,8.62,0,17.27.54,25.9.26Z"/>
      <path class="cls-26" d="m93.6,31.54c-.67.01-.49-.26-.52-.26q.19-6.86.39-13.73h13.73l.39,13.6c-4.66.02-9.33.3-13.98.39Z"/>
      <g>
        <path class="cls-22" d="m197.19,22.74c0,1.15,1.23,3.96-1.04,3.63-.68-.15-2.48.07-3.63,0v-3.88c1.35-.08,3.4-.13,4.66.26Z"/>
        <path class="cls-4" d="m192.53,22.48v3.88c-.48-.03-2.4.14-2.59-.13-.1-.14-.07-3.21,0-3.37.28-.64,1.99-.35,2.59-.39Z"/>
      </g>
      <path class="cls-25" d="m191.24,75.83c.03,3.1.42,6.25,0,9.32-.26,0-.52,0-.78,0,.52-3.21.04-6.39,0-9.58,0-.17,0-.35,0-.52l.78.78Z"/>
      <g>
        <path class="cls-13" d="m110.95,14.71s-.02.22.39.52c26.76-.66,53.67.89,80.41,0-.59,3.45.91,2.09,5.44,2.33.01,1.73,0,3.45,0,5.18-1.26-.39-3.31-.34-4.66-.26-.6.04-2.31-.25-2.59.39-.07.15-.1,3.23,0,3.37.19.26,2.11.1,2.59.13,1.14.07,2.95-.15,3.63,0,.07.01,0,.29,1.29.39.12,7.81-.15,15.63,0,23.44l-5.96.13c.25,8.5-.35,17.01-.26,25.51l-.78-.78c-.02-1.44.28-11.1-.39-11.4-27.28-.45-54.56-.23-81.84,0-.28,3.97-.07,7.94-.13,11.91-.05,3.1-.62,6.21,0,9.32-16.74,0-33.5.68-50.24.52-7.18-11.51-30.33-11.52-37.55,1.04.2-1.26-.26-8.82,0-9.19.18-.26,1.11.04,2.07-.39,1.3-.58,1.15-2.61.65-2.85l-16.19.78v-.52q9.32-5.83,18.65-11.65c7.41-.19,3.89.95,6.34,2.33,4.28,2.4,5.13-3.14,5.44-3.37.56-.42,12.18-1.14,13.98-1.55.3,1.26-.08,2.36.39,3.63.87,2.35,4.69.9,6.6,1.29,1.37-.53.04-4.22,1.04-4.66,4.29.41,31.56-1.92,33.15-2.85.28-.16,1.09-1.14,1.17-1.42.42-1.61-.31-19.96,0-24.47,4.65-.09,9.33-.37,13.98-.39l-.39-13.6h-13.73q-.19,6.86-.39,13.73c-11.52.2-23.21-.09-34.7.52-1.31.07-3.21-.16-4.14,0,3.16-5.45,8.43-9.47,11.91-14.76.59,1.52,1.01,2.84,2.46,3.88,5.1-.38,13.13,2.09,13.6-5.44,9.54-.54,19.2-.82,28.75-.78Z"/>
        <g>
          <path class="cls-22" d="m133.74,23.51v3.63c-1.63.1-3.29-.03-4.92,0l.26-3.63c1.55.03,3.12-.09,4.66,0Z"/>
          <path class="cls-22" d="m127.01,23.51v3.63c-1.54-.02-3.14.13-4.66,0l.26-3.63c1.45-.09,2.94.03,4.4,0Z"/>
          <path class="cls-18" d="m122.61,23.51l-.26,3.63c-.58-.05-2.05.25-2.33-.39-.06-.13-.06-2.72,0-2.85.28-.64,1.99-.35,2.59-.39Z"/>
          <path class="cls-4" d="m133.74,27.14v-3.63c.48.03,2.4-.14,2.59.13.1.14.1,3.23,0,3.37-.19.26-2.11.1-2.59.13Z"/>
          <g>
            <path class="cls-8" d="m91.53,72.46v3.63c-1.48.08-3.71.09-5.18,0v-3.63c1.47-.09,3.7-.08,5.18,0Z"/>
            <path class="cls-4" d="m91.53,76.09v-3.63c.63.03,2.56-.25,2.85.39.06.13.06,2.72,0,2.85-.28.64-2.22.35-2.85.39Z"/>
            <path class="cls-18" d="m86.35,72.46v3.63c-.6-.04-2.31.25-2.59-.39-.06-.13-.06-2.72,0-2.85.28-.64,1.99-.35,2.59-.39Z"/>
          </g>
          <g>
            <path class="cls-1" d="m141.64,27.4c.46,2.78.48,22.89-.26,23.83-.05.07-1.43.75-1.55.78-1.1.23-21.42.2-22.53,0-.51-.09-2.15-.94-2.46-1.42-1.36-2.12.06-18.71-.13-22.66.56,4.06-.32,20.35.13,21.88.03.1,1.33,1.39,1.42,1.42,1.12.47,23.26.56,24.34,0,.1-.05.89-.85.91-.91.44-1.44-.43-18.87.13-22.92Z"/>
            <path class="cls-15" d="m129.08,23.51l-.26,3.63c-.6.01-1.21,0-1.81,0v-3.63c.69-.01,1.38-.01,2.07,0Z"/>
            <g>
              <path class="cls-11" d="m178.55,51.22c-.36.25-1.05.71-1.42.78-2.89.52-28.69-.1-34.31-.39,4.59-.61,34.18.48,35.74-.39Z"/>
              <path class="cls-11" d="m178.55,51.22c.09-.05,1.02-1.59,1.04-1.68.51-2.37-.48-17.33.13-22.14-.06,4.47.52,20.58.13,22.4-.17.8-.7,1.02-1.29,1.42Z"/>
            </g>
          </g>
        </g>
      </g>
      <g>
        <path class="cls-6" d="m52.17,37.24c-.02.24.6.42-.26.78-1.67,2.1-13.95,14.9-14.24,15.93-.19.68.14,2.97,0,4.14,7.92-1.91,13.46-7.35,14.24-15.67.18,0,.45-.07.52.13.35,1.01-.23,18.13,0,21.37-.03-.02-.39.04-.78-.26-.47-1.27-.09-2.37-.39-3.63-1.81.42-13.42,1.13-13.98,1.55-.31.23-1.16,5.77-5.44,3.37-2.46-1.38,1.06-2.52-6.34-2.33-.09,0-.17,0-.26,0,3.23-2.32,4.56-.05,3.76-5.7l-5.31,5.7c-.64.07-1.41.43-2.07.52.5-.48,6.78-7.66,9.32-10.36.63-.09,1.71.12,2.07,0,.2,1.72,1.03-.04,4.27,1.04,4.76-5.09,8.97-10.73,13.6-15.93.31-.35.81-.63,1.29-.65Z"/>
        <path class="cls-9" d="m52.17,32.84c.66,1.43.12,2.98,0,4.4-.48.02-.98.29-1.29.65-4.63,5.19-8.84,10.83-13.6,15.93-3.24-1.07-4.08.68-4.27-1.04.36-.13.24-.25.26-.26,3.1-.21,2.95-.8,4.92-2.72.7-.68,12.79-13.92,12.69-14.89-.27-2.7-3.83,2.95-4.4,1.29,1.74-1.56.28-1.27,3.63-2.85.1-.05,1.49-.35,2.07-.52Z"/>
        <path class="cls-18" d="m50.87,34.91c-1.67-.38-2.54,1.16-3.63,2.2-2.28,2.2-13.08,14.9-13.98,15.41-.02,0,.11.13-.26.26-.36.12-1.44-.09-2.07,0,5.17-5.48,9.93-11.53,15.54-16.57.57,1.66,4.13-3.99,4.4-1.29Z"/>
        <path class="cls-18" d="m58.38,31.8q.13,15.99.26,31.98c-.35,1.32-4.46,1.3-6.22.13-.23-3.24.35-20.36,0-21.37-.07-.2-.34-.13-.52-.13v-4.4c.86-.35.24-.53.26-.78.12-1.43.66-2.98,0-4.4.56-.16,1.57-.95,2.07-1.04.93-.16,2.83.07,4.14,0Z"/>
        <path class="cls-6" d="m93.08,31.28s-.16.27.52.26c-.31,4.51.42,22.86,0,24.47-.07.28-.88,1.26-1.17,1.42-1.59.93-28.86,3.26-33.15,2.85-1,.44.33,4.13-1.04,4.66-1.91-.39-5.74,1.05-6.6-1.29.39.29.74.24.78.26,1.76,1.17,5.86,1.19,6.22-.13q-.13-15.99-.26-31.98c11.5-.61,23.18-.32,34.7-.52Z"/>
        <path class="cls-16" d="m51.91,38.02v4.4c-.78,8.32-6.32,13.76-14.24,15.67.14-1.17-.19-3.47,0-4.14.29-1.03,12.57-13.83,14.24-15.93Z"/>
        <path class="cls-2" d="m25.23,62.62c-.51.02-1.05-.05-1.55,0l5.31-5.7c.81,5.65-.52,3.38-3.76,5.7Z"/>
        <path class="cls-2" d="m50.87,34.91c.1.97-11.99,14.21-12.69,14.89-1.97,1.92-1.82,2.51-4.92,2.72.91-.51,11.7-13.21,13.98-15.41,1.09-1.05,1.96-2.58,3.63-2.2Z"/>
      </g>
      <g>
        <path class="cls-26" d="m190.46,75.05c0,.17,0,.35,0,.52h-36.39l-.13.52c-1.08-.05-2.56-.08-3.63,0,0-.16.06-.49-.13-.52-7.85-1.08-32.23.81-42.08,0,.06-3.97-.15-7.95.13-11.91,27.28-.23,54.56-.45,81.84,0,.67.3.37,9.95.39,11.4Z"/>
        <path class="cls-3" d="m150.32,76.09c-6.37.47-12.82,3.55-16.32,9.06-8.63.28-17.28-.26-25.9-.26-.62-3.11-.05-6.22,0-9.32,9.85.81,34.23-1.08,42.08,0,.19.03.13.36.13.52Z"/>
        <path class="cls-3" d="m190.46,75.57c.04,3.2.52,6.37,0,9.58-.26,0-.52,0-.78,0-6.38-.11-12.78.08-19.16,0-3.38-5.88-10.07-8.74-16.57-9.06l.13-.52h36.39Z"/>
      </g>
      <g>
        <path class="cls-24" d="m197.97,68.83c-.02,4.13.17,8.31,0,12.43h-.52c.79-3.43-2.6-2.35-4.92-2.07-.34-3.29.46-6.69-.26-9.97l5.7-.39Z"/>
        <path class="cls-25" d="m197.45,81.27h-4.79c-.27-.19-.08-1.64-.13-2.07,2.32-.28,5.72-1.36,4.92,2.07Z"/>
        <g>
          <path class="cls-15" d="m197.45,50.19s.51-.08.52.13c.11,6.16.03,12.35,0,18.52l-5.7.39c.72,3.28-.08,6.69.26,9.97.04.43-.14,1.88.13,2.07h5.31c-.03.78-.71,2.9,0,3.88-2.28,0-4.44.05-6.73,0,.42-3.08.03-6.23,0-9.32-.09-8.5.51-17,.26-25.51l5.96-.13Z"/>
          <path class="cls-26" d="m193.7,62.1c.63-.17,2.21.12,3.11,0,.35,1.23.78,1.25.65,2.98l-4.53.65c-.62-.36-.86-3.19.78-3.63Z"/>
          <path class="cls-26" d="m193.44,53.81c2.38-1.06,3.68,1.96,2.33,3.63-4.21.38-2.68-3.47-2.33-3.63Z"/>
        </g>
      </g>
      <g>
        <g>
          <path class="cls-9" d="m47.63,89.55c-10.07-5.99-22.36,2.77-20.07,14.24.09-1.24-3.61-.63-6.47-1.04v-2.07c-3.23-24.17,32.66-28.97,37.03-5.83,2.55,5.77.49,7.9.49,7.9"/>
          <path class="cls-14" d="m57.86,85.41c.7,1.13,3.16,8.36,3.37,9.84.3,2.17.46,5.28,0,7.38-.05.22-.51.1-.52.13-3.82.59-1.24-.75-2.59-7.9-4.38-23.15-40.26-18.34-37.03,5.83.11,3.24-2.58,1.07-2.72.78-.83-1.72-.44-10.75,1.68-14.76,0-.02.06.08.26-.26,7.23-12.56,30.37-12.54,37.55-1.04Z"/>
        </g>
        <g>
          <path class="cls-18" d="m45.95,113.12c-3.41.53-5.55,1.76-12.95-.78-2.97-1.02-4.83-5.5-5.44-8.55-2.29-11.47,10-20.23,20.07-14.24,10.61,6.31,6,22.37-1.68,23.57Z"/>
          <g>
            <path class="cls-12" d="m49.58,105.09c.17-.91.54-1.62-.13-2.07l-7.38-2.85c.02-2.29-4.36-.95-2.33-.13-.91,1.23,1.07,2.94,2.07,1.17,2.36,1.33,5.15,3.91,7.77,4.14-.59,1.92-3.21,3.89-4.92,4.66.58-1.43-.55-4.12-2.2-4.4,1.03,1.64.56,3.38.39,5.18-1.68.33-2.72.34-4.4,0,2.95-.16.94-1.94,1.17-4.92-.8-.66-2.88,3.4-2.72,4.14-.67-.28-.92-.37-1.55-.78l3.24-5.96c-.24-.35-5.34,2.42-6.34,2.85-5.24-8.29,2.39-18.06,11.78-15.02,5.22,1.69,8.59,9.27,5.57,13.98Z"/>
            <path class="cls-1" d="m49.58,105.09c-.02.08.02.18,0,.26-2.61-.24-5.41-2.81-7.77-4.14.05-.08.26-.86.26-1.04l7.38,2.85c.67.45.3,1.16.13,2.07Z"/>
            <path class="cls-12" d="m35.33,109.24c-1.48-.96-2.16-1.61-3.11-3.11,1.01-.42,6.11-3.19,6.34-2.85l-3.24,5.96Z"/>
            <path class="cls-12" d="m38.44,110.79c-.82-.17-1.47-.74-1.55-.78-.17-.75,1.92-4.81,2.72-4.14-.22,2.98,1.78,4.76-1.17,4.92Z"/>
            <path class="cls-12" d="m44.65,110.01c-.61.27-1.13.64-1.81.78.17-1.8.64-3.54-.39-5.18,1.65.28,2.78,2.97,2.2,4.4Z"/>
            <path class="cls-10" d="m42.07,100.17c0,.18-.21.95-.26,1.04-1,1.78-2.98.06-2.07-1.17-2.03-.82,2.35-2.16,2.33.13Z"/>
          </g>
        </g>
      </g>
      <g>
        <path class="cls-15" d="m22.38,76.86c.03-1.3.25-3.23-1.68-2.59-.56.18-.21,2.37-.52,2.59-.41.29-7.04.18-9.97.52-1.43.17-1.32.48-1.55.52-.48.08-1.08-.08-1.55,0-.08.01-.18-.01-.26,0v-3.11l16.19-.78c.5.24.66,2.27-.65,2.85Z"/>
        <path class="cls-23" d="m6.84,75.05v2.85c-3.23.54-2.02-1.01-2.07,5.57.37.83,1.79.23,2.33.13.41-.08,1.6.17,1.81-.13l-.26-5.57c.23-.04.12-.35,1.55-.52.41.05.91-.07,1.29,0-2.1.64-.6,5.81-.78,6.99-.02.13-1.05,2.28-1.17,2.33-.41.18-1.79-.31-1.94.26-1.14.02-2.16-.06-3.37,0,.87-3.46-1.94-12.01,2.59-11.91Z"/>
        <path class="cls-26" d="m22.38,76.86c-.96.43-1.89.13-2.07.39-.26.38.2,7.93,0,9.19-.2.34-.25.24-.26.26-1.38.04-2.77-.06-4.14,0v-2.33c1.1-.22,1.92-1.12,2.07-2.2.69-5.02-3.51-4.23-6.47-4.79-.39-.07-.88.05-1.29,0,2.93-.34,9.56-.23,9.97-.52.31-.22-.04-2.41.52-2.59,1.94-.64,1.71,1.29,1.68,2.59Z"/>
        <path class="cls-15" d="m15.91,84.37v2.33c-2.79.12-5.5.2-8.29.26.16-.57,1.53-.08,1.94-.26.12-.05,1.15-2.2,1.17-2.33,1.48-.16,4.06.22,5.18,0Z"/>
        <g>
          <path class="cls-20" d="m6.84,77.9c.08-.01.18.01.26,0v5.7c-.54.1-1.96.7-2.33-.13.05-6.57-1.16-5.03,2.07-5.57Z"/>
          <path class="cls-10" d="m8.66,77.9l.26,5.57c-.21.3-1.4.05-1.81.13v-5.7c.47-.08,1.08.08,1.55,0Z"/>
        </g>
        <g>
          <path class="cls-20" d="m15.91,84.37c-1.12.22-3.7-.16-5.18,0,.18-1.18-1.33-6.35.78-6.99,2.97.56,7.16-.23,6.47,4.79-.15,1.08-.98,1.98-2.07,2.2Z"/>
          <path class="cls-1" d="m13.45,79.19c3.95-1.07,3.99,5.18.26,4.4-1.83-.38-2.03-3.92-.26-4.4Z"/>
        </g>
      </g>
      <g>
        <path class="cls-18" d="m60.71,102.76s.47.09.52-.13c.46-2.1.3-5.21,0-7.38h69.41c-.18,2.35.13,4.77,0,7.12.19.26,2.58.11,3.11.13.69.03,5.02.09,5.18-.13.59-24.57,35.22-16.22,24.6,6.34-.94,1.53-1.4,3.02-3.11,3.63-8.7,3.08-9.93,1.49-16.57,0,.6.14-2.15-2.38-3.11-4.01-1.01-1.73-1.35-3.77-2.2-5.57H61.62"/>
        <path class="cls-12" d="m152.39,111.05c-3.36,0-6.14-1.75-8.03-4.4,1.16-.95,3.98-3.4,5.05-3.88,4.95-2.24-2.42,4.01.26,3.88.41-.02,2.17-3.75,2.72-2.72-.72,2.41-.14,4.7,0,7.12Z"/>
        <g>
          <path class="cls-12" d="m160.68,106.39c-1.79-1-3.82-4.77-6.22-4.01,2.36,1.31,3.68,3.12,4.66,5.57-2.11,2-3.66,3.11-6.73,3.11-.14-2.42-.72-4.72,0-7.12-.54-1.03-2.31,2.7-2.72,2.72-2.68.13,4.69-6.12-.26-3.88-1.07.49-3.89,2.94-5.05,3.88-4.95-6.95-.34-15.44,6.09-16.32,9.15-1.25,15.41,8.31,10.23,16.06Z"/>
          <path class="cls-12" d="m160.68,106.39c-.45.68-.99,1.02-1.55,1.55-.98-2.44-2.3-4.26-4.66-5.57,2.4-.75,4.43,3.02,6.22,4.01Z"/>
          <path class="cls-10" d="m152,98.62c1.59-.7,3.67,2.46,1.29,3.11-2.41.66-2.79-2.45-1.29-3.11Z"/>
        </g>
      </g>
      <g>
        <path class="cls-26" d="m189.68,85.15c-.15,1.45.21,5.84,0,6.34-.11.27-.62.05-.78.13-8.71-1.17-7.83,3.37-15.54,4.14-.24-3.55-1.06-7.51-2.85-10.62,6.39.08,12.78-.11,19.16,0Z"/>
        <path class="cls-5" d="m184.37,87.48c1.12-.5,5.37-.27,4.27,2.2-.25.57-4.08.48-4.27.39-.59-.26-.59-2.33,0-2.59Z"/>
      </g>
      <g>
        <path class="cls-28" d="m82.21,15.48c-.47,7.53-8.5,5.06-13.6,5.44-1.45-1.04-1.87-2.36-2.46-3.88-.03-.07.03-.18,0-.26,4.07,4.5,5.51,2.43,11.52,2.85,2.42-1.85,3.87-3.24,4.27-6.22.35-.05.32,1.1.26,2.07Z"/>
        <g>
          <path class="cls-22" d="m83.24,9.01c-.49.08-.93-.19-1.29.39-.12,1.25.16,2.84,0,4.01-.4,2.97-1.85,4.36-4.27,6.22-6.01-.42-7.46,1.66-11.52-2.85-1.3-3.79-2.13-7.96,1.68-10.62,2.22.23,14.33-.3,15.02,0,.74.33.25,2.26.39,2.85Z"/>
          <path class="cls-7" d="m80.91,9.79h-13.47c.05-.1-.02-1.11.91-2.07h12.43c.27.19.1,1.65.13,2.07Z"/>
          <g>
            <path class="cls-7" d="m80.91,9.79c.77,9.6-3.44,9.08-11.52,8.81-1.98-1.58-3.3-4.68-2.98-7.12.16-1.2.92-1.46,1.04-1.68h13.47Z"/>
            <path class="cls-27" d="m75.86,10.31c.11-.02,2.15.29,2.2.39,1.64,3.54-3.13,5-3.88,2.33-.47-1.67,1.18-2.61,1.68-2.72Z"/>
          </g>
        </g>
      </g>
    </g>
  </g>
</svg>