<?xml version="1.0" encoding="UTF-8"?>
<svg id="bird" data-name="bird" xmlns="http://www.w3.org/2000/svg" viewBox="0 0 232.25 228.32">
  <defs>
    <style>
      .cls-1 {
        fill: #fcfbe3;
      }

      .cls-1, .cls-2, .cls-3, .cls-4, .cls-5, .cls-6, .cls-7, .cls-8, .cls-9, .cls-10, .cls-11, .cls-12, .cls-13, .cls-14, .cls-15, .cls-16, .cls-17, .cls-18, .cls-19, .cls-20, .cls-21, .cls-22, .cls-23, .cls-24, .cls-25, .cls-26, .cls-27, .cls-28, .cls-29, .cls-30, .cls-31, .cls-32, .cls-33, .cls-34, .cls-35, .cls-36, .cls-37, .cls-38, .cls-39, .cls-40, .cls-41, .cls-42, .cls-43, .cls-44, .cls-45, .cls-46, .cls-47, .cls-48, .cls-49, .cls-50, .cls-51, .cls-52, .cls-53, .cls-54, .cls-55, .cls-56, .cls-57, .cls-58, .cls-59, .cls-60, .cls-61, .cls-62, .cls-63, .cls-64, .cls-65, .cls-66, .cls-67, .cls-68, .cls-69, .cls-70, .cls-71, .cls-72 {
        stroke-width: 0px;
      }

      .cls-2 {
        fill: #b88413;
      }

      .cls-3 {
        fill: #e6f3ef;
      }

      .cls-4 {
        fill: #796405;
      }

      .cls-5 {
        fill: #5e645d;
      }

      .cls-6 {
        fill: #734b07;
      }

      .cls-7 {
        fill: #742f0d;
      }

      .cls-8 {
        fill: #e5907d;
      }

      .cls-9 {
        fill: #f8ea56;
      }

      .cls-10 {
        fill: #303532;
      }

      .cls-11 {
        fill: #127e8a;
      }

      .cls-12 {
        fill: #d08c31;
      }

      .cls-13 {
        fill: #35423f;
      }

      .cls-14 {
        fill: #13444f;
      }

      .cls-15 {
        fill: #f4c20d;
      }

      .cls-16 {
        fill: #74afb3;
      }

      .cls-17 {
        fill: #5cc3c3;
      }

      .cls-18 {
        fill: #f5d62c;
      }

      .cls-19 {
        fill: #4db8cd;
      }

      .cls-20 {
        fill: #a16316;
      }

      .cls-21 {
        fill: #572e09;
      }

      .cls-22 {
        fill: #0c0d0a;
      }

      .cls-23 {
        fill: #1e992d;
      }

      .cls-24 {
        fill: #2a1708;
      }

      .cls-25 {
        fill: #ee6b44;
      }

      .cls-26 {
        fill: #398b9c;
      }

      .cls-27 {
        fill: #391e01;
      }

      .cls-28 {
        fill: #f5f5f5;
      }

      .cls-29 {
        fill: #6b706c;
      }

      .cls-30 {
        fill: #c8c9ca;
      }

      .cls-31 {
        fill: #83898d;
      }

      .cls-32 {
        fill: #578985;
      }

      .cls-33 {
        fill: #f0e69d;
      }

      .cls-34 {
        fill: #733d0b;
      }

      .cls-35 {
        fill: #b6e5d3;
      }

      .cls-36 {
        fill: #acadac;
      }

      .cls-37 {
        fill: #ced5d0;
      }

      .cls-38 {
        fill: #824d1b;
      }

      .cls-39 {
        fill: #fe945f;
      }

      .cls-40 {
        fill: #085c6f;
      }

      .cls-41 {
        fill: #10383a;
      }

      .cls-42 {
        fill: #357381;
      }

      .cls-43 {
        fill: #8d6a22;
      }

      .cls-44 {
        fill: #39b0b8;
      }

      .cls-45 {
        fill: #e09e21;
      }

      .cls-46 {
        fill: #41373b;
      }

      .cls-47 {
        fill: #37565c;
      }

      .cls-48 {
        fill: #044c4f;
      }

      .cls-49 {
        fill: #2a0f07;
      }

      .cls-50 {
        fill: #88580d;
      }

      .cls-51 {
        fill: #ae7519;
      }

      .cls-52 {
        fill: #095e65;
      }

      .cls-53 {
        fill: #76827a;
      }

      .cls-54 {
        fill: #c59644;
      }

      .cls-55 {
        fill: #339695;
      }

      .cls-56 {
        fill: #0d1a15;
      }

      .cls-57 {
        fill: #431b09;
      }

      .cls-58 {
        fill: #9ac2cb;
      }

      .cls-59 {
        fill: #91c2c1;
      }

      .cls-60 {
        fill: #c1e8ee;
      }

      .cls-61 {
        fill: #f9fdca;
      }

      .cls-62 {
        fill: #0f6f78;
      }

      .cls-63 {
        fill: #caecbf;
      }

      .cls-64 {
        fill: #2d6763;
      }

      .cls-65 {
        fill: #1d0c07;
      }

      .cls-66 {
        fill: #d3ece5;
      }

      .cls-67 {
        fill: #495451;
      }

      .cls-68 {
        fill: #9bded8;
      }

      .cls-69 {
        fill: #3b0f04;
      }

      .cls-70 {
        fill: #082324;
      }

      .cls-71 {
        fill: #239aa7;
      }

      .cls-72 {
        fill: #594001;
      }
    </style>

    <script>
    const images = document.querySelectorAll('#bird');

    function logId() {
    console.log('You clicked on', this.id);
    }

    images.forEach(image => image.addEventListener('click', logId));
    </script>

  </defs>
  <g id="Layer_1-2" data-name="Layer 1">
    <g>
      <path class="cls-22" d="m136.45,5.46c1.91.98,12.22,7.12,12.96,7.16v.34c-1.81.51-4.93.49-6.82.34-3.97-.3-7.98-.78-11.94-1.02.73-.73,1.71-.23.34-1.02-.73-.42-10.49-3.33-6.65-4.78.81-.3,1.65.3,1.88.34,4.11.68,10.6,4.63,13.13,5.12,7.07,1.37-.23-1.81-2.22-3.07-1.1-.69-8.45-5.68-8.53-6.31-.23-1.95,4.56,1.2,7.85,2.9Z"/>
      <path class="cls-22" d="m130.99,11.26c1.37.79.39.29-.34,1.02-.74-.04-12.93-1.36-9.38,1.36,1.21.93,15.29,2.2,18.25,3.41-.77.36-1.79.77-2.39,1.36-.11-.02-.23.02-.34,0-1.95-.31-3.21.06-5.12,0-1.54-2.57-14.39-2.01-13.3-5.97.73-2.66,10.04.02,12.62-1.19Z"/>
      <path class="cls-58" d="m137.13,8.87c1.99,1.26,9.29,4.44,2.22,3.07-2.54-.49-9.02-4.43-13.13-5.12,4-.89,7.45.32,10.92,2.05Z"/>
      <path class="cls-70" d="m124.51,18.42c-.52,1.39,1.83,1.11,4.09,1.36.16.9-.43.48-1.36,1.02-3.19.12-7.17-1.11-10.23-.34-.31.08-.64.52-1.71.34-3.79-2.9,7.07-2.31,9.21-2.39Z"/>
      <path class="cls-52" d="m136.79,18.42c-.54.67-1.09,1.45-1.71,2.05-2.13-.44-4.3-.44-6.48-.68-2.26-.25-4.62.02-4.09-1.36,2.36-.09,4.81-.07,7.16,0,1.9.06,3.16-.31,5.12,0Z"/>
      <path class="cls-62" d="m146.68,121.78c-1.22-.21-1.3.63-1.36.68l-2.22-4.78c-.4-.04-3.58,5.93-4.26,6.82-1,1.31-4.5,5.18-5.8,6.48-1.17,1.17-2.46,2.38-3.75,3.41-.44.35-.9.7-1.36,1.02-.03-2.32-5.41,3.18-6.14,1.88,1.05-1.72,5.96-2.7,5.8-4.95-.02-.34-.33-1.3-.51-1.36-1.66-.59-17.12,8.83-19.27,10.92-.11-.02-.23.03-.34,0-.9-1.38-.52-1.45-.34-2.39,1.3-.58,11.14-12.11,6.65-11.26-.61.12-9.57,9.34-7.33,8.53-3.62,2.62-13.4,11.71-14.67,2.39,2.26-1.57,4.28-3.79,6.48-5.46,2.22-1.68,5.31-4.48,7.33-5.8.03-.02.32.46.51.34,1.07,3.12,5.81-1.52,6.14-1.71,2.7-1.47,4.31-2.54,6.82-4.09,4.11-2.54,7.97-5.1,11.94-7.85,2.14-1.48,3.94-4.04,4.09-.85.04.85-2.02,4.44-1.54,4.61,4.99-6.75,2.76-2.6,3.41-2.39.86.27,2.06-4.7,2.22-5.46l4.26,4.09c1.03-.19.62-4.39,2.22-6.82.03-.05-.07-.38.34-.34,1.6,5.22,1.67,8.98.68,14.33Z"/>
      <path class="cls-18" d="m158.96,64.81c-.1.73.03,1.62,0,2.39-2.29,1.84-.31,10.52.68,13.47.53,1.59,5.23,11.45,7.16,10.06.02.02.38-.07.34.34,1.24,2.04,10.47,5.18,12.28,4.43.76-.31.6-1.17,1.88-1.71.99.59-4,7.24-4.78,6.82-1.45-.79,4.16-3.13-5.8.68,2.59-4.07-.51-.44-3.41,0-2.25.34-5.06-.06-7.33-.34-.76-.09-1.3-.17-2.05-.34,5.04-.53,13.12,1.25,4.43-2.05,0-.6.97-.17,1.02-.51.11-.76-10.84-7.24-10.57-10.92.02-.33,1.39-1.39,1.02-2.39-.32-.88-7.07-3.35-7.85-5.12-1.45-3.29,1.28-8.16,0-9.89-7.04-3.87-14.12,2.45-13.3-3.92.11-.03.23.03.34,0,1.58-.38,3.53-.92,5.12-1.02,14.17-.96,17.41,5.8,20.81,0Z"/>
      <path class="cls-18" d="m132.7,65.83c-.82,6.37,6.27.05,13.3,3.92,1.28,1.73-1.45,6.61,0,9.89.78,1.76,7.53,4.24,7.85,5.12.36,1-1,2.05-1.02,2.39-.27,3.68,10.68,10.15,10.57,10.92-.05.35-1.03-.09-1.02.51-4.48-1.7-7.86-2.52-12.62-4.78-2.84-1.35-9.12-4.04-10.57-6.82,2.93-.88,2.21.4-.34-2.73-.4-2.32-1.05-.96-.85,2.39-3.45-3.76-4.1.78-8.02-4.61-.17-.23.33-1.07-.34-1.88-.66-.78-4.39,3.15-2.39-2.22-3.16,4.02-2.74-6.24-2.05-8.7,0-.02.16.14.34-.34,2.56-1.27,4.31-2.31,7.16-3.07Z"/>
      <path class="cls-11" d="m128.26,64.13c-1.36,1.46-2.44,3.04-3.41,4.78-2.69,4.78-3.36,6.4-1.02,11.94-1.04-1.31-1.49-2.09-1.88-3.75-10.86-.46-12.93,1.31-13.3-10.92-3.15,6.73-1.1,13.59-6.31,11.94,1.09-4.09,4.97-8.95-1.02-3.24l1.71-5.29c2.5-3.31,1.97-8.67,3.07-12.79.38-1.43,4.96-13.17,5.63-13.47.19-.09,1.04-.06,1.19.17.64.95.3,20.15,8.53,18.76-7.89,12.49-3.26,7.29,2.9,3.58,1.01-.6,2.47-.91,3.92-1.71Z"/>
      <path class="cls-18" d="m172.95,105.06c2.37,2.48,3.68,4.97,4.78,8.19-.26-.01-.67-.06-.68.17-.36,8.96-11.49,16.96-18.25,8.02-1.69,2.93-6.86,8.37-5.63,11.6-1.32,2.76-3.01-.66-3.24-.68-.2-.02-.27.76-1.19.68.56-.82.63-1.63.68-1.71,4.7-7.05,9.96-13.95,8.19-23.03,7.43,3.31,17.17.44,7.16-3.41l.17-.85c7.88-1.33-.52-.47-2.22-2.05,3.63.49,7.08.99,10.75.34-5.69,2.02-10.57,2.74-.51,2.73Z"/>
      <path class="cls-18" d="m177.73,113.25c.8,2.36,3.55,15.89,2.05,17.23-.37.33-2.98-1.83-1.02,4.61-3.85.66-3.53.43-6.48-1.36-.04-.02-.31-.9-.68-.51-.15,1.01.35.81.34.85-.12.71.32,1.51-.51,2.05-4.45.34-4.05-.6-4.26-.68-.09-.04-.75-1.59-.68.34-2.34,1.17-3.36-1.7-3.58-1.71-.92-.03.58,3.52-3.07-.34.89,2.54-5.68,1.86-6.65-.68-1.23-3.23,3.93-8.67,5.63-11.6,6.76,8.95,17.89.95,18.25-8.02,0-.23.43-.18.68-.17Z"/>
      <path class="cls-15" d="m149.75,98.24c0-.23.02-.46,0-.68,1.86,1.08,4.47,2.4,6.48,3.07,1.21.4,2.5.76,3.75,1.02.91.19,1.82.22,2.73.34,1.69,1.58,10.1.71,2.22,2.05l-.17.85c10.01,3.85.26,6.72-7.16,3.41,1.77,9.07-3.49,15.98-8.19,23.03-1.27-4.11-.31-6.27-.68-9.89,1.39-10.48-.43-19.7-8.53-26.95.79.67,2.52,1.23,4.43,3.58,1.04,1.28,4.44,7.84,4.95,8.02,4.46,1.54,3.16-5.36.17-7.85Z"/>
      <path class="cls-44" d="m130.99,92.78c1.68.32,2.87.62,4.43,1.36.75,2.18,3.07,2.99,4.43,4.61,1.34,1.63.94,2.45,1.02,2.56-1.75-.67-1.92,2.24-2.05,2.39-3.48,3.97-1.98-1.53-4.61-2.73-3.04,7.52-5.68,4.84-6.48,5.12-1,2.05-1.89,2.99-3.58,4.43,1.99-8.89-5.37-8.38-4.43-12.96,2.68-.25,5.45-1.53,3.24-2.73-2.08-1.12-9.43.64-9.72-1.02,5.76-1.65,11.84-2.14,17.74-1.02Z"/>
      <path class="cls-21" d="m94.83,186.59c3.45-.95,7.94-2.25,9.55-5.8,2,.08,2.27.33,2.39.34.05.58-.79,1.42-1.36,2.05-.36.39-.66.66-1.02,1.02-.99.99-6.41,6.22-7.33,6.14l-.51-.51,2.05-2.73c-5.66-.37-4.68,5.18-13.47,2.9-1.96-.51-8.44-3.87-11.43-5.12,1.32-2.62,9.16-4.47,12.62-7.5,1.41.39,11.04,1.79,11.26,2.56l-6.48,8.19.51.51c1.07-.68,2.23-1.26,3.24-2.05Z"/>
      <path class="cls-52" d="m123.83,80.84c3.15,3.99,6.68,7.8,10.57,11.09-.08.39-2.64-.94-7.85-1.19-.71-2.38-10.68-4.97-11.09-5.46-.24-.29,1.55-3.61-5.29-3.07-.61-.23-.94-.51-1.71-.68l7.33-2.05c1.42-1.46-12.28-1.62-13.13-.34-.03-.08-1.43.08-.34-1.02,5.21,1.65,3.16-5.21,6.31-11.94.38,12.23,2.44,10.45,13.3,10.92.38,1.66.84,2.44,1.88,3.75Z"/>
      <path class="cls-48" d="m146.68,121.78c-1.88,10.19-11.44,21.63-21.83,23.54-1.2.22-1.79.36-3.07.34,1.11-1.22,4.62-1.08,4.78-2.73,2.8,1.44,5.64-3.91,5.29-4.09-.77.16-1.42.3-2.22.34.49-2.64,4.58-6.07,3.41-8.19,1.3-1.3,4.8-5.18,5.8-6.48,2.2.5,4.66-.6,6.48-2.05.06-.05.14-.89,1.36-.68Z"/>
      <path class="cls-13" d="m89.38,166.12c-5.01,1.99-10.2,3.87-15.35,5.46-1.49-1.98.51-2.38-.34-4.78,4.69-1.46,11.63-3.14,8.87-4.43,2.66-.9,7.06-2.61,8.87-4.43,5.15-1.13,9.83-3.7,15.01-4.78,1.7,1.6-7.89,5.62-11.77,8.19-1.35.89-4.88,3.48-5.29,4.78Z"/>
      <path class="cls-45" d="m178.75,135.08c-1.96-6.44.66-4.28,1.02-4.61,1.5-1.33-1.24-14.86-2.05-17.23-1.09-3.21-2.41-5.71-4.78-8.19.88,0,2.39-.9,3.58-.68,6.41,7.78,9.48,18.09,8.36,28.14-.3.89-5.07,2.37-6.14,2.56Z"/>
      <path class="cls-5" d="m73.69,166.8c.85,2.4-1.15,2.8.34,4.78-11.67,3.6-23.93,6.67-36.16,6.48,4.42-.61,15.53-5.26,21.49-7.16,4.74-1.51,9.6-2.62,14.33-4.09Z"/>
      <path class="cls-24" d="m86.31,177.38c-3.47,3.04-11.3,4.88-12.62,7.5-3.08-1.28-8.06-.27-9.38-6.48,4.35-.93,8.77-2.26,12.62-4.43,1.15-.11,7.5,2.89,9.38,3.41Z"/>
      <path class="cls-28" d="m58.68,156.23c-5.35,3.16-14.44,4.65-4.61,4.43.14-.79,1.6-.85,2.56-1.02l.34.34c-1.42.28-4.18.88-.85,1.36,4.14.6,9.91-3.37,9.72.34-2.22.88-4.58,2.35-6.82,3.07-2.92.93-15.69,4.77-15.01-.85.2-1.65,3.31-2.99,2.73-3.75-.24-.31-1.03,0-1.71-.51,2.8-.56,5.61-1.48,7.85-3.41,2.03-.06,3.63.22,5.8,0Z"/>
      <path class="cls-41" d="m125.19,146.34c.02.72-7.68,4.33-9.04,4.09-6.84,8.08-17.16,11.87-26.78,15.69.41-1.3,3.94-3.88,5.29-4.78,3.88-2.57,13.47-6.58,11.77-8.19,6.82-2.07,11.35-5.58,18.76-6.82Z"/>
      <path class="cls-21" d="m134.75,181.81c-.04.33.07.71,0,1.02-5.78,2.48-15.68,14.33-6.48,2.22l-.51-.51c-3.19.71-13.05,12.48-13.99,12.62-.66.1-.39-1.07-4.26-1.02,1.61-.96,3.52-1.36,5.12-2.39,4.49-2.91,4.36-6.95,5.8-11.6,4.73.12,9.59-.13,14.33-.34Z"/>
      <path class="cls-37" d="m64.13,163.39c.05.49,1.3.62,1.36.85.02.09-1.08,1.09-1.02,1.54-4.05,1.16-21.53,7.34-24.05,6.82-4.46-.92,3.35-5.86-3.58-5.97,7.48-4.52,3.68.17,7.68,1.54,3.34,1.14,11.29-1.85,14.84-3.07,1.58-.54,3.22-1.1,4.78-1.71Z"/>
      <path class="cls-41" d="m124.85,90.74c-.6,2.15,4.82.04,6.14,2.05-5.9-1.11-11.98-.63-17.74,1.02-1.46.42-3.05,1.07-4.43,1.71-2.37,1.09-3.54,2.27-5.46,3.75-2,1.55-4.09,3.26-5.8,5.12,1.18-3.31,5.05-6.22,7.85-8.36-.43-.7-9.84.81-11.26,1.19-4.27,1.15-8.41,3.41-10.23,7.5-.91-.19-4.71,1.74-5.12,2.05.06-.22.22-.51.34-.68,1.1-1.57,10.03-8.03,11.94-8.87,2.54-1.11,24.01-5.7,27.63-6.14,2.13-.26,4-.37,6.14-.34Z"/>
      <path class="cls-45" d="m138.84,84.26c.02.14-.76.62.34,2.73,1.46,2.78,7.74,5.48,10.57,6.82-.78,1.9-.06,2.92,0,3.75.02.23,0,.46,0,.68-1.24-1.03-1.01-1.24-2.9-.68-.82-1.02-1.84-1.67-2.9-2.39-2.13-1.45-15.09-10.67-15.35-12.11-.09-.51,1-2.14,1.02-2.9.68.81.18,1.65.34,1.88,3.91,5.38,4.56.84,8.02,4.61-.19-3.35.46-4.71.85-2.39Z"/>
      <path class="cls-38" d="m120.42,182.15c-1.44,4.65-1.3,8.69-5.8,11.6.58-2.15-.53-4.25-2.73-4.95-.19-.29.45-.28,0-1.19,3.57,2.16,3.39-1.64,1.19-2.73-.97-.48-2.02.07-2.22,0-.04-.01.13-.59-.17-.68-1.68-.52-3.56-.68-5.29-1.02.58-.63,1.41-1.47,1.36-2.05,4.51.29,9.14.91,13.64,1.02Z"/>
      <path class="cls-57" d="m153.17,179.77c-1.34,2.25-3.9,3.2-5.8,4.78l.17-1.02-7.85,4.43,4.78-4.78c-6.1,3.06-19.41,11.56-6.31,1.88l-7.33,2.9c.69-1.61,3.56-3.46,3.92-5.12.07-.31-.04-.7,0-1.02,7.73-.34,10.78-.63,18.42-2.05Z"/>
      <path class="cls-60" d="m182.5,32.06c.15,3.68-3.15,4.87-6.48,3.75-.04-1.15,2.18-.39,2.39-.85-3.47-.8-3.5-4.48-3.41-7.33,4.02,3.04,7.08,5.99,6.14,3.24-.48-1.39-9.02-10.31-10.75-11.77-7.87-6.65-11.82-6.81-12.45-7.16l1.02-1.02c13.42,8.04,13.96,6.83,23.54,21.15Z"/>
      <path class="cls-71" d="m126.56,90.74c-.57-.03-1.14,0-1.71,0-2.14-.03-4.01.08-6.14.34l-9.55-1.71v-2.05c2.01,0,6.28-.39,4.43-3.07-.76-1.11-2.23-1.61-3.41-2.05,6.84-.54,5.04,2.78,5.29,3.07.4.49,10.37,3.08,11.09,5.46Z"/>
      <path class="cls-45" d="m143.96,95.17c1.06.72,2.08,1.37,2.9,2.39,1.88-.56,1.66-.35,2.9.68,2.99,2.48,4.29,9.39-.17,7.85-.51-.18-3.9-6.74-4.95-8.02-1.92-2.35-3.64-2.91-4.43-3.58-.89-.76-5.28-3.85-5.63-4.43-1.37-2.32,7.35,5.09,9.38,5.12Z"/>
      <path class="cls-5" d="m79.83,158.96c-1.67,1.47-4.63,2.71-6.48,4.09-1.08.2-2.04.77-3.07,1.02.74-5.87-1.84-2.36-6.14-.68-1.55.61-3.2,1.16-4.78,1.71l-.34-.34c2.24-.72,4.6-2.19,6.82-3.07,3.98-1.58,8.09-2.88,11.94-4.78.59.09,3.53.16,3.75.51-.85.42-1.29,1.17-1.71,1.54Z"/>
      <path class="cls-29" d="m73.69,166.8c-4.73,1.47-9.59,2.58-14.33,4.09l-.68-.68c6.77-2.33,13.18-5.97,20.47-6.82,1.19-.19,2.28-.64,3.41-1.02,2.76,1.3-4.18,2.98-8.87,4.43Z"/>
      <path class="cls-10" d="m91.42,157.94c-1.81,1.83-6.21,3.54-8.87,4.43-1.13.38-2.22.83-3.41,1.02-.36-.99-4.56-.57-5.8-.34,1.85-1.38,4.81-2.62,6.48-4.09,3.9.34,7.8-.19,11.6-1.02Z"/>
      <path class="cls-3" d="m178.41,38.2c-.49-1.09-2.33-.85-2.39-2.39,3.33,1.12,6.63-.07,6.48-3.75.44.66,3.82,4.64,3.75,4.95-3.93,2.62-6.56,1.06-7.85,1.19Z"/>
      <path class="cls-36" d="m58.68,170.22l.68.68c-5.96,1.9-17.07,6.55-21.49,7.16-2.8.39-2.37-.12-.17-1.02,3.44-1.42,14.88-4.72,20.98-6.82Z"/>
      <path class="cls-38" d="m104.39,180.79c-1.61,3.55-6.1,4.85-9.55,5.8,1.59-1.23,4.08-4.49,5.63-6.14,1.36-.2,2.6.29,3.92.34Z"/>
      <path class="cls-51" d="m149.41,131.33c-.05.08-.12.89-.68,1.71-6.31-.55-1.16-2.84,0-11.6.37,3.62-.59,5.78.68,9.89Z"/>
      <path class="cls-56" d="m157.26,11.6c-1.53.13-3.28-.17-4.78,0-2.14-1.7-4.27-3.52-6.48-5.12l.68-1.36c3.4,2.45,6.93,4.44,10.57,6.48Z"/>
      <path class="cls-29" d="m70.27,164.08c-1.93.48-3.87,1.15-5.8,1.71-.05-.45,1.05-1.45,1.02-1.54-.06-.24-1.32-.37-1.36-.85,4.3-1.68,6.88-5.19,6.14.68Z"/>
      <path class="cls-37" d="m52.88,156.23c-2.23,1.93-5.04,2.85-7.85,3.41-.81-.61-1.4.18-.68-1.71l5.63-2.73-1.71,2.39c3.43-1.85,2.69-1.31,4.61-1.36Z"/>
      <path class="cls-38" d="m157.94,100.63c.75.17,1.29.25,2.05.34v.68c-1.25-.26-2.54-.62-3.75-1.02.35-.85,1.3-.09,1.71,0Z"/>
      <path class="cls-4" d="m172.27,133.72l-.34.34s-.49.16-.34-.85c.37-.39.65.49.68.51Z"/>
      <path class="cls-72" d="m167.15,135.42c-.26.05-.45.22-.68.34-.06-1.93.59-.38.68-.34Z"/>
      <path class="cls-44" d="m97.56,104.38c-4.34,4.72-2.25,2.48,4.43.68,2.26.56-9.74,5.61-13.13,6.48-1.16.81-.8,1.63-.85,1.71-1.07,1.44-3.42,6.15-4.43,6.82-.75.5-3.02.85-4.09,1.02-2.4.34-1.6-1.52-1.71-3.41,3.04-3.04,2.91-9.8-1.36-7.16-.81-.24,1.14-2.8,2.39-3.75.4-.31,4.2-2.24,5.12-2.05-6.02,13.55,10.15,5.34,3.75.51,4.92.87,12.16-3.59,6.48-8.02,1.42-.38,10.83-1.89,11.26-1.19-2.8,2.13-6.67,5.05-7.85,8.36Z"/>
      <path class="cls-52" d="m93.13,131.33c-3.83,3.85-6.97,5.12-10.57,8.53-4.23,1.1-2.99-1.57-4.78-2.73,1.5-1.56,4.42-7.06,5.8-9.38-.6-.94-1.78-.2-2.73.17-.08-1.63,1.58-2.88,1.71-3.07-.06.46,1.48.43,2.73.34-1.11.88,3.93,5.05,5.29,4.78.46-.25.38-.81.85-1.02,3.01-1.34,6.18-4.51,8.87-6.82.54-.47,1.11-.96,1.71-1.36-2.09,2.06-7.06,8.76-8.87,10.57Z"/>
      <path class="cls-3" d="m93.81,85.96c-3.96,1.89-7.61,4.04-11.26,6.48-4.4,2.94-9.84,6.49-12.28,11.26-1.56,1.52-.66.81-.68,1.71-7.6,8.22.44-4.08,5.12-9.38,3.57-4.04,9.59-9.94,15.01-10.75,1.82-.27,2.63-.87,4.09.68Z"/>
      <path class="cls-62" d="m84.26,94.83c-2.65.95-6.99,4.44-6.82,5.63.07.5.98.48,1.02.51.28.22.32.33.34.34-3.37,8.46-9.18,10.13-10.57,11.77-.68.79-2.36,5.14-2.9,5.29-4.16,1.18,1.9-7.08,3.58-10.57,1.89,3.51,4.82-5.75,9.55-10.23,1.45-1.37,3.26-2.33,5.12-3.07.04.06.73-.19.68.34Z"/>
      <path class="cls-71" d="m94.83,94.15c-2.3,1.34-4.65,2.35-3.75,3.07-1.91.84-10.84,7.3-11.94,8.87l-.68-.34c.1-.18,1.39-3.72,1.36-3.92-.12-.93-.84-.35-1.02-.51-.02-.02-.06-.12-.34-.34l7.5-6.48c.17.06.6,1.34,1.19,1.36.72.03,7.42-3.71,7.68-1.71Z"/>
      <path class="cls-28" d="m55.95,144.29c0,.57.01,1.14,0,1.71-.13,5.52,6.68,2.57.51,5.46l-.34,1.02,6.65-1.02c-.45,1.77-6.42.64-1.71,3.75-14.02,1.3-7.32-3.63-7.16-4.26.83-3.28-6.58-.77.51-8.02.51.47.9,1.03,1.54,1.36Z"/>
      <path class="cls-52" d="m127.58,132.35c-3.12,1.27-6.16,2.1-7.16,5.8-.55-.21-.63-1.31-.85-1.36-1.46-.35-2.36,7.1-11.77,5.12,2.15-2.09,17.62-11.51,19.27-10.92.19.07.49,1.03.51,1.36Z"/>
      <path class="cls-44" d="m77.78,137.13c-3.4,3.54-2.61.28,1.19-5.12-1.59,1.68-13.53,8.5-8.02,2.05.48-.56,8.95-5.77,9.89-6.14.95-.38,2.13-1.11,2.73-.17-1.38,2.32-4.3,7.82-5.8,9.38Z"/>
      <path class="cls-44" d="m98.25,133.72c-2.21,1.67-4.22,3.89-6.48,5.46-7.33,5.08-3.88-.28-.34-3.58l-.51-.51c-1.93,1.15-6.75,4.36-8.36,4.78,3.61-3.41,6.74-4.68,10.57-8.53,4.99-.38,2.6,1.01,3.07,1.88.23.43,1.03-1.53,2.05.51Z"/>
      <path class="cls-30" d="m73,155.21c-5.39,1.86-10.75,3.39-16.37,4.43-.96.18-2.42.23-2.56,1.02-9.84.21-.75-1.27,4.61-4.43,1.71-.18,3.43-.34,5.12-.68,1.88-.38,6.35-1.46,7.85-2.39l1.36,2.05Z"/>
      <path class="cls-44" d="m127.58,34.11c-2.55,4.09-9.48,4.76-10.75,5.46-.39.21.18.33.17.68-2.75.4-3.21.1-4.78,1.71,2.66-5.11,7.34-8.88,11.6-12.62-2.18,5.36-7.1,1.89.85,5.8.83.1,1.7-.77,2.9-1.02Z"/>
      <path class="cls-11" d="m128.61,33.77c-.45.13-.83.3-1.02.34-1.2.25-2.07,1.12-2.9,1.02-7.95-3.91-3.03-.44-.85-5.8.44-.38.94-.66,1.36-1.02,1.42.16,3.75-1.31,5.12-2.05.37,3.55-3.1,3.05,1.71,6.99-1.23.21-2.16.15-3.41.51Z"/>
      <path class="cls-5" d="m72.66,151.8c-.19.17-.93,1.31-1.02,1.36-1.5.93-5.96,2.01-7.85,2.39.19-1.18-.91-.51-2.73-.34-4.72-3.11,1.25-1.98,1.71-3.75.16-.58-.38-.74-.34-1.02.03-.22-.01-.46,0-.68l10.23,2.05Z"/>
      <path class="cls-37" d="m77.78,156.91c-3.85,1.89-7.96,3.2-11.94,4.78.19-3.71-5.58.26-9.72-.34-3.33-.48-.57-1.09.85-1.36,3.06-.6,6.3-.76,9.38-1.36,5.2-1.02,5.05-2.69,11.43-1.71Z"/>
      <path class="cls-66" d="m77.78,117.68c-1.46,1.46-4.71,2.97-6.48,1.19,2.48-.55,5.66-4.39,4.78-5.29-2.49-.1-.89-2.31.34-3.07,4.27-2.63,4.4,4.13,1.36,7.16Z"/>
      <path class="cls-70" d="m83.58,120.07l1.36,1.02c-1.09.91-1.65,2.6-2.39,3.75-.12.19-1.79,1.44-1.71,3.07-.94.37-9.42,5.58-9.89,6.14l-.34-1.02c.27-.06.41-.23.68-.34,3.55-1.46,8.17-6.51,9.55-10.23,1.08-.82-.36-.54-1.71-.85l.34-.51c1.07-.18,3.35-.53,4.09-1.02Z"/>
      <path class="cls-60" d="m104.05,81.19c.11,0,.23,0,.34,0-3.14,2.37-7.14,3.14-10.57,4.78-1.47-1.55-2.27-.95-4.09-.68-6.26-1.07,7.9-4.09,14.33-4.09Z"/>
      <path class="cls-71" d="m107.12,139.52c.3-1.61,1.58-3.32,1.02-3.41.67-1.6-.78.01-1.71.68-2.24.81,6.73-8.41,7.33-8.53,4.49-.85-5.35,10.68-6.65,11.26Z"/>
      <path class="cls-70" d="m108.48,81.53c-1.63-.37-2.49-.31-4.09-.34-.11,0-.23,0-.34,0-1.68-.69-1.19-1.6-1.36-2.05.85-1.28,14.55-1.12,13.13.34l-7.33,2.05Z"/>
      <path class="cls-44" d="m137.13,22.51c-2.35,1.06-4.56,2.54-6.82,3.75-1.37.73-3.69,2.21-5.12,2.05,3.12-2.67,7.4-5.46,9.89-7.85.62-.59,1.17-1.38,1.71-2.05.11.02.23-.02.34,0,.16.03-.88.77,2.73.85-1.31.54-3.42,2.02-2.73,3.24Z"/>
      <path class="cls-3" d="m79.14,106.09c-.12.18-.29.46-.34.68-1.25.95-3.2,3.51-2.39,3.75-1.24.76-2.83,2.97-.34,3.07-1.71,3.01-6.5,5.63-5.12.51.61-2.25,6.4-6.26,7.5-8.36l.68.34Z"/>
      <path class="cls-13" d="m74.37,149.07c2.3-.59-.48,1.66-1.71,2.73l-10.23-2.05c.06-1-.06-1.21.68-2.05,3.99,1.2,7.02,1.69,11.26,1.36Z"/>
      <path class="cls-71" d="m78.46,97.56c-4.73,4.48-7.66,13.74-9.55,10.23.25-.52,1.34-1.96,1.36-2.22.08-.93-.68-.06-.68-.17.02-.89-.88-.19.68-1.71,1.48-1.44,6.64-5.82,8.19-6.14Z"/>
      <path class="cls-48" d="m126.56,142.93c-.16,1.65-3.66,1.51-4.78,2.73-1.46-.02-2.06.48-2.39-.17,1.68-9.33,5.72-3.3,7.16-2.56Z"/>
      <g>
        <path class="cls-16" d="m69.93,117.34c.92,4.76,3.32,5.41,8.19,5.12-1.6,4.46-10.46,9.74-6.82,10.23-.27.11-.41.28-.68.34-1.97.46-1.87-.06-4.09-3.75-.16-4.09-.29-9.79,3.41-11.94Z"/>
        <path class="cls-44" d="m80.85,122.46c-1.39,3.72-6,8.77-9.55,10.23-3.63-.49,5.23-5.77,6.82-10.23.14,0,1.9-.95,2.73,0Z"/>
        <path class="cls-60" d="m69.93,117.34c-3.7,2.15-3.58,7.85-3.41,11.94-.07-.11-1.49-1.23-1.71-1.88-1.26-3.75,2.05-10.16,4.95-12.79.35.23-.14,1.15.17,2.73Z"/>
      </g>
      <path class="cls-52" d="m129.63,139.17c-5.49.31-2.59.08-.34-4.78,1.3-1.03,2.59-2.24,3.75-3.41,1.17,2.12-2.92,5.55-3.41,8.19Z"/>
      <path class="cls-55" d="m127.92,135.42c-2.4,1.7-4.25,3.95-7.5,2.73,1.01-3.7,4.04-4.53,7.16-5.8.16,2.24-4.75,3.23-5.8,4.95.73,1.31,6.11-4.2,6.14-1.88Z"/>
      <path class="cls-67" d="m63.11,147.7c-.74.84-.63,1.04-.68,2.05-.01.22.03.46,0,.68-2.73-.64-4.47-2.7-6.48-4.43.01-.57,0-1.14,0-1.71,2.37,1.23,4.58,2.63,7.16,3.41Z"/>
      <path class="cls-26" d="m127.24,20.81c-.05.03.14.54-.17.68-1.52.67-6.36,1.08-8.36,1.71-.34-1.27,1.02-1.44,1.02-1.54,0-.71-2.5-.3-2.73-1.19,3.07-.77,7.04.46,10.23.34Z"/>
      <g>
        <path class="cls-22" d="m135.09,20.47c-2.49,2.38-6.77,5.18-9.89,7.85-.43.37-.93.64-1.36,1.02-4.26,3.75-8.94,7.51-11.6,12.62-2.15,2.2-6.27,11.69-7.16,14.84-1.73,6.08-1.24,9.1-2.05,12.79l-1.71,5.29c5.99-5.71,2.11-.84,1.02,3.24-1.09,1.11.31.95.34,1.02.17.44-.32,1.36,1.36,2.05-6.43,0-20.59,3.02-14.33,4.09-5.42.8-11.44,6.7-15.01,10.75-4.68,5.3-12.71,17.6-5.12,9.38,0,.11.76-.76.68.17-.02.25-1.11,1.69-1.36,2.22-1.68,3.49-7.74,11.76-3.58,10.57.53-.15,2.22-4.49,2.9-5.29,1.39-1.63,7.21-3.31,10.57-11.77.18.16.9-.42,1.02.51.03.21-1.27,3.74-1.36,3.92-1.11,2.1-6.9,6.1-7.5,8.36-1.38,5.12,3.41,2.5,5.12-.51.89.9-2.3,4.73-4.78,5.29,1.77,1.78,5.02.26,6.48-1.19.11,1.89-.69,3.75,1.71,3.41l-.34.51c1.35.32,2.78.03,1.71.85-.83-.95-2.59,0-2.73,0-4.87.29-7.26-.36-8.19-5.12-.31-1.58.18-2.5-.17-2.73-2.9,2.63-6.21,9.05-4.95,12.79.22.64,1.64,1.77,1.71,1.88,2.22,3.7,2.13,4.21,4.09,3.75l.34,1.02c-5.51,6.45,6.43-.37,8.02-2.05-3.81,5.39-4.59,8.66-1.19,5.12,1.79,1.16.54,3.83,4.78,2.73,1.61-.42,6.43-3.63,8.36-4.78l.51.51c-3.54,3.31-6.98,8.67.34,3.58,1.27,9.32,11.04.23,14.67-2.39.93-.67,2.38-2.28,1.71-.68-1.02,1.27-3.86,4.25-2.22,5.8.68.65,1.46-.02,1.54,0,.11.03.23-.02.34,0,9.41,1.99,10.31-5.47,11.77-5.12.22.05.3,1.16.85,1.36,3.25,1.22,5.1-1.03,7.5-2.73.46-.33.92-.67,1.36-1.02-2.25,4.85-5.15,5.08.34,4.78.79-.04,1.45-.18,2.22-.34.35.18-2.48,5.53-5.29,4.09-1.44-.74-5.49-6.77-7.16,2.56.33.65.93.15,2.39.17,1.28.02,1.87-.12,3.07-.34.21.42.32.49.34,1.02-7.41,1.24-11.94,4.76-18.76,6.82-5.18,1.08-9.86,3.65-15.01,4.78-3.8.83-7.7,1.37-11.6,1.02.42-.37.86-1.12,1.71-1.54-.22-.35-3.16-.42-3.75-.51-6.38-.98-6.22.69-11.43,1.71-3.08.6-6.32.77-9.38,1.36l-.34-.34c5.62-1.04,10.98-2.58,16.37-4.43.3-2.37,2.32-4.32,3.75-6.31-2.69-1.38-2.24.16-2.39.17-4.23.33-7.27-.16-11.26-1.36-2.59-.78-4.8-2.18-7.16-3.41-.64-.33-1.03-.89-1.54-1.36-7.09,7.25.32,4.74-.51,8.02-.16.63-6.86,5.57,7.16,4.26,1.81-.17,2.92-.83,2.73.34-1.69.34-3.41.51-5.12.68-2.17.22-3.77-.06-5.8,0-1.92.05-1.17-.48-4.61,1.36l1.71-2.39-5.63,2.73c.83-2.18,5.04-1.9,3.07-3.41.74-.44.78-.51,1.36-1.02,6.25-5.54-3.65-2.72-2.39.68-1.79-.04-3.03-1.05-2.05-2.9.72-1.35,2.54-.71,3.75-2.39-.49-2.52,5.08-7.04,5.12-7.5.11-1.41-5.25,2.56-1.36-5.97,2.72-5.96,6.25-11.57,9.21-17.4.36-.71.68-1.32,1.02-2.05,3.41-7.31.67-2.72.68-5.63.02-3.98,11.05-17.29,14.5-20.3,4.22-3.68,9.52-5.23,5.12-5.46-.58-.48-.64-.55,0-1.02,1.8-1.36,13.65-3.59,16.89-4.26-.34-2.88,1.48-9.13-1.54-4.95-1.96-.22,2.3-5.16,2.56-5.97.83-2.56,1.4-12.9,7.16-23.71.32-.61,1.22-1.94,1.71-2.73.88-1.43,2.04-3.11,3.07-4.43.65-.84,1.94-2.19,2.73-3.07,1.11-1.23,2.22-2.28,3.41-3.41,1.51-1.44,3.17-2.76,4.78-4.09,1.4-1.15,3.16-1.92,4.26-3.41-5.98.75-13.5,1.16-8.7-.34,2-.63,6.84-1.04,8.36-1.71.31-.14.12-.65.17-.68.94-.55,1.53-.13,1.36-1.02,2.18.25,4.35.24,6.48.68Z"/>
        <g>
          <path class="cls-14" d="m48.78,153.5c-.75.02-1.69.7-2.39.68-1.27-3.4,8.64-6.23,2.39-.68Z"/>
          <path class="cls-41" d="m116.84,142.59c2.7.36-5.39,10.32-15.86,9.38,3.85-9.15,11.08-10.62,4.78-4.78l.51.51,10.57-5.12Z"/>
          <path class="cls-41" d="m81.53,156.23c3.95-1.57,7.4-3.16,10.92-5.46,3.83-2.5,6.63-5.73,10.4-8.19-1.25,9.74-19.13,16.45-21.32,13.64Z"/>
          <path class="cls-41" d="m95.18,146.68c-.54-.6-2.95,1.03-4.43,1.71-2.61-1.22-5.92,1.19-9.55.68,1.48-2.19,2.79-4.53,4.61-6.48.97-.24,6.01,2.38,7.5,2.73,2.38.55,5.17-1.19,1.88,1.36Z"/>
          <path class="cls-48" d="m90.74,148.38c-4.69,2.13-9.74,3.41-9.89,3.92-.77,2.64,8.47-1.99,9.55-2.56l.34,1.02c-3.35,1.57-5.75,2.9-9.55,3.41-6.41.85-3.17-.41,0-5.12,3.63.51,6.94-1.91,9.55-.68Z"/>
          <path class="cls-42" d="m61.06,128.26c-.42.66-1.84,3.47-2.05,4.09-4.42-.62,1.22-8.39,3.24-12.62,1.57-.04-2.24,7.72-1.19,8.53Z"/>
          <g>
            <path class="cls-16" d="m65.16,135.76c2.59,3.86,7.8,1.57,8.19,2.9-3.14,7.27-20.73,5.69-15.86-2.22.42-.17,1.89.57,3.92.34.91-.1,3.14-.36,3.75-1.02Z"/>
            <path class="cls-16" d="m65.16,135.76c-.61.66-2.84.92-3.75,1.02-.05-.34-.78-.89-1.02-1.02.1-2.38,1.54-4.47,2.73-6.48,2.14,2.68,3.33,2.69,3.41,2.9.07.18-1.23,3.44-1.36,3.58Z"/>
            <path class="cls-59" d="m63.11,129.28c-1.19,2.01-2.63,4.1-2.73,6.48-.17-.09-1.82-.41-2.05-1.19-.26-.89.45-1.51.68-2.22.2-.63,1.62-3.43,2.05-4.09.29-.46.37-1.03.85-1.36.14.01.88,2,1.19,2.39Z"/>
          </g>
          <path class="cls-62" d="m95.18,146.68c-1.38,1.07-3.23,2.26-4.78,3.07-1.09.57-10.32,5.2-9.55,2.56.15-.51,5.2-1.79,9.89-3.92,1.49-.68,3.9-2.3,4.43-1.71Z"/>
          <path class="cls-48" d="m79.14,141.56l-5.46,4.09c-2.93-.51,1.19-5.03,1.54-5.12.2-.05,3.34.82,3.92,1.02Z"/>
          <path class="cls-70" d="m92.45,150.77c-3.52,2.3-6.97,3.89-10.92,5.46-.11-.14-.42-1.46-.34-2.05,3.8-.51,6.2-1.84,9.55-3.41.65-.3,2.05-.97,1.71,0Z"/>
          <path class="cls-70" d="m73,155.21l-1.36-2.05c.09-.06.83-1.2,1.02-1.36,1.22-1.07,4.01-3.32,1.71-2.73.15-.01-.31-1.55,2.39-.17-1.43,1.99-3.46,3.94-3.75,6.31Z"/>
          <path class="cls-16" d="m73.69,145.66l5.46-4.09c.23.08,1.34.09,1.54.34-1.58,1.45-4.77,4.14-6.99,3.75Z"/>
          <path class="cls-40" d="m54.41,135.42c3.13-.33-.5,4.71-2.05,3.75-.53-.32,1.51-3.7,2.05-3.75Z"/>
          <path class="cls-60" d="m107.12,139.52c-.18.94-.56,1.01.34,2.39-.07-.02-.85.65-1.54,0-1.64-1.55,1.19-4.53,2.22-5.8.56.1-.72,1.8-1.02,3.41Z"/>
          <path class="cls-14" d="m62.6,146c1.5.34,6.2.85,6.48,1.02,2.69,1.68-5.22.47-6.48-1.02Z"/>
          <path class="cls-31" d="m54.41,133.72c.41,0,.61.03.51.51-.34,1.64-2.28-.54-.51-.51Z"/>
        </g>
      </g>
      <g>
        <path class="cls-57" d="m139.52,194.43c1.79.57,7.97,9.11,9.89,10.92-.05.03-.19.41-1.02.68-.35-1.3-8.67-11.9-9.21-9.72,3.47,4.02,5.36,10.45,8.19,11.43-4.4,2.38-4.61-1.46-7.16-4.09l-6.14-7.16c.09-.64.77-.54,1.02-1.02,1.41.13,3.03-1.47,4.43-1.02Z"/>
        <path class="cls-38" d="m148.39,206.03c.26.96.91.66-1.02,1.71-2.83-.98-4.72-7.41-8.19-11.43.54-2.18,8.86,8.42,9.21,9.72Z"/>
      </g>
      <path class="cls-44" d="m157.26,11.6c.32.18.53.26.68.34.63.35,4.58.51,12.45,7.16,1.72,1.46,10.27,10.38,10.75,11.77.94,2.75-2.12-.2-6.14-3.24-3.55-2.69-7.4-7.25-12.11-6.82-6.5.6-9.04,7.07-8.36-3.41,0-.04.29.03.68-.51-.79-1.16-1.95-1.54-3.07-2.22-.91-.55-1.73-1.29-2.73-1.71v-.34c.77-.52,2.21-.92,3.07-1.02,1.49-.17,3.24.13,4.78,0Z"/>
      <path class="cls-11" d="m130.65,12.28c3.96.24,7.97.72,11.94,1.02-.37,2.94.82,1.61,1.71,2.73-2.43-.28-2.98.2-4.78,1.02-2.96-1.22-17.04-2.48-18.25-3.41-3.55-2.72,8.64-1.41,9.38-1.36Z"/>
      <path class="cls-68" d="m144.3,16.03c3.89,4.91-4.32,5.19-7.16,6.48-.69-1.22,1.42-2.7,2.73-3.24-3.61-.08-2.57-.82-2.73-.85.6-.59,1.61-1.01,2.39-1.36,1.79-.82,2.35-1.3,4.78-1.02Z"/>
      <path class="cls-68" d="m128.61,33.77c-3.25,7.82-8.31,6-11.6,6.48,0-.36-.56-.47-.17-.68,1.27-.7,8.19-1.36,10.75-5.46.2-.04.57-.21,1.02-.34Z"/>
      <path class="cls-71" d="m138.84,103.7c1.22,2.47.85,4.3.34,6.82-.15.76-1.36,5.73-2.22,5.46-.65-.21,1.58-4.36-3.41,2.39-.48-.16,1.58-3.75,1.54-4.61-.15-3.19-1.95-.63-4.09.85-4.47-.8-8.72,2.36-13.47,1.36-.73,3.13-1.69-.77-5.46-1.36-.63-.1-11.03.22-11.6.34-3.64.81-7.85,4.53-11.77,5.12l-.17-.68c-1.14,1.34-1.9.3-3.58,1.71l-1.36-1.02c1.01-.68,3.36-5.38,4.43-6.82,12.51-5.94,7.04-1.08,7.16-.51.39,1.81,2.42-.94,2.56-.85.4.25-.23,1.4.85,1.71.34.1,6.51-1.88,5.8-3.07.03,0-.11-.66.17-.68,1.09-.09,11.4.76,11.94,1.02,1.53.75-1.11,7.19,7.68-.34,1.69-1.45,2.58-2.38,3.58-4.43.8-.27,3.44,2.4,6.48-5.12,2.63,1.2,1.13,6.7,4.61,2.73Z"/>
      <path class="cls-11" d="m119.05,122.46c-2.52,1.55-4.12,2.62-6.82,4.09-2.17-2.44-4.36.59-6.14,1.71-.19.12-.48-.36-.51-.34-2.02,1.32-5.11,4.12-7.33,5.8-1.02-2.04-1.81-.09-2.05-.51-.47-.86,1.92-2.25-3.07-1.88,1.81-1.82,6.78-8.52,8.87-10.57,2.51-2.47,9.25-7.16,12.62-3.92,1.74,1.68,1.33,5.36,4.43,5.63Z"/>
      <path class="cls-71" d="m130.99,114.61c-3.97,2.75-7.83,5.31-11.94,7.85-3.1-.27-2.69-3.95-4.43-5.63-3.37-3.24-10.12,1.46-12.62,3.92-.59.4-1.16.9-1.71,1.36-.95-1.25-1.92-.75-1.54-2.73-.7-.38-8.59,5.45-8.7,5.97-.41,2.05,4.33-1.86,4.61-1.88,2.93-.2-2.95,1.89-3.24,4.09l-4.09-2.73c.42-.18,2.07-1.83,2.05-2.22-.12-1.79-3.79.29-.68-2.56,3.92-.59,8.13-4.31,11.77-5.12.57-.13,10.97-.44,11.6-.34,3.76.6,4.73,4.5,5.46,1.36,4.75.99,9-2.16,13.47-1.36Z"/>
      <path class="cls-11" d="m140.89,101.31c1.64,2.11,3.98,3.68,4.78,6.48-1.6,2.43-1.18,6.63-2.22,6.82l-4.26-4.09c.51-2.52.88-4.35-.34-6.82.13-.15.3-3.06,2.05-2.39Z"/>
      <path class="cls-52" d="m145.32,122.46c-1.82,1.45-4.28,2.55-6.48,2.05.68-.89,3.86-6.86,4.26-6.82l2.22,4.78Z"/>
      <path class="cls-71" d="m112.23,126.55c-.33.18-5.07,4.83-6.14,1.71,1.78-1.12,3.97-4.14,6.14-1.71Z"/>
      <path class="cls-45" d="m162.38,98.58c8.69,3.29.6,1.52-4.43,2.05-.41-.09-1.36-.85-1.71,0-2.01-.67-4.62-1.99-6.48-3.07-.06-.84-.78-1.85,0-3.75,4.76,2.26,8.14,3.08,12.62,4.78Z"/>
      <g>
        <path class="cls-25" d="m159.31,63.45c-.1.47-.33,1.29-.34,1.36-3.4,5.8-6.64-.96-20.81,0-.09-2.45,2.71-.98,4.95-1.36,14.48-2.48-12.28-6.08-10.06,2.39-.11.03-.24-.03-.34,0-2.85.76-4.61,1.8-7.16,3.07.51-1.35,3.61-5,4.78-5.8,5.85-3.99,17.62-3.69,24.05-1.36,2.62.95,3.7,3.91,4.95,1.71Z"/>
        <path class="cls-46" d="m130.31,63.11c-1.17.8-4.26,4.45-4.78,5.8-.18.48-.33.32-.34.34l-.34-.34c.98-1.74,2.05-3.32,3.41-4.78.66-.36,1.2-1.04,2.05-1.02Z"/>
        <path class="cls-39" d="m138.16,64.81c-1.59.11-3.54.64-5.12,1.02-2.22-8.47,24.54-4.87,10.06-2.39-2.24.38-5.03-1.08-4.95,1.36Z"/>
      </g>
      <path class="cls-21" d="m139.18,86.98c-1.1-2.11-.32-2.59-.34-2.73,2.55,3.12,3.27,1.85.34,2.73Z"/>
      <g>
        <path class="cls-22" d="m176.02,162.88c-.79.59-4.81,9.92-12.11,15.52-.72.55-2.94.92-3.07,1.02-1.91,1.48-4.14,4.03-6.14,5.46-5.91,4.23-10.69,4.78-8.02,7.16-.11-.01-.23,0-.34,0-2.38-.13-6.94-.8-6.82,2.39-1.4-.45-3.02,1.16-4.43,1.02.11-.21.15-1.62,2.05-4.26-.7-.93-9.18,2.63-3.07,5.29l6.14,7.16-1.02-.34c-.19-.44-6.18-6.75-6.65-6.82-.49-.07-1.56,1.04-2.39.68-.8-.35-.27-1.86-1.02-2.05-.46-.11-8.08,5.79-3.07-1.02-2.42,1.44-6.56,1.28-7.5,1.71-2.18.99-.98,6.13-6.82,2.73-.51,6.63,1.28,5.28,3.92,8.7,3.16,4.09.59,6.1,10.4,5.63-.01-8.71,8.59-11.46,6.99-5.12-.1.14-2.37,1.89-.51,2.73,1.65.74,3.17-3.89,5.12-2.73.41.24-3.54,6.74,4.61,4.78,0,.23.08.62-.17.68-2.62.63-5.32,1.05-8.02,1.71-2.43.59-5.06,1.31-7.5,1.71,2.33-1.48-6.27-2.56-6.65-2.39-.08.04-.14.4-1.19,1.36-.81.13-.64-.34-.68-.34,1.15-3.52-6.84-12.13-9.55-12.96-1.4-4.58-5.05-3.09-3.41,1.02h-1.02c-1.21-3.74,1.3-5.05.85-5.46-1.28-1.18-3.93,1.81-5.46,2.05-4.78.75-5.06-.89.51-3.41,4.66.3,6.26-.3,9.55-.34,3.87-.04,3.61,1.12,4.26,1.02.93-.14,10.79-11.91,13.99-12.62l.51.51c-9.2,12.11.7.27,6.48-2.22-.36,1.66-3.24,3.51-3.92,5.12l7.33-2.9c-13.1,9.68.21,1.18,6.31-1.88l-4.78,4.78,7.85-4.43-.17,1.02c-1.09.91-2.07,2.25-3.41,2.9.42,1.14,9.48-4.82,10.4-5.63,4.63-4.05,2.42-2.71-1.19-2.05-7.64,1.41-10.69,1.71-18.42,2.05-4.74.21-9.59.46-14.33.34-4.5-.11-9.13-.74-13.64-1.02-.12,0-.39-.26-2.39-.34-1.32-.05-2.57-.54-3.92-.34-1.55,1.65-4.04,4.91-5.63,6.14-1.01.78-2.17,1.37-3.24,2.05l-.51-.51,6.48-8.19c-.21-.76-9.85-2.17-11.26-2.56-1.88-.52-8.23-3.52-9.38-3.41-3.85,2.17-8.27,3.51-12.62,4.43,1.33,6.21,6.3,5.2,9.38,6.48,2.99,1.24,9.47,4.61,11.43,5.12,8.79,2.28,7.81-3.27,13.47-2.9l-2.05,2.73.51.51c.92.08,6.34-5.15,7.33-6.14-.96,1.87-2.1,3.59-3.07,5.46-6.76,4.38-4.41,2.37-1.02,2.05,1.03-.1,2.04.17,3.07.17.04.32-4.16,3.84-4.78,4.26-1.33.91-2.47,2.4-4.26,2.05,3.28-7.6.02-1.58-1.71-2.05-.31-.09-3.11-4.64-2.22,1.88-7.27.24-9.15-11.34-8.02-3.92-7.13-5.67-15.25-12.06-8.36-3.58.08.88-.85.43-1.71.17-.06-.02-.25-.24-1.02-.68-4.12-2.34-6.47-7.74-6.99-7.85-7.54,4.51-7.29-1.25-9.55-.68-.55.14-.47.98-.51,1.02-4.2,3.8-17.33,29-20.64,29.68-3.61.74-3.68-2.55-2.73-5.12-.56-.27-2.45,2.36-2.9,2.73-9.61,8.04-12.94,1.69-5.97-6.82-3.41,1.81-6.56,4.17-10.06,5.8-1.87.87-4.84,2.6-6.82,2.73-3.66.25-3.86-.83-2.39-4.26-.13-.49-6.09-1.53,0-8.02.37-.39,7.32-5.61,8.53-6.48.08-.06.41-.12,1.71-1.02,6.07-4.24,19.1-11.02,19.44-12.11.27-.86-1.6-2.83-1.36-3.75.3-1.15,4.73-2.32,5.63-2.9,3.82-2.45-2.46.31-2.73.34-3.59.42-4.92-1.38-2.9-2.73,2.3,1.36,6.88-1.23,5.97-1.71-.87.03-1.42.1-2.22-.34-6.73-3.75,7.2-6.99,7.16-7.68-4.6-3.87,3.22-4.98,5.46-6.31,1.97,1.52-2.24,1.23-3.07,3.41-.71,1.88-.12,1.1.68,1.71.67.51,1.47.2,1.71.51.58.76-2.53,2.1-2.73,3.75-.68,5.63,12.09,1.79,15.01.85l.34.34c-3.54,1.22-11.5,4.21-14.84,3.07-3.99-1.36-.19-6.05-7.68-1.54,6.93.11-.88,5.05,3.58,5.97,2.52.52,20-5.66,24.05-6.82,1.93-.55,3.86-1.22,5.8-1.71,1.03-.26,1.99-.82,3.07-1.02,1.24-.23,5.44-.65,5.8.34-7.29.85-13.7,4.49-20.47,6.82-6.1,2.1-17.54,5.4-20.98,6.82-2.2.91-2.63,1.41.17,1.02,12.22.18,24.49-2.88,36.16-6.48,5.15-1.59,10.34-3.47,15.35-5.46,9.62-3.82,19.94-7.61,26.78-15.69,1.36.24,9.06-3.37,9.04-4.09-.02-.53-.13-.6-.34-1.02,10.39-1.9,19.95-13.35,21.83-23.54.99-5.35.92-9.11-.68-14.33-1.55-5.05-5.65-10.96-10.57-13.3-1.56-.74-2.75-1.05-4.43-1.36-1.32-2.01-6.74.1-6.14-2.05.57,0,1.14-.03,1.71,0,5.2.25,7.77,1.58,7.85,1.19-3.9-3.28-7.42-7.1-10.57-11.09-2.34-5.54-1.66-7.16,1.02-11.94l.34.34c-.69,2.45-1.11,12.72,2.05,8.7-2,5.37,1.73,1.43,2.39,2.22-.02.76-1.11,2.39-1.02,2.9.26,1.44,13.22,10.66,15.35,12.11-2.04-.03-10.75-7.44-9.38-5.12.35.59,4.74,3.68,5.63,4.43,8.09,7.25,9.91,16.46,8.53,26.95-1.16,8.75-6.31,11.05,0,11.6.92.08,1-.7,1.19-.68.23.02,1.92,3.45,3.24.68.97,2.54,7.55,3.22,6.65.68,3.65,3.86,2.15.31,3.07.34.22,0,1.24,2.87,3.58,1.71.24-.12.43-.29.68-.34.21.09-.18,1.02,4.26.68.83-.53.39-1.33.51-2.05l.34-.34c2.95,1.8,2.63,2.03,6.48,1.36,1.07-.18,5.84-1.67,6.14-2.56,1.12-10.05-1.95-20.36-8.36-28.14-1.19-.22-2.7.68-3.58.68-10.05.01-5.18-.71.51-2.73-3.66.65-7.11.15-10.75-.34-.91-.12-1.82-.15-2.73-.34v-.68c2.27.28,5.08.69,7.33.34,2.9-.44,6-4.07,3.41,0,9.96-3.82,4.35-1.48,5.8-.68.77.42,5.76-6.23,4.78-6.82-1.28.54-1.12,1.39-1.88,1.71l-12.28-4.43c.04-.42-.33-.32-.34-.34-4.73-5.69-8.1-16.25-7.85-23.54.03-.77-.1-1.65,0-2.39,0-.07.25-.9.34-1.36.98-4.79,4.25-9.13,8.53-11.43,1.73-5.97,3.28-13.07,10.57-13.82,1.28-.13,3.91,1.43,7.85-1.19.07-.3-3.31-4.29-3.75-4.95-9.58-14.32-10.11-13.11-23.54-21.15-2.84-1.7-13.85-8.77-15.86-9.21-2.08-.46.87,1.46,3.58,3.41l-.68,1.36c-.08-.06-.25.09-1.71-1.02-3.46-2.65-7.03-3.82-3.58-5.46,9.14,4.93,23.21,9.36,31.21,15.69.77.61,2.54,2.66,3.41,3.41,1.37,1.19,3.15,3.92,4.43,4.78q4.26,6.65,8.53,13.3v.68c-3.8.22-4.54,1.6-4.78,1.71-1.14.52-.97.66-1.02.68-1.86.88-4.48,1.45-6.14,2.73-1.49,1.15-2.26,1.7,0,2.39-.03,0,.12.64-.17.68-5.99.91-5.47-.81-1.36-4.43,7.97-2.23,3.72-3.1.34-1.71-3.19,1.32-9.54,13.39-2.9,10.57-6.38,4.08-16.21,7.31-10.92,24.22.67,2.14,1.24,4.27,3.07,5.8,2.97,10.78,10.45,9.96,18.08,12.28,3.34,1.02.08,1.03,0,4.78-2.2,3.98-1.58,4.38-1.71,4.61-.52.97-2.06.96-2.05,1.71.03,2.27,13.51,9.26,6.48,43.32-2.04,1.18-1.83,4.88-3.07,7.85"/>
        <g>
          <path class="cls-42" d="m31.05,170.56c1.1-.74,3.58-.31,3.75-2.05.8.45,1.35.37,2.22.34.91.47-3.67,3.07-5.97,1.71Z"/>
          <path class="cls-45" d="m146.68,147.7s-.14.16.34.34c.51.19,1.9,1.11,2.39.34,3.53,1.35,4.93.96,8.53,1.02,1.78,1.31,7.71,1.73,10.57,1.02.31.06,2.11.32,2.39.34.86.07,4.54.35,4.78.34-1.03,4.36-4.26,6.87-7.5,9.55-7.09,1.55,2.85-2.92-4.95-.68,1.55-2.98-1.74.8-2.73,1.02-5.41,1.24-5.18-1.19-5.46-1.36-.16-.1-3.34.92-3.75.68-.54-.31.57-1.14,0-1.36-.07-.03-1.29.68-1.36.68-10.8.36-9.1-2.59-9.89-2.73-.13-.02-1.91,1.38-2.56.51-.31-.41,5.19-3.13-2.9-.51,4.95-7.34-3.6,1.68-4.95-.17-.19-.26,1.23-1.84.51-2.22-.23-.12-.29,1-4.95,1.36.74-1.43,2.35-2.06,3.07-2.73,1.49.35,5.44-2.7,6.31-3.07,4.47-1.91,4.97.71,5.63-4.09.74.06,1.37.23,2.05.51-2.3,2.59.61.2,1.19.17.17,0,2.87.88,3.24,1.02Z"/>
          <path class="cls-20" d="m133.72,159.3c-3.71,18.55-1.56,5.64-8.02,7.5-1.52.44.09,2.74-.68,4.09-7.04-1.67-6.95,1.68-5.63,7.5-.06.02-.53.95-.85,1.02-1.72.41-17.92-1.01-18.25-1.88-.05-.14,1.12-2.3.85-2.9-.51-.27-2.22,2.65-2.39,2.73-.75.36-2.11-.34-2.22-.34,1.28-1.27,2.88-4.57,3.07-4.78,3.25-3.57,17.62-10.2,23.2-12.96.31-.15,2.52-1.29,2.73-.85-4.46,4.42-1.63,2.57,6.31.17.73-.17,1.4.61,1.88.68Z"/>
          <path class="cls-15" d="m146.68,135.42c1.01.23,2.06.43,3.07.68-3.81,7.07,6.15,5.8,6.65,6.14.97.66-.53,2.73,6.48,3.07,5.35.26,6.19-1.9,6.48-1.71.42.28,1.21,6.6,3.58-5.12,2.12-.13,4.65-.71,6.82-1.02-.56,8.33-4.19,7.26-4.43,7.68-.16.27.11,2.39,0,3.24-.04.02.14.56-.17.68-1.82.72-4.51.8-4.26,1.71-.28-.02-2.08-.28-2.39-.34-1.36-.27-2.69-.76-4.09-.85-.22-8.42-.38-.31-1.54.17-1.17.49-3.7-.32-4.95-.34-3.59-.06-5,.33-8.53-1.02-.13-.05-.55-1.45-2.39-.34-.48-.18-.32-.33-.34-.34,3.27-3.63-.67-.52-1.02-1.88-.21-.81,1.14-2.05.17-2.56-4.71,2.33-.31-1.12-3.92-.68.09-.11.62-1.45.68-1.71,2.49-2.82,2.92-4.72,4.09-5.46Z"/>
          <path class="cls-21" d="m129.97,147.7c2.27-.29-1.09,1.52.68,2.73-.6.49-1.73,2.11-2.39,2.73-.72.67-2.33,1.3-3.07,2.73-.2.02-.3-.37-1.36-.34-.08,0-1.09-.49-1.54-.34-1.74.58-18.85,14.84-32.41,16.37l9.72.68c-.19.21-1.79,3.51-3.07,4.78-6.17-.01-10.5-2.48-16.2-3.75v-.68c13.12-3.75,39.08-17.19,49.63-24.9Z"/>
          <path class="cls-38" d="m141.57,161.01l-3.07,6.14c-.17.14-.45-.72-1.02.17-1.56,2.4-2.39,5.49-4.09,7.68-4.93,6.34-12.5,4.63-12.62,3.92-.05-.3,2.82-1.98-1.36-.51-1.32-5.82-1.41-9.18,5.63-7.5.77-1.35-.84-3.66.68-4.09,6.46-1.86,4.31,11.05,8.02-7.5,2.48.38,5.28,1.2,7.85,1.71Z"/>
          <path class="cls-38" d="m164.08,174.65c-3.29,2.74-2.88,2.21-.68-1.88l-.51-.51-5.46,4.09c3.41-8.23,1.13-2.31-3.41-.34-.58.25-1.01-.47-1.36-.34-1.17.43-3.87,2.17-5.12,2.05-1.97-.19,1.61-3.24-1.54-1.71-.86-.91,4.38-7.95,4.43-5.12-.67,1.6-1.67,2.95-.85,3.07l7.5-8.19c2.75.83,4.63-2.37,5.8-1.71.26.15-.33,2.34,0,2.39.26.04,3.51-2.77,4.26-3.07,1.29-.1,2.52-.55,3.75-.68-.08,3.81-5.95,8.25-6.82,11.94Z"/>
          <path class="cls-18" d="m172.95,138.49c-2.38,11.72-3.16,5.39-3.58,5.12-.3-.19-1.13,1.96-6.48,1.71-7.01-.34-5.51-2.41-6.48-3.07-.5-.34-10.47.93-6.65-6.14,1.45.36,3.7,1.6,4.26,1.71,1.4.25-.17-.95,1.71-.68,6.34.9,10.43,1.79,17.23,1.36Z"/>
          <path class="cls-20" d="m149.41,164.08c-1.62,2.7-3.58,5.29-5.12,8.02-.74,1.31-1.78,5.93-3.41,5.29,1.07-7.78.29-2.92-1.02-1.19-.38.5-2.6,2.49-2.9,2.56-3.13.72.48-1.57-1.02-1.71-.56-.05-8.9,6.25-2.56-2.05,1.7-2.19,2.53-5.28,4.09-7.68.58-.9.85-.03,1.02-.17,4.15-3.33,5.8-2.92,10.92-3.07Z"/>
          <path class="cls-34" d="m123.83,155.55l-1.02,3.75c-5.57,2.76-19.95,9.4-23.2,12.96l-9.72-.68c13.56-1.53,30.67-15.79,32.41-16.37.45-.15,1.46.34,1.54.34Z"/>
          <path class="cls-34" d="m146.68,135.42c-1.18.73-1.61,2.64-4.09,5.46-1.18,1.34-3.97,3.82-5.46,5.12-1.72,1.49-4.28,2.63-6.48,4.43-1.77-1.21,1.59-3.02-.68-2.73,3.8-2.78,10.89-9.41,13.82-13.3,1.17,0,2.75.99,2.9,1.02Z"/>
          <path class="cls-38" d="m153.17,163.73c-.31,2.61-1.75,4.81-2.73,7.16-.05-2.83-5.3,4.21-4.43,5.12-.27.13-1.76,2.23-5.29,2.39l.17-1.02c1.63.65,2.67-3.97,3.41-5.29,1.53-2.73,3.5-5.31,5.12-8.02.22-.37.53-.63.68-1.02,2.89.4,2.91.67,3.07.68Z"/>
          <path class="cls-50" d="m168.17,160.66c3.24-2.69,6.47-5.19,7.5-9.55.26-.01,4.74-1.81,5.12-1.19-.97,8.65-4.11,8.88-12.62,10.75Z"/>
          <path class="cls-20" d="m167.15,163.39c-.76.3-4,3.11-4.26,3.07-.33-.04.26-2.24,0-2.39-1.17-.67-3.05,2.54-5.8,1.71l-7.5,8.19c-.82-.12.19-1.47.85-3.07.98-2.36,2.42-4.55,2.73-7.16,2.51.25,10.82-.1,13.99-.34Z"/>
          <path class="cls-2" d="m182.84,143.95c-.22.56.41,1.16-.51,2.05-.81.78-5.63,1.86-6.99,2.39.11-.85-.16-2.97,0-3.24.25-.41,3.87.65,4.43-7.68.11-.02.23.02.34,0q1.36,3.24,2.73,6.48Z"/>
          <path class="cls-9" d="m158.96,67.2c-.25,7.29,3.12,17.85,7.85,23.54-1.93,1.38-6.63-8.47-7.16-10.06-.99-2.95-2.97-11.63-.68-13.47Z"/>
          <path class="cls-58" d="m158.96,10.92l-1.02,1.02c-.15-.09-.36-.16-.68-.34-3.65-2.04-7.18-4.03-10.57-6.48-2.71-1.96-5.67-3.87-3.58-3.41,2.01.44,13.03,7.51,15.86,9.21Z"/>
          <path class="cls-12" d="m150.1,163.05c-.16.39-.46.66-.68,1.02-5.11.15-6.77-.26-10.92,3.07l3.07-6.14c2.86.56,5.6,1.64,8.53,2.05Z"/>
          <path class="cls-21" d="m147.37,184.54c1.9-1.58,4.46-2.53,5.8-4.78,3.61-.67,5.82-2.01,1.19,2.05-.93.81-9.98,6.77-10.4,5.63,1.34-.65,2.32-1.99,3.41-2.9Z"/>
          <path class="cls-20" d="m164.08,174.65c.88-3.69,6.75-8.13,6.82-11.94,1.58-.17,2.55-.67,2.39.17-2.76,4.43-5.13,8.37-9.21,11.77Z"/>
          <path class="cls-19" d="m146,107.45c-.42-.04-.31.29-.34.34-.8-2.8-3.14-4.37-4.78-6.48-.08-.11.31-.93-1.02-2.56-1.37-1.61-3.68-2.42-4.43-4.61,4.93,2.34,9.02,8.25,10.57,13.3Z"/>
          <path class="cls-6" d="m182.84,143.95q-1.36-3.24-2.73-6.48c.98-.15,3.69-1.5,4.09-.85-.03,2.63-.4,4.92-1.36,7.33Z"/>
          <path class="cls-49" d="m135.09,195.46c-.25.49-.93.39-1.02,1.02-6.11-2.66,2.37-6.22,3.07-5.29-1.89,2.64-1.94,4.05-2.05,4.26Z"/>
          <path class="cls-15" d="m179.43,95.51c-1.81.75-11.04-2.39-12.28-4.43l12.28,4.43Z"/>
          <path class="cls-57" d="m101.32,189.66c-.35.68-.82,1.31-1.02,2.05-3.38.32-5.74,2.33,1.02-2.05Z"/>
          <path class="cls-43" d="m188.3,37.86l.34.51c-1.45.21-.91.69-1.02.85l-4.09.34c.24-.11.97-1.49,4.78-1.71Z"/>
          <g>
            <path class="cls-48" d="m31.05,201.94c-.22-3.12-2.79-.77-2.39-2.73.58-.78,3.93-5.32,4.09-5.63.13-.24.54-1-.17-.85-8.13,5.93-16.67,11.89-26.1,15.52,11.31-6.87,21.49-15.45,31.21-24.39.85.47-3.6,4.54-4.26,5.29,5.3-1.89,2.29,1.04,3.24,1.54.13.07,1.21-2.49,2.05-2.05,1.24.66-6.79,12.15-7.68,13.3Z"/>
            <path class="cls-64" d="m4.44,201.94c-.04.32.24.45.51.34,1.46-.58,21.74-15.92,25.41-18.42.52-.35,4.84-4.07,4.43-1.19-.27,1.91-26.52,22.35-29.51,22.34-1.85,0-2.29-1.3-.85-3.07Z"/>
            <path class="cls-52" d="m31.05,201.94c-.85,1.12-10.96,13.99-9.55,6.65.35-1.81,5.82-7.59,7.16-9.38-.4,1.96,2.17-.39,2.39,2.73Z"/>
            <path class="cls-32" d="m30.36,183.86c-3.68,2.5-23.95,17.84-25.41,18.42-.27.11-.55-.02-.51-.34,2.37-2.93,21.18-15.01,25.92-18.08Z"/>
            <path class="cls-70" d="m49.64,181.81c.46-.14.82-.13.85.51.04.72-6.63,10.77-7.33,12.45.34-1.35,5.78-12.75,6.48-12.96Z"/>
            <path class="cls-56" d="m39.75,198.53l.51.17c-7.58,13.52-8.79,13.23-.51-.17Z"/>
            <path class="cls-70" d="m38.72,194.78c.37.13-.73,2.63-.85,2.9-3.73,7.86-5.86,7.39.85-2.9Z"/>
            <path class="cls-70" d="m45.54,182.15c.65-.09.52.33.51.85-.02,2.32-2.38,3.17-.51-.85Z"/>
          </g>
          <path class="cls-47" d="m61.24,180.11c.19.02.46-.07.51.17-3.58,2.38-2.87-.36-.51-.17Z"/>
          <path class="cls-2" d="m140.2,146c-.66,4.8-1.16,2.18-5.63,4.09-.87.37-4.82,3.42-6.31,3.07.66-.62,1.79-2.24,2.39-2.73,2.2-1.81,4.77-2.95,6.48-4.43.39.91,1.76-.11,3.07,0Z"/>
          <path class="cls-22" d="m146.68,147.7c-.37-.14-3.07-1.03-3.24-1.02-.59.03-3.49,2.42-1.19-.17-.67-.28-1.31-.45-2.05-.51-1.31-.11-2.68.91-3.07,0,1.49-.36,3.86-2.25,4.78-3.41,3.61-.43-.79,3.01,3.92.68.97.51-.38,1.75-.17,2.56.35,1.35,4.29-1.76,1.02,1.88Z"/>
          <path class="cls-6" d="m168.52,150.43c-2.86.7-8.8.29-10.57-1.02,1.25.02,3.78.83,4.95.34,1.16-.48,1.32-8.59,1.54-.17,1.41.09,2.73.59,4.09.85Z"/>
          <path class="cls-27" d="m149.41,148.38c-.49.76-1.88-.15-2.39-.34,1.84-1.11,2.26.29,2.39.34Z"/>
          <path class="cls-2" d="m141.91,142.59c-.91,1.16-3.28,3.06-4.78,3.41,1.49-1.3,4.27-3.78,5.46-5.12-.07.26-.6,1.6-.68,1.71Z"/>
        </g>
      </g>
      <path class="cls-71" d="m111.89,96.54c2.58.68,5.14,1.28,7.85,1.02-.94,4.58,6.43,4.07,4.43,12.96-8.78,7.53-6.15,1.09-7.68.34-.54-.27-10.84-1.12-11.94-1.02-.28.02-.14.68-.17.68-.34.06-1.53-1.48-5.8,3.07-1.08-.31-.46-1.45-.85-1.71-.14-.09-2.17,2.66-2.56.85-.12-.57,5.35-5.43-7.16.51.06-.08-.31-.89.85-1.71,3.39-.88,15.39-5.92,13.13-6.48,4.22-1.14,11.44-1.14,9.55-7.16-.21-.67-.9-1.41.34-1.36Z"/>
      <path class="cls-68" d="m119.74,97.56c-2.7.26-5.27-.35-7.85-1.02-.99-.26-2.08-.71-3.07-1.02,1.38-.63,2.98-1.29,4.43-1.71.29,1.66,7.65-.1,9.72,1.02,2.21,1.2-.56,2.48-3.24,2.73Z"/>
      <g>
        <path class="cls-65" d="m207.74,45.71c-11.52,10.2-15.99,19.05-18.08,34.45-1.16-.48-1.61-.99-1.71-1.02.55-16.72,10.26-29.66,23.2-39.4-9.72.22-27.3,15.44-29.68,24.22-1.93,7.13-.77,16.32,4.61,21.66,2.64.71,3.87,2.29,4.09,2.39.98.44,3.68.31,3.58,1.36-4.13-.96-8.28-2-12.28-3.41.59-.83,0-.65,0-.68-.24-5.27-3.55-5.64-8.19-4.78,1.84-1.33,2.7-.68,4.43-1.54-2.5-3.34,2.45-11.51-6.31-15.86-1.74-.86-6.89-2.04-9.04-2.05,2.16-5.94,12.71-10.62,18.42-12.96,16.23-5.3,31.82-12.68,48.44-16.71,4.87.56-1.35-1.54-2.9-1.71-7.3-.76-29.46,5.81-37.01,9.55-4.11,4.99-10.02,8.3-16.03,10.57,2.45-1.6,4.32-2.65,6.82-4.43.6-.43.92-.54,2.39-1.71.03-.02.31-.66.34-.68.24-.2,2.52-.44,4.78-3.75.11-.16-.42-.65,1.02-.85l-.34-.51v-.68c1.5.37,6.04-1.21,8.87-2.05,7.67-2.27,23.4-7.5,30.87-5.8,1.29.29,4.88,1.7,4.09,3.41-8.85.34-17.91,7.22-24.39,12.96Z"/>
        <path class="cls-49" d="m182.5,97.56c.08-3.74,3.34-3.76,0-4.78,7.82,1.92,6.33-1.73,7.68-2.05.68-.16,11.67,3.23,13.82,1.71.34.02.68,0,1.02,0-.39,1.09,3.16.73,6.14.51-1.62-1.38-3.39-2.69-5.12-3.92,17.91,9.18-9.49,4.95-21.66,4.78-.66,1.23-1.2,2.53-1.88,3.75Z"/>
        <path class="cls-54" d="m206.04,89.03c1.73,1.23,3.49,2.55,5.12,3.92-2.98.22-6.53.58-6.14-.51,2.82.03,3.8-.11,2.73-1.02-.45-.39-8.96-5.44-10.23-6.14l.34-1.02c2.86,1.55,5.51,2.87,8.19,4.78Z"/>
        <path class="cls-38" d="m187.96,79.14c.09.03.54.55,1.71,1.02,2.88,1.18,5.46,2.62,8.19,4.09l-.34,1.02c-5.94-3.26-11.91-5.38-12.45-5.8-2.44-1.88,1.05-.99,2.9-.34Z"/>
        <path class="cls-45" d="m228.21,31.04c-3.22.58-6.41,1.82-9.72,1.36-1.7.94-3.95,1.39-5.46,1.71-.07.01-.34.9-1.02,1.02-.98.18-.81-.35-.85-.34-.53.12-5.18-.17-10.57,2.39-2.22,3.21-4.05,2.45-4.61,2.73-5.14,2.6-10.38,5.04-15.18,8.19-5.71,2.34-16.26,7.02-18.42,12.96-3.71,10.18,1.46,16.29,9.89,20.81,2.96,1.58,6.05,2.98,9.21,4.09,4,1.42,8.15,2.46,12.28,3.41,4.5,1.04,9.37,2.42,13.99,2.05,1.07.92.09,1.06-2.73,1.02-.34,0-.68.02-1.02,0-7.31-.43-25.36-5.39-32.06-8.87-4.12-2.13-8.16-4.82-10.57-8.87-5.3-16.91,4.54-20.14,10.92-24.22.35-.22.68-.46,1.02-.68,6.01-2.27,11.92-5.58,16.03-10.57-3,5.78,2.67,2.23,2.73,1.88.02-.1-.91-.51-.68-1.36.49-1.85,26.1-9.36,36.84-8.7Z"/>
        <path class="cls-69" d="m171.93,83.57c6.7,3.48,24.76,8.44,32.06,8.87-2.14,1.52-13.13-1.86-13.82-1.71-1.35.31.14,3.97-7.68,2.05-7.63-2.32-15.1-1.5-18.08-12.28.74.62,6.04,3.09,7.5,3.07Z"/>
        <path class="cls-7" d="m176.36,45.37c.81-.16,2.99-.42,3.75,0-2.5,1.78-4.37,2.83-6.82,4.43-.34.22-.67.46-1.02.68-6.64,2.81-.29-9.26,2.9-10.57,3.37-1.39,7.63-.52-.34,1.71-4.1,3.62-4.63,5.35,1.36,4.43.29-.04.14-.68.17-.68Z"/>
        <path class="cls-7" d="m171.93,83.57c-1.46.02-6.76-2.45-7.5-3.07-1.83-1.53-2.4-3.66-3.07-5.8,2.41,4.05,6.46,6.73,10.57,8.87Z"/>
        <path class="cls-61" d="m187.62,39.23c-2.26,3.31-4.54,3.55-4.78,3.75-1.28.11-.56-1.78-.34-2.73.06-.03-.12-.16,1.02-.68l4.09-.34Z"/>
        <path class="cls-20" d="m182.5,43.66c-1.47,1.16-1.78,1.28-2.39,1.71-.76-.42-2.94-.16-3.75,0-2.26-.69-1.49-1.24,0-2.39l6.14.68Z"/>
        <path class="cls-18" d="m182.5,40.25c-.22.95-.93,2.84.34,2.73-.03.02-.31.66-.34.68l-6.14-.68c1.66-1.28,4.28-1.85,6.14-2.73Z"/>
        <path class="cls-49" d="m187.96,79.14c-1.85-.65-5.34-1.54-2.9.34.54.42,6.51,2.54,12.45,5.8,1.27.7,9.78,5.75,10.23,6.14-4.62.37-9.48-1.01-13.99-2.05.09-1.06-2.6-.93-3.58-1.36-.22-.1-1.45-1.68-4.09-2.39-5.38-5.34-6.54-14.53-4.61-21.66,2.38-8.78,19.96-24,29.68-24.22-12.94,9.74-22.64,22.68-23.2,39.4Z"/>
        <path class="cls-22" d="m173.29,80.5c-.06.04-.53.86-.68,1.02-.02.02-.38-.07-.34.34-8.44-4.52-13.6-10.63-9.89-20.81,2.15,0,7.3,1.18,9.04,2.05,8.76,4.35,3.81,12.53,6.31,15.86-1.74.86-2.6.21-4.43,1.54Z"/>
        <path class="cls-45" d="m229.23,31.38c-16.61,4.04-32.21,11.41-48.44,16.71,4.8-3.14,10.04-5.59,15.18-8.19.55-.28,2.39.48,4.61-2.73-2.3,3.41,5.9-1.19,10.57-2.39.04-.01-.13.52.85.34.68-.12.95-1.01,1.02-1.02,1.5-.31,3.76-.77,5.46-1.71,3.31.46,6.5-.79,9.72-1.36,1.36.08.97.33,1.02.34Z"/>
        <path class="cls-33" d="m229.23,31.38c-.05,0,.34-.26-1.02-.34-10.74-.66-36.35,6.85-36.84,8.7-.23.86.7,1.26.68,1.36-.06.36-5.73,3.91-2.73-1.88,7.55-3.74,29.71-10.31,37.01-9.55,1.55.16,7.77,2.27,2.9,1.71Z"/>
        <g>
          <path class="cls-8" d="m181.48,85.28q-4.43-1.88-8.87-3.75c.15-.16.62-.98.68-1.02,4.64-.86,7.95-.49,8.19,4.78Z"/>
          <path class="cls-34" d="m181.48,85.28s.59-.15,0,.68c-3.16-1.12-6.25-2.51-9.21-4.09-.04-.41.32-.32.34-.34q4.43,1.88,8.87,3.75Z"/>
        </g>
        <path class="cls-65" d="m211.15,34.79c-4.68,1.2-12.87,5.79-10.57,2.39,5.39-2.56,10.04-2.26,10.57-2.39Z"/>
      </g>
      <path class="cls-44" d="m108.48,81.53c.77.17,1.1.45,1.71.68,1.18.44,2.65.94,3.41,2.05l-10.06,1.71c-1.21.69,3.23,1.36,5.63,1.36v2.05c-5.17-.25-10,2.25-14.33,4.78-.25-2-6.95,1.74-7.68,1.71-.59-.03-1.02-1.3-1.19-1.36-.97-.36-.95.07-1.71.34.04-.53-.64-.28-.68-.34-.59-.79.03-1.4-1.02-2.05,3.65-2.44,7.29-4.59,11.26-6.48,3.43-1.63,7.44-2.4,10.57-4.78,1.6.03,2.46-.02,4.09.34Z"/>
      <g>
        <path class="cls-51" d="m110.87,184.88c-.26,1.37.63,1.94,1.02,2.73.45.91-.19.9,0,1.19,2.2.7,3.31,2.8,2.73,4.95-1.59,1.03-3.51,1.43-5.12,2.39-3.29.04-4.89.64-9.55.34-.66-.04-.8-.39-1.36-.34.62-.42,4.81-3.95,4.78-4.26-1.03,0-2.04-.27-3.07-.17.21-.74.67-1.37,1.02-2.05.97-1.87,2.11-3.59,3.07-5.46.36-.36.67-.63,1.02-1.02,1.72.35,3.61.51,5.29,1.02.3.09.13.67.17.68Z"/>
        <path class="cls-9" d="m111.89,187.61c-.39-.79-1.28-1.36-1.02-2.73.19.07,1.25-.48,2.22,0,2.2,1.08,2.37,4.89-1.19,2.73Z"/>
      </g>
      <path class="cls-35" d="m83.92,104.72c1.82-4.1,5.96-6.35,10.23-7.5,5.68,4.43-1.56,8.88-6.48,8.02,6.39,4.83-9.77,13.04-3.75-.51Z"/>
      <path class="cls-62" d="m109.16,89.37l9.55,1.71c-3.62.44-25.09,5.03-27.63,6.14-.9-.72,1.45-1.73,3.75-3.07,4.33-2.52,9.15-5.03,14.33-4.78Z"/>
      <path class="cls-68" d="m102,105.06c-6.69,1.8-8.78,4.04-4.43-.68,1.7-1.85,3.8-3.57,5.8-5.12.02,2.39,3.19-1.14,8.19-1.36,1.89,6.02-5.33,6.03-9.55,7.16Z"/>
      <path class="cls-17" d="m111.89,96.54c-1.24-.05-.55.69-.34,1.36-4.99.23-8.17,3.75-8.19,1.36,1.92-1.48,3.09-2.67,5.46-3.75.99.31,2.08.76,3.07,1.02Z"/>
      <path class="cls-68" d="m109.16,87.33c-2.4,0-6.84-.68-5.63-1.36l10.06-1.71c1.84,2.68-2.42,3.07-4.43,3.07Z"/>
      <g>
        <path class="cls-49" d="m105.07,203.3c.42,1.07,2,1.9,2.73,2.73,1.21,1.38,2.7,2.51,4.09,4.26.96,1.2,1.17,4.43,3.75,5.29,1.77.59,1.5-.26,2.39-.34.04,0-.13.47.68.34-.41.37-.29.75-1.36.85,2.83,1.61,6.16.66,9.21.17,2.45-.39,5.08-1.12,7.5-1.71v.34c-2.55.49-4.97,1.6-7.5,2.05-2.45.43-5.17,1.08-7.68.68-1.59-.25-17.5-10.09-26.78-4.43-.51.31-.83.76-1.36,1.02.65-1.41,2.4-2.37,3.92-2.73,3.58-.85,8.1.39,8.02-1.02,2.64.24,6.87,2.29,7.5.17.92-3.08-5.07-4.38-6.14-7.68h1.02Z"/>
        <path class="cls-57" d="m139.52,206.37c.45,1.48.29,2.44.34,2.56,1.26,2.91,8.43,2.13,2.39,3.58-8.14,1.96-4.2-4.53-4.61-4.78-1.94-1.16-3.47,3.47-5.12,2.73-1.86-.84.41-2.59.51-2.73.11-.14,1.49.32,1.54-2.73l4.95,1.36Z"/>
        <path class="cls-18" d="m108.48,202.28c2.71.83,10.7,9.44,9.55,12.96-.89.08-.62.93-2.39.34-.32-6.29-4.98-8.47-7.16-10.92-.91-1.02-3-3.31,0-2.39Z"/>
        <path class="cls-15" d="m126.56,216.61c-3.05.49-6.38,1.44-9.21-.17,1.07-.1.96-.48,1.36-.85,1.05-.96,1.11-1.33,1.19-1.36.38-.17,8.98.9,6.65,2.39Z"/>
        <path class="cls-38" d="m108.48,202.28c-3-.92-.91,1.37,0,2.39l-.68,1.36c-.73-.83-2.3-1.66-2.73-2.73-1.64-4.11,2.01-5.6,3.41-1.02Z"/>
        <path class="cls-51" d="m146,217.29c.33,1.54.58,1.56-.85,2.73-11.23,2.16-22.59,1.2-33.94,1.02-5.96-1.39-10.4-2.89-16.89-2.73-.24,0-3.13,1.9-4.26-.34.02-1.76-.07-1.8.68-3.41.53-.26.85-.71,1.36-1.02.45,3.97,2.42,5.02,2.05.85,17.34,2.28,23.5,7.67,42.13,5.63,2.48-.27,8.08-1.12,9.72-2.73Z"/>
        <path class="cls-20" d="m147.03,216.61c1.15,1.11,1.4,9.47-4.26,5.46-8.36,2.72-20.02,2.82-28.48.34-1.97-.5-2.91-1.33-3.07-1.36,11.35.17,22.72,1.13,33.94-1.02,1.43-1.17,1.18-1.19.85-2.73-.07-.32.04-.69,0-1.02.23.08.98.3,1.02.34Z"/>
        <path class="cls-57" d="m174.31,211.83c-.28,5.64-7.09,2.26-17.4,3.07-1.04-.83-1.77-1.12-3.07-1.36.84-1.02,2.46-.3,1.36-2.05,3.8-.02,7.59-.54,11.43-.34,2.65.14,5.08,1.24,7.68.68Z"/>
        <path class="cls-38" d="m166.47,208.42c5.96.57,5.86,1.84,6.31,2.05.19.09,1.23.13,1.19-.34.02.08.44-.31.34,1.71-2.6.56-5.03-.54-7.68-.68-3.84-.2-7.63.32-11.43.34-2.83.02-8.75.7-3.07-2.05l13.3-1.02c1.32,1.82,2.22,2.73,1.02,0Z"/>
        <path class="cls-21" d="m111.21,221.04c.16.04,1.1.87,3.07,1.36q-11.34-.68-22.68-1.36c-2.13-.51-1.55-1.47-1.54-3.07,1.13,2.24,4.02.35,4.26.34,6.48-.16,10.93,1.34,16.89,2.73Z"/>
        <path class="cls-15" d="m153.85,213.54c1.3.25,2.03.53,3.07,1.36-.37.65-1.62.85-2.22.68-.27-.08-4.85-3.64-.51.17-.6.13-.64.47-.68.51-4.11-1.15-4.66-1.41-8.87-1.02-1.16.11-1.98.43-3.07.68v-2.05c4.57-.62,5.4-1.66,12.28-.34Z"/>
        <path class="cls-51" d="m141.57,213.88v2.05c-.78.18-2.85-.15-2.73,1.02-4.19.33-12.01,1.38-12.28.34,2.54-.45,4.95-1.56,7.5-2.05,2.73-.52,4.62-.97,7.5-1.36Z"/>
        <path class="cls-65" d="m172.95,206.37c-2.91.99-.49.89.34,2.05l-7.68-1.02c-.36.43.83.96.85,1.02,1.2,2.73.3,1.82-1.02,0-.62-1.41-1.53-.92-2.73-1.02l-4.43-.68c1.21-.26,1.96-.73,4.43-1.02,4.05-.48,6.35-.77,10.23.68Z"/>
        <path class="cls-50" d="m176.7,206.03c.85,4.4-2.06.97-3.75.34-3.89-1.45-6.19-1.16-10.23-.68.1-1.4,4.73-1.83,6.99-1.71,2.89.16,4.49,1.28,6.99,2.05Z"/>
        <path class="cls-15" d="m162.72,207.4c1.2.1,2.11-.39,2.73,1.02l-13.3,1.02c2.92-1.41,7.37-2.31,10.57-2.05Z"/>
        <path class="cls-18" d="m173.29,208.42c.85,1.19.56,1.26.68,1.71.03.47-1.01.43-1.19.34-.45-.21-.35-1.48-6.31-2.05-.03-.06-1.21-.59-.85-1.02l7.68,1.02Z"/>
        <path class="cls-50" d="m153.51,216.27c-1.88,1.58-4.26.14-6.14-.34-.87-.22-2.47-.2-2.73-.68,4.21-.39,4.76-.13,8.87,1.02Z"/>
        <g>
          <path class="cls-22" d="m168.17,201.94c14-.28,10.68,7.23,10.92,8.02.1.35,4.54,2.88,5.8,4.26,1.6,1.76,2.57,2.56-.51,3.75-2.47.95-8.74.65-11.77.68-5.37.06-10.82-.96-16.2,0-1.43.71,4.29,2.05,5.97,4.09.41.5.54.72.68,1.36.62,2.83-2.21,3.45-4.61,3.75-14.86,1.87-52.52-2.47-69.59-4.09-1.29-.12-2.77-.72-3.92-1.36-1.03-2.01-.53-3.73,0-5.8.88-3.43,3.55-7.33,7.5-7.16,1.32.06,2.32.39,3.24,1.36,2.47-.29,4.54-.22,6.99,0,.08,1.41-4.43.18-8.02,1.02-1.53.36-3.27,1.32-3.92,2.73-.75,1.61-.66,1.65-.68,3.41-.02,1.6-.6,2.56,1.54,3.07q11.34.68,22.68,1.36c8.46,2.48,20.12,2.38,28.48-.34,5.67,4.01,5.41-4.35,4.26-5.46l.34-.68c1.88.49,4.26,1.92,6.14.34.04-.04.08-.38.68-.51-4.34-3.81.24-.25.51-.17.6.17,1.85-.03,2.22-.68,10.31-.81,17.12,2.57,17.4-3.07.1-2.02-.32-1.62-.34-1.71-.12-.45.17-.52-.68-1.71-.83-1.16-3.25-1.06-.34-2.05,1.69.63,4.6,4.06,3.75-.34-1.05-5.45-18.3-2.41-21.66,0-3.78,2.71,1.79.99,3.24.68l4.43.68c-3.2-.27-7.66.64-10.57,2.05-5.68,2.75.24,2.06,3.07,2.05,1.09,1.75-.52,1.03-1.36,2.05-6.88-1.32-7.71-.28-12.28.34-2.88.39-4.77.84-7.5,1.36v-.34c2.7-.65,5.4-1.07,8.02-1.71.25-.06.17-.45.17-.68,6.04-1.46-1.13-.67-2.39-3.58-.05-.12.11-1.08-.34-2.56-.2-.66.29-1.65-.34-3.07l1.02.34c2.55,2.63,2.76,6.47,7.16,4.09,1.93-1.04,1.28-.74,1.02-1.71.83-.27.97-.65,1.02-.68.73-.46,1.18-.61,2.05-.68,1.44-.11,2.52.73,2.9.68.71-.1,5.91-3.26,13.82-3.41Z"/>
          <path class="cls-18" d="m176.7,206.03c-2.5-.76-4.1-1.88-6.99-2.05-2.26-.13-6.9.3-6.99,1.71-2.47.29-3.23.76-4.43,1.02-1.45.31-7.02,2.02-3.24-.68,3.36-2.41,20.61-5.45,21.66,0Z"/>
          <path class="cls-28" d="m153.68,221.38c2.43-.96,7.62,3.1,7.33,3.92-7.02,1.05-10.55-2.65-7.33-3.92Z"/>
          <path class="cls-18" d="m150.61,205.69c3.42-1.17,3.32,2.67,1.36,3.07-1.74.35-2.96-2.53-1.36-3.07Z"/>
          <path class="cls-28" d="m179.6,213.2c4.85.36,4.78,3.87,2.39,3.07-.18-.06-2.12-2.6-2.39-3.07Z"/>
        </g>
        <path class="cls-27" d="m144.64,215.24c.26.48,1.86.46,2.73.68l-.34.68s-.79-.26-1.02-.34c-2.47-.82-4.76.49-7.16.68-.13-1.18,1.95-.84,2.73-1.02,1.09-.25,1.91-.57,3.07-.68Z"/>
        <path class="cls-18" d="m126.56,217.29c.27,1.04,8.09,0,12.28-.34,2.4-.19,4.7-1.51,7.16-.68.04.33-.07.71,0,1.02-1.64,1.61-7.24,2.46-9.72,2.73-18.63,2.04-24.79-3.35-42.13-5.63.37,4.17-1.6,3.12-2.05-.85,9.27-5.66,25.18,4.18,26.78,4.43,2.5.39,5.23-.25,7.68-.68Z"/>
        <path class="cls-51" d="m115.64,215.58c-2.58-.85-2.79-4.08-3.75-5.29-1.4-1.76-2.88-2.89-4.09-4.26l.68-1.36c2.18,2.45,6.84,4.63,7.16,10.92Z"/>
      </g>
      <path class="cls-71" d="m100.29,122.12c-2.69,2.31-5.86,5.48-8.87,6.82.04-.45-.06-.92,0-1.36.29-2.2,6.17-4.29,3.24-4.09-.27.02-5.02,3.92-4.61,1.88.11-.52,8-6.35,8.7-5.97-.39,1.98.59,1.48,1.54,2.73Z"/>
      <path class="cls-68" d="m88.69,120.07c-3.11,2.85.56.77.68,2.56.03.38-1.63,2.03-2.05,2.22-.95.42-1.15.28-2.05.34-1.24.09-2.79.12-2.73-.34.73-1.15,1.3-2.84,2.39-3.75,1.68-1.4,2.44-.36,3.58-1.71l.17.68Z"/>
      <path class="cls-70" d="m91.42,127.58c-.06.44.04.92,0,1.36-.47.21-.39.78-.85,1.02-1.36.28-6.4-3.9-5.29-4.78.89-.06,1.09.08,2.05-.34l4.09,2.73Z"/>
      <path class="cls-44" d="m83.58,94.49c-1.85.74-3.67,1.7-5.12,3.07-1.54.32-6.71,4.7-8.19,6.14,2.44-4.76,7.88-8.31,12.28-11.26,1.05.64.44,1.26,1.02,2.05Z"/>
      <path class="cls-68" d="m85.97,94.49l-7.5,6.48s-.95-.01-1.02-.51c-.17-1.18,4.17-4.68,6.82-5.63.76-.27.74-.7,1.71-.34Z"/>
      <path class="cls-53" d="m62.43,150.43c-.04.28.51.45.34,1.02l-6.65,1.02.34-1.02c6.17-2.88-.65.06-.51-5.46,2.01,1.73,3.75,3.79,6.48,4.43Z"/>
      <g>
        <path class="cls-71" d="m152.14,14.67c-.83.73-6.61-.27-6.14,1.54.26,1,4.87-.68,8.53,1.19-.68,10.49,1.86,4.01,8.36,3.41,4.71-.43,8.56,4.13,12.11,6.82-.09,2.86-.06,6.54,3.41,7.33-.21.47-2.43-.3-2.39.85.06,1.54,1.89,1.3,2.39,2.39-7.3.75-8.84,7.85-10.57,13.82-4.27,2.3-7.55,6.63-8.53,11.43-1.25,2.21-2.32-.76-4.95-1.71-6.43-2.32-18.2-2.63-24.05,1.36-.85-.01-1.38.66-2.05,1.02-1.45.8-2.92,1.1-3.92,1.71-6.16,3.71-10.79,8.91-2.9-3.58-8.23,1.39-7.89-17.81-8.53-18.76-.15-.23-1-.26-1.19-.17-.66.3-5.25,12.05-5.63,13.47-1.1,4.12-.57,9.48-3.07,12.79.8-3.69.31-6.72,2.05-12.79.9-3.14,5.02-12.64,7.16-14.84,1.57-1.6,2.03-1.3,4.78-1.71,3.28-.48,8.35,1.34,11.6-6.48,1.25-.36,2.18-.3,3.41-.51-4.81-3.94-1.34-3.44-1.71-6.99,2.26-1.21,4.47-2.69,6.82-3.75,2.85-1.29,11.05-1.57,7.16-6.48-.88-1.12-2.08.21-1.71-2.73,1.89.14,5.01.17,6.82-.34,1,.42,1.82,1.16,2.73,1.71Z"/>
        <path class="cls-68" d="m154.53,17.4c-3.66-1.87-8.26-.19-8.53-1.19-.47-1.8,5.31-.81,6.14-1.54,1.12.67,2.28,1.05,3.07,2.22-.39.54-.68.47-.68.51Z"/>
        <g>
          <path class="cls-22" d="m149.24,29.68c4.24-.63,7.53,1.19,5.8,3.07-.1.11-2.14.73-2.22,1.19-.14.92,6.45,6.66,4.09,17.74-2.21,10.36-16.88,5.09-18.42,3.07-4.26-5.58,1.89-22.1,12.96-22.85-.51-.7-1.5-.6-2.22-.51-.43.05-10.17,4.66-4.09,0,.22-.17,3.85-1.67,4.09-1.71Z"/>
          <path class="cls-1" d="m145.49,38.89c.21-.03.44-.05.51.17-10,9.34,1.62,18.06-3.58,16.54-5.84-1.7-.41-16.29,3.07-16.71Z"/>
          <path class="cls-23" d="m152.48,54.24c-1.58.96-2.64,1.08-4.43.68-3.15-3.86-3.69-5.24-1.88-10.57,2.7,2.54-1.96,6.11,2.39,8.53,3.15,1.75,4.35-.34,4.61-3.24.07,1.75.17,2.97-.68,4.61Z"/>
          <path class="cls-28" d="m149.24,40.93c4.4-1.44,6.28,6.41,1.36,5.46-2.04-.39-3.83-4.65-1.36-5.46Z"/>
          <path class="cls-63" d="m152.48,54.24c-.95,1.81-4.05,3-4.43,2.22-.22-.45,1.75.62,0-1.54,1.79.4,2.86.28,4.43-.68Z"/>
        </g>
      </g>
      <path class="cls-68" d="m104.39,110.52c.71,1.19-5.46,3.17-5.8,3.07,4.27-4.55,5.46-3.01,5.8-3.07Z"/>
    </g>
  </g>
</svg>