<?xml version="1.0" encoding="UTF-8"?>
<svg id="car" data-name="car" xmlns="http://www.w3.org/2000/svg" xmlns:xlink="http://www.w3.org/1999/xlink" viewBox="0 0 317.96 115.53">
  <defs>
    <style>
      .cls-1 {
        fill: #334326;
      }

      .cls-1, .cls-2, .cls-3, .cls-4, .cls-5, .cls-6, .cls-7, .cls-8, .cls-9, .cls-10, .cls-11, .cls-12, .cls-13, .cls-14, .cls-15, .cls-16, .cls-17, .cls-18, .cls-19, .cls-20, .cls-21, .cls-22, .cls-23, .cls-24, .cls-25, .cls-26, .cls-27, .cls-28, .cls-29, .cls-30, .cls-31, .cls-32, .cls-33, .cls-34, .cls-35, .cls-36, .cls-37, .cls-38, .cls-39, .cls-40, .cls-41, .cls-42, .cls-43, .cls-44, .cls-45, .cls-46, .cls-47, .cls-48, .cls-49, .cls-50, .cls-51, .cls-52, .cls-53, .cls-54, .cls-55, .cls-56, .cls-57, .cls-58, .cls-59, .cls-60, .cls-61, .cls-62, .cls-63, .cls-64, .cls-65, .cls-66, .cls-67, .cls-68 {
        stroke-width: 0px;
      }

      .cls-2 {
        fill: #ea9f3c;
      }

      .cls-3 {
        fill: #d0dad5;
      }

      .cls-4 {
        fill: #7a8176;
      }

      .cls-5 {
        fill: url(#linear-gradient);
      }

      .cls-6 {
        fill: #7ec3cd;
      }

      .cls-7 {
        fill: #085962;
      }

      .cls-8 {
        fill: #8b483f;
      }

      .cls-9 {
        fill: #892b09;
      }

      .cls-10 {
        fill: #ecd357;
      }

      .cls-11 {
        fill: #babcb0;
      }

      .cls-12 {
        fill: #232d2b;
      }

      .cls-13 {
        fill: #312423;
      }

      .cls-14 {
        fill: #31828e;
      }

      .cls-15 {
        fill: #f6c946;
      }

      .cls-16 {
        fill: #057f83;
      }

      .cls-17 {
        fill: #090807;
      }

      .cls-18 {
        fill: #0f1b1e;
      }

      .cls-19 {
        fill: #23241b;
      }

      .cls-20 {
        fill: #394247;
      }

      .cls-21 {
        fill: #c05c10;
      }

      .cls-22 {
        fill: url(#linear-gradient-5);
      }

      .cls-23 {
        fill: #ad130f;
      }

      .cls-24 {
        fill: #334544;
      }

      .cls-25 {
        fill: #e48a17;
      }

      .cls-26 {
        fill: #67ccd0;
      }

      .cls-27 {
        fill: #f0ad15;
      }

      .cls-28 {
        fill: #b9732c;
      }

      .cls-29 {
        fill: #147190;
      }

      .cls-30 {
        fill: #f4bb59;
      }

      .cls-31 {
        fill: #289095;
      }

      .cls-32 {
        fill: url(#linear-gradient-2);
      }

      .cls-33 {
        fill: #77674f;
      }

      .cls-34 {
        fill: #373e39;
      }

      .cls-35 {
        fill: #c49259;
      }

      .cls-36 {
        fill: url(#linear-gradient-3);
      }

      .cls-37 {
        fill: #8f3d0b;
      }

      .cls-38 {
        fill: #291810;
      }

      .cls-39 {
        fill: #85925f;
      }

      .cls-40 {
        fill: #59b1be;
      }

      .cls-41 {
        fill: #fbfcfb;
      }

      .cls-42 {
        fill: #8d4529;
      }

      .cls-43 {
        fill: #33a7aa;
      }

      .cls-44 {
        fill: #a94310;
      }

      .cls-45 {
        fill: #32100b;
      }

      .cls-46 {
        fill: #02a0c0;
      }

      .cls-47 {
        fill: #521301;
      }

      .cls-48 {
        fill: #1f6160;
      }

      .cls-49 {
        fill: #141c17;
      }

      .cls-50 {
        fill: #8f8265;
      }

      .cls-51 {
        fill: #072122;
      }

      .cls-52 {
        fill: #2f1f10;
      }

      .cls-53 {
        fill: #f9dda7;
      }

      .cls-54 {
        fill: #9b4d17;
      }

      .cls-55 {
        fill: #484d49;
      }

      .cls-56 {
        fill: #1f1a15;
      }

      .cls-57 {
        fill: #adad91;
      }

      .cls-58 {
        fill: #cee3e7;
      }

      .cls-59 {
        fill: #674a4a;
      }

      .cls-60 {
        fill: #7e504a;
      }

      .cls-61 {
        fill: #70d0e9;
      }

      .cls-62 {
        fill: #05353a;
      }

      .cls-63 {
        fill: #c27857;
      }

      .cls-64 {
        fill: #d57009;
      }

      .cls-65 {
        fill: #3a3631;
      }

      .cls-66 {
        fill: #6e240c;
      }

      .cls-67 {
        fill: url(#linear-gradient-4);
      }

      .cls-68 {
        fill: #5b645b;
      }
    </style>
    <script>
    const images = document.querySelectorAll('#car');

    function logId() {
    console.log('You clicked on', this.id);
    }

    images.forEach(image => image.addEventListener('click', logId));
    </script>
    <linearGradient id="linear-gradient" x1="55.81" y1="52.31" x2="50.31" y2="68.87" gradientTransform="translate(318.62) rotate(-180) scale(1 -1)" gradientUnits="userSpaceOnUse">
      <stop offset="0" stop-color="#f5c945"/>
      <stop offset="1" stop-color="#f4b11f"/>
    </linearGradient>
    <linearGradient id="linear-gradient-2" x1="114.52" y1="14.51" x2="116.74" y2="34.19" gradientTransform="translate(318.62) rotate(-180) scale(1 -1)" gradientUnits="userSpaceOnUse">
      <stop offset="0" stop-color="#086876"/>
      <stop offset="1" stop-color="#1d9da4"/>
    </linearGradient>
    <linearGradient id="linear-gradient-3" x1="115.81" y1="58.16" x2="115.53" y2="73.26" gradientTransform="translate(318.62) rotate(-180) scale(1 -1)" gradientUnits="userSpaceOnUse">
      <stop offset="0" stop-color="#f8c941"/>
      <stop offset="1" stop-color="#f4ad2b"/>
    </linearGradient>
    <linearGradient id="linear-gradient-4" x1="166.45" y1="13.11" x2="167.54" y2="33.56" gradientTransform="translate(318.62) rotate(-180) scale(1 -1)" gradientUnits="userSpaceOnUse">
      <stop offset="0" stop-color="#056a78"/>
      <stop offset="1" stop-color="#1e9ca5"/>
    </linearGradient>
    <linearGradient id="linear-gradient-5" x1="185.8" y1="69.82" x2="185.56" y2="87.95" gradientTransform="translate(318.62) rotate(-180) scale(1 -1)" gradientUnits="userSpaceOnUse">
      <stop offset="0" stop-color="#f9b834"/>
      <stop offset="1" stop-color="#c1520b"/>
    </linearGradient>
  </defs>
  <g id="Layer_1-2" data-name="Layer 1">
    <g>
      <path class="cls-2" d="m287.21,44.64c-1.17,1.07-1.71.69-3.02.34-1.16,1.13-7.96,1.91-10.74,2.01-1.3.05-1.27-.34-1.34-.34-7.23.19-34.15.38-38.94,0-.06,1.9.09,3.81,0,5.71,10.39.9,65.49-1.18,70.33,0,.05.01.85.46.84.67.64-.29,1.31-.56,2.01-.67-.13-.45.05-.41-.34-1.01q-9.4-3.36-18.8-6.71Z"/>
      <path class="cls-9" d="m130.44,4.36c.09.74.35,1.27.34,1.34.96-.7,2.22-1.1,3.36-1.34,15.64-3.4,53.39-2.57,70.5-1.68,14.87.78,32.49,1.44,45.99,8.06.21-.04.45.02.67,0C240.84,2.65,216.14,1.39,202.95.67,190.81,0,170.41-.26,158.47.33c-5.28.26-24.75,1.44-28.03,4.03Z"/>
      <path class="cls-12" d="m179.79,5.7c.26,1.79-.64,1.26-.67,1.34-.08.21.07.69,0,1.01,10.56.99,31.48-.1,40.62,1.34.38-.63.21-.98.84-1.01.69-.03,11.35,2.19,13.76,2.01,3.01,1.25,7.1.92,9.23,3.69.67.51,1.29.27,2.01.34,1.29.11,2.14-.07,3.36-.34.42-.09,2.22-.78,2.69-1.01.07-.03.55-.74,1.34-.67-.11-.1-.26-.58-1.68-1.68-.22.02-.47-.04-.67,0-.9.17-2.41.65-3.02.67-1.08.04-2.4.19-3.36-.34-3.07.29-7.22-1.39-10.91-2.01-15.58-2.63-37.53-3.27-53.54-3.36Z"/>
      <path class="cls-66" d="m251.62,13.09c7.4,7.27,14.96,14.35,22.16,21.82q6.71,4.87,13.43,9.74,9.4,3.36,18.8,6.71c-2.2-3.41-14.31-4.87-21.99-10.07-5.28-3.57-23.65-22.38-31.05-28.87-.8-.07-1.28.64-1.34.67Z"/>
      <path class="cls-9" d="m300.64,84.25c1.23-1.61,7.69-6.85,8.73-7.39l-11.58.67.5,6.55c.89,1.15,2.21.15,2.35.17Z"/>
      <path class="cls-20" d="m120.37,14.43c-4.44,6.61-10.84,11.54-16.11,17.46.41-.03.3.27.34.34.12.21.3.43.34.67,1.16-.81,1.77,0,2.01,0,.11,0,.23-.01.34,0,.27.03-.5-1.59,1.01.34,4.31-3.65,7.85-8.04,11.75-12.08,1.29-1.69,1.6-2.97-.34-4.53,1.09-1.98,10.79-9.54,11.08-10.24.05-.12-.05-.45,0-.67.01-.07-.25-.6-.34-1.34-2.81,3.88-6.58,6.87-10.07,10.07Z"/>
      <path class="cls-16" d="m96.2,37.26c3.78,2.94,1.48,2.01,8.06-5.37,5.27-5.92,11.67-10.85,16.11-17.46-8.19,7.49-16,15.32-24.17,22.83Z"/>
      <path class="cls-49" d="m92.17,95.33c0,2.74.61,1.07,1.34,2.69,5.6-1.18,98.79.67,114.47,0,2.89-.3,1.35-2.03,1.34-2.69h-117.16Z"/>
      <path class="cls-2" d="m267.4,69.82c.51.55.91,1.2,1.51,1.68,4.82-1.24,4.61,8.69,11.25,8.06.96-1.22,1.88-2.7,2.69-4.03.08-.14-.19-1.16.34-2.18,2.98-3.16,7.7-1.95,11.58-2.85.69-.44,2.33-7.32,2.85-8.73.53-1.44,1.06-2.97,1.68-4.36-2.78,0-3.03,4.18-6.55,6.71-5,3.6-20.01,6.07-26.18,4.03l-.5.5c0,.24,1.14.96,1.34,1.17Z"/>
      <path class="cls-55" d="m172.74,93.65c-25.61-.15-51.26,1.09-76.87,0-.27.87-.64,0-.67,0-.95.01-2.86,1-3.02,1.01v.67h117.16c0-.07.51.2.34-1.34-2.27-.4-30.48-.3-35.92-.34-.33,0-.66,0-1.01,0Z"/>
      <path class="cls-35" d="m33.42,73.18c-2.28,3.41-2.23,5.61-3.02,9.06,5.53-20.83,32.82-19.34,42.3-11.08l1.01-.67c-11.07-9.72-32.45-9.03-40.28,2.69Z"/>
      <path class="cls-66" d="m32.08,73.18c-.49.62-.94,1.32-1.68,1.68.11,2.54-1.6,3.05-3.69,3.36.52,1.09.05,2.03,0,3.02-.07,1.55.34,3.11-.5,3.69-2.26-.22-3.93.58-6.21,0-1.59,4.78,3.21,4,8.9,3.69.77-.53,1.23-5.16,1.51-6.38.79-3.45.74-5.65,3.02-9.06h-1.34Z"/>
      <path class="cls-9" d="m296.94,82.91c-2.75.69-5.59.97-8.39,1.34-1.9.25-3.8.48-5.71.67-2.52.26-4.35.65-7.05.67-.11,0,.22.53-2.18.34l-3.19-5.71c.15.34,1.39,6.31,2.01,7.22,2.51,3.66,20.35-2.31,24.84-3.02.09-.14-.32-.51-.34-1.51Z"/>
      <path class="cls-35" d="m229.13,70.49l.67,1.01c8.48-6.77,29.65-7.93,36.59,2.01l1.34-.67c-11.03-11.82-29.35-9.9-38.6-2.35Z"/>
      <path class="cls-64" d="m11.6,78.88c2.95,4.27,2.32,4.88,7.89,5.04.7.47.45.99.5,1.01,2.28.58,3.95-.22,6.21,0,.85-.58.43-2.14.5-3.69-.53-1.14-5.19-.53-8.9-1.01-2.03-.26-4.14-1.15-6.21-1.34Z"/>
      <path class="cls-64" d="m266.4,73.51c1.43,2.18,2.97,4.32,4.03,6.71l3.19,5.71c2.4.2,2.07-.33,2.18-.34-.81-1.18,5.42-2.99,9.06-7.72l-2.01-2.35c-.8,1.33-1.73,2.81-2.69,4.03-1.55,1.98-2.82,2.98-4.87,4.36-.96-2.26-2.25-4.29-3.52-6.38-1.25-1.69-2.59-3.16-4.03-4.7l-1.34.67Z"/>
      <g>
        <path class="cls-45" d="m304.33,53.03c-.8.36-3.83,1.5-4.03,1.68-.25.21-.25,1.01-.67,1.01.02.47-.15,1.27-.34,1.68-.62,1.39-1.15,2.93-1.68,4.36,1.09,2.24-2.18,3.36.67,4.36.35-1.49,2.86-10.81,3.52-11.08,5.86-2.37.31,10.25-.17,10.74l1.34.67c2.04-4.16,4.69-9.34,3.36-14.1-.7.11-1.37.38-2.01.67Z"/>
        <path class="cls-23" d="m298.29,66.13c1.45.51,2.34.71,3.36-.34.48-.49,6.03-13.12.17-10.74-.66.27-3.17,9.59-3.52,11.08Z"/>
      </g>
      <path class="cls-66" d="m80.42,88.28c.15.58.03,2.36.67,3.52,1.99,3.6,7.58,2.96,11.08,2.85.16,0,2.07-.99,3.02-1.01.02-.64-.65-1.91-.67-2.01-1.65.4-7.82.59-8.9.34-.16-.04-1.57-1.51-1.85-1.68-1.11-.68-2.18-1.47-3.36-2.01Z"/>
      <path class="cls-21" d="m275.79,85.6c2.7-.03,4.53-.41,7.05-.67-.12-1.47,3.8-2.75,5.37-3.36,0-.08.42-.23,0-1.68-.18-.04-2.77-1.54-3.02-2.01h-.34c-3.64,4.73-9.87,6.54-9.06,7.72Z"/>
      <path class="cls-37" d="m11.6,78.88c2.07.19,4.18,1.08,6.21,1.34,3.71.47,8.36-.13,8.9,1.01.05-.99.52-1.93,0-3.02-3.76.55-12-.36-16.28-.67-.3.49,1.09,1.22,1.17,1.34Z"/>
      <path class="cls-9" d="m288.22,79.89c.42,1.45,0,1.59,0,1.68,0,.91-.19,1.86.34,2.69,2.8-.37,5.65-.65,8.39-1.34-.01-.8-.17-1.58-.34-2.35-1.63-.42-7.98-.58-8.39-.67Z"/>
      <path class="cls-66" d="m285.19,77.88c.25.47,2.84,1.97,3.02,2.01.41.1,6.76.25,8.39.67-.11-.52-.13-2.76-.5-3.02l-10.91.34Z"/>
      <path class="cls-30" d="m233.16,52.36c-.03.67.06,1.35,0,2.01q33.57.17,67.14.34c.2-.18,3.23-1.32,4.03-1.68.01-.21-.79-.66-.84-.67-4.84-1.18-59.94.9-70.33,0Z"/>
      <path class="cls-27" d="m248.94,14.09c6.55,6.11,12.85,12.42,19.13,18.8.69.7,2.28,1.57,2.35,2.69.21.2.45.46.67.67,6.93,6.74,8.03,7.27,2.35,10.74,2.78-.1,9.58-.88,10.74-2.01-4.33-1.16-7.42-6.97-10.41-10.07-7.2-7.47-14.76-14.55-22.16-21.82-.47.23-2.26.92-2.69,1.01Z"/>
      <path class="cls-25" d="m273.78,34.91c2.99,3.1,6.08,8.91,10.41,10.07,1.31.35,1.85.73,3.02-.34q-6.71-4.87-13.43-9.74Z"/>
      <path class="cls-1" d="m275.79,42.63c.47,1.74-2.07,3.23-3.69,4.03.07,0,.04.38,1.34.34,5.68-3.47,4.58-4-2.35-10.74.66,1.79,4.3,4.9,4.7,6.38Z"/>
      <path class="cls-10" d="m134.13,4.36c-1.13.25-2.4.64-3.36,1.34-.05.22.05.55,0,.67,1.08,1.02,1.05.2,1.68.34,32.63-2.71,76.71-3.05,108.6,3.02.17.03,2.8,1.05,3.19,1.34.96.52,2.28.37,3.36.34.16-.92-1.68-1.41-2.52-1.68-12.49-4.06-25.77-4.88-38.77-5.71-15.04-.96-34.5-1.25-49.51-.67-3.75.15-20.87,2.06-22.49,1.68-.25-.06-.17-.45-.17-.67Z"/>
      <path class="cls-2" d="m134.13,4.36c0,.23-.08.61.17.67,1.62.38,18.75-1.53,22.49-1.68,15.01-.58,34.48-.29,49.51.67.2-.98-.72-.63-1.85-.67l.17-.67c-17.11-.9-54.86-1.72-70.5,1.68Z"/>
      <path class="cls-25" d="m204.63,2.68l-.17.67c1.13.04,2.04-.31,1.85.67,13,.83,26.28,1.65,38.77,5.71.84.27,2.68.76,2.52,1.68.61-.02,2.12-.5,3.02-.67-13.5-6.61-31.12-7.28-45.99-8.06Z"/>
      <path class="cls-65" d="m219.73,9.39c.84.13,1.78.45,2.69.5v7.55c.86,7.69,1.02,11.94,3.36,19.81.35,1.16.46,2.21,1.01,3.36.03.05.91-.34.67,1.01,7.19,1.6-.43-3.76-2.01-15.61-.28-2.07-.79-14.66.34-15.27l13.6,2.01,4.2,2.01v-.67c-2.13-2.78-6.23-2.44-9.23-3.69-2.41.18-13.07-2.05-13.76-2.01-.63.03-.46.38-.84,1.01Z"/>
      <path class="cls-65" d="m173.41,42.63c.11-.02.23.03.34,0,.1-.02.06-.94,1.85-.67,1.2-1.11,2.57-28.43,3.19-32.56.14-.91.28-1.11.34-1.34.07-.31-.08-.8,0-1.01-.77.11-2.64-.36-3.02.5-.71,1.61-2.21,30.22-2.69,35.08Z"/>
      <path class="cls-39" d="m132.45,6.71c.47.1,1.9.33,1.68,1.01,7.56-1.84,27.62-1.58,36.59-1.68,3.03-.03,6.01-.35,9.06-.34,16.01.08,37.97.72,53.54,3.36,3.69.62,7.84,2.3,10.91,2.01-.39-.29-3.02-1.31-3.19-1.34-31.89-6.07-75.97-5.73-108.6-3.02Z"/>
      <path class="cls-29" d="m245.58,14.43c6.96,4.34,12.49,10.27,18.13,16.11,3.48,3.6,6.13,6.82,9.4,10.41.5.55,1.4.88,1.68,1.68.05,0-.12.4,1.01,0-.4-1.48-4.04-4.59-4.7-6.38-.22-.22-.46-.48-.67-.67-.76-.71-2.27-1.61-2.35-2.69-6.28-6.38-12.59-12.69-19.13-18.8-1.22.26-2.07.45-3.36.34Z"/>
      <path class="cls-5" d="m233.16,55.72c-.19,1.82-1.37,6.98-2.01,8.73,2.99.1,6.33-4.07,8.73-1.01,9.3-2.19,20.39-.48,27.19,6.71l.34-.34c-.2-.21-1.34-.93-1.34-1.17l.5-.5c6.17,2.04,21.18-.42,26.18-4.03,3.52-2.54,3.77-6.71,6.55-6.71.18-.41.35-1.21.34-1.68h-66.47Z"/>
      <path class="cls-64" d="m233.16,54.38c-.04.44.05.9,0,1.34h66.47c.42,0,.42-.79.67-1.01q-33.57-.17-67.14-.34Z"/>
      <g>
        <path class="cls-18" d="m18.32,65.79c.27.02.63-.04.67,0,.29-3.72-.54-7.32-2.35-10.57l.5-.5c1.02.77.8,1.27.84,1.34,3.4.98,5.33,7.21,2.01,9.4,0,.04-.46-.12-.34.67.17.04.9-.7,1.01-.17.02.12-.65.26-.67,1.17,1.05-.68,1.82-1.55,2.35-2.69,1.3-2.79,1.57-5.43-.34-8.06-.25-.35-.55-.86-1.01-1.01-1.95-.02-6.89-4.56-7.72-6.04-.03-.05.05-.5-.34-1.01-.42.33-1.4.37-1.34,1.17,3.64,2.19,7.42,12.98,6.71,16.28Z"/>
        <path class="cls-3" d="m18.99,65.79c.05.05-.12.66.17.67.1,0,.22-.4.5-.34-.13-.79.33-.63.34-.67.92-4.23.06-5.87-2.01-9.4-.04-.07.18-.58-.84-1.34l-.5.5c1.81,3.25,2.64,6.85,2.35,10.57Z"/>
        <g>
          <path class="cls-49" d="m19.66,66.13c-.28-.06-.41.34-.5.34-.28,0-.12-.62-.17-.67-.04-.04-.4.02-.67,0-.14.65-.29,1.24-.84,1.68-3.03-.92-6.11.52-8.9,1.68,3.7.06,1.66,1.14,2.69,2.52.93,1.26,11.1,1.84,12.42.5-2.12-.69-3.73-3.28-3.69-5.04.02-.92.7-1.06.67-1.17-.11-.53-.84.2-1.01.17Z"/>
          <path class="cls-61" d="m14.79,68.48c-.77-.35-2.75.33-2.52,1.51.56,2.81,4.67-.53,2.52-1.51Z"/>
        </g>
        <path class="cls-29" d="m17.98,56.06c2.07,3.53,2.94,5.17,2.01,9.4,3.32-2.19,1.38-8.42-2.01-9.4Z"/>
      </g>
      <path class="cls-20" d="m120.03,21.14c3.72-3.86,7.58-7.66,11.41-11.41.02-.78-.78-.88.67-1.68.58-.32,1.47-.2,2.01-.34.22-.68-1.21-.9-1.68-1.01-.63-.14-.6.68-1.68-.34-.29.7-9.99,8.26-11.08,10.24,1.93,1.56,1.62,2.84.34,4.53Z"/>
      <path class="cls-66" d="m94.52,49.01h-1.01c-.25.46-1.71,1.34-2.01,3.36.19,2.23-.33,1.91-.34,2.01-.02.2.39.31.34,1.34-.01.22,0,.45,0,.67-.1,3.6.14,7.15.34,10.74.21,3.95.57,7.82,1.01,11.75.47,4.16.83,8.67,1.68,12.76.02.1.69,1.37.67,2.01.03,0,.4.87.67,0-.47-1.9.02-2.55,0-2.69-.93-7.91-2.12-13.45-2.69-22.16-.28-4.34-.55-8.38-.34-12.76.02-.31-.39-.03,0-1.68.01-.05-.66-.12,0-1.01,1.85-2.46,2.56,1.47,6.71-6.71.64-1.26,1.11-2.58,2.01-3.69-.25-.03-.37-.05-.34-.34-1.55,4.31-9.67,11.21-6.71,6.38Z"/>
      <g>
        <g>
          <path class="cls-49" d="m107.28,32.89c.9,1.28,1.7,4.21,1.01,5.54-1.91,3.67-2.4-1.88-2.69-2.85-.22-.75-.3-.51-.67-2.69-.04-.24-.22-.46-.34-.67-1.59.88.21.41-1.01,4.7-.06.21-.87,2.13-1.01,2.35-1.18,1.91-1.05.24-2.01,1.01,1.73.6,1.19.91.67,2.35-.04.29.08.31.34.34,3.22.37,18.54,0,24.51,0l-19.3-.34c-.57-.3.21-1.76,2.18-2.01,1.14-.75,1.54-2.46,1.34-3.69-.03-.16-1.26-2.88-1.34-3.02-.02-.04-.23-.11-.67-.67-1.51-1.93-.74-.3-1.01-.34Z"/>
          <path class="cls-65" d="m106.94,32.89c.07,1.23.19,2.54-1.34,2.69.29.97.78,6.52,2.69,2.85.69-1.33-.11-4.26-1.01-5.54-.11-.01-.23,0-.34,0Z"/>
          <path class="cls-41" d="m104.93,32.89c.37,2.17.45,1.94.67,2.69,1.54-.14,1.41-1.46,1.34-2.69-.25,0-.86-.81-2.01,0Z"/>
        </g>
        <g>
          <path class="cls-38" d="m96.2,37.26h-.34v1.01c.44.12,3.31,1.61,3.36,1.85-.29.29-.98,1.1-1.01,1.17-.99,2.27-2.25,3.48-3.36,5.37-.41.7-.97,1.35-1.34,2.01-.05.09.05.25,0,.34h1.01c.62-1.01,5.63-8.4,6.04-8.73.96-.77.83.9,2.01-1.01-3.06-1.1-2.13-1.35-1.34-2.69,2.42-4.12,2.1-2.73,2.01-.67-.01.31.5.45.34,1.01,1.22-4.29-.58-3.82,1.01-4.7-.04-.07.07-.37-.34-.34-6.58,7.38-4.28,8.31-8.06,5.37Z"/>
          <path class="cls-64" d="m94.52,49.01c-2.96,4.83,5.16-2.07,6.71-6.38.52-1.44,1.05-1.75-.67-2.35-.41.33-5.43,7.72-6.04,8.73Z"/>
          <path class="cls-42" d="m101.23,36.58c-.78,1.33-1.72,1.58,1.34,2.69.14-.22.95-2.14,1.01-2.35.16-.56-.35-.7-.34-1.01l-2.01.67Z"/>
          <path class="cls-63" d="m101.23,36.58l2.01-.67c.09-2.06.4-3.45-2.01.67Z"/>
        </g>
      </g>
      <path class="cls-2" d="m267.07,70.15c2.07,2.19,3.17,4.88,4.7,7.39,1.28,2.09,2.56,4.12,3.52,6.38,2.05-1.39,3.32-2.39,4.87-4.36-6.63.63-6.43-9.3-11.25-8.06-.6-.48-1-1.13-1.51-1.68l-.34.34Z"/>
      <path class="cls-45" d="m239.88,63.44c-4.09.96-6.96,2.76-10.41,5.04-.56.37-.87.88-1.68.67-.34.73-.84,2.05-1.01,2.35h.67c.09-.09,1.02-.47,1.68-1.01,9.25-7.55,27.57-9.47,38.6,2.35,1.44,1.54,2.78,3.01,4.03,4.7-1.53-2.51-2.63-5.2-4.7-7.39-6.81-7.2-17.9-8.9-27.19-6.71Z"/>
      <path class="cls-47" d="m173.41,46.99c-.13,1.43.11,2.93,0,4.36-.04.54-.64,2.51-.67,3.02,0,.07.92.84,0,1.34.17,3.82-.25,7.6-.34,11.41-.17,7.93.02,15.9,0,23.83,0,.14.56.84.34,2.69.34,0,.68,0,1.01,0v-2.69c.03-1.12-.04-2.24,0-3.36.15-3.83.3-7.58.34-11.41.03-2.8-.03-5.6,0-8.39.05-4.05.22-8.04.34-12.08.01-.41-.02-.87,0-1.34.03-.73-.04-1.58,0-2.35.08-1.67-.12-3.37,0-5.04h-1.01Z"/>
      <path class="cls-37" d="m282.84,84.92c1.91-.19,3.81-.42,5.71-.67-.53-.83-.33-1.78-.34-2.69-1.57.6-5.49,1.89-5.37,3.36Z"/>
      <path class="cls-4" d="m232.83,46.66c.11.01.22,0,.34,0v-3.69c-.11,0-.22,0-.34,0v3.69Z"/>
      <path class="cls-1" d="m270.42,35.58c-.07-1.11-1.66-1.98-2.35-2.69.08,1.07,1.59,1.98,2.35,2.69Z"/>
      <path class="cls-27" d="m231.15,64.45c-.27.73-2.17,2.87-1.68,4.03,3.44-2.28,6.31-4.07,10.41-5.04-2.4-3.07-5.74,1.1-8.73,1.01Z"/>
      <path class="cls-56" d="m227.45,41.62v.67c1.44-.05,5.51,1.57,5.04-1.01-.64-.41-1.63-3.77-2.01-4.7-2.8-6.77-2.95-10.19-3.69-17.12-.21-1.94-.12-3.84-.34-5.71-.04-.35-.99-1.25-.67-3.02-1.13.61-.61,13.2-.34,15.27,1.58,11.85,9.21,17.21,2.01,15.61Z"/>
      <g>
        <path class="cls-65" d="m82.77,36.92c-15.84.19-38.66.26-53.71,4.36l1.01,1.01c9.76-2.51,23.06-3.54,33.23-4.03,6.06-.29,27.81-.95,32.23,0,.11.02.23-.03.34,0v-1.01c-4.36-.43-8.72-.39-13.09-.34Z"/>
        <path class="cls-52" d="m12.95,48.33c.38.51.31.96.34,1.01,3.17-1.78,6.33-3.41,9.74-4.7,2.31-.88,4.66-1.74,7.05-2.35l-1.01-1.01c-3.69,1.01-13.27,4.83-16.11,7.05Z"/>
        <path class="cls-2" d="m22.35,64.45c-.53,1.14-1.3,2.01-2.35,2.69-.04,1.75,1.57,4.34,3.69,5.04,1.98.65,4.49-.64,6.04,1.01,1.66-1.46,2.91-3.43,4.36-5.04-4.18-.13-8.14-1.7-11.75-3.69Z"/>
        <path class="cls-21" d="m72.7,71.16c4.31,3.75,5.99,10.26,7.39,15.44l3.69.34c-.93-4.01-1.69-5-3.36-8.39-2.16-2.88-3.96-5.64-6.71-8.06l-1.01.67Z"/>
        <path class="cls-25" d="m34.77,66.8c-.05.05.11.48-.67,1.34-1.45,1.6-2.71,3.58-4.36,5.04.06.07.67,1.59.67,1.68.74-.36,1.19-1.05,1.68-1.68,2.53-3.26,5.61-7.19,9.4-9.06-1.1-2.38-5.46,1.41-6.71,2.69Z"/>
        <path class="cls-44" d="m80.09,86.6c.1.35.15.95.34,1.68,1.17.54,2.25,1.34,3.36,2.01,1.58-.16.23-2.39,0-3.36l-3.69-.34Z"/>
        <path class="cls-27" d="m22.01,56.39c1.9,2.62,1.63,5.27.34,8.06,3.61,1.99,7.57,3.56,11.75,3.69.78-.86.62-1.29.67-1.34-2.5-1.45-8.14-8.83-6.21-10.07,1.26,0,2.62.34,3.86.34,4.58-.03,9.84.58,9.06-1.34-6.46.02-13.17-.5-19.47.67Z"/>
        <g>
          <path class="cls-30" d="m63.3,38.26l-.17.67q-20.06,2.85-40.12,5.71c-3.41,1.29-6.57,2.92-9.74,4.7.83,1.49,5.77,6.02,7.72,6.04,23.35-1.6,46.77-.82,70.16-1.01,0-.1.53.21.34-2.01-10.84-1.66-69.19,1.69-72.68.67-.22-.06-2.09-2.3-3.69-2.35-.4-.35.48-.64.5-.67.05-.07-.28-.52.84-1.01,3.06-1.34,21.91-3.16,26.86-3.69.11-.01.19-.86,2.01-1.01,1.6-.13,1.41,1.52,2.01,0,9.2,1.12,42.97,1.04,46.66,1.68.18.03.45.68.84.67,1.11-1.89,2.36-3.11,3.36-5.37l-2.69-3.02c-4.42-.95-26.17-.29-32.23,0Z"/>
          <path class="cls-53" d="m30.07,42.29c-2.39.61-4.74,1.47-7.05,2.35q20.06-2.85,40.12-5.71l.17-.67c-10.18.49-23.47,1.52-33.23,4.03Z"/>
          <path class="cls-2" d="m95.53,38.26l2.69,3.02c.03-.07.72-.88,1.01-1.17-.04-.24-2.92-1.73-3.36-1.85-.1-.03-.23.02-.34,0Z"/>
          <path class="cls-64" d="m21,55.38c.46.15.75.66,1.01,1.01,6.3-1.17,13.01-.65,19.47-.67,16.67-.05,33.35.04,50.02,0,.05-1.03-.35-1.14-.34-1.34-23.39.19-46.81-.59-70.16,1.01Z"/>
          <path class="cls-2" d="m15.63,50.01s-.9.32-.5.67c1.61.04,3.48,2.29,3.69,2.35,3.49,1.02,61.84-2.33,72.68-.67.31-2.02,1.76-2.9,2.01-3.36.05-.09-.05-.25,0-.34-13.86-.45-32.62-1.52-46.16-1.01-10.57.4-21.1,2.84-31.72,2.35Z"/>
          <path class="cls-30" d="m15.63,50.01c10.62.5,21.15-1.95,31.72-2.35,13.54-.51,32.3.55,46.16,1.01.38-.67.93-1.31,1.34-2.01-.39,0-.66-.64-.84-.67-3.69-.64-37.46-.55-46.66-1.68-.61,1.52-.41-.13-2.01,0-1.82.14-1.9,1-2.01,1.01-4.95.53-23.8,2.36-26.86,3.69-1.12.49-.78.93-.84,1.01Z"/>
        </g>
        <path class="cls-45" d="m42.82,63.44c-.07.03-.98.49-1.34.67-3.79,1.88-6.87,5.81-9.4,9.06h1.34c7.83-11.71,29.22-12.4,40.28-2.69,2.75,2.41,4.55,5.18,6.71,8.06-.37-.75-.57-1.59-1.01-2.35-7.07-12.35-23.23-17.9-36.59-12.76Z"/>
        <path class="cls-64" d="m79.41,76.2c.43.76.64,1.6,1.01,2.35,1.67,3.39,2.42,4.38,3.36,8.39.23.97,1.58,3.2,0,3.36.27.17,1.68,1.64,1.85,1.68,1.07.26,7.24.06,8.9-.34-.85-4.09-1.21-8.59-1.68-12.76-.65.85-7.97.63-8.56.34-1.07-1.57-2.3-2.92-3.52-4.36-1.62-.28-.59.95-1.34,1.34Z"/>
        <path class="cls-27" d="m34.77,66.8c1.26-1.27,5.61-5.06,6.71-2.69.36-.18,1.27-.64,1.34-.67-1.99-1.21.73-.27-1.68-1.68-1.99-1.16-8.72-2.62-8.73-4.7-1.24,0-2.6-.34-3.86-.34-1.93,1.24,3.71,8.62,6.21,10.07Z"/>
        <path class="cls-15" d="m41.48,55.72c.78,1.92-4.48,1.31-9.06,1.34,0,2.08,6.74,3.54,8.73,4.7,7.42-3.05,13.91-1.82,21.48,0,.37-1.9,11.85-4.47,13.6-4.7,5.07-.65,10.2,0,15.27-.67,0-.22-.01-.45,0-.67-16.67.04-33.35-.05-50.02,0Z"/>
        <path class="cls-15" d="m62.63,61.76c1.79.43,5.15.95,6.71,1.68,1.53-.4,3.24,1.09,4.87,1.68,5.64,2.04,11.65,3.06,17.62,2.01-.19-3.59-.44-7.14-.34-10.74-5.07.67-10.21.02-15.27.67-1.75.23-13.23,2.8-13.6,4.7Z"/>
        <path class="cls-2" d="m69.34,63.44c4.97,2.31,8.06,7.49,11.41,11.41,1.23,1.44,2.45,2.8,3.52,4.36.59.29,7.91.51,8.56-.34-.44-3.93-.8-7.8-1.01-11.75-5.98,1.05-11.98.03-17.62-2.01-1.62-.59-3.34-2.08-4.87-1.68Z"/>
        <path class="cls-2" d="m41.14,61.76c2.41,1.41-.31.47,1.68,1.68,13.36-5.15,29.52.4,36.59,12.76.76-.39-.28-1.62,1.34-1.34-3.35-3.93-6.45-9.1-11.41-11.41-1.57-.73-4.92-1.25-6.71-1.68-7.58-1.82-14.07-3.05-21.48,0Z"/>
      </g>
      <g>
        <path class="cls-41" d="m274.79,42.63c-6.86,1.08-32.47.33-41.63.34v3.69c4.79.38,31.71.19,38.94,0,1.62-.8,4.16-2.29,3.69-4.03-1.13.4-.96,0-1.01,0Z"/>
        <path class="cls-12" d="m243.57,14.76c7.7,3.92,17.24,15.18,18.3,15.78.87.49,1.03.14,1.85,0-5.64-5.84-11.17-11.77-18.13-16.11-.72-.06-1.35.18-2.01-.34v.67Z"/>
        <g>
          <path class="cls-62" d="m226.45,13.76c.22,1.87.13,3.77.34,5.71-.42-.98,6.92.17,9.23.67,6.52,1.41,13.66,4.8,18.8,9.06,7.38,6.13,4.88,6.49,5.2,8.06.39,1.85,1.81,4,1.17,4.36q-14.35-.17-28.7-.34c.47,2.58-3.6.96-5.04,1.01-1.68.06-3.69.37-5.37.67,3.58,0,7.16,0,10.74,0,.11,0,.22,0,.34,0,9.16,0,34.76.74,41.63-.34-.28-.8-1.17-1.13-1.68-1.68-1.43,1.33-2.09-1.13-2.85-1.68-1.4-1-1.61-.28-1.68-.34-1-.86-4.3-5.45-6.38-7.39-11.55-10.74-19.32-16.29-35.75-17.79Z"/>
          <path class="cls-18" d="m225.78,10.74c-.32,1.77.63,2.67.67,3.02,16.44,1.5,24.21,7.05,35.75,17.79,2.08,1.94,5.38,6.52,6.38,7.39.06.06.28-.66,1.68.34.76.54,1.43,3.01,2.85,1.68-3.27-3.58-5.92-6.81-9.4-10.41-.81.14-.98.49-1.85,0-1.05-.6-10.6-11.85-18.3-15.78l-4.2-2.01-13.6-2.01Z"/>
          <path class="cls-31" d="m226.78,19.46c.74,6.93.89,10.35,3.69,17.12q14.77.34,29.54.67c-.33-1.57,2.18-1.93-5.2-8.06-5.13-4.26-12.28-7.65-18.8-9.06-2.31-.5-9.65-1.65-9.23-.67Z"/>
          <path class="cls-7" d="m230.48,36.58c.38.93,1.38,4.29,2.01,4.7q14.35.17,28.7.34c.63-.36-.79-2.51-1.17-4.36q-14.77-.34-29.54-.67Z"/>
        </g>
      </g>
      <g>
        <path class="cls-17" d="m173.74,42.63v.34c.88,1.23-.23,2.9-.34,4.03h1.01c.12-1.68-.39-3.4.5-4.03,4.98-.04,9.96.05,14.94,0-2.92-1.07-8.48.59-8.73-1.01-5.46-.11-.98.21-1.01-7.05-.07.09-1.05,1.11-1.17,1.01-.24-5.53,1.63-20.64,1.17-23.83-.15-1.06-1.05-1.65-1.34-2.69-.62,4.13-1.98,31.45-3.19,32.56-1.79-.27-1.75.65-1.85.67Z"/>
        <g>
          <path class="cls-51" d="m179.11,8.05c-.05.24-.2.43-.34,1.34.29,1.03,1.19,1.63,1.34,2.69,13.95-.78,27.88.69,41.79,1.34.94.69.33,2.47.5,4.03v-7.55c-.9-.05-1.85-.37-2.69-.5-9.13-1.45-30.06-.35-40.62-1.34Z"/>
          <path class="cls-32" d="m180.12,12.08c.46,3.19-1.42,18.3-1.17,23.83.13.1,1.11-.92,1.17-1.01,1.02-1.38.53-2.31,1.01-3.86,1.14-2.15,9.11-1.95,9.74,1.17,2.93.61,3.45,2.83,4.03,5.37q15.44-.17,30.88-.34c-2.34-7.87-2.5-12.11-3.36-19.81-.17-1.56.44-3.34-.5-4.03-13.92-.65-27.84-2.12-41.79-1.34Z"/>
          <path class="cls-7" d="m194.89,37.59c.19.86-.46,3.6.5,4.03,6.09-.43,28.45.57,30.88,0,.27-.06.62-.66.5-1.01-.55-1.15-.66-2.19-1.01-3.36q-15.44.17-30.88.34Z"/>
        </g>
        <path class="cls-17" d="m214.03,46.66c.2.54.59,1.56.67,2.01,2.3,1.43,17.12,2.48,15.78-2.01l-1.17-1.34c-5.19.5-13.39-1.25-15.27,1.34Z"/>
        <g>
          <path class="cls-9" d="m226.78,71.5c-1.71,3.07-3.7,5.9-5.37,9.06-1.94,3.67-.4,5.14-6.04,5.71-.62.73-1.16,1.73-2.01,2.69-.62.7-1.33,1.38-1.51,2.35q-19.05-.17-38.1-.34v2.69c5.44.03,33.65-.07,35.92.34,2.42.43,2.98,2.91,6.04,1.34-2.26-.36,2.66-4.57,3.02-5.2.95-1.66,2.19-5.61,3.36-7.89,1.66-3.25,2.7-7.96,5.37-10.74h-.67Z"/>
          <path class="cls-9" d="m232.49,46.66c-.07,1.67.1,3.37,0,5.04-.06.91-.23,1.78-.34,2.69-.12,1.01-.31,1.18-.34,1.34-.59,3.66-1.2,7.56-3.36,10.74.49.81-.3,1.87-.67,2.69.81.21,1.12-.3,1.68-.67-.5-1.16,1.41-3.3,1.68-4.03.64-1.75,1.82-6.91,2.01-8.73.05-.44-.04-.9,0-1.34.06-.66-.03-1.35,0-2.01.09-1.89-.06-3.81,0-5.71-.11,0-.23.01-.34,0-.11-.01-.23.01-.34,0Z"/>
          <path class="cls-21" d="m174.42,87.61c-1.17,1.61,3.34,1.48,8.56,1.68,10.08.38,20.3,0,30.38-.34.85-.96,1.4-1.96,2.01-2.69,2.03-2.4,2.49-4.36,5.71-5.71-2.8-.53-1.15-1.14-2.35-2.69-2.69,3.29-4.75,7.2-8.56,9.4-3.34.78-32.02-1.04-35.75.34Z"/>
          <path class="cls-44" d="m173.74,87.61c-.04,1.12.03,2.24,0,3.36q19.05.17,38.1.34c.18-.97.89-1.65,1.51-2.35-10.08.33-20.3.71-30.38.34-5.22-.2-9.73-.07-8.56-1.68-.14.05-.44-.03-.67,0Z"/>
          <path class="cls-21" d="m222.42,72.5c-1.3,1.68-2.38,3.77-3.69,5.37,1.2,1.55-.45,2.15,2.35,2.69h.34c1.67-3.16,3.66-6,5.37-9.06.17-.3.67-1.62,1.01-2.35.37-.81,1.16-1.88.67-2.69-.51.76-5.35,5.15-6.04,6.04Z"/>
          <path class="cls-54" d="m215.37,86.27c5.64-.56,4.11-2.04,6.04-5.71h-.34c-3.22,1.35-3.67,3.31-5.71,5.71Z"/>
          <path class="cls-41" d="m222.08,42.96c-10.74.02-21.49-.11-32.23,0-4.98.05-9.96-.04-14.94,0-.89.63-.39,2.35-.5,4.03l39.61-.34c1.89-2.59,10.08-.84,15.27-1.34l1.17,1.34c.66.06,1.36-.08,2.01,0,.11.01.22-.01.34,0v-3.69c-3.58,0-7.16,0-10.74,0Z"/>
          <path class="cls-30" d="m221.08,53.71c-1.4.94-1.58-.32-1.68-.34-.3-.05-1.15-.59-2.01-.67-12.61-1.19-29.9-.3-42.97-.67-.04.77.03,1.62,0,2.35h57.74c.11-.9.28-1.78.34-2.69l-11.41,2.01Z"/>
          <path class="cls-64" d="m174.42,54.38c-.02.47.01.93,0,1.34h57.4c.03-.16.21-.33.34-1.34h-57.74Z"/>
          <path class="cls-25" d="m230.48,46.66c1.34,4.49-13.47,3.44-15.78,2.01.04.22-.58.62-.34,1.17.36.82,2.97,1.62,3.02,2.85.86.08,1.71.62,2.01.67l1.68.34,11.41-2.01c.1-1.67-.07-3.37,0-5.04-.65-.08-1.35.06-2.01,0Z"/>
          <path class="cls-25" d="m174.08,76.2c-.03,3.84-.19,7.58-.34,11.41.23-.03.54.05.67,0,3.73-1.38,32.42.44,35.75-.34,3.81-2.2,5.87-6.11,8.56-9.4,1.31-1.6,2.39-3.69,3.69-5.37-1.02-1.02-2.77,2.03-4.87,3.02-.22.1-4.46.98-4.7,1.01-4.79.49-30.17-.59-38.77-.34Z"/>
          <path class="cls-10" d="m174.42,55.72c-.11,4.04-.29,8.03-.34,12.08.51-.16.15-1.11,1.17-1.34,2.56-.58,24.39-.44,25.68-5.87.83-3.5-2.53-3.38-1.68-4.87h-24.84Z"/>
          <path class="cls-2" d="m174.42,46.99c-.12,1.66.08,3.37,0,5.04,13.07.38,30.36-.51,42.97.67-.06-1.24-2.66-2.03-3.02-2.85-.24-.55.37-.96.34-1.17-.08-.46-.47-1.48-.67-2.01l-39.61.34Z"/>
          <g>
            <path class="cls-36" d="m199.26,55.72c-.86,1.49,2.51,1.36,1.68,4.87-1.29,5.43-23.12,5.29-25.68,5.87-1.03.23-.66,1.18-1.17,1.34-.03,2.8.03,5.6,0,8.39,8.61-.25,33.98.82,38.77.34.24-.02,4.48-.9,4.7-1.01,2.1-.99,3.85-4.04,4.87-3.02.69-.89,5.53-5.29,6.04-6.04,2.16-3.18,2.76-7.08,3.36-10.74h-32.56Z"/>
            <path class="cls-10" d="m229.3,56.73c-2.93.34-5.98,2.65-9.4,3.69-2.48.76-10.61,1.7-10.57,2.52,9.3,4.49,14.13,1.16,19.97-6.21Z"/>
          </g>
          <path class="cls-54" d="m219.4,53.37c.1.02.28,1.27,1.68.34l-1.68-.34Z"/>
        </g>
        <g>
          <path class="cls-13" d="m189.19,32.22c.44,4.6-.98,8.98-6.04,9.74-.56.08-1.39.01-2.01,0,.25,1.6,5.81-.06,8.73,1.01,10.74-.11,21.49.02,32.23,0,1.68-.3,3.69-.61,5.37-.67v-.67c.24-1.35-.65-.95-.67-1.01.11.35-.23.94-.5,1.01-2.43.57-24.8-.43-30.88,0-.96-.43-.31-3.17-.5-4.03-.58-2.54-1.09-4.76-4.03-5.37-.42-.09-1.13.01-1.68,0Z"/>
          <path class="cls-8" d="m180.12,34.91c.03,7.26-4.45,6.94,1.01,7.05.62.01,1.46.08,2.01,0-2.29-1.54,1.28-9.22,2.85-9.74.31-.1,2.29-.02,3.19,0,.54.01,1.26-.09,1.68,0-.62-3.12-8.59-3.32-9.74-1.17-.47,1.55.01,2.48-1.01,3.86Z"/>
          <path class="cls-59" d="m183.14,41.96c5.06-.76,6.48-5.13,6.04-9.74-.9-.02-2.88-.1-3.19,0-1.57.52-5.15,8.2-2.85,9.74Z"/>
        </g>
      </g>
      <g>
        <path class="cls-12" d="m170.72,6.04c-.02,1.36,2.19.96,4.2,1.01l.5.5c-.39.53-.67.46-.67.5-.13,2.77-.6,3.1-.67,3.69-.96,8.44-1.36,17.04-2.01,25.51-.06.73.19,4.11-.17,4.36h-7.89c.01.31-.5.45-.34,1.01,2.41.02,8.58.21,9.74,0,.48-4.86,1.97-33.47,2.69-35.08.38-.86,2.25-.39,3.02-.5.03-.09.93.45.67-1.34-3.05-.02-6.03.3-9.06.34Z"/>
        <path class="cls-12" d="m134.13,7.72c-.54.13-1.44.02-2.01.34.71,1.45,3.9,1.04,5.87,1.01,12.25-.2,24.5-1.12,36.76-1.01,0-.04.28.03.67-.5l-.5-.5c-2-.05-4.22.35-4.2-1.01-8.97.1-29.03-.16-36.59,1.68Z"/>
        <path class="cls-17" d="m153.27,46.66c-.24,1.16.53,1.78.67,2.35,2.39.85,14.91,1.99,14.77-2.01-.09-2.61-9.26-.83-14.6-1.34-.6.39-.4.99-.84,1.01Z"/>
        <g>
          <path class="cls-43" d="m120.03,21.14c-3.9,4.04-7.44,8.44-11.75,12.08.44.56.65.63.67.67,4.37-2.36,20.6-19.09,22.16-21.48,1.46-2.24.33-2.38.34-2.69-3.83,3.75-7.69,7.55-11.41,11.41Z"/>
          <path class="cls-56" d="m127.42,41.62l-.34,1.34c15.55,0,31.11,0,46.66,0v-.34c-.1.03-.23-.02-.34,0-1.15.21-7.32.02-9.74,0-4.6-.03-10.57.57-9.74-1.01-1.15.16-3.84.02-5.37,0-7.09-.1-14.09.04-21.15,0Z"/>
          <path class="cls-67" d="m133.8,12.75c-.88,1.11-1.54,2.57-2.35,3.69.76.05,1.45.55,2.01,1.01,1.06.86,1.31.94,1.68,2.35,1.08,4.12-7.84,14.7-5.71,17.46-.11-.35.23-.94.5-1.01,1.72-.4,15.88.05,19.3.34,1.83-5.05,5.18-5.62,10.07-4.03,1.81,1.74,2.41,1.25,2.52,1.34.82.76,2.14,3.16,2.18,3.36h8.06c.66-8.47,1.05-17.08,2.01-25.51-7.99,0-16.02-.18-24,0-4.59.1-13.3,1.08-16.28,1.01Z"/>
          <path class="cls-51" d="m132.12,8.05c-1.45.8-.65.89-.67,1.68,0,.3,1.12.44-.34,2.69,1.09-.86,1.68.31,2.69.34,2.98.07,11.69-.9,16.28-1.01,7.98-.18,16.01,0,24,0,.07-.59.54-.92.67-3.69-12.26-.11-24.51.8-36.76,1.01-1.97.03-5.17.44-5.87-1.01Z"/>
          <path class="cls-48" d="m164.01,37.26c.04.21-.04,3.4,0,4.36h7.89c.36-.26.11-3.63.17-4.36h-8.06Z"/>
          <path class="cls-62" d="m131.11,12.41c-1.56,2.39-17.79,19.12-22.16,21.48.09.14,1.32,2.86,1.34,3.02q8.73-7.89,17.46-15.78c1.19-1.58,2.54-3.11,3.69-4.7.81-1.12,1.47-2.58,2.35-3.69-1-.03-1.59-1.19-2.69-.34Z"/>
          <path class="cls-31" d="m110.3,36.92c.2,1.23-.2,2.94-1.34,3.69,1.77-.23,14.43.98,18.46,1.01,7.06.04,14.06-.1,21.15,0,.04-.78-.05-1.57,0-2.35-4.03.34-17.11-.45-18.8,0-.71.19-1.7,1.92-2.18,2.01-1.06.22-3.08-.57-4.2-.67-1.48-.13-9.42-1.01-10.07-1.34-.36-.18-.75-.34-.67-.84.18-1.14,7.25-6.83,15.11-17.29q-8.73,7.89-17.46,15.78Z"/>
          <path class="cls-51" d="m126.08,42.96c.34,0,.67,0,1.01,0l.34-1.34c-4.04-.02-16.69-1.24-18.46-1.01-1.97.25-2.75,1.71-2.18,2.01l19.3.34Z"/>
          <g>
            <path class="cls-13" d="m159.31,32.56c1.18,1.77-1.55.66-2.18,1.01-.6.33.37,1.31.17,1.85-.31.81-2.35.27-2.35,1.01,0,.24,4.5,1.76-.67,1.68-.32.99,5.01,1.63-.84,1.85-1.38.73,3.9,1.2.5,1.68-.84,1.58,5.14.98,9.74,1.01-.16-.56.35-.7.34-1.01-.04-.96.04-4.15,0-4.36-.04-.2-1.37-2.6-2.18-3.36-.1-.1-.71.4-2.52-1.34Z"/>
            <path class="cls-60" d="m149.24,36.58c-.57,1.58-.66.95-.67,1.01-.02.08.08.45,0,1.68-.05.78.04,1.57,0,2.35,1.53.02,4.22.16,5.37,0,3.39-.48-1.88-.95-.5-1.68,5.85-.22.52-.86.84-1.85,5.17.08.67-1.44.67-1.68,0-.74,2.04-.19,2.35-1.01.21-.53-.77-1.51-.17-1.85.63-.35,3.36.76,2.18-1.01-4.89-1.59-8.24-1.02-10.07,4.03Z"/>
          </g>
          <g>
            <path class="cls-40" d="m113.32,39.27c.65.33,8.59,1.21,10.07,1.34,1.04-7.18,6.89-15.39,11.75-20.81-.37-1.41-.62-1.49-1.68-2.35.19,2.07-5.79,9.14-7.72,11.25-3.02,3.3-8.64,8.34-12.42,10.57Z"/>
            <path class="cls-43" d="m123.39,40.61c1.11.1,3.13.89,4.2.67.48-.1,1.47-1.82,2.18-2.01-.95-.65-.45-.64,0-1.68l-.34-.34c-2.13-2.75,6.79-13.34,5.71-17.46-4.85,5.42-10.71,13.63-11.75,20.81Z"/>
            <path class="cls-26" d="m131.45,16.44c-1.15,1.59-2.51,3.12-3.69,4.7-7.86,10.46-14.92,16.15-15.11,17.29-.08.5.31.66.67.84,3.78-2.23,9.4-7.28,12.42-10.57,1.93-2.11,7.91-9.17,7.72-11.25-.56-.45-1.25-.96-2.01-1.01Z"/>
          </g>
          <path class="cls-12" d="m129.43,37.26l.34.34h18.8c.01-.06.1.57.67-1.01-3.42-.28-17.59-.74-19.3-.34-.27.06-.62.66-.5,1.01Z"/>
          <path class="cls-40" d="m129.77,37.59c-.45,1.04-.95,1.03,0,1.68,1.69-.45,14.77.34,18.8,0,.08-1.23-.02-1.6,0-1.68h-18.8Z"/>
        </g>
        <g>
          <path class="cls-9" d="m95.86,90.97c.02.13-.47.78,0,2.69,25.61,1.09,51.26-.15,76.87,0,.23-1.85-.34-2.55-.34-2.69h-76.54Z"/>
          <path class="cls-41" d="m127.08,42.96c-.34,0-.67,0-1.01,0-5.96,0-21.29.37-24.51,0-.9,1.11-1.38,2.44-2.01,3.69,17.86-.42,35.87.69,53.71,0,.44-.02.24-.62.84-1.01,5.34.51,14.51-1.27,14.6,1.34h4.7c.1-1.13,1.22-2.79.34-4.03-15.55,0-31.11,0-46.66,0Z"/>
          <path class="cls-22" d="m168.71,67.13l-74.69.34-.84,1.34c.56,8.71,1.76,14.24,2.69,22.16h76.54c.02-7.94-.17-15.9,0-23.83h-3.69Z"/>
          <path class="cls-10" d="m92.84,56.06c-.21,4.37.05,8.41.34,12.76l.84-1.34,74.69-.34.67-11.41-76.54.34Z"/>
          <path class="cls-2" d="m99.56,46.66c-4.15,8.18-4.86,4.25-6.71,6.71,2.67,0,5.26-1.14,7.89-1.34,10.8-.85,42.82.02,54.89.67-2.94-3.37-1.61-3.41-1.68-3.69-.15-.57-.91-1.19-.67-2.35-17.84.69-35.85-.42-53.71,0Z"/>
          <path class="cls-30" d="m160.32,53.71h-1.34c-.17-.01-.71-.86-3.36-1.01-12.06-.65-44.09-1.52-54.89-.67-2.63.21-5.21,1.35-7.89,1.34-.66.88.01.96,0,1.01h79.9c.03-.51.63-2.48.67-3.02-4.25-.29-11.6,2.3-13.09,2.35Z"/>
          <path class="cls-64" d="m92.84,54.38c-.39,1.65.02,1.37,0,1.68l76.54-.34h3.36c.92-.5,0-1.28,0-1.34h-79.9Z"/>
          <path class="cls-25" d="m168.71,46.99c.14,4-12.38,2.86-14.77,2.01.07.28-1.26.33,1.68,3.69,2.64.14,3.18,1,3.36,1.01.07,0,1.2,0,1.34,0,1.49-.05,8.85-2.64,13.09-2.35.11-1.44-.13-2.93,0-4.36h-4.7Z"/>
          <path class="cls-10" d="m169.38,55.72l-.67,11.41h3.69c.08-3.81.51-7.6.34-11.41h-3.36Z"/>
          <path class="cls-37" d="m158.97,53.71h1.34c-.14,0-1.28,0-1.34,0Z"/>
        </g>
      </g>
      <g>
        <path class="cls-17" d="m282.84,75.53l2.01,2.35h.34l10.91-.34c.38.26.39,2.5.5,3.02.16.77.32,1.55.34,2.35.02,1,.43,1.37.34,1.51-4.49.71-22.33,6.68-24.84,3.02-.62-.91-1.86-6.87-2.01-7.22-1.06-2.39-2.6-4.54-4.03-6.71-6.94-9.95-28.11-8.78-36.59-2.01-4.08,3.26-5.1,7.48-7.05,11.75-1.88,4.12-2.48,9.75-7.05,12.08-3.06,1.57-3.62-.92-6.04-1.34.17,1.54-.34,1.27-.34,1.34,0,.65,1.54,2.38-1.34,2.69,2.73,5.19,12.14,5.12,10.41-1.17,4.46-3.08.17,1.09,7.55,5.2.45.25,2.52-.68,1.68,2.01H72.87l-.5-.5c9.05-7.13,4.6-12.78,11.25-2.18,2.97-1.06,6.01-1.62,9.06-2.35,1.03-.25.78-.99.84-1.01-.73-1.62-1.34.05-1.34-2.69v-.67c-3.49.11-9.09.75-11.08-2.85-.64-1.16-.52-2.94-.67-3.52-.19-.73-.24-1.33-.34-1.68-1.4-5.18-3.08-11.69-7.39-15.44-9.48-8.27-36.76-9.76-42.3,11.08-.28,1.22-.74,5.85-1.51,6.38-5.69.31-10.49,1.09-8.9-3.69-.05-.01.2-.54-.5-1.01-5.56-.15-4.94-.76-7.89-5.04-.08-.12-1.47-.85-1.17-1.34,4.28.32,12.52,1.22,16.28.67,2.09-.3,3.8-.82,3.69-3.36,0-.09-.61-1.61-.67-1.68-1.55-1.65-4.06-.36-6.04-1.01-1.32,1.34-11.49.76-12.42-.5-1.02-1.38,1.02-2.46-2.69-2.52-2.34.98-6.69,2.18-5.37,5.87.79,2.22,6.98-.13,9.9,8.9-11.07,3.12,6.67,9.99,15.78,6.04,4.94,3.14,2.76,3.16,3.52,4.87,2.1,4.67,4.28,7.85,8.06,11.41-9.91,1.21-28.21.89-37.09,2.85-8.34,1.84,1.04,2.66,3.86,3.02.76.1,1.58-.09,2.35,0,31.94,3.58,63.03,2.83,95,3.02,45.81.27,91.84.73,137.63,0,16.16-.26,32.38-.57,48.51-1.68,11.8-.81,46.73-3,12.76-5.71-13.55-1.08-27.23-.47-40.79-1.51,1.37-1.61,4.32-4.73,5.04-6.38,1.75-4.01.97-11.26,2.69-2.69,7.07,5.52,8.65-2.88,9.06-3.36.54-.62,3.33.52,4.53-3.19,7.44,2.92,8.26.35,8.73.34.63-.02,9.12,2.17,11.25-3.19,1.56-3.94-1.45-3.34-3.36-3.52-.14-.01-1.46.98-2.35-.17l-.5-6.55,11.58-.67c2.12-1.09,6.97-.24,6.04-4.2-1.14-4.84-13.87-2.36-14.1-3.69,2.07-1.68,1.61-2.38,1.68-2.52l-1.34-.67c-1.01,1.05-1.91.85-3.36.34-2.85-1.01.42-2.12-.67-4.36-.52,1.41-2.16,8.29-2.85,8.73-3.88.91-8.61-.31-11.58,2.85-.53,1.02-.25,2.05-.34,2.18Z"/>
        <g>
          <path class="cls-54" d="m215.71,95.33c4.57-2.34,5.17-7.97,7.05-12.08l-.67-1.01c-1.17,2.28-2.41,6.23-3.36,7.89-.36.63-5.28,4.84-3.02,5.2Z"/>
          <path class="cls-28" d="m227.45,71.5c-2.67,2.78-3.71,7.49-5.37,10.74l.67,1.01c1.95-4.27,2.97-8.49,7.05-11.75l-.67-1.01c-.66.54-1.59.92-1.68,1.01Z"/>
          <g>
            <path class="cls-16" d="m289.89,73.85c-2.45-.19-.34-1.45-2.52-1.34-1.27.06-4.82,3.45,1.68,3.69,1.21.05,23.03-1.27,24.17-1.68.32-.11.47-.64.5-.67-.51-.13-.64-.62-1.01-1.01-7.52-1.48-19.4,1.27-22.83,1.01Z"/>
            <path class="cls-43" d="m289.89,73.85c3.43.26,15.3-2.49,22.83-1.01-2.37-2.52-4.45-1.29-6.38-2.69-2.47-.05-19.71.73-16.45,3.69Z"/>
            <path class="cls-58" d="m306.34,70.15c1.93,1.39,4.01.16,6.38,2.69.37.39.5.87,1.01,1.01,3.13-2.99-5.85-3.66-7.39-3.69Z"/>
          </g>
          <path class="cls-6" d="m302.15,84.59c-2.3-.38-1.38,2.45-5.87.84,3.77,3.46,9.09-.31,5.87-.84Z"/>
          <path class="cls-6" d="m16.47,84.92c-1.53-.29-3.36.22-4.87.5,3.62.39,5.95,1.99,6.38,0-.85-.06-1.43-.49-1.51-.5Z"/>
          <g>
            <path class="cls-40" d="m12.95,72.84l-.34.67c3.16.69,6.75.83,6.38,2.01,1.57.08,8.49,1.12,9.06-.5,1.12-3.2-5.6-.71-15.11-2.18Z"/>
            <path class="cls-48" d="m18.99,75.53c.38-1.19-3.22-1.33-6.38-2.01-2.7-.59-6.78-.77-6.71-2.35-5.15,3.52,5.97,4.01,13.09,4.36Z"/>
            <path class="cls-41" d="m6.57,70.83c.9.94,2.2,1.02,3.36,1.34,2.63-2.8-1.14-2.43-3.36-1.34Z"/>
            <path class="cls-14" d="m5.9,71.16c-.06,1.58,4.01,1.76,6.71,2.35l.34-.67c-1.18-.18-1.88-.35-3.02-.67-1.15-.32-2.46-.41-3.36-1.34-.21.1-.49.21-.67.34Z"/>
          </g>
          <path class="cls-3" d="m300.8,67.8c-1.99-.71-3.59,1-3.19,1.51.88,1.13,4.95-.88,3.19-1.51Z"/>
          <g>
            <path class="cls-11" d="m249.44,70.49c-13.39-1.47-26.09,11.87-19.97,26.35,7.68,18.18,39.46,12.03,35.58-12.08-1.02-6.32-9.29-13.57-15.61-14.27Z"/>
            <path class="cls-68" d="m263.71,85.6h-2.01c1.19,5.92-1.29,11.32-6.21,14.77-13.44,9.43-32.49-5.96-21.99-20.48l-.67-.67c-8.16,10.96-1.18,24.05,9.57,26.18,12.04,2.4,23.79-7.28,21.32-19.81Z"/>
            <path class="cls-55" d="m232.83,79.22l.67.67c8.16-11.29,25.8-6.24,28.2,5.71h2.01c-2.55-12.9-20.83-19.88-30.88-6.38Z"/>
            <g>
              <path class="cls-17" d="m233.5,79.89c-10.5,14.51,8.55,29.9,21.99,20.48,4.92-3.45,7.4-8.85,6.21-14.77-2.4-11.95-20.03-16.99-28.2-5.71Z"/>
              <g>
                <path class="cls-24" d="m248.77,76.87c-19.17-2.47-21.49,26.8-1.01,25.18,16.82-1.34,16.21-23.22,1.01-25.18Z"/>
                <path class="cls-48" d="m240.21,92.65c.36.07,1.06.22,1.34.34-1.36-3.01-1.21-3.17-.34-6.04,2.09-6.81,12.89-2.59,10.41,4.87-.31.94-2.79,3.31-3.69,3.52,1.08,3.67,4.47,1.67,6.38-.84,6.84-9-5.24-15.62-10.91-13.93-4.22,1.25-5.51,8.35-3.19,12.08Z"/>
                <path class="cls-14" d="m241.22,86.94c3.31-4.41,11.14-2.57,9.74,3.69-1.27,5.66-5.82,3.89-9.4,2.35-.28-.12-.98-.27-1.34-.34,1.42,2.28,5.27,3.28,7.72,2.69.9-.22,3.38-2.58,3.69-3.52,2.49-7.46-8.32-11.68-10.41-4.87Z"/>
                <g>
                  <path class="cls-65" d="m241.22,86.94c-.88,2.87-1.03,3.04.34,6.04,3.58,1.54,8.13,3.31,9.4-2.35-1.44-2.15-2.19,3.87-6.55,2.01-7.11-3.02,5.78-10.31-3.19-5.71Z"/>
                  <path class="cls-19" d="m241.22,86.94c8.97-4.6-3.92,2.68,3.19,5.71,4.36,1.85,5.1-4.16,6.55-2.01,1.4-6.26-6.43-8.1-9.74-3.69Z"/>
                  <path class="cls-46" d="m247.09,86.6c-4.51-1.14-4.83,4.62-2.35,5.37,4.51,1.37,5.53-4.56,2.35-5.37Z"/>
                </g>
              </g>
            </g>
          </g>
          <g>
            <path class="cls-57" d="m66.99,102.05l-.67-1.01c-11.69,11.38-32.69.04-28.87-17.12l-.67-1.01c-5.29,17.93,16.45,32.62,30.21,19.13Z"/>
            <path class="cls-57" d="m61.29,71.5l-.67,1.01c4.05,1.39,7.37,4.92,9.06,8.73,2.88,6.48,1.89,14.7-3.36,19.81l.67,1.01c9.71-9.52,7.27-25.63-5.71-30.55Z"/>
            <path class="cls-33" d="m45.84,72.17l1.01,1.01c4.68-2.1,8.92-2.33,13.76-.67l.67-1.01c-5.77-2.18-9.87-2.17-15.44.67Z"/>
            <path class="cls-50" d="m45.84,72.17c-4.27,2.18-7.7,6.13-9.06,10.74l.67,1.01c.4-1.81,2.17-4.56,3.36-6.04,1.66-2.07,3.66-3.63,6.04-4.7l-1.01-1.01Z"/>
            <path class="cls-68" d="m40.81,77.88c-1.19,1.48-2.95,4.24-3.36,6.04-3.82,17.16,17.18,28.5,28.87,17.12,5.25-5.11,6.24-13.33,3.36-19.81l-1.01.34c5.24,13.27-10.47,28.17-23.5,17.79-7.31-5.82-9.73-14.83-2.35-21.82-.61-1.45-.83.33-2.01.34Z"/>
            <path class="cls-65" d="m46.85,73.18c-2.38,1.07-4.38,2.63-6.04,4.7,1.18,0,1.4-1.78,2.01-.34,7.92-7.5,21.5-4.78,25.51,3.69.22.47.33.31.34.34l1.01-.34c-1.69-3.81-5.01-7.34-9.06-8.73-4.84-1.66-9.09-1.43-13.76.67Z"/>
            <path class="cls-49" d="m42.82,77.54c-7.38,6.99-4.96,16,2.35,21.82l.34-.67c-8.52-7.17-1.39-21.25,6.55-22.49,4.41-.69,12.39,1.02,14.6,5.37l1.68-.34c-4.02-8.48-17.6-11.19-25.51-3.69Z"/>
            <path class="cls-49" d="m66.66,81.57c1.7,3.35,1.52,6.61.34,10.07-1.44,4.21-3.62,5.53-7.39,7.39-5.23,2.58-9.12,3.86-14.1-.34l-.34.67c13.02,10.38,28.74-4.52,23.5-17.79,0-.02-.11.14-.34-.34l-1.68.34Z"/>
            <g>
              <path class="cls-24" d="m45.51,98.69c4.98,4.19,8.87,2.92,14.1.34-.31-2.97,4.72-4.44,7.39-7.39,1.19-3.46,1.36-6.72-.34-10.07-2.21-4.35-10.19-6.06-14.6-5.37-7.94,1.24-15.06,15.32-6.55,22.49Z"/>
              <path class="cls-12" d="m59.61,99.02c3.76-1.86,5.94-3.18,7.39-7.39-2.67,2.94-7.69,4.41-7.39,7.39Z"/>
              <path class="cls-48" d="m48.53,91.97c-.97-2.44.17-7.31,2.85-8.39,6.52-2.62,10.77,4.29,7.55,9.06.29,4.97,8.84-6.95.17-11.75-6.56-3.63-13.02,1.85-13.6,4.2-.37,1.53.72,7.01,3.02,6.88Z"/>
              <g>
                <path class="cls-14" d="m48.53,91.97c1.44,3.64,8.19,3.96,10.41.67,3.21-4.77-1.04-11.68-7.55-9.06-2.68,1.08-3.82,5.95-2.85,8.39Z"/>
                <path class="cls-34" d="m51.22,84.92c-7.9,5.38,5.23,14.49,7.72,5.71-.87-3.17-1.8,1.25-3.52,1.68-2.64.66-5.31-1.51-4.87-4.2.45-2.72,5.11-3.1.67-3.19Z"/>
                <g>
                  <path class="cls-12" d="m51.22,84.92c4.44.09-.22.47-.67,3.19-.44,2.69,2.23,4.85,4.87,4.2,1.72-.43,2.66-4.85,3.52-1.68,1.42-5.03-3.42-8.64-7.72-5.71Z"/>
                  <path class="cls-46" d="m54.4,85.93c-4.61-.2-3.08,8.64,1.34,5.37,2.46-1.82.63-5.28-1.34-5.37Z"/>
                </g>
              </g>
            </g>
          </g>
        </g>
      </g>
    </g>
  </g>
</svg>