<?xml version="1.0" encoding="UTF-8"?>
<svg id="construction_worker" data-name="construction_worker" xmlns="http://www.w3.org/2000/svg" viewBox="0 0 121.83 179.61">
  <defs>
    <style>
      .cls-1 {
        fill: #a36205;
      }

      .cls-1, .cls-2, .cls-3, .cls-4, .cls-5, .cls-6, .cls-7, .cls-8, .cls-9, .cls-10, .cls-11, .cls-12, .cls-13, .cls-14, .cls-15, .cls-16, .cls-17, .cls-18, .cls-19, .cls-20, .cls-21, .cls-22, .cls-23, .cls-24, .cls-25, .cls-26, .cls-27, .cls-28, .cls-29, .cls-30, .cls-31, .cls-32, .cls-33, .cls-34, .cls-35, .cls-36, .cls-37, .cls-38, .cls-39, .cls-40, .cls-41, .cls-42, .cls-43, .cls-44, .cls-45, .cls-46, .cls-47, .cls-48, .cls-49 {
        stroke-width: 0px;
      }

      .cls-2 {
        fill: #7b985d;
      }

      .cls-3 {
        fill: #c16603;
      }

      .cls-4 {
        fill: #ac5d19;
      }

      .cls-5 {
        fill: #f3ce10;
      }

      .cls-6 {
        fill: #cb7622;
      }

      .cls-7 {
        fill: #bf6141;
      }

      .cls-8 {
        fill: #3b5b40;
      }

      .cls-9 {
        fill: #9faeba;
      }

      .cls-10 {
        fill: #fcf497;
      }

      .cls-11 {
        fill: #e1680b;
      }

      .cls-12 {
        fill: #51a2aa;
      }

      .cls-13 {
        fill: #082c3a;
      }

      .cls-14 {
        fill: #f5b492;
      }

      .cls-15 {
        fill: #909daa;
      }

      .cls-16 {
        fill: #1e272b;
      }

      .cls-17 {
        fill: #096073;
      }

      .cls-18 {
        fill: #6a743e;
      }

      .cls-19 {
        fill: #080908;
      }

      .cls-20 {
        fill: #1b7986;
      }

      .cls-21 {
        fill: #0f3951;
      }

      .cls-22 {
        fill: #e08359;
      }

      .cls-23 {
        fill: #3b929d;
      }

      .cls-24 {
        fill: #ce7049;
      }

      .cls-25 {
        fill: #0c2334;
      }

      .cls-26 {
        fill: #b65211;
      }

      .cls-27 {
        fill: #0b1219;
      }

      .cls-28 {
        fill: #f19a6b;
      }

      .cls-29 {
        fill: #faf859;
      }

      .cls-30 {
        fill: #4a2814;
      }

      .cls-31 {
        fill: #b3730a;
      }

      .cls-32 {
        fill: #f1ba12;
      }

      .cls-33 {
        fill: #d3870a;
      }

      .cls-34 {
        fill: #044454;
      }

      .cls-35 {
        fill: #f6f4f3;
      }

      .cls-36 {
        fill: #374656;
      }

      .cls-37 {
        fill: #2a343f;
      }

      .cls-38 {
        fill: #6d2e0d;
      }

      .cls-39 {
        fill: #9f470b;
      }

      .cls-40 {
        fill: #d1191a;
      }

      .cls-41 {
        fill: #5d6e77;
      }

      .cls-42 {
        fill: #1b0f09;
      }

      .cls-43 {
        fill: #eb8308;
      }

      .cls-44 {
        fill: #9e4d2a;
      }

      .cls-45 {
        fill: #1f251e;
      }

      .cls-46 {
        fill: #ef980a;
      }

      .cls-47 {
        fill: #feecd2;
      }

      .cls-48 {
        fill: #154f4e;
      }

      .cls-49 {
        fill: #e4a207;
      }
    </style>
    <script>
    const images = document.querySelectorAll('#construction_worker');

    function logId() {
    console.log('You clicked on', this.id);
    }

    images.forEach(image => image.addEventListener('click', logId));
    </script>
  </defs>
  <g id="Layer_1-2" data-name="Layer 1">
    <g>
      <g>
        <g>
          <g>
            <path class="cls-38" d="m21.42,86.46c-.24,1,1.85,17.66,2.15,20.46.08.72.22,1.18.27,1.62.2,1.82.61,3.6.81,5.38.14,1.33.13,2.72.27,4.04.13,1.23.41,2.54.54,3.77,1.05,9.76,2.01,19.61,2.83,29.34-.17.2-1.72.19-2.02.27l-3.23-29.21c-.23-.32-4.1.13-4.85.13l5.12-1.75c-.19-1.3-.34-2.6-.54-3.9-.07-.45.22-2.13-.13-2.42-.39-.32-2.39.93-2.56.4,2.88-.56,2.91-3.14,2.15-3.77-.45-.37-6.55,2.01,0-.81,0-.34-.53-1.4-.54-1.48-.6-7.32-1.79-14.88-2.96-22.08.88-.14,1.93-.48,2.69,0Z"/>
            <path class="cls-4" d="m26.26,151.34c-.85.21-4.77,1.1-5.12.4l-2.96-29.48c.75,0,4.62-.45,4.85-.13l3.23,29.21Z"/>
          </g>
          <path class="cls-26" d="m21.69,108.54c-4.82,1.02-4.84-.02-5.12,0l-2.15-21.27c1.45-.03,2.89-.58,4.31-.81,1.17,7.2,2.36,14.76,2.96,22.08Z"/>
        </g>
        <g>
          <path class="cls-37" d="m35.95,78.12l-10.9-.81c.1,7.21-5.79,3.01-3.63,6.46-.47-.45-1.2-1.18-1.75-1.08-1.16.42-4.96,1.11-5.79,1.08-.03,0-.19-.52-.4-.54-1.88-.18-3.01.63-4.31-1.08-1.2,1.76-4.94,2.55-6.86,2.42-2.63-.18-2.15-1.08-2.15-3.77-.58,5.53,8.41,1.46,8.61.4-.35-.86-.65-1.93-.81-2.83-.1-.57.12-1.49,0-1.88h.54c-.25,1.19,1.23,5.5,2.29,5.92,4.35-.02,9.59.18,13.06-2.83-.19-.72.04-3.71,0-3.9,4.65.79,8.07-.15,12.11,2.42Z"/>
          <path class="cls-15" d="m35.95,78.12c-4.04-2.57-7.46-1.64-12.11-2.42-.02-.1-.69-1.68-.81-1.88,3.05-.78,6.14-1.5,9.29-.81,5.52,1.21,6.24,6.77,3.63,5.12Z"/>
          <path class="cls-15" d="m3.92,74.62c1.93-.13,3.42-.12,4.04,1.88.12.4-.1,1.31,0,1.88-1.7,2.09-6.87,3.91-7.81.27-.72-2.81,1.31-3.88,3.77-4.04Z"/>
          <path class="cls-36" d="m21.42,83.77c2.24,2.13.36,1.15,0,2.69-.76-.48-1.81-.14-2.69,0-1.42.23-2.86.78-4.31.81-.25,0-.69.72-1.35-.13l.81-3.37c.83.03,4.63-.65,5.79-1.08.55-.1,1.28.63,1.75,1.08Z"/>
          <path class="cls-36" d="m.15,80.81v-2.15c.94,3.64,6.11,1.82,7.81-.27.16.9.46,1.97.81,2.83-.2,1.05-9.19,5.13-8.61-.4Z"/>
          <g>
            <path class="cls-36" d="m23.03,73.81c.12.2.79,1.78.81,1.88.04.19-.19,3.19,0,3.9-3.47,3.01-8.71,2.81-13.06,2.83-1.06-.42-2.54-4.74-2.29-5.92l1.21-2.15c3.9-.59,7.71-1.86,11.58-2.42.12.03,1.63,1.69,1.75,1.88Z"/>
            <path class="cls-9" d="m21.55,73.81c.65.11.89.73.67,1.21-.28.62-12.45,4.34-12.92,2.69-.5-1.74,3.99-1.45,6.33-2.02,2.44-.6,5.62-1.93,5.92-1.88Z"/>
          </g>
        </g>
      </g>
      <g>
        <g>
          <path class="cls-24" d="m119.14,117.69l-1.62,23.56c-.25.65-7.68,3.23-11.58-.4,10.98,1.72,9.89-10.52,10.77-18.71-.33-.53-2.96.57-3.5.67-1.81.33-3.59.7-5.38,1.08v-4.31c.99-.05,10.53-1.63,11.31-1.88Z"/>
          <path class="cls-22" d="m105.95,140.84c-.69-.64-1.01-.93-1.35-1.88.94-1.21.52,1,1.88-.4,2.38-2.45,6.5-11.8,6.73-15.75.54-.1,3.17-1.2,3.5-.67-.88,8.19.21,20.43-10.77,18.71Z"/>
          <path class="cls-28" d="m113.22,122.81c-.23,3.95-4.35,13.3-6.73,15.75-1.36,1.4-.95-.81-1.88.4-.06-.61-.26,0-.27,0-.53-.19.04-.96-.81-.81.15-1.08-.1-2.17-.27-3.23.73-.49,1.55-2.6,1.88-3.5,3.62-1.68,2.58-3.96,2.69-7.54,1.79-.38,3.58-.75,5.38-1.08Z"/>
        </g>
        <path class="cls-19" d="m47.8,95.35c-.7.06-4.1-.31-4.31-.27-.04-6.24,3.18-11.37,5.38-16.96.46-.36.88-.72,1.35-1.08-.14.8-2.75,4.96-2.69,5.25.1.48,1.68.77,2.02.67.49-.14,3.79-7.86,5.52-8.61-.4,2.02-6.15,6.95-7.27,21Z"/>
        <g>
          <path class="cls-46" d="m96.53,74.62c-4.93,0-8.36,5.04-11.04,8.61-1.02-.12-2.06-.29-3.1-.27-1.07-.66,3.31-2.57,3.77-2.96,1.37-1.19,3.21-4.01,4.44-5.65.44-.58,1.04-1.08,1.08-1.88,1.88.65,4.92,1.67,4.85,2.15Z"/>
          <path class="cls-48" d="m96.53,74.62c.27,0,.55-.03.81,0-.05.87-3.94,1.35-4.44,1.62-.45.24-6.88,6.83-7.13,7.27.03-.23-.07-.25-.27-.27,2.68-3.58,6.1-8.61,11.04-8.61Z"/>
          <path class="cls-19" d="m90.6,74.35c-1.23,1.64-3.07,4.47-4.44,5.65-.46.4-4.83,2.3-3.77,2.96,1.04-.02,2.07.15,3.1.27.2.02.3.04.27.27-1.09,1.91-2.69,9.23-2.96,11.58h-4.85c.55-2.33.3-3.49,2.15-8.61.58-1.62,1.26-3.24,1.88-4.85,4.25-1.65,5.91-4.26,8.48-7.81l.13.54Z"/>
          <path class="cls-40" d="m82.8,95.08c-.19,1.63-.26,3.73-.27,5.38h-.27c-.08-.38.16-.71-.4-1.08-1.57-.03-3.14.05-4.71,0,.03-.23-.06-.25-.27-.27.09-3.6,1.03-3.83,1.08-4.04h4.85Z"/>
        </g>
        <g>
          <path class="cls-25" d="m97.07,168.04c.89.04,1.8-.05,2.69,0-1.74.34.87,2.15,1.35,4.58-2.71,1.03-4.65,1.71-7.54,2.15-1.2.19-2.39.6-3.63.54-1.1-.45,2.81-5.13,3.5-5.65,1.23-.93,3.08-1.29,3.63-1.62Z"/>
          <g>
            <path class="cls-19" d="m99.22,165.34c-.05.22-.42.53-.27,1.48-.24.4-1.25.84-1.88,1.21-.56.33-2.4.68-3.63,1.62-.69.52-4.6,5.21-3.5,5.65,1.24.07,2.43-.35,3.63-.54.41,1.45,7.55-.21,7.81-.67.15-.96-.23-1.27-.27-1.48-.48-2.42-3.08-4.24-1.35-4.58.77.05,1.07.18,1.62.27-.05,2.76,5.31.27,7.81,8.61-3.08,3.05-17.94,2.5-22.34,2.15-2.39-.19-4.78-.23-7.13-.81-.57-.44-.21-3.99-.13-4.85.06-.75.51-1.51.54-2.42,1.26-.25,4.32-2.05,4.58-3.23,2.15-.01,7.15,0,8.75-.27.16-.03.64-.77.81-.81,1.68-.36,3.89-.45,4.98-1.35Z"/>
            <path class="cls-19" d="m109.99,175.57c-.05,1.07-.21.75-.81,1.35-2.49-8.35-7.85-5.86-7.81-8.61,3.57.56,8.84,2.91,8.61,7.27Z"/>
            <path class="cls-25" d="m86.7,168.3c.43-.14,5.17-.14,5.25.4-3.09,2.56-3.04,8.67-7.94,6.33-2.54-1.22,2.3-6.61,2.69-6.73Z"/>
          </g>
          <path class="cls-19" d="m101.1,172.61c.04.21.42.52.27,1.48-.26.46-7.4,2.12-7.81.67,2.89-.44,4.82-1.13,7.54-2.15Z"/>
          <path class="cls-16" d="m84.68,167.77c-.25,1.18-3.32,2.98-4.58,3.23.05-1.33.35-2.31.27-2.96,1.24-.47,2.93-.26,4.31-.27Z"/>
        </g>
        <g>
          <path class="cls-19" d="m102.45,135.19c-.1.55.35,4.37.67,4.31.14-.45.34-.88.4-1.35.85-.15.28.62.81.81-.22,1.55-1.5,2.47-2.69,3.23-6.33-.15-5.33-1.69-5.92-7.27l6.73.27Z"/>
          <path class="cls-35" d="m103.26,134.92c.17,1.06.42,2.15.27,3.23-.07.47-.26.9-.4,1.35-.32.06-.77-3.76-.67-4.31l.81-.27Z"/>
          <path class="cls-11" d="m98.55,135.46c2.52-1.06,2.37,8.07.13,4.17-.11-.19-.73-3.92-.13-4.17Z"/>
        </g>
        <g>
          <g>
            <path class="cls-21" d="m47.53,69.23c-2.08-1.66-3.39-2.91-4.85-5.12,6.67,4.25,11.77.86,13.06,1.35,6.54,8.09,24.75,1.93,32.98-1.75-8.33,8.93-25.49,12.02-36.48,7.67-1.68-.67-3.05-2.27-4.71-2.15Z"/>
            <path class="cls-21" d="m44.57,52c2.05.25-.71,8.58,3.5,5.38,1.31-.2,5.87-2.41,6.73-3.23l4.58,3.63c-6.12,6.5-13.26,8.87-19.38.94-.46-2.27-.36-4.59,0-6.86,4.12,6.01,4.24,8.19,4.58.13Z"/>
            <path class="cls-21" d="m69.07,53.08c1.09.95,1.58,2.56,4.71,2.69,3.12-2.04,4.44,2.13,11.17,1.35,1.87-.22,2.97-.61,4.58-1.62-4.31,6.76-13.14,7.83-20.33,5.65-9.1-2.75-3.69-3.78-2.96-4.31.65-.47,4.71-3.5,2.15-3.5-.25,0-1.41,1.97-1.75,1.08.7-.48,1.17-1.16,1.88-1.62.06.05.48.22.54.27Z"/>
            <g>
              <path class="cls-25" d="m98.95,32.08c1.89.63,3.61,1.2,5.38,2.15-.59,2.2-.63,4.51-1.08,6.73-.11.56-.28,1.11-.54,1.62-.71-.39-2.13-.56-2.96-.54-5.98.17-4.22,5.53-4.31,9.15,0,.14-.22.83-.27,2.69,0,.07-.66.46-.54,1.21.16.47,2.35.94,2.69.94-2.27,5.79-6.52,10.55-11.31,14.4.01.17,1.58.82,1.88.94-1.29.67-2.71,1.02-4.04,1.62,1.33-2.36-3.66.75-7.67,1.62-4.82,1.04-12.54,1.46-17.36.54-1.64-.31-2.38-.8-3.77-1.35-.2-.08-.34-.18-.54-.27-2.95-1.25-4.57-2.38-7-4.31,1.66-.12,3.03,1.49,4.71,2.15,10.99,4.34,28.14,1.26,36.48-7.67-8.23,3.68-26.44,9.84-32.98,1.75-1.28-.49-6.39,2.91-13.06-1.35-1.05-1.6-2.31-3.49-2.69-5.38,6.12,7.92,13.26,5.55,19.38-.94l-4.58-3.63c.38-.36.75-.93,1.08-1.35.14.02.48.45.54.54.08.13.23.49.27.54,2.68,3.02,6.91,2.64,9.96.54.34.9,1.5-1.08,1.75-1.08,2.56,0-1.5,3.03-2.15,3.5-.73.53-6.14,1.55,2.96,4.31,7.18,2.17,16.02,1.11,20.33-5.65,1.07-.67,2.39-1.84,2.96-2.96,2.11-4.11-3.03-13.1-2.96-18.17l-1.21-1.21c-12.55-2.87-25.52-3.42-38.23-1.35-.38.26-.63.77-.67.81-4.19,3.85-3.7,19.37-3.23,24.9,1.05.44,1.69-.1,1.88-.13-4.21,3.19-1.45-5.14-3.5-5.38.04-.89,0-1.8,0-2.69.02-2.62-.36-5.18-.27-7.81.06-1.6.08-3.56.27-5.12.31-2.56,1.18-5.07,1.88-7.54,16.54-1.63,36.57-2.05,52.5,3.23Z"/>
              <g>
                <g>
                  <path class="cls-21" d="m89.93,33.43c3.91.86,5.63,4.45,6.86,7.94v.81c-4.59,3.38-.63,7.49-2.83,7.94-.39-2.03-4.93-16.05-4.04-16.69Z"/>
                  <path class="cls-21" d="m92.35,54.16c1.52.49-3.08,8.43-9.29,8.75,4.01-1.83,6.92-5.16,9.29-8.75Z"/>
                </g>
                <g>
                  <path class="cls-22" d="m69.34,63.31c.1.05,1.21.07,2.15.67-4.8,4.65-10.57,5.5-15.35.27-.05-.67.76-.66,1.08-.94,2.09,3.52,9.86,3.33,12.11,0Z"/>
                  <path class="cls-28" d="m67.99,62.77c.07.03.52.16,1.35.54-2.26,3.33-10.03,3.52-12.11,0,.32-.29.57-.35.81-.54,3.22,1,6.77,1.29,9.96,0Z"/>
                  <path class="cls-24" d="m65.57,61.43c.84.39,1.62.96,2.42,1.35-3.19,1.29-6.74,1-9.96,0,.53-.42,1.32-.99,1.88-1.35.83.84,4.82.84,5.65,0Z"/>
                  <path class="cls-14" d="m65.57,61.43c-.83.84-4.82.84-5.65,0,.86-.54,2.48-1.92,2.83-1.88.79.85,1.79,1.4,2.83,1.88Z"/>
                </g>
              </g>
            </g>
          </g>
          <g>
            <path class="cls-3" d="m84.14.85c4.72,3.37,2.11,1.25-.27,2.69-5.14,3.13-8.98,13.72-9.69,19.52,8.8.59,16.82,1.61,25.31,4.17,1.52,1.62,8.61,2.92,6.19,3.77-14.79-5.23-32.15-7.55-47.79-6.73-2.71.14-18.86,1.91-19.92,3.77-.3.53.59,2.05.67,2.69h-.27c-1.3-2.6-2.01-3.19,4.17-5.12.87-.27,3.91-.89,4.98-1.08,3.57-.61,7.42-.88,11.04-1.08.33-.02.72.03,1.35,0,1.52-.07,11.26.35,11.58-.13,1.08-8.11,3.77-16.66,9.96-22.34-4.62-.13-9.23-.95-12.92,2.29l-1.08-.27c5.66-2.52,6.09-4.06,16.69-2.15Z"/>
            <path class="cls-33" d="m106.49,31.54c.14.05,1.37.13,2.69.81.4,2.01.81,3.85.54,5.92-1.9-1.82-3.1-2.8-5.38-4.04-1.77-.96-3.49-1.53-5.38-2.15.07-.71-1.96-1.3-2.96-1.62l1.08-1.35c1.45.35,5.99,1.43,6.86,1.88,1.83.94,1.38,3.13,2.56.54Z"/>
            <path class="cls-26" d="m109.18,32.35c-1.32-.68-2.55-.76-2.69-.81-.05-.02-.07-.28-.81-.54,2.41-.85-4.68-2.15-6.19-3.77.33.1.75.16,1.08.27,1.83.58,3.56,1.54,5.38,2.15.3.1,1.74.92,1.88.67-2.12-9.32-7.54-20.06-16.29-24.63-1.83-.96-5.85-2.87-7.67-2.15,2.38-1.45,4.99.68.27-2.69l11.17,6.19c7.19,5.15,12.18,16.91,13.86,25.31Z"/>
            <path class="cls-33" d="m67.45,3.01l1.08.27c-2.33,2.05-7.65,10.38-7.27,13.73-.53,1.57-.53,2.09-.81,3.5-.19.98-.66,1.93-.54,2.96-.63.03-1.01-.02-1.35,0,.31-7.47,3.89-14.34,8.88-19.79-15.3,5.09-17.09,16.54-19.65,20.33,3.2-11.38,9.35-16.4,19.65-21Z"/>
            <path class="cls-26" d="m46.45,28.85c-.71,2.47-1.57,4.97-1.88,7.54-2.37-1.72-4.82-2.91-6.19-5.65h.27c1.77-.98,2.51-1.48,4.58-1.88,3.05-.6,3.07.02,3.23,0Z"/>
            <path class="cls-39" d="m109.72,38.27c-.08.6.26,1.49-.4,1.88l-6.06.81c.45-2.22.49-4.53,1.08-6.73,2.29,1.24,3.49,2.21,5.38,4.04Z"/>
            <path class="cls-32" d="m72.3,25.62c.34.64-.21,1.44.13,1.62,1.06.54,13.86.22,23.56,3.23,1,.31,3.03.91,2.96,1.62-15.93-5.28-35.95-4.86-52.5-3.23-.16.02-.18-.6-3.23,0-2.48-1.12,3.9-2.24,7.4-2.69,6.86-.89,14.76-.91,21.67-.54Z"/>
            <path class="cls-5" d="m105.95,29.66c-.67-7.8-4.86-12.91-10.36-18.04-.82.2,1.86,3.55,2.02,3.9,1.17,2.65,2.78,8.94,2.96,11.98-.33-.11-.74-.17-1.08-.27-8.49-2.56-16.5-3.58-25.31-4.17.71-5.8,4.55-16.39,9.69-19.52,1.82-.72,5.84,1.2,7.67,2.15,8.75,4.58,14.16,15.31,16.29,24.63-.14.24-1.58-.57-1.88-.67Z"/>
            <path class="cls-5" d="m59.91,23.47c-.12-1.04.35-1.98.54-2.96,1.82-3.67,3.14-7.72,5.38-11.17,2.5-3.85,9.15-9.79,4.17-6.06-3.47,2.6-7.36,9.6-8.75,13.73-.38-3.35,4.94-11.68,7.27-13.73,3.69-3.24,8.3-2.42,12.92-2.29-6.19,5.68-8.88,14.24-9.96,22.34-.31.49-10.05.07-11.58.13Z"/>
            <path class="cls-5" d="m105.68,31.01c.74.26.76.52.81.54-1.18,2.59-.73.4-2.56-.54-.88-.45-5.41-1.53-6.86-1.88-6.86-1.65-17.71-3.12-24.77-3.5-6.91-.37-14.81-.35-21.67.54-3.51.46-9.88,1.57-7.4,2.69-2.07.41-2.8.91-4.58,1.88-.08-.64-.97-2.16-.67-2.69,1.06-1.86,17.21-3.63,19.92-3.77,15.64-.82,33,1.5,47.79,6.73Z"/>
            <g>
              <path class="cls-5" d="m58.57,23.47c-3.61.2-7.47.47-11.04,1.08.04-.18.17-.39.27-.54,2.56-3.78,4.35-15.24,19.65-20.33-4.99,5.45-8.57,12.32-8.88,19.79Z"/>
              <path class="cls-10" d="m64.36,5.43l-7.67,7.67c-2.99,3.56-6.61,11.02-7.13,10.63,1.26-7.47,8.27-14.73,14.81-18.31Z"/>
            </g>
            <path class="cls-46" d="m97.07,29.12l-1.08,1.35c-9.69-3.01-22.5-2.69-23.56-3.23-.35-.18.21-.97-.13-1.62,7.06.38,17.91,1.85,24.77,3.5Z"/>
            <path class="cls-33" d="m105.95,29.66c-1.82-.62-3.56-1.57-5.38-2.15-.18-3.04-1.79-9.33-2.96-11.98-.16-.36-2.83-3.7-2.02-3.9,5.51,5.13,9.7,10.23,10.36,18.04Z"/>
            <path class="cls-29" d="m60.45,20.51c.28-1.41.28-1.93.81-3.5,1.39-4.13,5.28-11.13,8.75-13.73,4.97-3.73-1.67,2.21-4.17,6.06-2.24,3.45-3.57,7.5-5.38,11.17Z"/>
          </g>
        </g>
        <g>
          <g>
            <path class="cls-19" d="m66.64,167.23c2.06,1.23,1.61,4.04,1.88,6.19.3,2.37,1.19,4.07.4,4.58-1,.76-8.91.48-10.36,1.62-3.64-.08-20.9.44-21.54-4.04-.01-.09,0-.18,0-.27l12.52-1.62.4-.4-2.69-4.98c1.36-.15,2.66-.45,4.04-.27,1.4,1.04,2.43,2.43,3.5,3.77.47.59.94,2.38,1.48,2.69,2.34,1.35,1.81-2.33.67-4.58-.2-.4-.64-1.5-.94-1.62-9.43-.78.49-.21,5.25-.54,1.58,8.53,3.35,5.11,2.42.67-.04-.18-.74-.54-.81-.94.16-.02.98-.73,1.48-.81.12-.02,2.1.56,2.29.54Z"/>
            <path class="cls-25" d="m47.26,168.3l2.69,4.98-.4.4-12.52,1.62c-.08-5.08,6.38-6.58,10.23-7Z"/>
          </g>
          <path class="cls-25" d="m62.87,167.5c.07.4.77.77.81.94.93,4.44-.85,7.86-2.42-.67.53-.04,1.08-.21,1.62-.27Z"/>
          <path class="cls-27" d="m54.8,171.8l2.15-1.88c1.14,2.25,1.66,5.93-.67,4.58-.54-.31-1.01-2.1-1.48-2.69Z"/>
        </g>
        <g>
          <path class="cls-28" d="m27.88,111.77c.08.04.22-.04.27,0-.54,1.8-2.05,5.29-3.23,6.19-.14-1.32-.12-2.71-.27-4.04.64-.75,1.47-1.82,1.88-2.69.18.84.97.37,1.35.54Z"/>
          <path class="cls-44" d="m26.53,111.23c-.42.87-1.24,1.95-1.88,2.69-.19-1.78-.61-3.56-.81-5.38.42.17,1.09.19,1.35.27.7.23.33,1.11,2.42-.81.03.94-.66,2.37-1.08,3.23Z"/>
          <path class="cls-24" d="m26.26,106.12l-1.08,2.69c-.25-.08-.93-.1-1.35-.27-.05-.44-.19-.89-.27-1.62,1.42-.38,1.15-1.26,2.69-.81Z"/>
          <path class="cls-14" d="m27.61,108c-2.09,1.92-1.73,1.04-2.42.81l1.08-2.69c1.19.35,1.31.79,1.35,1.88Z"/>
          <path class="cls-44" d="m29.76,115c.04.09.17.54.54,1.35.43.94,1.39,4.46,1.62,4.85l-6.46.54c-.13-1.23-.41-2.54-.54-3.77,1.18-.9,2.69-4.39,3.23-6.19.41.3,1.25,2.45,1.62,3.23Z"/>
          <path class="cls-24" d="m22.76,116.62c.2,1.3.35,2.6.54,3.9l-5.12,1.75c-.44,0-1.03.44-2.02.27-1.77-.42-2.61-4.84-2.83-6.46,1.59.59,2.19,3.95,3.9,4.31,1.43.3,5.97-1.69,5.25-2.56-.37-.44-4.07.32.27-1.21Z"/>
          <g>
            <path class="cls-28" d="m16.57,108.54c.28-.02.3,1.02,5.12,0,0,.08.54,1.14.54,1.48-6.55,2.81-.45.44,0,.81.76.63.72,3.21-2.15,3.77.17.53,2.17-.73,2.56-.4.35.3.06,1.97.13,2.42-4.33,1.53-.64.77-.27,1.21.72.86-3.82,2.86-5.25,2.56-1.71-.36-2.32-3.71-3.9-4.31-.46-3.39-1.27-7.16,3.23-7.54Z"/>
            <path class="cls-14" d="m15.36,109.08c1.38.07,1.16,6.96,1.08,8.35-4.12-2.42-3.33-8.46-1.08-8.35Z"/>
          </g>
        </g>
        <g>
          <path class="cls-20" d="m119.14,117.69c-.78.25-10.32,1.83-11.31,1.88-.2.01-2.57-.74-4.04,0,.02-1.07.03-2.16,0-3.23,7.05-2.7,12.62-7.39,13.19-15.35.09-1.29.11-3.99,0-5.25-.01-.17-.95-1.27,0-1.48,2.86,7.05,4.7,14.6,4.85,22.21-.08.2-2.29,1.08-2.69,1.21Z"/>
          <path class="cls-12" d="m91.68,72.46c-.04.8-.64,1.3-1.08,1.88l-.13-.54c-2.57,3.55-4.23,6.15-8.48,7.81-.77.3-3.12,1.11-3.5.81-.44-.67-.94-.88-1.35-1.35-.72-.83-1.87-1.4-2.42-2.42v-.27c3.07-1.78,5.9-3.92,9.15-5.38,1.32-.6,2.75-.94,4.04-1.62,1.19.48,2.55.66,3.77,1.08Z"/>
          <path class="cls-12" d="m116.99,101c-.57,7.96-6.14,12.64-13.19,15.35,0-.27.01-.54,0-.81-.02-.36.02-.72,0-1.08-.08-1.12-.34-3.55-.54-4.58,7.72-2.84,12.64-1.3,9.83-7.81-1.01.59-7.67,2.48-5.92,1.35.43-.28,8.84-2.85,9.83-2.42Z"/>
          <path class="cls-23" d="m94.64,106.39c0,.53.75,3.81.4,4.04l-9.83.81c-.16-.23-1.66-.68-2.42-4.85h11.85Z"/>
          <g>
            <path class="cls-12" d="m116.99,94.27c-.95.22-.01,1.31,0,1.48.11,1.26.09,3.96,0,5.25-.99-.42-9.4,2.14-9.83,2.42-1.75,1.13,4.92-.76,5.92-1.35,2.81,6.51-2.11,4.97-9.83,7.81,0-.02-.19.11-.27-.27-1.66-8.01-6.33-15.05-7.67-23.15-.08,6.64-.56,13.29-.67,19.92h-11.85c-.35-1.94-.28-3.96-.27-5.92.01-1.66.08-3.75.27-5.38.27-2.35,1.88-9.67,2.96-11.58.25-.44,6.69-7.03,7.13-7.27.5-.27,4.4-.75,4.44-1.62,1.22.13,5.89,2.44,7.13,3.23,6.18,3.91,9.84,9.83,12.52,16.42Z"/>
            <path class="cls-40" d="m83.6,95.62c-1,2.45,6.13,2.46,4.85-.27.4.16.82-.22,1.08.67,1.2,4.11-3.45,3.46-6.06,3.37-.6-.28-.18-3.31.13-3.77Z"/>
            <path class="cls-6" d="m88.45,95.35c1.29,2.73-5.85,2.72-4.85.27.12-.17.18-.42.4-.54,1.46.13,3.02-.3,4.44.27Z"/>
            <path class="cls-23" d="m105.28,103.96c2.34-.39-1.04,1.28-1.21.67-.04-.14,1.1-.65,1.21-.67Z"/>
          </g>
          <g>
            <path class="cls-12" d="m43.49,95.08c-.38.08-.71-.16-1.08.4-.22.4-.18,2.03-.27,2.56-.32-.05-.48-1.05-.94-.81-1.54.81-2.31,13.14-3.63,15.35l-7.81,2.42c-.37-.79-1.21-2.93-1.62-3.23-.05-.04-.19.04-.27,0-.13-1.81,1.82-7.38,2.69-9.56,4.4-11.04,9.11-16.96,18.31-24.09-2.2,5.59-5.42,10.72-5.38,16.96Z"/>
            <path class="cls-20" d="m42.15,98.04c-.3,1.74.28,1.26.27,1.35-.03.15-.6.35-.81,1.48-1.05,5.84-2.18,11.96-1.88,17.9l-.27.27c-.17,1.12.2,1.85.27,2.42l-4.98,2.96c-.33-.7-2.72-3.05-2.83-3.23-.22-.38-1.18-3.91-1.62-4.85,2.32-.97,6.03-1.7,7.27-3.77,1.32-2.21,2.09-14.54,3.63-15.35.47-.24.62.75.94.81Z"/>
            <path class="cls-23" d="m37.57,112.58c-1.24,2.07-4.95,2.8-7.27,3.77-.37-.8-.5-1.26-.54-1.35l7.81-2.42Z"/>
          </g>
          <path class="cls-13" d="m74.72,78.66c.55,1.02,1.7,1.59,2.42,2.42-.91,1.15-2.01,2.11-2.96,3.23l-3.5-2.96c1.3-.93,2.55-2.05,4.04-2.69Z"/>
          <path class="cls-20" d="m78.49,82.43c.06.09.65,1.53.81,1.88-1.79.93-5.26,1.27-6.19,1.62-.04-.49.6-1.04,1.08-1.62.95-1.13,2.05-2.08,2.96-3.23.41.47.91.68,1.35,1.35Z"/>
          <path class="cls-20" d="m81.99,81.62c-.62,1.61-1.3,3.23-1.88,4.85-.46-.67-.49-1.43-.81-2.15-.15-.35-.75-1.8-.81-1.88.38.3,2.73-.51,3.5-.81Z"/>
          <g>
            <path class="cls-20" d="m102.99,109.62h-7.4c-.38,1.18-.03,2.34.13,3.5.15,1.05.59,1.91.27,2.42-1.66,0-3.86.14-5.38,0-1.77-.33-4.61-2.56-5.65-3.9-.01-.02.37-.26.27-.4l9.83-.81c.35-.23-.41-3.51-.4-4.04.12-6.63.59-13.28.67-19.92,1.34,8.1,6.01,15.15,7.67,23.15Z"/>
            <path class="cls-34" d="m102.99,109.62c.08.37.27.25.27.27.19,1.02.46,3.46.54,4.58-2.83.41-5.29-1.2-8.08-1.35-.16-1.16-.51-2.32-.13-3.5h7.4Z"/>
            <path class="cls-17" d="m103.8,114.46c.02.36-.02.72,0,1.08-2.6,0-5.2,0-7.81,0,.32-.52-.12-1.37-.27-2.42,2.79.14,5.24,1.76,8.08,1.35Z"/>
          </g>
          <path class="cls-17" d="m74.18,84.31c-.48.57-1.11,1.12-1.08,1.62-.98.36-1.32.94-2.02,1.62.16-2.57-1.26-2.57-2.56-4.58.64-.36,1.48-1.13,2.15-1.62l3.5,2.96Z"/>
          <path class="cls-23" d="m63.68,93.46c-.96,3.24-.79,6.46-2.69,5.12.6-1.54,1.57-4.64,2.69-5.12Z"/>
          <g>
            <path class="cls-12" d="m58.84,75.16l6.86,10.23,2.02-1.88c.32-.12.51-.37.81-.54,1.29,2,2.72,2.01,2.56,4.58.7-.68,1.04-1.25,2.02-1.62.93-.35,4.4-.69,6.19-1.62.32.72.34,1.49.81,2.15-1.85,5.13-1.6,6.28-2.15,8.61-.05.21-.98.44-1.08,4.04-4.06-.31-8.78.23-12.92,0,.5-1.86.7-3.77,1.08-5.65,1.91-9.57,1.24-8.72-1.35,0-1.12.48-2.09,3.58-2.69,5.12-.17.43-.35.29,0,.81-4.49.04-8.97-.03-13.46,0,.54-1.2.17-2.73.27-4.04,1.11-14.05,6.87-18.98,7.27-21,.03-.16-.02-.36,0-.54,1.39.55,2.13,1.03,3.77,1.35Z"/>
            <g>
              <path class="cls-2" d="m76.87,99.12c.21.02.3.04.27.27-4.39-.13-8.8.1-13.19,0v-.27c4.14.23,8.86-.31,12.92,0Z"/>
              <g>
                <g>
                  <path class="cls-13" d="m61.26,83.77c-2.13-1.36-2.69-5.02-4.85-2.96l2.56-3.5c2.49,2.66,2.58,3,2.29,6.46Z"/>
                  <path class="cls-20" d="m61.26,83.77c-.04.44-.25,2.89-.4,2.96l-4.44-5.92c2.15-2.06,2.71,1.6,4.85,2.96Z"/>
                </g>
                <path class="cls-18" d="m65.03,93.46h-.27c1.24-7.22-1.72,3.66-2.15,5.92-.18-.01-.37.03-.54,0-1.03-.17-.88,0-1.08,0-.35-.52-.17-.37,0-.81,1.9,1.34,1.73-1.88,2.69-5.12,2.59-8.72,3.25-9.57,1.35,0Z"/>
                <path class="cls-8" d="m65.03,93.46c-.37,1.88-.58,3.8-1.08,5.65v.27c-.77-.42.65-5.01.81-5.92h.27Z"/>
              </g>
            </g>
          </g>
        </g>
        <g>
          <path class="cls-31" d="m101.1,142.73c-.63,6.35-.76,12.78-1.62,19.11-1.68.29-3.48-.27-5.12-.27l-.54-16.96c1.83-.43,6.09-1.31,7.27-1.88Z"/>
          <path class="cls-16" d="m99.49,161.84c-.2,1.51-.21,3.2-.27,3.5-1.09.89-3.3.98-4.98,1.35-.17.04-.65.78-.81.81-1.6.27-6.6.26-8.75.27-1.38,0-3.06-.21-4.31.27-1.19-1.83-1.18-4.07-1.62-6.19,5.2.29,10.43-.27,15.61-.27,1.63,0,3.43.56,5.12.27Z"/>
          <path class="cls-38" d="m95.72,134.92c.59,5.58-.41,7.12,5.92,7.27-.03.02-.01.28-.54.54-1.18.57-5.44,1.46-7.27,1.88-.09.02-.18-.02-.27,0-.45-3.23-1.11-6.53-1.88-9.69h4.04Z"/>
          <path class="cls-32" d="m55.07,73.81c-.02.17.03.37,0,.54-1.73.75-5.02,8.47-5.52,8.61-.34.1-1.92-.19-2.02-.67-.06-.29,2.55-4.45,2.69-5.25,1.47-1.12,2.9-2.3,4.31-3.5.2.08.34.19.54.27Z"/>
          <path class="cls-16" d="m69.07,161.84c-.21,1.65-.17,3.35-.54,4.98-2,.12-1.79.4-1.88.4-.19.02-2.17-.56-2.29-.54-.51.08-1.32.79-1.48.81-.53.06-1.08.23-1.62.27-4.76.33-14.68-.24-5.25.54.3.11.74,1.22.94,1.62l-2.15,1.88c-1.07-1.34-2.1-2.73-3.5-3.77l-.81-1.48c-.28-1.55-.41-3.19-.81-4.71h.27c4.66.29,9.36-.27,14-.27,1.63,0,3.43.56,5.12.27Z"/>
          <path class="cls-6" d="m41.88,128.46c2.97,11.06,6.32,22.05,8.08,33.38h-.27c-2.87-11.06-5.69-22.27-8.35-33.38h.54Z"/>
          <path class="cls-40" d="m43.49,95.08c.21-.04,3.61.33,4.31.27-.1,1.31.27,2.84-.27,4.04h-5.12c.01-.08-.57.39-.27-1.35.09-.53.05-2.15.27-2.56.36-.57.7-.33,1.08-.4Z"/>
          <path class="cls-39" d="m95.99,115.54c2.6,0,5.2,0,7.81,0,.01.27,0,.54,0,.81.03,1.07.02,2.16,0,3.23-.02.66-.24,1.33-.27,1.88-2.01,1.35-.57-3.05-1.21-3.5-.34-.24-7.09.12-8.21.54-1.08-.13-2.39.1-3.5,0l-.27-2.96c.09.01.18,0,.27,0,1.52.14,3.72,0,5.38,0Z"/>
          <path class="cls-32" d="m93.83,144.61l.54,16.96c-5.18,0-10.42.56-15.61.27,0-.03-.11.21-.27-.54,0-4.6-1.62-9.31-2.69-13.86,5.97-.52,11.92-1.48,17.77-2.83.09-.02.18.02.27,0Z"/>
          <path class="cls-31" d="m90.07,128.46c.31,2.09.85,4.14,1.35,6.19.09.38.26.25.27.27.77,3.16,1.44,6.46,1.88,9.69-5.85,1.35-11.8,2.3-17.77,2.83,1.07,4.55,2.69,9.26,2.69,13.86-1.09-5.26-2.57-10.45-3.5-15.75-.34-.28-3.77-.13-4.58-.13-.09,0-.18,0-.27,0l-4.58-2.96s-.08.2-.27-.54c6.46-3.42,12.57-7.75,17.5-13.19,2.3.06,4.94-.67,7.27-.27Z"/>
          <path class="cls-32" d="m60.99,128.73c1.26,5.93,4.18,11.21,4.58,17.36l-6.06.13c-.32.16.04.46.13,1.08.28,1.75,3.65,10.6,4.31,14v.27c-4.64,0-9.34.56-14,.27-1.76-11.34-5.11-22.32-8.08-33.38,6.36-.29,12.76.27,19.11.27Z"/>
          <path class="cls-32" d="m82.8,128.73c-4.93,5.44-11.04,9.77-17.5,13.19-.96-3.79-.48-3.46-.54-3.63-.55-1.8-3.2-6.14-3.23-9.56,7.13,0,14.11-.2,21.27,0Z"/>
          <g>
            <path class="cls-16" d="m41.07,127.92c-.5-2.14-1.1-4.26-1.35-6.46-.06-.58-.44-1.3-.27-2.42h20.33l.4.67.13,8.21h-19.25Z"/>
            <g>
              <path class="cls-45" d="m60.72,118.5c8.67-.06,17.45-.06,26.11,0,.89,0,1.8-.05,2.69,0,.16.98-.51,1.02-.54,1.08,0-.19.07-.47-.13-.54-1.32-.46-24.07.25-27.86.13l.4,8.75c7.4-.12,14.81.16,22.21,0,1.07-.02,6.15.29,6.46-.4l-.27-9.02c.27.04.3.28.54.27-.33.74.27,3.07.27,3.23,0,1.08,0,2.15,0,3.23,0,.63.02,1.26,0,1.88,0,.09,0,.18,0,.27-.03.45.03.67-.27,1.08-.09-.02-.18.02-.27,0-2.33-.4-4.97.33-7.27.27-7.16-.2-14.13,0-21.27,0-.18,0-.36,0-.54,0-6.35,0-12.75-.56-19.11-.27h-.54s-.09.21-.27-.54h19.25l-.13-8.21-.4-.67h-20.33l.27-.27c6.91.26,13.83-.23,20.73-.27.09,0,.17,0,.27,0Z"/>
              <path class="cls-16" d="m88.99,119.58c-1.56,3.02-3.5,5.55-5.38,8.35-7.4.16-14.81-.12-22.21,0l-.4-8.75c3.8.12,26.55-.59,27.86-.13.21.07.14.35.13.54Z"/>
              <path class="cls-16" d="m83.6,127.92c1.89-2.79,3.82-5.33,5.38-8.35.03-.05.7-.1.54-1.08.09,0,.18-.01.27,0l.27,9.02c-.31.69-5.39.38-6.46.4Z"/>
            </g>
          </g>
          <path class="cls-41" d="m94.1,118.5c.57.07,1.19-.24,1.62.4-.06,1.02.08,2.08,0,3.1h-5.12c0-.16-.6-2.49-.27-3.23l.27-.27c1.11.1,2.42-.13,3.5,0Z"/>
          <path class="cls-11" d="m95.72,122c0,.09,0,.18,0,.27-.07.67.27,1.42-.4,1.88l-4.71,1.08c0-1.08,0-2.15,0-3.23h5.12Z"/>
          <path class="cls-39" d="m90.6,127.11c.02-.62,0-1.26,0-1.88l4.71-1.08c.67-.47.33-1.21.4-1.88,3.02,2.13-2.03,4.93-5.12,4.85Z"/>
          <g>
            <path class="cls-8" d="m82.8,106.39c.76,4.17,2.27,4.62,2.42,4.85.1.14-.28.38-.27.4,1.05,1.34,3.88,3.58,5.65,3.9-.09,0-.18.01-.27,0-.56-.06-1.27.09-1.62,0-.25-.07-3.38-2.46-4.04-3.37-3.19-4.42-2.08-9.98-2.42-11.71h.27c-.01,1.96-.09,3.99.27,5.92Z"/>
            <path class="cls-5" d="m64.76,93.46c-.16.91-1.58,5.5-.81,5.92,4.39.1,8.8-.13,13.19,0,1.57.05,3.14-.03,4.71,0,.57.36.33.7.4,1.08.34,1.73-.77,7.29,2.42,11.71.66.91,3.78,3.3,4.04,3.37l-1.88,2.96c-8.67-.06-17.45-.06-26.11,0,.51-6.36.67-12.83,1.88-19.11.44-2.26,3.4-13.14,2.15-5.92Z"/>
            <path class="cls-33" d="m90.33,115.54l.27,2.96-.27.27c-.24.01-.27-.23-.54-.27-.09-.01-.18,0-.27,0-.89-.05-1.8,0-2.69,0l1.88-2.96c.34.09,1.06-.06,1.62,0Z"/>
          </g>
          <g>
            <path class="cls-26" d="m105.14,131.42c-.34.9-1.16,3-1.88,3.5l-.81.27-6.73-.27h-4.04s-.18.11-.27-.27c8.45-.06,5.12-.02,4.58-3.5,1.23.28,1.74.4,2.96-.27-.52,1.6-1.76,4.19.94,3.5l4.71-7.27c.71.02,1.45-.22,1.88.4-.66,1.22-.87,2.62-1.35,3.9Z"/>
            <path class="cls-43" d="m100.56,127.65c-.39,1.02-1.31,2.28-1.62,3.23-1.22.67-1.73.55-2.96.27-1.33-.31-5.35-2.63-5.65-2.69.3-.41.24-.63.27-1.08,3.31-.29,6.68.27,9.96.27Z"/>
            <path class="cls-26" d="m95.99,131.15c.54,3.48,3.88,3.44-4.58,3.5-.5-2.05-1.03-4.1-1.35-6.19.09.02.18-.02.27,0,.31.06,4.33,2.39,5.65,2.69Z"/>
            <path class="cls-26" d="m104.6,127.11l-4.71,7.27c-2.7.69-1.46-1.9-.94-3.5.31-.95,1.22-2.21,1.62-3.23.14,0,2.55-.54,2.69-.54.45,0,.9-.01,1.35,0Z"/>
          </g>
          <path class="cls-49" d="m70.14,145.42c-.75,0-3.23.62-3.9.27-.75-1.03-.52-2.68-.67-3.23l4.58,2.96Z"/>
          <g>
            <path class="cls-1" d="m61.53,128.73c.03,3.42,2.68,7.76,3.23,9.56.05.18-.42-.16.54,3.63.19.74.26.51.27.54.15.56-.08,2.2.67,3.23.67.35,3.16-.27,3.9-.27.09,0,.18,0,.27,0-.44,5.47-.65,10.97-1.35,16.42-1.68.29-3.48-.27-5.12-.27v-.27c6.86.62,4.29-.64,5.38-9.02l-9.69-4.98c-.1-.62-.45-.91-.13-1.08l6.06-.13c-.4-6.15-3.31-11.44-4.58-17.36.18,0,.36,0,.54,0Z"/>
            <path class="cls-31" d="m63.95,161.31c-.65-3.4-4.03-12.25-4.31-14l9.69,4.98c-1.09,8.38,1.47,9.64-5.38,9.02Z"/>
          </g>
          <g>
            <path class="cls-5" d="m62.07,99.39c-.79,6.35-1.66,12.69-1.62,19.11-6.9.04-13.82.53-20.73.27-.3-5.95.84-12.06,1.88-17.9.2-1.13.78-1.33.81-1.48h5.12c4.49-.03,8.97.04,13.46,0,.2,0,.05-.17,1.08,0Z"/>
            <path class="cls-31" d="m62.61,99.39c-1.21,6.29-1.38,12.75-1.88,19.11-.1,0-.18,0-.27,0-.05-6.42.83-12.77,1.62-19.11.17.03.36-.01.54,0Z"/>
            <path class="cls-38" d="m43.49,106.65c1.85-.32,13.81.42,14.4,0,.36-.26-.14-2.17.4-3.5.55.3.05,6.8-.4,7-2.69-.24-12.8.32-13.73,0-1.54-.52-.67-3.31-.67-3.5Z"/>
            <path class="cls-3" d="m58.3,103.15c-.54,1.33-.04,3.24-.4,3.5-.59.42-12.56-.32-14.4,0,0-.18-.83-2.53.13-3.5h14.67Z"/>
          </g>
          <g>
            <path class="cls-38" d="m103.53,121.46c-.1,1.89.09,3.77-.27,5.65-.14,0-2.55.54-2.69.54-3.28,0-6.65-.56-9.96-.27,0-.09,0-.18,0-.27,3.08.08,8.14-2.72,5.12-4.85,0-.09,0-.18,0-.27.08-1.02-.06-2.07,0-3.1-.42-.64-1.04-.33-1.62-.4,1.13-.42,7.88-.78,8.21-.54.64.45-.8,4.85,1.21,3.5Z"/>
            <path class="cls-9" d="m97.47,118.5c5.99-1.38,6.02,5.14,0,3.77v-3.77Z"/>
          </g>
        </g>
        <g>
          <path class="cls-28" d="m44.3,41.5c-.09,2.62.29,5.19.27,7.81-1.9-1.28-2.32-6.45-.27-7.81Z"/>
          <path class="cls-24" d="m92.49,52.54l-2.42,1.75c1.1-4.31.47-9.7-.27-14.13-.24-1.44-.42-2.87-.67-4.31l-6.06-1.35c-.43-2.35-6.33-2.63-8.08-1.62.02-.17-.33-.53-.4-.54-1.25-.21-19.49-.61-20.46-.27-.21.07-.14.35-.13.54-.09,0-.18,0-.27,0-1.36.06-2.95.17-4.31,0,.04-.04.29-.55.67-.81,12.71-2.07,25.68-1.52,38.23,1.35l1.21,1.21c-.07,5.07,5.07,14.06,2.96,18.17Z"/>
          <path class="cls-22" d="m92.49,52.54c-.58,1.12-1.89,2.29-2.96,2.96-1.61,1-2.71,1.4-4.58,1.62-.04-.44-.58-.07-.54-.67.04-.57,2.9-5.78,4.04-10.77.85-3.76-.3-5.45,1.35-5.52.74,4.43,1.36,9.83.27,14.13l2.42-1.75Z"/>
          <g>
            <path class="cls-7" d="m83.87,73c-3.26,1.47-6.09,3.6-9.15,5.38-13.24,1.21-12.04-2.58-8.35,5.52.24.29.66-.13,1.35-.4l-2.02,1.88-6.86-10.23c4.82.92,12.55.5,17.36-.54,4.02-.87,9-3.97,7.67-1.62Z"/>
            <path class="cls-28" d="m74.72,78.39v.27c-1.48.64-2.74,1.76-4.04,2.69-.67.48-1.51,1.25-2.15,1.62-.3.17-.49.41-.81.54-.68.27-1.11.69-1.35.4-3.69-8.09-4.89-4.31,8.35-5.52Z"/>
          </g>
          <g>
            <path class="cls-22" d="m102.72,42.58c5.16,2.88,1.81,13.42-5.38,13.46-.34,0-2.54-.47-2.69-.94-.12-.75.54-1.15.54-1.21,2.17-.16,3.61-.54,5.12-2.15,3.91-4.2.02-6.84-.27-7.27-1.06-1.59-.52-1.58,1.08-2.02l-1.35-.4c.84-.02,2.25.14,2.96.54Z"/>
            <path class="cls-44" d="m100.3,51.74c-1.5,1.61-2.95,1.99-5.12,2.15.05-1.87.27-2.56.27-2.69.43-.05.5-.52.54-.54,2.68-1.37.87-2.06,1.88-3.37,1.04-1.35,3.27.68,2.42,4.44Z"/>
            <path class="cls-28" d="m99.76,42.04l1.35.4c-1.59.44-2.14.43-1.08,2.02-3.67-.73-3.91,3.4-4.04,6.19-.03.02-.11.49-.54.54.09-3.62-1.67-8.98,4.31-9.15Z"/>
            <path class="cls-24" d="m100.03,44.47c.28.42,4.18,3.06.27,7.27.84-3.77-1.38-5.79-2.42-4.44-1.01,1.31.79,1.99-1.88,3.37.13-2.79.37-6.93,4.04-6.19Z"/>
          </g>
          <path class="cls-25" d="m83.07,34.51c.75,4.15-1.77.42-8.75,1.08-.76-.34-.54-1.99.67-2.69,1.75-1.01,7.65-.74,8.08,1.62Z"/>
          <path class="cls-25" d="m53.72,32.62c.09,0,.18,0,.27,0,1.46-.02,4.77-1.05,5.38.94.95,3.07-2.72,1.74-4.71,2.02-1.07.15-3.06,1.09-3.23,1.08-2.11-.2.76-4.04,2.29-4.04Z"/>
          <g>
            <path class="cls-14" d="m66.37,50.39c-2.52,2.23-3.95,1.3-8.88,3.23-.2.08-.52.02-.81.27-.04-.04-.19-.41-.27-.54.82-5.94,5.61-6.07,9.96-2.96Z"/>
            <path class="cls-22" d="m68.53,52.81c-.71.45-1.18,1.13-1.88,1.62-3.05,2.1-7.28,2.48-9.96-.54.29-.25.61-.19.81-.27,2.3,1.65,8.95,1.07,9.69-2.15.04.03.77.13.94.27.31.26.36,1.04.4,1.08Z"/>
            <path class="cls-14" d="m67.18,51.47c-.75,3.22-7.39,3.8-9.69,2.15,4.93-1.93,6.36-1,8.88-3.23,1.07.77.76,1.03.81,1.08Z"/>
          </g>
          <g>
            <path class="cls-35" d="m58.57,43.39c1.15,1.36,1.19,3.5,0,4.85-4.33,1.21-6.48-1.45-7-1.62-.21-1.07-.37-2.14-.27-3.23,1.54-1.97,5.8-1.73,7.27,0Z"/>
            <path class="cls-30" d="m51.57,46.62c.52.16,2.67,2.83,7,1.62-.58.65-.35.38-.81.54-4.07,1.42-6.27-3.1-9.29-1.35-.32-1.14,1.54-1.3,3.1-.81Z"/>
            <path class="cls-42" d="m56.55,43.12c2.74-.67,3.05,4.54.81,4.85-2.7.36-2.38-4.46-.81-4.85Z"/>
          </g>
          <g>
            <path class="cls-14" d="m74.99,32.89c-1.21.7-1.44,2.36-.67,2.69,6.98-.65,9.5,3.07,8.75-1.08l6.06,1.35c.26,1.43.43,2.87.67,4.31-1.65.07-.49,1.76-1.35,5.52-1.13,4.99-4,10.2-4.04,10.77-.04.6.5.24.54.67-6.73.79-8.05-3.38-11.17-1.35-3.13-.13-3.62-1.74-4.71-2.69-.98-3.63-5.98-6.06-9.83-4.85-.25-.12,1.94-2.03-.4-5.12-1.96-2.58-7.22-3.1-7.54.27-.1,1.1.06,2.16.27,3.23-1.56-.49-3.41-.34-3.1.81,3.02-1.76,5.22,2.76,9.29,1.35l-1.88,4.04c-.33.42-.7.99-1.08,1.35-.86.82-5.42,3.03-6.73,3.23-.19.03-.84.58-1.88.13-.47-5.53-.96-21.06,3.23-24.9,1.35.17,2.94.06,4.31,0-1.53,0-4.4,3.84-2.29,4.04.17.02,2.16-.92,3.23-1.08,1.99-.28,5.66,1.05,4.71-2.02-.62-1.99-3.93-.96-5.38-.94,0-.19-.07-.47.13-.54.97-.34,19.21.06,20.46.27.08.01.42.37.4.54Z"/>
            <g>
              <path class="cls-7" d="m69.07,53.08c-.06-.05-.48-.21-.54-.27-.04-.04-.09-.81-.4-1.08-.17-.14-.91-.24-.94-.27-.05-.04.26-.31-.81-1.08-4.35-3.11-9.14-2.98-9.96,2.96-.06-.09-.4-.52-.54-.54l1.88-4.04c.46-.16.23.11.81-.54,1.19-1.35,1.15-3.49,0-4.85l.27-.27c2.35,3.09.16,5,.4,5.12,3.85-1.21,8.84,1.22,9.83,4.85Z"/>
              <path class="cls-30" d="m73.91,45.54c.73,3.27,2.9,2.53,5.65,2.42,1.12-.04,9.77-.58,4.31.27-1.09.17-2.12.23-3.23.27-1.97.07-11.51-.36-6.73-2.96Z"/>
              <path class="cls-30" d="m58.84,43.12l-.27.27c-1.47-1.73-5.73-1.97-7.27,0,.32-3.37,5.58-2.85,7.54-.27Z"/>
              <path class="cls-47" d="m83.87,48.24c-.71,2.08-3.4,2.8-3.23.27,1.11-.04,2.14-.1,3.23-.27Z"/>
              <g>
                <path class="cls-30" d="m80.1,42.85c-.59-.16-3.36-2.49-6.19,1.35,1.39-6.65,10.6-.11,6.19-1.35Z"/>
                <g>
                  <path class="cls-35" d="m80.1,42.85c.73,2.26.83,3.08-.54,5.12-2.75.11-4.93.85-5.65-2.42-.12-.55-.12-.76,0-1.35,2.83-3.83,5.61-1.51,6.19-1.35Z"/>
                  <path class="cls-36" d="m78.22,42.58c.32,1.32-1.3.91-1.62,1.75-.89,2.39,3.54,3.59,2.69,0-.12-.53-.89.38-.81-1.48,2.56,1.03,1.34,5.36-1.21,4.85-2.28-.46-1.96-5.28.94-5.12Z"/>
                  <path class="cls-42" d="m78.49,42.85c-.09,1.86.68.95.81,1.48.84,3.59-3.58,2.39-2.69,0,.31-.84,1.94-.43,1.62-1.75.35.02.25.26.27.27Z"/>
                </g>
              </g>
            </g>
          </g>
        </g>
      </g>
    </g>
  </g>
</svg>