<svg xmlns="http://www.w3.org/2000/svg" width="96" height="198" viewBox="0 0 96 198">
  <g id="Group_266" data-name="Group 266" transform="translate(-1609 -392)">
    <rect id="Rectangle_23" data-name="Rectangle 23" width="42" height="41" rx="10" transform="translate(1609 445)" fill="#096773"/>
    <path id="Icon_akar-pause" data-name="Icon akar-pause" d="M10.5,7.5V27.066M20.957,7.5V27.066" transform="translate(1614 447.975)" fill="none" stroke="#fff" stroke-linecap="round" stroke-width="3"/>
    <rect id="Rectangle_24" data-name="Rectangle 24" width="41" height="42" rx="10" transform="translate(1610 392)" fill="#096773"/>
    <path id="Icon_fa-solid-play" data-name="Icon fa-solid-play" d="M3.194,2.555A2.1,2.1,0,0,0,0,4.349v15.4a2.1,2.1,0,0,0,3.194,1.794l12.6-7.7a2.1,2.1,0,0,0,0-3.588Z" transform="translate(1623.878 400.754)" fill="#fff"/>
    <rect id="Rectangle_25" data-name="Rectangle 25" width="41" height="42" rx="10" transform="translate(1609 548)" fill="#096773"/>
    <path id="Icon_material-replay" data-name="Icon material-replay" d="M15.7,20.9v4.85L9.637,19.686,15.7,13.624v4.849A7.274,7.274,0,1,0,8.425,11.2H6a9.7,9.7,0,0,1,9.7-9.7,9.8,9.8,0,0,1,7.7,3.8,9.486,9.486,0,0,1,2,5.9A9.7,9.7,0,0,1,15.7,20.9Z" transform="translate(1614 555.278)" fill="#fff"/>
    <rect id="Rectangle_26" data-name="Rectangle 26" width="42" height="41" rx="10" transform="translate(1609 497)" fill="#096773"/>
    <g id="Icon_akar-arrow-shuffle" data-name="Icon akar-arrow-shuffle" transform="translate(1619.469 507.071)">
      <path id="Path_1156" data-name="Path 1156" d="M3,22.347H7.144a2.121,2.121,0,0,0,1.784-.975l4.147-6.449,4.147-6.45A2.121,2.121,0,0,1,19,7.5H24.21m0,14.847h-5.2a2.121,2.121,0,0,1-1.784-.975l-2.1-3.267M3,7.5H7.144a2.121,2.121,0,0,1,1.784.974l2.1,3.269" transform="translate(-3 -4.318)" fill="none" stroke="#fff" stroke-linecap="round" stroke-linejoin="round" stroke-width="2"/>
      <path id="Path_1157" data-name="Path 1157" d="M28.5,3l3.182,3.182L28.5,9.363m0,8.484,3.182,3.182L28.5,24.21" transform="translate(-10.471 -3)" fill="none" stroke="#fff" stroke-linecap="round" stroke-linejoin="round" stroke-width="2"/>
    </g>
    <rect id="Rectangle_27" data-name="Rectangle 27" width="41" height="198" rx="10" transform="translate(1664 392)" fill="#096773"/>
    <g id="Group_262" data-name="Group 262" transform="translate(1680.364 405.133)">
      <line id="Line_1" data-name="Line 1" y1="168.092" transform="translate(4.828 4.278)" fill="none" stroke="#fff" stroke-linecap="round" stroke-width="5"/>
      <circle id="Ellipse_1" data-name="Ellipse 1" cx="5" cy="5" r="5" transform="translate(-0.364 -0.133)" fill="#fff"/>
    </g>
  </g>
</svg>
