<?xml version="1.0" encoding="UTF-8"?>
<svg id="person" data-name="person" xmlns="http://www.w3.org/2000/svg" viewBox="0 0 127.88 238.68">
  <defs>
    <style>
      .cls-1 {
        fill: #9d4816;
      }

      .cls-1, .cls-2, .cls-3, .cls-4, .cls-5, .cls-6, .cls-7, .cls-8, .cls-9, .cls-10, .cls-11, .cls-12, .cls-13, .cls-14, .cls-15, .cls-16, .cls-17, .cls-18, .cls-19, .cls-20, .cls-21, .cls-22, .cls-23, .cls-24, .cls-25, .cls-26, .cls-27, .cls-28, .cls-29, .cls-30, .cls-31, .cls-32, .cls-33, .cls-34, .cls-35, .cls-36, .cls-37, .cls-38, .cls-39, .cls-40, .cls-41, .cls-42, .cls-43, .cls-44, .cls-45, .cls-46, .cls-47, .cls-48, .cls-49, .cls-50, .cls-51, .cls-52, .cls-53, .cls-54, .cls-55, .cls-56, .cls-57, .cls-58, .cls-59, .cls-60, .cls-61, .cls-62, .cls-63, .cls-64, .cls-65, .cls-66, .cls-67, .cls-68, .cls-69, .cls-70, .cls-71, .cls-72, .cls-73, .cls-74 {
        stroke-width: 0px;
      }

      .cls-2 {
        fill: #e25537;
      }

      .cls-3 {
        fill: #6a5710;
      }

      .cls-4 {
        fill: #16382c;
      }

      .cls-5 {
        fill: #faf7e6;
      }

      .cls-6 {
        fill: #85b0b8;
      }

      .cls-7 {
        fill: #ebd4cf;
      }

      .cls-8 {
        fill: #342c24;
      }

      .cls-9 {
        fill: #016c67;
      }

      .cls-10 {
        fill: #813914;
      }

      .cls-11 {
        fill: #014449;
      }

      .cls-12 {
        fill: #fafaf6;
      }

      .cls-13 {
        fill: #f5ae20;
      }

      .cls-14 {
        fill: #f7cb57;
      }

      .cls-15 {
        fill: #a09c82;
      }

      .cls-16 {
        fill: #a0ad8a;
      }

      .cls-17 {
        fill: #eed2c0;
      }

      .cls-18 {
        fill: #0c0d0a;
      }

      .cls-19 {
        fill: #7fa59c;
      }

      .cls-20 {
        fill: #731f0b;
      }

      .cls-21 {
        fill: #f5e254;
      }

      .cls-22 {
        fill: #a19d97;
      }

      .cls-23 {
        fill: #ac3f53;
      }

      .cls-24 {
        fill: #fdd01e;
      }

      .cls-25 {
        fill: #201c11;
      }

      .cls-26 {
        fill: #454226;
      }

      .cls-27 {
        fill: #6eadac;
      }

      .cls-28 {
        fill: #da786f;
      }

      .cls-29 {
        fill: #335e62;
      }

      .cls-30 {
        fill: #3a1e0c;
      }

      .cls-31 {
        fill: #b99f49;
      }

      .cls-32 {
        fill: #0dadb6;
      }

      .cls-33 {
        fill: #e08616;
      }

      .cls-34 {
        fill: #4b1f0b;
      }

      .cls-35 {
        fill: #eecd92;
      }

      .cls-36 {
        fill: #eeb817;
      }

      .cls-37 {
        fill: #2a0400;
      }

      .cls-38 {
        fill: #d36414;
      }

      .cls-39 {
        fill: #81943c;
      }

      .cls-40 {
        fill: #027a81;
      }

      .cls-41 {
        fill: #0e1f19;
      }

      .cls-42 {
        fill: #29c0c6;
      }

      .cls-43 {
        fill: #2fdce3;
      }

      .cls-44 {
        fill: #af5a17;
      }

      .cls-45 {
        fill: #97d3e7;
      }

      .cls-46 {
        fill: #1e1108;
      }

      .cls-47 {
        fill: #85481a;
      }

      .cls-48 {
        fill: #2c2713;
      }

      .cls-49 {
        fill: #a4aaad;
      }

      .cls-50 {
        fill: #01282a;
      }

      .cls-51 {
        fill: #70d6e6;
      }

      .cls-52 {
        fill: #038d9d;
      }

      .cls-53 {
        fill: #f9eab9;
      }

      .cls-54 {
        fill: #b6762b;
      }

      .cls-55 {
        fill: #144735;
      }

      .cls-56 {
        fill: #5b2c0f;
      }

      .cls-57 {
        fill: #a4fbfb;
      }

      .cls-58 {
        fill: #d17416;
      }

      .cls-59 {
        fill: #5d211a;
      }

      .cls-60 {
        fill: #b86f35;
      }

      .cls-61 {
        fill: #50512f;
      }

      .cls-62 {
        fill: #cc8f64;
      }

      .cls-63 {
        fill: #effbb7;
      }

      .cls-64 {
        fill: #31220f;
      }

      .cls-65 {
        fill: #250b00;
      }

      .cls-66 {
        fill: #355635;
      }

      .cls-67 {
        fill: #4d5746;
      }

      .cls-68 {
        fill: #d0a069;
      }

      .cls-69 {
        fill: #c35415;
      }

      .cls-70 {
        fill: #e1e5e9;
      }

      .cls-71 {
        fill: #748c5b;
      }

      .cls-72 {
        fill: #c7c24c;
      }

      .cls-73 {
        fill: #514c46;
      }

      .cls-74 {
        fill: #015f6d;
      }
    </style>
    <script>
    const images = document.querySelectorAll('#person');

    function logId() {
    console.log('You clicked on', this.id);
    }

    images.forEach(image => image.addEventListener('click', logId));
    </script>
  </defs>
  <g id="Layer_1-2" data-name="Layer 1">
    <g>
      <g>
        <path class="cls-73" d="m.68,77.24c-.36-1.08-1-1.79-.49-2.93,2.37,2.91,1.6,4.45,2.93,7.58.45,1.06,2.66-.27.73,1.71-2.94-2.59-1.98-5.51-2.2-6.11-.16-.43-.96-.19-.98-.24Z"/>
        <path class="cls-18" d="m29.77,12.22c.1-.04.68.56,2.2.24-1.33,2.07-5.03.81-2.2-.24Z"/>
        <path class="cls-73" d="m25.61,108.04c.88.81,1.52,2.08,4.4,2.69-.26,1.27-6.49-1.78-4.4-2.69Z"/>
      </g>
      <g>
        <path class="cls-18" d="m80.85,168.66l10.27,25.42c-1.19,2.7-7.01-.88-8.8,2.93-.41.19-.41.11-.98.49-.11.08-2.29.84-2.44,1.22-1.85,4.64,8.13,17.47,12.22,20.29-.09.04-1.45,1.13-1.47,1.22-.6,4.26,8.22,1.06,1.96,5.13h-.49c-.86-1.93-2.07-3.89-1.96-6.11-19.07-16.56-3.97-25.29-23.71-20.29-.83.45-1.96,3.76-2.69,4.89-4.71-.9-9.81,1.11-13.69-2.44.15-.44-.1-1.35,0-1.96.44,0,2.32-.48,2.44-.49,3.34-.11,6.95.37,10.27,0,2.16-.24,3.5-.67,5.38-.98,2.83-.46,5.53-1.28,8.31-1.96,4.45-1.08,8.8-2.79,13.44-2.93,1.05-.75.38-.75.24-1.96-.19-1.72-9.18-20.95-9.29-22.24-.1-1.1.23-.61.98-.24Z"/>
        <path class="cls-56" d="m70.59,109.02c.35,3.21-.46,4.64-.49,4.89-.08.64.08,1.32,0,1.96-.45,3.48-1.36,1.99-1.47,3.18.18.93,2.92,4.14,2.93,4.4.2,4.67-3.1-4.08-3.42-4.4-3.43-3.41-3.92,2.03-6.36-6.6,3.12-1.29,5.23-2.97,8.8-3.42Z"/>
        <path class="cls-46" d="m109.21,170.13c-3.44,2.46.37,4.14.98,5.38.15.3.38.73.49.98.11.25.24,6.44,1.47.49.12-.58.07-.87.49-1.47.33.22.5-.72.98-.24.13.13.28,4.4,1.47,1.47.66-1.63-1.23-3.84-1.96-5.13,6.35,3.22.99,11.04-5.13,8.31-.13-6.02-5.56-4.98-7.09-5.87,1.82-.44,5.81.17,4.89-2.93,3.96-2.74,2.68-1.13,3.42-.98Z"/>
        <path class="cls-25" d="m97.47,214.13c.31.89.51,3.1,1.47,3.91-.07.47.04.99,0,1.47-.75,1.52-1.9,3.46-3.42,4.4h-.49c2.99-3.05,2.37-3.27,1.96-6.84-.34-2.96-.94-2.78-.98-2.93-.76-3.13-5.07-17.02-7.33-18.09-2.46-1.16-4.17-.03-6.36.98,1.79-3.81,7.61-.23,8.8-2.93-.07,5.54,4.1,13.61,6.36,20.04Z"/>
        <path class="cls-47" d="m111.65,170.13c.4.65.84.36,1.47,1.47.73,1.29,2.62,3.5,1.96,5.13-1.19,2.94-1.34-1.34-1.47-1.47-.47-.48-.65.46-.98.24-.4-.26-.28-1.93-2.44,0-.61-1.24-4.41-2.91-.98-5.38.69.15,1.67-.1,2.44,0Z"/>
        <g>
          <path class="cls-46" d="m62.76,203.86c-1.57,2.43-2.79,5.18-4.4,7.58-5.34,7.97-10.65,7.91-5.13,12.47,2.84-3.63,5.21-3.2,1.22.49-.14-.07.48.73-2.93-.98-2.22-1.11.27-3.36-4.4,0-.73.53-2.96,2.92-3.18,2.93-1.07.08-5.14-4-6.11-4.89.64-.37,1.17.52,1.22.49,2.01-1.29-1.16-8.36,7.58-18.09-2.41,1.66-6.1,18.32-5.87,19.31.09.38,3.04,2.2,3.91,1.47.33-.28.41-1.89.49-1.96,6.21-5.67,8.85-7.33,13.69-15.64-.31-1.48-10.95-1.81-11.24-4.16.57-.62,1.18-.62,1.47-1.47,3.88,3.56,8.98,1.54,13.69,2.44Z"/>
          <path class="cls-30" d="m46.63,203.86c.33-.37.68-.66.98-.98.29,2.34,10.93,2.68,11.24,4.16-4.84,8.31-7.48,9.98-13.69,15.64-.07.07-.16,1.67-.49,1.96-.87.74-3.82-1.09-3.91-1.47-.24-.99,3.46-17.65,5.87-19.31Z"/>
        </g>
        <path class="cls-12" d="m61.79,112.44c2.44,8.63,2.93,3.19,6.36,6.6.32.32,3.62,9.07,3.42,4.4-.01-.26-2.76-3.47-2.93-4.4.11-1.19,1.02.31,1.47-3.18,4.3,1.26,6,6.65,8.31,10.27-.04.32.07.76,0,.98-2.08.21-3.28,2.56-4.64.49.81,6.86-10.68-5.31-11.49-6.84-.88-1.68-.92-3.14-1.47-4.89-.18-.56.19-1.95,0-2.2-.21-.27-.99.08-2.93-1.22.59-.53-2.71-.2,3.67-1.96.53.39.09,1.42.24,1.96Z"/>
        <path class="cls-1" d="m88.67,196.04c-4.41.53,4.87,15.65,7.33,18.09.04.15.63-.03.98,2.93-.44.02-1.38,1.27-1.47,1.47-5.46-2.77-12.18-14.74-14.18-21.02.57-.38.57-.3.98-.49,2.19-1.01,3.89-2.13,6.36-.98Z"/>
        <path class="cls-56" d="m81.34,197.5c2,6.28,8.72,18.25,14.18,21.02-2.46,5.21-.2-1.59-4.4.49-4.09-2.82-14.07-15.65-12.22-20.29.15-.38,2.33-1.15,2.44-1.22Z"/>
        <g>
          <path class="cls-42" d="m37.83,221.46c.97.89,5.04,4.97,6.11,4.89.22-.02,2.45-2.41,3.18-2.93h4.4c3.41,1.71,2.8.91,2.93.98.16.08,1.44,2.23,2.93,1.96-.8.49-1.43,1.2-2.44,1.47-1.97-.76-2.91-.64-4.89,0-1.78.57-3.02,2.09-4.64,2.93l1.71-4.64c-1.45-3.13-5.69,14.44-9.29.49-.33-1.29-.18-3.26-.98-4.4-.16-1.07.76-.61.98-.73Z"/>
          <path class="cls-42" d="m60.32,232.21c2.55.93,5.12,1.76,7.58,2.93.67.66-.74.45-.73.49-12.14,1.92-9.17-2.6-9.78-4.4-.05-.15.05-.34,0-.49,3.16,2.9,2.75,1.4,2.93,1.47Z"/>
          <path class="cls-18" d="m67.16,235.64c.03.16-.04.34,0,.49l-8.8,1.47c-.22-.52-1.52-.73-1.96-2.44-.24-.96-.1-3.3.98-3.91.61,1.8-2.36,6.32,9.78,4.4Z"/>
          <path class="cls-15" d="m67.16,236.12c.35,1.42-.02.93,0,.98-1.1,2.31-5.04,1.39-8.8,1.47-.04-.35.07-.81,0-.98l8.8-1.47Z"/>
          <path class="cls-41" d="m37.83,221.46c-.22.13-1.14-.34-.98.73.8,1.14.64,3.11.98,4.4,3.6,13.95,7.84-3.62,9.29-.49l-1.71,4.64c1.63-.85,2.87-2.36,4.64-2.93-.66.88-2.68,2.87-3.42,3.42-.16.12-2.58.41-3.42,1.96-1.14,2.09.15,2.92,0,4.89-2.24-.36-2.32-.94-2.44-.98,3.73-1.36-3.24-7.02-3.67-6.84-.27.11-2.13,4.85-.24,5.38-.42-.17-1.46.37-1.47-.49.24-1.03,1.13-12.84.98-13.93-.14-.99-3.45-4.26,1.47.24Z"/>
          <path class="cls-58" d="m46.63,231.24l9.78,3.91c.43,1.71,1.74,1.92,1.96,2.44.07.17-.04.63,0,.98-1.59.03-3.3.04-4.89,0l-10.27-5.38c.85-1.55,3.26-1.84,3.42-1.96Z"/>
          <path class="cls-56" d="m53.48,238.57c-3.55-.09-6.7.09-10.27-.49.15-1.97-1.14-2.8,0-4.89l10.27,5.38Z"/>
          <path class="cls-30" d="m40.77,237.1c-1.81-.55-2.29-.79-3.91-1.47-1.89-.53-.02-5.27.24-5.38.43-.18,7.4,5.49,3.67,6.84Z"/>
          <path class="cls-57" d="m51.52,223.41h-4.4c4.67-3.36,2.18-1.11,4.4,0Z"/>
          <path class="cls-13" d="m54.94,227.81c2.96,1.14,2.24,2.27,2.44,2.93.05.15-.05.34,0,.49-1.07.61-1.22,2.95-.98,3.91l-9.78-3.91c.74-.55,2.76-2.54,3.42-3.42,1.98-.64,2.92-.76,4.89,0Z"/>
        </g>
        <path class="cls-33" d="m112.63,175.5c-.42.6-.37.89-.49,1.47l-1.47-.49c-.11-.24-.34-.68-.49-.98,2.16-1.93,2.05-.26,2.44,0Z"/>
        <path class="cls-12" d="m112.14,176.97c-1.22,5.96-1.35-.24-1.47-.49l1.47.49Z"/>
        <g>
          <path class="cls-13" d="m107.25,215.59c.86-.16,2.54-.14,2.44.49-.96,1.21-1.87,1.85-1.96,1.96-4.85.86-2.35,6.82-7.82.98.06-.16.49-3,.49-3.42,1.3.35,1.22-1.19,1.96-1.47.78-.29,2.05,1.51,1.96-.49,1.67,1.62.7,2.53,1.71,2.93.86.34.49-.85,1.22-.98Z"/>
          <path class="cls-46" d="m95.52,223.9l3.91,4.89c-1.1,1.16-1.96,2.62-3.42,3.42-.33-1.63-1.97-7.53-3.91-5.38-.03-.08-.24.18-.98-1.47h.49c.95.99,2.17-.19,3.42-1.47h.49Z"/>
          <path class="cls-51" d="m99.43,214.13c-.22,1.21-.31,2.65-.49,3.91-.96-.82-1.16-3.02-1.47-3.91h1.96Z"/>
          <path class="cls-71" d="m100.41,215.59c0,.42-.43,3.26-.49,3.42-.02.05-.95.44-.98.49.04-.48-.07-.99,0-1.47.17-1.27.27-2.7.49-3.91.08-.46-.1-1.04,0-1.47h.49c-.28,3.26.49,2.78.49,2.93Z"/>
          <g>
            <path class="cls-56" d="m96.01,232.21c.03.16-.02.33,0,.49-3.27,1.73-2.8-3.28-3.91-5.87,1.94-2.15,3.59,3.74,3.91,5.38Z"/>
            <path class="cls-25" d="m60.32,232.21c-.18-.07.23,1.43-2.93-1.47-.2-.66.52-1.79-2.44-2.93,1.01-.27,1.64-.97,2.44-1.47,4.11-2.52-1.82.64,2.93,5.87Z"/>
            <path class="cls-55" d="m104.32,213.64c.1,2-1.18.2-1.96.49-.82-1.23-1.51-2.31-2.44-1.47h-.49c.74-3.11,1.35-2.47,4.89.98Z"/>
            <path class="cls-55" d="m108.23,213.15c-.21,2.44,1.26,1.74,1.96,1.96.18,1.13-.46.93-.49.98.09-.63-1.59-.64-2.44-.49-.77-2.67.84-2.37.98-2.44Z"/>
          </g>
          <path class="cls-58" d="m107.74,218.04c-1.22,1.54-2.3,3.72-3.42,5.38-.26.39.51.46.49.49-.08.11.08.38,0,.49-1.85.25-3.94,2.88-5.38,4.4l-3.91-4.89c1.52-.94,2.67-2.88,3.42-4.4.02-.05.96-.44.98-.49,5.47,5.84,2.97-.12,7.82-.98Z"/>
          <path class="cls-43" d="m95.03,223.9c-1.25,1.28-2.47,2.45-3.42,1.47,6.26-4.07-2.56-.87-1.96-5.13.01-.09,1.38-1.18,1.47-1.22,4.2-2.08,1.94,4.72,4.4-.49.09-.19,1.03-1.45,1.47-1.47.41,3.57,1.03,3.79-1.96,6.84Z"/>
          <g>
            <path class="cls-18" d="m96.01,233.19c.45-.51,4.87-3.43,8.8-8.8.08-.11-.08-.38,0-.49,3.49-2.67,6.05-6.37,9.29-9.29.26-.24,2.37.63.98-1.47,4.48,2.55,2.87,7.44.49,11-1.74,2.6-16.24,14.25-17.35,14.42-2.01.31-5.85-1.22-2.2-5.38Z"/>
            <path class="cls-43" d="m115.07,213.15c1.39,2.1-.72,1.23-.98,1.47-.99,0-1.74.9-2.44,1.47-.34-1.18-1.16-.88-1.47-.98-.7-.21-2.17.48-1.96-1.96,2.21-1.18,4.77-1.18,6.84,0Z"/>
            <path class="cls-22" d="m104.81,224.39c-3.93,5.37-8.35,8.29-8.8,8.8v-.49c-.02-.16.03-.33,0-.49,1.46-.81,2.32-2.26,3.42-3.42,1.43-1.52,3.52-4.15,5.38-4.4Z"/>
            <path class="cls-49" d="m114.1,214.61c-3.24,2.92-5.8,6.61-9.29,9.29.02-.03-.75-.1-.49-.49,2.62-2.36,4.56-5.08,7.33-7.33.7-.57,1.46-1.46,2.44-1.47Z"/>
            <path class="cls-64" d="m111.65,216.08c-2.78,2.25-4.72,4.97-7.33,7.33,1.12-1.66,2.21-3.83,3.42-5.38.09-.11,1-.74,1.96-1.96.03-.04.67.15.49-.98.31.09,1.12-.21,1.47.98Z"/>
          </g>
          <path class="cls-70" d="m102.36,214.13c-.74.27-.65,1.81-1.96,1.47,0-.15-.77.33-.49-2.93.93-.85,1.63.24,2.44,1.47Z"/>
        </g>
        <path class="cls-14" d="m88.67,196.04c2.27,1.06,6.58,14.96,7.33,18.09-2.46-2.43-11.75-17.56-7.33-18.09Z"/>
        <g>
          <path class="cls-18" d="m123.38,77.73c-2.2-4.89-1.29,1.63-2.2,1.47-3.99-4.71,4.05,5.05-6.6,10.51,3.21,3.16.52,6.66.49,7.09-7.33,2.61-2.29,9.97-15.4,7.33.87,3.92-4.91.75-7.33,1.47-.57.17-7.53,7.81-9.29,3.91-3.29,3.9-6.67-1.22-12.47-.49-3.57.45-5.68,2.14-8.8,3.42-.15-.54.29-1.56-.24-1.96-6.38,1.75-3.07,1.42-3.67,1.96-2.27-1.52-.96-2.96-3.91,0-.16.16-.35.34-.49.49-3.22-.08-6.27-1.01-8.56,1.47-4.38-5.87-8.9-2.89-13.44-3.91-1.39-.31-3.33-3.02-5.87-2.44-4.76-4.34-5.67-8.04-6.11-7.82-.62.31.13,2.63-.49,2.93-.21.1-.37-2.46-3.18-2.44-.54-3.39-4.3-8.58-6.6-11.24-.3-.35-5.79-.53-3.67-7.09-2.15-1.32-2.03-7.85-2.44-8.31-.68-.76-1.5,2.75-2.44-.24-1.52-4.8.91-12.7,1.47-16.87,5.57-8.18,1.22-4.19.98-4.89,2.6-3.78-.97-7.97,3.91-10.27-5.51.34,4.12-1.97,4.4-2.93-1.98-5.4,4.12-9.01,8.31-11.24-3.11-11.18,7.82-10.14,8.56-10.51.56-.29,1.88-5.25,8.31-3.91,2.19-6.59,10.28-8.2,17.11-8.31,3.84-2.67,6.88-3.7.73-2.69,3.29-3.69,7.75-.67,9.04-.73.42-.26,2.3-1.47,2.44-1.47,10.71-.1,7.14,4.24,11.24,5.87-.73-2,3.71-3.83,1.96-.49,2.8-1.89,3.17,3.23,11.24.98,3.02,3.57,5.73,1.61,6.84,1.96,3.05.93,8.51,4.28,2.69,3.18,7.48,6.48,2.86,2.25,5.13,2.2.33,0,1.63,3.51,2.44,3.42,1.71-.18-.75-2.99,2.93-.98,3.55,1.94,4.26,7.97,8.07,10.02,1.3,3.13,5.45,11.54,5.38,12.71-.03.43-1.27-2.49-.98,7.33,10.47,9.02.87,9.99,2.93,19.07-4,3.55,1.5-2.02-1.71-4.16-.78,2.04,1.01,2.68-1.22,4.16.06,1.15,3.23,4.79,2.93,10.27-2.54-5.25-.32,1.16-2.44,2.2Z"/>
          <g>
            <path class="cls-12" d="m57.88,112.44c-.1.09-2.19.89-2.44.98-.38.12-.56-.57-.98-.49-.04-.37-.07-.54-.49-.49,2.95-2.96,1.65-1.52,3.91,0Z"/>
            <g>
              <path class="cls-8" d="m37.83,44.98c-.76.16-5.13,2-5.38.24,12.5-13.42,2.88,2.03-9.78-7.33q3.67-1.83,7.33-3.67c4.1,3.81,5.39,3.61,11.24,3.67l-3.42,7.09Z"/>
              <path class="cls-8" d="m99.43,19.07c-4.49,6.46-9.37-3.92-11.98-6.84-1.25-.12-2.16-.94-3.18-1.47,4.34-1.65,11.33,1.79,14.18,5.13.32.37-.8,1.84.98,3.18Z"/>
              <path class="cls-25" d="m82.81,38.13c.77.26,1.61,1.51,2.69,1.96,2.3.4,3.92-1.43,4.64-1.47,3.89-.21,8.26,2.44,8.31,5.87-4.6,4.34-2.97-.48-7.09-1.96-2.21-.79-7.23,1.06-9.78-1.47-.8-.8,1.09-.58.24-2.93.24.09.73-.08.98,0Z"/>
              <path class="cls-8" d="m110.18,56.22c-1.12-.96-4.19-1.03-1.96-2.69-3.06-2.61-6.28-2.52-6.6-2.69-6.34-3.24-3-3.32-3.18-5.87q6.72,2.93,13.44,5.87c3.28,2.99-1.79.95-1.71,5.38Z"/>
              <path class="cls-8" d="m115.07,34.22c-2-.41-3.39-1.96-4.89-3.18l-3.42-9.04c9.36,5.37,13.92,13.36,8.31,12.22Z"/>
              <path class="cls-25" d="m102.12,84.58c4.35,8.27,8.58,5.04,9.53,6.6,2.67,4.37-3.89,8.02-3.91,1.47-6.15-4.97-8.16.67-5.62-8.07Z"/>
              <path class="cls-25" d="m29.77,51.33c.27-.06.15,1.26,5.13.24-.9,4.19-6.58,6.55-7.09,6.6-6.07.65-.86-6.17,1.96-6.84Z"/>
              <path class="cls-25" d="m32.94,20.53c-.47,2.65,1.86.08,2.44,2.2l-3.42,2.2c-.43-.51.61-2.17-2.44-.49-2.02-5.43-9.83,4.55-7.33-1.22,1.99-4.61,10.17-2.64,10.76-2.69Z"/>
              <path class="cls-8" d="m31.97,24.93s-.98.22-.49.73c.87.92,6.91-1.96,6.36,0-3.28,2.81-7.38,4.07-11.73,3.67l-.49-.73c2.26-1.36,1.41-2.78,3.91-4.16,3.06-1.68,2.02-.02,2.44.49Z"/>
              <path class="cls-8" d="m20.48,43.02l7.09,1.71c-.98,1.11-5.04,5.08-6.36,3.91.89-4.53-12.83,3.22-.73-5.62Z"/>
              <path class="cls-25" d="m52.99,40.09c.99-.4,2.73-1.22,3.42-1.96,7.61,1.16,3.41,1.22,1.22,2.93-.42.33,1.19,3.16-8.31,2.93l3.67-3.91Z"/>
              <path class="cls-8" d="m68.87,35.69c1.79,3.61,3.38,1.53,6.11,3.67-6.07,3.96-5.22.58-10.76-1.47l4.64-2.2Z"/>
              <path class="cls-18" d="m109.94,80.18c.42-.09,7.83,1.08,7.09,3.67-1.12,3.92-11.76-2.64-7.09-3.67Z"/>
              <path class="cls-8" d="m19.99,50.35c6.34-.81,6.17,2.48-2.93,2.44-.95-.69,2.73-2.42,2.93-2.44Z"/>
              <path class="cls-8" d="m18.52,31.78c.21-.07,4.68-.26,3.91.98l-7.58,1.71c3.02-1.17,3.45-2.62,3.67-2.69Z"/>
              <path class="cls-8" d="m116.54,75.29c-3.82-1.87-4.15-2.39-.49-4.4.15.47,1.18,4.19.49,4.4Z"/>
              <g>
                <path class="cls-18" d="m74.5,10.27c4.32.19,2.67-3.18,9.78.49,1.02.52,1.93,1.35,3.18,1.47,2.61,2.92,7.49,13.31,11.98,6.84.32.24,2.26.02,7.33,2.93l3.42,9.04c1.5,1.22,2.88,2.77,4.89,3.18.04.31-.07.72,0,.98-6.77.1-9.44-1.9-10.02-1.96-.86-.09-1.23,1.42-2.93.98.7-5.63-6.58-11.85-11.98-10.51,4.94,7.31,10.29,7.23,10.76,8.8.25.85-2.75,9.77,9.04,4.16-.97,2.42,5.02,4.22,5.13,5.62.12,1.42-3.53,2-3.42,3.42.02.31,3.36,5.06,3.67,5.13,1.24.29.18-2.11,1.71-1.22.14,3.2,2.38,5.28,2.93,7.09,3.19,10.43-2.84,6.23-3.91,8.56,1.82-.4,5.12,3.24,5.38,4.4.79,3.51-1.33,7.36-4.89,5.62.69-.21-.34-3.93-.49-4.4-.17-.54.29-1.52-.24-1.96-7.14-2.04-4.5-5.18-4.64-5.62-.14-.44-3.11-2.38-1.71-3.18,8.43,2.15,7.43,1.84.73-3.91-.08-4.43,4.99-2.39,1.71-5.38q-6.72-2.93-13.44-5.87c-.01-.16,0-.33,0-.49-.05-3.42-4.42-6.07-8.31-5.87-2.69-2.6-1.26-3.89-1.47-4.16-1.31-1.69-7.01,2.06-5.87,3.67-.24-.08-.74.09-.98,0-8.81-3.22-11.7-8.27-12.47-8.31-.18,0-3.17,1.53-3.18,1.71,0,.24,3.37,2.21-.73,3.18-3.02.71-6.77-2.82-8.31-1.96-1.11.62,2.46,1.98-.73,5.38-.69.74-2.44,1.56-3.42,1.96-.71.29-3.23.11-4.16.49-4.2,1.74-6.27,3.39-11,4.4l3.42-7.09c-5.85-.06-7.14.15-11.24-3.67-1.67-1.55-2.6-3.09-3.91-4.89,4.35.4,8.45-.86,11.73-3.67.55-1.96-5.49.92-6.36,0-.49-.52.52-.7.49-.73l3.42-2.2c-.59-2.12-2.92.45-2.44-2.2.92-.08,2.99-1.66,6.11-.49-.7-7.55-.12-5.42,2.69-7.33,8.93,1.05,6.93,6.13,7.58,6.84,8.95,2.53,15.05-2.13,2.44-3.42-5.05-6.04,5.31-4.26,2.69-6.84.86-.2,4.15-3.22,5.87-3.91,1.52,1.06,8.54,2.73,8.31,3.67-.13.54-1.63-.25-1.47.98.04.31,2.33-.15,3.18,4.16,1.83-1.85,6.93,1.38,7.09,3.18.25,2.73-4.76,2.62,1.22,3.67,6-7.63-7.02-4.57-4.16-10.76Z"/>
                <g>
                  <path class="cls-8" d="m115.07,35.2c.96,3.44,6.78,6.15,3.42,11,4,4.06,7.4,13.77,1.47,10.51-.55-1.8-2.8-3.89-2.93-7.09-1.53-.89-.47,1.51-1.71,1.22-.31-.07-3.64-4.82-3.67-5.13-.11-1.42,3.54-2,3.42-3.42-.11-1.41-6.1-3.2-5.13-5.62-11.8,5.62-8.79-3.31-9.04-4.16-.46-1.57-5.82-1.49-10.76-8.8,5.39-1.34,12.68,4.88,11.98,10.51,1.7.44,2.07-1.06,2.93-.98.58.06,3.25,2.06,10.02,1.96Z"/>
                  <path class="cls-8" d="m54.45,9.29c2.62,2.58-7.74.81-2.69,6.84,12.6,1.29,6.5,5.95-2.44,3.42-.65-.71,1.36-5.8-7.58-6.84,7.79-5.32,8.74-2.52,12.71-3.42Z"/>
                  <path class="cls-8" d="m74.5,10.27c-2.86,6.19,10.16,3.13,4.16,10.76-5.98-1.05-.97-.94-1.22-3.67-.16-1.8-5.26-5.02-7.09-3.18-.85-4.31-3.14-3.84-3.18-4.16-.17-1.23,1.34-.44,1.47-.98.22-.93-6.79-2.6-8.31-3.67,1.03-.42,3.94-1.45,4.16-1.47,10.61-.78,3.07,6.05,10.02,6.36Z"/>
                  <path class="cls-8" d="m75.23,26.4c9.55.19,13.4,6.61,7.82,4.4-1.61.95.77,1.81.73,2.2-.3,3.01-9.37-.52-12.71-4.89,1.14-1.52,12.26,4.07,4.16-1.71Z"/>
                  <path class="cls-8" d="m44.92,28.84l-3.67,3.67c11.03.58-7.71,4.48-7.82,1.96,3.9-3.91,7.2-3.47,11.49-5.62Z"/>
                  <path class="cls-18" d="m61.54,22.98c2.02-.15,3.83,1.64,5.87,1.96,1.81,1.64-1.73-.02-.24,2.69-10.95,1.67-9.51-4.36-5.62-4.64Z"/>
                </g>
              </g>
              <path class="cls-18" d="m90.14,38.62c-.73.04-2.34,1.86-4.64,1.47-1.08-.45-1.92-1.69-2.69-1.96-1.14-1.61,4.55-5.35,5.87-3.67.21.27-1.22,1.55,1.47,4.16Z"/>
            </g>
            <g>
              <path class="cls-58" d="m97.47,88c.51,11.85-12.59,18.47-22.98,19.55-1.26-.82-3.16-.67-4.4-.98,2.27-1.6,3.85,1.95,3.42-2.44,2.93.06,3.69.01,5.87-2.44v-.49c2.72-1.72,7.29-9.77,7.82-10.27,3.45-3.26,5.51-1.24,10.27-2.93Z"/>
              <path class="cls-56" d="m36.37,82.13c2.5,8.57,16.76,21.08,24.93,21.02,2.93,1.63,5.56,2.63,8.8,3.42,1.24.3,3.14.16,4.4.98-16.64,1.74-28.02-5.07-39.11-16.62-2.25-2.34-5.11-7.63-5.87-8.31l.49-.49,1.22.98c1.52-.88,3.45-.86,5.13-.98Z"/>
              <path class="cls-1" d="m48.1,59.64c-.15.14-.75,1.91-2.44,3.18l.24.73c.39-.3.69-.93,1.22-.98,2.89-.25,5.66-.87,8.56,0,1.79.53,12.16,8.01,5.62,6.84-2.6-.46-5.34-2.96-12.22-.49-4.65,1.67-5.35,5.44-8.8,8.31-.72-.72-1.36-1.61-1.96-2.44-.09-.77-.2-.6,0-1.47,1.12-4.94,5.4-11.34,9.29-14.67l.49.98Z"/>
              <path class="cls-34" d="m62.28,51.33c-5.42,2.53-10.03,3.38-14.67,7.33-3.89,3.32-8.17,9.73-9.29,14.67-6.22,6.38-.81-13.05,6.11-18.09,5.19-3.77,11.88-3.78,17.84-3.91Z"/>
              <path class="cls-10" d="m43.21,84.58c1.32,1.82,3.1,4.69,5.38,5.38,2.18,5.45,7.6,10.36,12.71,13.2-8.18.06-22.43-12.45-24.93-21.02,1.11-.08,4.05-1.05,5.13-.49.35,1.43.55,1.96,1.71,2.93Z"/>
              <path class="cls-46" d="m29.52,82.62c.76.68,3.62,5.97,5.87,8.31-.43-.02-.49.42-.98.49-2.56-3.47-5.96-8.12-6.84-4.89-1.32-1.95-2.95-3.39-3.42-6.36.52-.07,5.16,2.25,5.38,2.44Z"/>
              <path class="cls-30" d="m24.14,80.18c.47,2.96,2.11,4.41,3.42,6.36.71,1.06,1.31,2.31,1.96,3.42-.41-.13-3.21,1.22-6.84-3.91,1.85.69-1.97-5.43,1.47-5.87Z"/>
              <path class="cls-60" d="m30.01,82.13l-.49.49c-.22-.2-4.86-2.51-5.38-2.44-3.43.44.38,6.56-1.47,5.87-5.4-7.62,3.58-9.98,7.33-3.91Z"/>
              <path class="cls-47" d="m34.41,91.42c-2.84.41-4.64-1.39-4.89-1.47-.64-1.11-1.24-2.36-1.96-3.42.88-3.23,4.28,1.42,6.84,4.89Z"/>
              <g>
                <path class="cls-58" d="m97.96,68.44c-6.15-2.29-9.22-2.61-14.18,1.96-2.42,2.23-1.98,3.82-3.91,3.42-14.79-3.09-12.28,4.07-18.58-4.4,6.53,1.17-3.83-6.31-5.62-6.84-2.9-.87-5.67-.25-8.56,0,8.82-5.47,14.29-1.05,14.67-1.71-3.43-4.98-9.5-5.09-13.69-1.22l-.49-.98c4.63-3.96,9.25-4.81,14.67-7.33,7.56-.16,29.42,1.8,33.73,8.56,2.32,3.64,1.52,6.67,1.96,8.56Z"/>
                <path class="cls-27" d="m97.96,68.44c.58,2.5,2.94,4.35,1.71,4.89-.56-.45-.68-.96-1.22-1.47-3.4-3.15-6.74-7.1-13.69-.98-.53.06-1.01.11-.98-.49,4.96-4.57,8.02-4.25,14.18-1.96Z"/>
                <path class="cls-18" d="m47.12,62.58c-.54.05-.83.67-1.22.98l-.24-.73c1.69-1.26,2.3-3.04,2.44-3.18,4.19-3.86,10.26-3.76,13.69,1.22-.38.67-5.85-3.76-14.67,1.71Z"/>
                <path class="cls-18" d="m85.01,56.71c3.06-.69,5.61,1.27,7.09,3.67-.35.83-5.97-2.6-11,1.22-1.1-.56,2.63-4.6,3.91-4.89Z"/>
                <path class="cls-61" d="m84.76,70.89c-.77.68-.95.44-.98.49-.04.06-.6.04-.98.98-.05.13.05.34,0,.49-1.81,2.96-1.01,1.38-2.93.98,1.94.4,1.5-1.2,3.91-3.42-.03.59.45.55.98.49Z"/>
              </g>
              <path class="cls-18" d="m64.72,92.4c7.34,3.02,11.49,3.98,18.58-.49,1.11-.7,1.93-1.93,3.42-1.96-.01.05.67-.19.49.98-.53.5-5.1,8.54-7.82,10.27l-10.27,1.47c-3.68-1.25-9.26-8.22-10.27-12.22.55.05.42-.26.49-.49,1.67,1.17,3.53,1.68,5.38,2.44Z"/>
              <path class="cls-38" d="m58.85,90.44c1,4,6.58,10.97,10.27,12.22.85.29.89.4,1.96.49.41,1.31,1.47.96,2.44.98.43,4.39-1.15.85-3.42,2.44-3.24-.8-5.87-1.8-8.8-3.42-5.11-2.84-10.53-7.75-12.71-13.2,2.1.63,7.56-.1,10.02-.49l.24.98Z"/>
              <path class="cls-23" d="m79.39,101.2v.49c-2.82.63-5.3,1.72-8.31,1.47-1.07-.09-1.11-.2-1.96-.49l10.27-1.47Z"/>
              <path class="cls-28" d="m79.39,101.69c-2.17,2.46-2.94,2.5-5.87,2.44-.97-.02-2.03.34-2.44-.98,3.01.26,5.49-.83,8.31-1.47Z"/>
              <path class="cls-38" d="m83.3,91.42l-18.58.98c-1.85-.76-3.71-1.28-5.38-2.44.7-2.39,3.47-1.11,6.84-8.8,5.55,12.62,10.44,3.57,15.64,8.56.48.46-1.7.85,1.47,1.71Z"/>
              <path class="cls-12" d="m83.3,91.42v.49c-7.08,4.47-11.24,3.51-18.58.49l18.58-.98Z"/>
              <g>
                <path class="cls-58" d="m86.72,89.95c-1.49.03-2.31,1.25-3.42,1.96v-.49c-3.17-.87-.99-1.25-1.47-1.71-5.2-4.99-10.1,4.06-15.64-8.56.07-.16.25-.84.49-1.47l2.93-4.4c3.51-.99,7.22-.49,10.51.98.77,9.7,7.28,11.77,7.58,12.47.04.09-.83.57-.98,1.22Z"/>
                <path class="cls-1" d="m69.61,75.29l-2.93,4.4c.19-.5-.35-2.07.49-3.67.47-.65,1.85-.57,2.44-.73Z"/>
                <path class="cls-37" d="m78.65,83.6c2.74.31-4.84,6.11-9.04,1.22,1.14-1.99,2.62,3.9,9.04-1.22Z"/>
              </g>
              <g>
                <path class="cls-46" d="m83.79,83.6c3.55,4.47,9.31,5.13,14.18,2.93.24.81-.51,1.02-.49,1.47-4.76,1.7-6.81-.33-10.27,2.93.18-1.17-.5-.92-.49-.98.15-.65,1.02-1.13.98-1.22-.3-.7-6.81-2.76-7.58-12.47-3.29-1.47-7-1.96-10.51-.98-.59.17-1.97.08-2.44.73-.84,1.6-.3,3.17-.49,3.67-.24.62-.42,1.3-.49,1.47-3.37,7.69-6.15,6.41-6.84,8.8-.07.23.06.54-.49.49l-.24-.98c-2.46.39-7.92,1.12-10.02.49-2.28-.68-4.06-3.56-5.38-5.38,2.96,2.47,2.71,3.16,6.84,3.91,4.81.87,9.37-.06,12.71-3.91,5.19-5.99-.99-9.54,7.58-10.76,13.26-1.88,9.68,5.05,13.44,9.78Z"/>
                <g>
                  <path class="cls-35" d="m94.05,71.87c-3.09,1.27-2.79,2.78-2.93,2.93-1.29,1.41-3.63,2.09-3.42,5.87-.58.17-2.76,1.96-2.93,1.96-.17,0-.39.04-.49,0-1.94-.84-1.6-5.81-1.47-7.33,3.25-1.07,1.9-5.14,10.51-4.4.37.03.67.96.73.98Z"/>
                  <path class="cls-36" d="m100.41,83.11c-.24.42-.85,1.87-.98,2.44-.51.4-.86.7-1.47.98-4.86,2.19-10.62,1.53-14.18-2.93l.49-.98c.09.04.32,0,.49,0,.94,3.19,4.97,4.07,7.58,2.93.49-.21.14-1.42.24-1.47,1.48-.72,4.25-.55,4.4-2.93.18.08.98-.48,3.42,1.96Z"/>
                  <path class="cls-68" d="m98.45,72.35c.37,1.24.74,2.09.98,3.42-1.09-.51-1.09-1.63-1.96-2.44-.47-.44.06-.38-.98-.98-1.26-.72-1.48-.28-2.44-.49-.06-.01-.36-.95-.73-.98-8.61-.74-7.26,3.33-10.51,4.4.07-.8-.05-1.64,0-2.44.05-.15-.05-.35,0-.49l.98-.98s.2.19.98-.49c2.18-.23,6.27-5.99,13.69,1.47Z"/>
                  <path class="cls-24" d="m96.98,81.15c-.15,2.38-2.92,2.21-4.4,2.93l-4.4-3.42c4.63-1.27,4.18-1.56,8.8.49Z"/>
                  <path class="cls-13" d="m88.19,80.66l4.4,3.42c-.1.05.24,1.26-.24,1.47-2.61,1.13-6.64.26-7.58-2.93.18,0,2.35-1.78,2.93-1.96.15-.04.34.04.49,0Z"/>
                  <path class="cls-6" d="m96.5,72.35l.98.98c.87.82.87,1.94,1.96,2.44.03.19,1.09.66.24,3.91-.94-4.66-4.19-6.16-8.56-4.89.14-.15-.16-1.66,2.93-2.93.97.21,1.19-.23,2.44.49Z"/>
                  <path class="cls-26" d="m98.45,71.87v.49c-7.42-7.46-11.51-1.7-13.69-1.47,6.95-6.12,10.29-2.17,13.69.98Z"/>
                  <path class="cls-29" d="m103.83,78.71v.49c-2.9,1.69.18,2.79-4.4,6.36.13-.58.73-2.03.98-2.44.06-.1,1.16.35,1.47-1.71.72-4.75-4.64-11.11,1.96-2.69Z"/>
                  <path class="cls-43" d="m103.83,79.2v-.49c7.41-3.69,9.1,2.5,0,.49Z"/>
                  <path class="cls-67" d="m97.47,73.33l-.98-.98c1.04.6.51.54.98.98Z"/>
                  <path class="cls-19" d="m82.81,72.35c.38-.93.94-.92.98-.98l-.98.98Z"/>
                </g>
                <g>
                  <path class="cls-43" d="m37.1,75.29c.19.08,1.71,3.46,1.71,3.67.05,2.8-9.7,2.82-9.78.49-.07-2.14,7.63-4.35,8.07-4.16Z"/>
                  <path class="cls-42" d="m40.28,77.24c.57.57,1.11,1.96,1.22,1.96.14,0,.77-1.73,1.22-2.44,1.17-.18.28,1.79.98,4.4.36,1.34.47.93.49.98.42,1.14.56,1.95,1.47,2.93,1.24,1.35,2.58,2.48,4.4,2.93v.49c-4.13-.75-3.88-1.44-6.84-3.91-.28-.39-1.33-3.89-4.89-8.07-.76-1.78.01-1.63,0-1.71.59.83,1.24,1.72,1.96,2.44Z"/>
                  <path class="cls-27" d="m61.3,69.42c6.3,8.47,3.78,1.31,18.58,4.4,1.93.4,1.12,1.98,2.93-.98-.05.81.07,1.64,0,2.44-.13,1.53-.47,6.49,1.47,7.33l-.49.98c-3.76-4.72-.18-11.66-13.44-9.78-8.56,1.22-2.38,4.76-7.58,10.76.06-.53-.1-1.26,0-1.47.08-.17,1.69-1.29,1.96-3.18,1.23-8.65-8.15-13.41-15.15-9.53-5.57,3.09-4.73,7.65-5.38,10.27,0,.03-.54-.12-.49.49-.69-2.61.19-4.58-.98-4.4,2.05-3.22,2.71-5.17,6.36-7.82,6.88-2.47,9.62.02,12.22.49Z"/>
                  <path class="cls-30" d="m49.08,68.93c-3.65,2.65-4.3,4.6-6.36,7.82-.45.71-1.08,2.44-1.22,2.44-.12,0-.66-1.38-1.22-1.96,3.45-2.88,4.15-6.64,8.8-8.31Z"/>
                  <path class="cls-16" d="m62.76,83.11c-.1.2.06.93,0,1.47-3.34,3.85-7.9,4.78-12.71,3.91v-.49c3.1.77,5.95.08,8.8-1.47,1.55-.84,3.9-2.13,2.93-3.91.33.17.61.42.98.49Z"/>
                  <path class="cls-58" d="m58.85,86.53c-2.85,1.55-5.7,2.24-8.8,1.47-1.82-.46-3.15-1.58-4.4-2.93,1.41.17,1.64-1.39,2.44-1.96,2.26,3.97,7,2.98,10.76,3.42Z"/>
                  <path class="cls-44" d="m51.03,80.18c.15,0,2.01.4,2.93.49-1,1.33-3.33.65-5.87,2.44-.81.57-1.03,2.13-2.44,1.96-.9-.98-1.04-1.79-1.47-2.93,1.06-1.05,4.5-.05,4.4-1.96.81-.01,1.63-.01,2.44,0Z"/>
                  <path class="cls-65" d="m48.59,80.18c.1,1.91-3.34.9-4.4,1.96-.02-.05-.13.36-.49-.98-.05-.61.48-.46.49-.49,1.57.33,2.94-.46,4.4-.49Z"/>
                  <path class="cls-35" d="m51.03,80.18c-.81-.01-1.63-.01-2.44,0-1.46.03-2.83.82-4.4.49.65-2.62-.2-7.18,5.38-10.27,12.89-2.98,15.6,7.46,14.42,7.82-3.94-9-10.18-6.15-12.95,1.96Z"/>
                  <path class="cls-13" d="m60.81,82.13c.34.15.65.32.98.49.97,1.79-1.38,3.07-2.93,3.91-3.76-.44-8.49.55-10.76-3.42,2.53-1.79,4.87-1.11,5.87-2.44.16.02.33-.02.49,0,1.47.72,5.18,2.17,6.36,1.47Z"/>
                  <g>
                    <path class="cls-18" d="m62.76,83.11c-.37-.07-.64-.32-.98-.49-.33-.17-.64-.33-.98-.49-3.6-1.65-3.61-1.17-6.36-1.47-.16-.02-.33.02-.49,0-.93-.09-2.78-.49-2.93-.49,2.77-8.11,9.02-10.96,12.95-1.96,1.18-.36-1.53-10.81-14.42-7.82,7-3.88,16.39.88,15.15,9.53-.27,1.89-1.87,3.01-1.96,3.18Z"/>
                    <path class="cls-45" d="m57.63,73.33c3.58-.1,9.45,7.5,0,1.47-5.74,1.52-1.7-1.42,0-1.47Z"/>
                    <path class="cls-53" d="m60.81,82.13c-1.17.7-4.88-.75-6.36-1.47,2.74.3,2.76-.18,6.36,1.47Z"/>
                  </g>
                </g>
              </g>
            </g>
          </g>
        </g>
        <g>
          <path class="cls-47" d="m34.9,172.08c-.45,1.34.51,1.39.49,1.47-.13.44-.31.73-.49,1.47-.76,3.07-1.47,7.28-5.13,3.42-.81-.85-.65-2.26-.73-2.44-.37-.86-.48-.92-.49-.98-.07-.27.05-.67,0-.98,1.07-4.85,3.15-6.12,6.36-1.96Z"/>
          <path class="cls-18" d="m47.12,161.33c-.49.43-3.59,3.77-3.42,4.64,1.7,2.25,3.3,7.27,3.91,10.02-.73-.51-1.11-.47-1.96-.49-2.03-.04-2.28-.01-4.4-.49-1.97-.44-3.78-1.52-5.87-1.47.02-.07-.94-.12-.49-1.47.14-.42.05-.93.49-1.47.78-2.12,2.37-3.22,2.44-3.42,1.72-.47,2.64-1.75,2.93-1.96,1.59-1.13,3.31-2.04,4.89-3.18-.08-1.62.39-3.15.98-4.64l.49,3.91Z"/>
          <g>
            <path class="cls-21" d="m78.9,165.73c.78,1.3,1.16,1.94,2.44,2.93h-.49c-.74-.37-1.07-.86-.98.24.11,1.3,9.1,20.53,9.29,22.24-4.71,2.92-11.72-20.38-11.73-24.93.08-.01-.22-.72,1.47-.49Z"/>
            <path class="cls-36" d="m77.43,166.22c.01,4.55,7.02,27.85,11.73,24.93.13,1.2.8,1.21-.24,1.96-4.64.14-9,1.85-13.44,2.93l8.56-3.42v-.98c-4.17.25-8.55-.73-12.47.98-.07-.06-2.03-.04-1.22-1.47,3.98-.93,9.97-2.41,8.07-3.42-.21-3.43-6.7-13.42-9.29-16.62,2.32-.96,6.31-4.12,4.89-4.4,1.61-.66,2.03-.29,3.42-.49Z"/>
            <path class="cls-38" d="m62.76,191.15c2.98,2.42,2.49,2.82,1.96,6.36-1.34.34-5.25.1-2.93,1.47-3.32.37-6.93-.11-10.27,0-1.62.38-.76-1.72-.98-4.4-.06-.8.1-1.65,0-2.44,2.84.3,5.51-.2,8.31-.49,1.31-.14,2.62-.17,3.91-.49Z"/>
            <path class="cls-13" d="m75.47,196.04c-2.78.68-5.48,1.49-8.31,1.96l-.98-.98c2.44-.71,4.84-1.17,7.09-2.44.83-.81-.54-1-1.71-1.96,3.91-1.7,8.3-.73,12.47-.98v.98l-8.56,3.42Z"/>
            <path class="cls-13" d="m67.16,197.99c-1.88.31-3.21.73-5.38.98-2.32-1.37,1.59-1.13,2.93-1.47.71-.18,1.01-.36,1.47-.49l.98.98Z"/>
            <path class="cls-13" d="m78.41,164.75c.2.38.4.83.49.98-1.68-.23-1.39.48-1.47.49-1.39.2-1.81-.18-3.42.49-2.43,1-5.97,3.53-4.89,4.4,2.59,3.2,9.08,13.19,9.29,16.62-1.42-.41-7.46-3.64-7.82-4.16-.69-.99-3.64-15.38-3.91-17.84l11.73-.98Z"/>
            <path class="cls-10" d="m78.9,144.22c-.51.7-1.41,1.85-1.47,1.96-2.7-1.47-.53-3.61-2.2-3.91-1.33-.24-6.61,5.08-7.09,5.38-.29.18-.66.34-.98.49-.11.05-1.91.38-2.44.49-.16.03-.33-.02-.49,0-.2-1.62.27-4.02,0-5.38.6.03.55-.46.49-.98,5.59-.93,15.03-3.96,14.18,1.96Z"/>
            <path class="cls-33" d="m84.76,137.86c-.22,1.06-1.68,2.44-2.44,3.42-.54.7-2.94,2.28-3.42,2.93.86-5.92-8.59-2.88-14.18-1.96-.13-1.13-.98-2.75-1.47-5.38,1.36-2.34,1.46,1.97,4.64,2.44,1.17.18,7.11-.5,7.82-1.96,1.01-.1,3.66,3.92,9.04.49Z"/>
            <path class="cls-13" d="m74.5,159.86c.1,0,1.24,1.33,1.96,0,.04.18,1.19,2.74,1.47,3.42l-11.24.98c-.06-.66-.48-1.56-.49-4.4,3.3,1.34,7.62.01,8.31,0Z"/>
            <path class="cls-58" d="m77.43,146.17c-.24.45-.77,2.55-.98,3.42-3.12-.93.09-3.06-2.2-3.91-.93.09-.87,2.88-6.11,1.96.48-.3,5.76-5.62,7.09-5.38,1.67.3-.5,2.45,2.2,3.91Z"/>
            <path class="cls-21" d="m74.99,150.08c.04.05.23.89.98.98-.4,3.01-.19,5.87.49,8.8-.72,1.33-1.86,0-1.96,0-1.72-2.86-1.52-6.09-1.47-9.29.67-.16,1.27-.43,1.96-.49Z"/>
            <path class="cls-13" d="m76.45,149.59c-.1.4-.36.49-.49,1.47-.75-.09-.93-.93-.98-.98-1.59-1.86-5.97-.47-7.82-1.96.32-.15.69-.31.98-.49,5.24.92,5.18-1.86,6.11-1.96,2.29.85-.92,2.98,2.2,3.91Z"/>
            <path class="cls-36" d="m77.92,163.28c.31.74.45,1.4.49,1.47l-11.73.98c-.05-.48.04-.98,0-1.47l11.24-.98Z"/>
            <path class="cls-33" d="m67.16,148.13c1.86,1.49,6.23.09,7.82,1.96-.68.06-1.28.33-1.96.49-2.29.55-4.63.86-6.84,1.71,0,2.53,0,5.05,0,7.58,0,2.84.43,3.73.49,4.4.04.48-.05.99,0,1.47.28,2.46,3.23,16.85,3.91,17.84.36.52,6.4,3.75,7.82,4.16,1.9,1.01-4.08,2.5-8.07,3.42-.81,1.43,1.15,1.41,1.22,1.47,1.17.95,2.54,1.15,1.71,1.96-2.25,1.28-4.65,1.74-7.09,2.44-.45.13-.76.31-1.47.49.53-3.54,1.03-3.93-1.96-6.36,1.04-.26,3.07-.06,3.91-.98.44-2.09-2.43-5.34-2.44-10.27,0-.34-.02-1.86,0-1.96.16-.68.48-.46.49-.49.41-1.55,1.33,3.31.49-6.84-.61-7.31-2.76-14.89-.49-22,.53-.1,2.33-.44,2.44-.49Z"/>
            <path class="cls-21" d="m74.01,166.71c1.42.28-2.56,3.44-4.89,4.4-1.08-.86,2.46-3.4,4.89-4.4Z"/>
            <path class="cls-69" d="m66.68,190.17c-1.96-.77-9.52.38-7.82,1.47-2.8.29-5.47.79-8.31.49-.11-.89-.35-1.99-.49-2.93q7.09-4.64,14.18-9.29c.01,4.93,2.88,8.18,2.44,10.27Z"/>
            <path class="cls-21" d="m66.68,190.17c-.84.92-2.87.72-3.91.98-1.29.32-2.6.35-3.91.49-1.7-1.09,5.86-2.24,7.82-1.47Z"/>
            <path class="cls-61" d="m64.72,148.62c-2.27,7.11-.12,14.69.49,22-1.52-4.21-1.7-8.8-1.96-13.2-.16-2.8-.48-3.25-.49-3.42,0-.3.99-5.09.98-5.38h.49c.16-.02.33.03.49,0Z"/>
            <path class="cls-21" d="m73.03,150.57c-.05,3.2-.25,6.43,1.47,9.29-.69.01-5.01,1.34-8.31,0,0-2.53,0-5.05,0-7.58,2.21-.85,4.56-1.16,6.84-1.71Z"/>
            <g>
              <path class="cls-21" d="m78.41,127.11c.07-.22-.04-.66,0-.98,1.74,2.71,6.47,8.48,6.36,11.24-.02.16.03.33,0,.49-5.38,3.43-8.03-.59-9.04-.49-.71,1.45-6.65,2.13-7.82,1.96-3.19-.48-3.28-4.78-4.64-2.44-1.07-5.78-.54-9.43-.98-14.67,1.84,1.2,7.94,8.1,9.04,8.31,1.46.28,6.78-2.49,7.09-3.42Z"/>
              <path class="cls-3" d="m78.41,127.11c-.31.94-5.62,3.71-7.09,3.42-1.11-.21-7.21-7.11-9.04-8.31-.04-.52-1.17-1.16,0-1.47.81,1.53,12.3,13.71,11.49,6.84,1.36,2.07,2.57-.28,4.64-.49Z"/>
              <path class="cls-21" d="m67.9,132c.74-.1,2.85.21,3.42.49,9,4.4-14.56.98-3.42-.49Z"/>
            </g>
            <path class="cls-56" d="m62.76,177.95h1.47c-.02.1,0,1.62,0,1.96q-7.09,4.64-14.18,9.29c-.29-1.96-1.04-5.12-1.47-7.33-.22-1.17-.27-2.34-.49-3.42,3.87.85,7.36.48,11.24,0,1.06-.13,1.98-.77,3.42-.49Z"/>
          </g>
          <g>
            <path class="cls-66" d="m41.25,175.02c2.12.48,2.37.45,4.4.49.92,4.6.67,10.09,2.93,6.36.42,2.22,1.18,5.38,1.47,7.33.14.95.38,2.04.49,2.93.1.79-.06,1.64,0,2.44-4.25-6.39-7.07-2.33-14.42-2.93-.67-.34-1.16-4.42-1.22-5.38-.06-.95-.75-1.66-.49-2.69.5-.72,18.49,9.69,11.98,4.64-5.07-3.92-14.84-4.68-11-13.2,2.68.21,6.41,1.64,5.87,0Z"/>
            <path class="cls-41" d="m35.39,175.02c-3.84,8.52,5.93,9.27,11,13.2,6.51,5.04-11.48-5.37-11.98-4.64-.26,1.03.43,1.74.49,2.69-2.32,1.16-2.79.47-2.93.49,2.8-.69-.2-2.05.98-4.64-2.06-2.1-5.04-2.59-4.4-6.11h.49c.08.18-.08,1.59.73,2.44,3.67,3.86,4.38-.35,5.13-3.42h.49Z"/>
            <g>
              <path class="cls-18" d="m28.54,175.02c.01.05.12.12.49.98h-.49c-3.78-.08-4.95,5.91-5.38,8.8-.26,1.76-.79,2.84,0,4.64.31.19.87-.14,1.47-.24.62-.11,2.87-1.73,7.33-2.44.15-.02.61.67,2.93-.49.06.96.56,5.03,1.22,5.38,7.35.6,10.17-3.45,14.42,2.93.22,2.68-.64,4.78.98,4.4-.12,0-2,.49-2.44.49-6.12.01-25.83.18-29.33-5.62-2.66-4.42.82-22,8.8-18.82Z"/>
              <path class="cls-41" d="m28.54,175.99c-.64,3.52,2.34,4.01,4.4,6.11-1.18,2.6,1.83,3.95-.98,4.64-4.46.71-6.71,2.33-7.33,2.44l-1.47-4.4c.43-2.89,1.6-8.88,5.38-8.8Z"/>
              <path class="cls-4" d="m24.63,189.19c-.6.11-1.16.43-1.47.24-.79-1.81-.26-2.89,0-4.64l1.47,4.4Z"/>
            </g>
            <path class="cls-31" d="m41.25,175.02c.54,1.64-3.19.21-5.87,0h-.49c.18-.73.36-1.02.49-1.47,2.09-.06,3.89,1.02,5.87,1.47Z"/>
            <path class="cls-39" d="m47.61,175.99c.03.16-.03.33,0,.49.14.65.37,1.37.49,1.96.22,1.08.26,2.25.49,3.42-2.26,3.73-2.01-1.75-2.93-6.36.84.02,1.23-.03,1.96.49Z"/>
          </g>
          <g>
            <path class="cls-50" d="m90.14,153.51c3.52,6.49,9.49,10.76,14.18,16.13.07.08,1.18.5,1.47,1.47.92,3.1-3.07,2.5-4.89,2.93-3.23-1.87-12.4-9.73-14.18-12.71-.63-1.07-1.18-2.2-1.96-3.18v-3.42c1.83-2.93.44-3.68.49-3.91,2.35-10.94,2.29-2.1,4.89,2.69Z"/>
            <path class="cls-18" d="m83.3,159.37c.3.18,2.63,1.91,2.44,2.44l.49,9.04c-.5.45-4.35-1.79-4.89-2.2-1.29-1-1.66-1.63-2.44-2.93-.09-.15-.29-.6-.49-.98-.04-.07-.18-.73-.49-1.47-.28-.68-1.42-3.24-1.47-3.42-.67-2.93-.89-5.79-.49-8.8.13-.98.39-1.07.49-1.47.21-.87.74-2.98.98-3.42.06-.11.95-1.25,1.47-1.96.48-.65,2.88-2.24,3.42-2.93,1.26,2.88-4.3,7.27-2.93,13.44-6.78,2.52,3.22,4.23,3.91,4.64Z"/>
            <path class="cls-40" d="m95.52,153.02c1.69,1.45,3.21,3.44,5.38,1.47.52.38,1.09,1.35,1.47,1.96-1.58.4-3.47-1.69-2.93.98.31,1.51,3.19,4.75,4.4,6.36-2.28-.19.14,4.89,1.47,4.89-.06.03-.93.75-.98.98-4.69-5.37-10.66-9.64-14.18-16.13.42.05.45-.12.49-.49,1.12,1.28,5.13,2.32,4.89,0Z"/>
            <path class="cls-42" d="m102.85,157.42c2.01,3.18,5.52,7.36,8.8,12.71-.77-.1-1.75.15-2.44,0-.74-.16.54-1.76-3.42.98-.29-.97-1.4-1.39-1.47-1.47.04-.23.91-.95.98-.98,3.74-1.48,1.34-1.16-1.47-4.89-1.21-1.6-4.09-4.85-4.4-6.36h3.42Z"/>
            <path class="cls-50" d="m102.36,156.44c.17.27.32.71.49.98h-3.42c-.54-2.67,1.35-.58,2.93-.98Z"/>
            <path class="cls-50" d="m83.3,159.37c-.69-.42-10.69-2.12-3.91-4.64-1.37-6.18,4.2-10.57,2.93-13.44.77-.98,2.22-2.36,2.44-3.42.03-.16-.02-.33,0-.49h.49c.68,9.65-3.53,13.74-1.96,22Z"/>
            <path class="cls-20" d="m103.83,163.77c2.81,3.73,5.2,3.41,1.47,4.89-1.33,0-3.74-5.08-1.47-4.89Z"/>
            <path class="cls-40" d="m46.14,142.75c-.21,1.41-.7,2.98-.98,4.4-.68,3.46-1.68,9.14-3.91,11.73.74-2.44,1.78-7.46.73-6.84-.42.31,0,.9-.73.98-6.69.71-10.73,2.72-2.44,4.89-1.77,3.77-3.17,7.92-4.89,11.73-2.76-1.4-3.02.63-3.91-7.09,2.12-4.66,5.06-9.15,7.33-13.69.18-.37,1.82-7.16,2.44-7.82,1.21-1.28,3.9-.11,4.4-3.18.53,1.98-.7,4.42,1.96,4.89Z"/>
            <path class="cls-41" d="m48.59,136.4c.45,2.92.1,6.38,1.47,5.87-.22.9-.27,2.03-.49,2.93-.03.13-1.75,1.19-1.96,1.71,2.21,5.01-4.9,13.16-6.84,18.33-.29.21-1.21,1.49-2.93,1.96,1.02-2.77,2.59-5.56,3.42-8.31,2.23-2.59,3.23-8.27,3.91-11.73,7.06-1.55,1.03-9.49,3.42-10.76Z"/>
            <path class="cls-50" d="m48.59,136.4c-2.39,1.26,3.64,9.21-3.42,10.76.28-1.42.77-2.99.98-4.4.33-2.25-1.36-9.6,2.44-6.36Z"/>
            <path class="cls-14" d="m52.99,137.86c-.35,2-.73,3.83-.98,5.87,0,.08-.34-.5-.49,1.47-1.69-.02-.54,1.87-1.96,0,.22-.9.27-2.03.49-2.93.02-.08.1.4.49-1.47.58-.74,1.21-2.49,1.47-3.42l.98.49Z"/>
            <path class="cls-72" d="m55.43,113.42c-.04,3.12.14,6.17,0,9.29l-.98-.49c.18-2.62.09-6.12,0-8.8,0-.16.02-.33,0-.49.42-.08.6.61.98.49Z"/>
            <g>
              <path class="cls-40" d="m54.45,112.93c.02.16,0,.33,0,.49l-.98,5.13c-5.18-1.8,2.72,3.9,0,6.36-1.75,1.58-2.51-7.06-6.36-1.96,3.11-.15,4.68,11.71,3.42,17.84-.38,1.87-.47,1.39-.49,1.47-1.37.52-1.02-2.95-1.47-5.87-3.81-3.24-2.12,4.11-2.44,6.36-2.66-.47-1.43-2.91-1.96-4.89-.29-1.09.93-2.22-3.42-3.91,3.43-7.08,7.27-15.25,12.71-21.02.14-.15.33-.33.49-.49.42-.05.45.12.49.49Z"/>
              <path class="cls-11" d="m54.45,122.22c-.28,4.01-1.39,11.36-2.44,15.15-.26.93-.89,2.68-1.47,3.42,1.26-6.13-.31-17.99-3.42-17.84,3.84-5.1,4.61,3.53,6.36,1.96,2.72-2.45-5.18-8.15,0-6.36l.98-5.13c.09,2.68.18,6.18,0,8.8Z"/>
              <path class="cls-30" d="m48.1,132.97c-.17-4.76-3.84-1.41-.98.98-1.22.56-2.9.81-3.42-.73-1.41-4.2,6.73-5.37,4.4-.24Z"/>
              <path class="cls-17" d="m48.1,132.97c-.03.06-.7.85-.98.98-2.86-2.39.81-5.73.98-.98Z"/>
            </g>
            <path class="cls-32" d="m41.25,158.88c-.83,2.75-2.4,5.54-3.42,8.31-.07.2-1.67,1.3-2.44,3.42-1.22.2-1.39-.94-1.47-.98,1.72-3.82,3.12-7.96,4.89-11.73.12-.25,1.77-1.51,2.44-4.89.74-.08.31-.66.73-.98,1.05-.62,0,4.41-.73,6.84Z"/>
            <g>
              <path class="cls-50" d="m44.19,137.86c-.5,3.06-3.19,1.9-4.4,3.18-.63.66-2.26,7.46-2.44,7.82-2.27,4.53-5.21,9.03-7.33,13.69.9,7.72,1.15,5.69,3.91,7.09.08.04.25,1.18,1.47.98-.44.54-.35,1.04-.49,1.47-3.21-4.16-5.28-2.89-6.36,1.96-1.62-9.88,7.59-30.54,12.22-40.09,4.35,1.69,3.13,2.82,3.42,3.91Z"/>
              <path class="cls-56" d="m41.01,135.91c2.66-1.26,2.83,3.61.98,3.91-1.93.31-2.32-3.27-.98-3.91Z"/>
            </g>
            <path class="cls-52" d="m60.81,115.86c.54,1.74.58,3.21,1.47,4.89-1.17.31-.04.94,0,1.47.44,5.23-.09,8.89.98,14.67.49,2.62,1.34,4.25,1.47,5.38.06.51.11,1.01-.49.98-.21-1.03-1.59-3.51-2.44-4.4q-1.71-8.56-3.42-17.11c1.48-5.29-2.86-9.37,2.44-5.87Z"/>
            <path class="cls-18" d="m57.88,112.44c1.95,1.31,2.72.95,2.93,1.22.19.25-.18,1.64,0,2.2-5.3-3.51-.96.58-2.44,5.87-.03.11-.97.31-1.47,1.71-.68,1.93-.44,6.25-2.44,6.6,1.25-2.43.87-5.01.98-7.33.14-3.12-.04-6.17,0-9.29.26-.08,2.35-.89,2.44-.98Z"/>
            <g>
              <path class="cls-42" d="m87.21,129.06c-1.62,1.85-3.86.04-3.91,1.22-.04.88,4.4,6.85,3.91.24,5.68,6.68,7.91,16.72,13.69,23.95-2.17,1.97-3.69-.02-5.38-1.47-1.66-1.42-3.83-4.93-4.16-4.89-1.19.17-.58,3.57-.73,4.89-.04.37-.07.54-.49.49-2.59-4.79-2.54-13.63-4.89-2.69-.05.23,1.34.98-.49,3.91v3.42c.78.98,1.32,2.11,1.96,3.18l-.98.49c.18-.54-2.15-2.27-2.44-2.44-1.57-8.26,2.64-12.35,1.96-22,0-.11.86-.53.49-2.2-3-3.94-10.06-13.17-6.84-16.13l-4.4-3.18c3.26,1.32,5.33,1.39,7.82,4.16.61.67,4.63,8.11,4.89,9.04Z"/>
              <g>
                <path class="cls-41" d="m74.5,115.86l4.4,3.18c-3.21,2.96,3.85,12.19,6.84,16.13.38,1.67-.5,2.09-.49,2.2h-.49c.11-2.76-4.62-8.54-6.36-11.24-2.32-3.61-4.01-9.01-8.31-10.27.08-.63-.08-1.32,0-1.96,1.45.67,2.93,1.36,4.4,1.96Z"/>
                <path class="cls-48" d="m87.21,130.53c.49,6.6-3.95.64-3.91-.24.05-1.18,2.29.63,3.91-1.22.4,1.48-.03,1.02,0,1.47Z"/>
                <path class="cls-25" d="m95.52,153.02c.25,2.32-3.77,1.28-4.89,0,.15-1.32-.45-4.72.73-4.89.32-.05,2.5,3.46,4.16,4.89Z"/>
                <path class="cls-9" d="m81.34,126.13c.07.18,4.15,4.3.49,1.71-.14-.1-.38-1.4-.49-1.71Z"/>
                <path class="cls-40" d="m81.34,126.13c-.34-.98-.96-1.84-.24-2.93.89,2.22.19,2.8.24,2.93Z"/>
                <g>
                  <path class="cls-64" d="m86.96,137.86c.67.68,4.08,3.87,4.16,4.16,1.09,4.24-6.48,5.79-4.16-4.16Z"/>
                  <path class="cls-5" d="m88.92,141.77c.25,0,1.19,1.16.49,1.47-1.62.71-1.32-1.44-.49-1.47Z"/>
                </g>
              </g>
            </g>
            <path class="cls-50" d="m61.79,138.84c.86.89,2.24,3.37,2.44,4.4.27,1.36-.2,3.75,0,5.38h-.49c-.21-3.9-4.07-.57-10.27,2.44,0-.07-.97-.91-.98-.98-.32-2.04.27-4.3-.49-6.36.24-2.04.63-3.86.98-5.87.31-1.81.71-3.55.98-5.38,1.06,3.21,6.87,5.36,7.82,6.36Z"/>
            <path class="cls-54" d="m51.52,145.2c-.06.77-.52.42,0,3.42-2.63-1-3.07,4.13-4.89,8.8-.58,1.49-1.06,3.02-.98,4.64-1.58,1.13-3.3,2.05-4.89,3.18,1.94-5.18,9.05-13.32,6.84-18.33.2-.52,1.92-1.58,1.96-1.71,1.41,1.87.27-.02,1.96,0Z"/>
            <path class="cls-63" d="m55.43,122.71c-.1,2.32.28,4.91-.98,7.33.27,1.57-.44,2.08-.49,2.44-.27,1.83-.67,3.56-.98,5.38l-.98-.49c1.06-3.79,2.16-11.15,2.44-15.15l.98.49Z"/>
            <path class="cls-5" d="m52.5,150.08c-.93,3.7-.72.05-.98-1.47-.52-3.01-.06-2.65,0-3.42.15-1.97.48-1.39.49-1.47.76,2.06.17,4.31.49,6.36Z"/>
            <path class="cls-50" d="m49.56,160.35c-2.62,12.9,2.11,19.63-1.96,16.13-.03-.16.03-.33,0-.49-.62-2.76-2.21-7.77-3.91-10.02-.16-.88,2.93-4.22,3.42-4.64.46-.4,1.76-.94,2.44-.98Z"/>
            <path class="cls-41" d="m51.52,148.62c.26,1.52.05,5.17.98,1.47.01.07.97.91.98.98.02.32-.02.65,0,.98-1.83-.07-3.54,6.46-3.91,8.31-.69.04-1.98.58-2.44.98l-.49-3.91c1.82-4.67,2.26-9.8,4.89-8.8Z"/>
            <path class="cls-74" d="m61.79,138.84c-.96-1-6.76-3.14-7.82-6.36.05-.37.76-.87.49-2.44,2.01-.35,1.77-4.67,2.44-6.6.49-1.4,1.44-1.6,1.47-1.71q1.71,8.56,3.42,17.11Z"/>
            <path class="cls-42" d="m63.25,157.42c.25,4.4.44,8.99,1.96,13.2.84,10.15-.08,5.29-.49,6.84-1.24-2.2-5.34-11.14-5.38-12.22-.02-.63,2.06-9.05,3.91-7.82Z"/>
            <path class="cls-52" d="m64.72,177.46s-.33-.19-.49.49h-1.47c-1.42-1.44-6.97-6.28-7.33-6.84-.83-1.31-1.6-3.52-1.47-5.13,1.55,1.98,4.08,3.75,4.89.24.06-.24.05-.73,0-.98h.49c.04,1.08,4.14,10.02,5.38,12.22Z"/>
            <path class="cls-40" d="m63.74,148.62c.02.29-.98,5.07-.98,5.38-1.9.93-4.01,1.42-5.87,2.44.49-1.48-1.25-1.86-2.44-1.96-.32-.03-.65.01-.98,0-.03-.81.04-1.63,0-2.44-.02-.32.02-.65,0-.98,6.2-3.01,10.06-6.34,10.27-2.44Z"/>
            <path class="cls-32" d="m62.76,153.99c0,.17.33.62.49,3.42-1.85-1.23-3.93,7.19-3.91,7.82h-.49c-.42-1.97-1.22-1.2-1.47-1.47-.13-.13-1.21.26-1.47-.24-.25-.5.36-2.18-.24-2.69-1.63-1.36-2.34,3.03-2.69-1.47.92-.54,1.56-1.34,2.44-1.96.38-.27,1.14-.8,1.47-.98,1.86-1.03,3.96-1.51,5.87-2.44Z"/>
            <path class="cls-11" d="m53.48,152.04c.04.81-.03,1.63,0,2.44.02.52-.65,2.78-.49,4.89.34,4.49,1.05.11,2.69,1.47.61.51,0,2.19.24,2.69.25.5,1.34.11,1.47.24v.49c-2.36-.38-3.01,2.56-.98,2.93,1.37.25,1.5-.5,2.44-.98-.8,3.51-3.34,1.74-4.89-.24-.13,1.61.64,3.82,1.47,5.13-1.97,3.18-1.43,8.98,3.91,7.33-3.88.48-7.37.85-11.24,0-.12-.58-.35-1.31-.49-1.96,4.06,3.5-.66-3.24,1.96-16.13.37-1.85,2.08-8.38,3.91-8.31Z"/>
            <path class="cls-11" d="m62.76,177.95c-1.44-.28-2.36.36-3.42.49-5.34,1.65-5.88-4.15-3.91-7.33.36.57,5.91,5.4,7.33,6.84Z"/>
            <g>
              <path class="cls-46" d="m41.25,153.02c-.67,3.38-2.33,4.64-2.44,4.89-8.28-2.17-4.25-4.18,2.44-4.89Z"/>
              <path class="cls-7" d="m37.1,154.48c.54-.33,2.09-.18,1.71,1.22-.4,1.47-3.19-.32-1.71-1.22Z"/>
            </g>
            <path class="cls-59" d="m58.85,165.24c.05.25.06.73,0,.98-.95.48-1.08,1.23-2.44.98-1.03-2.03,2.24-2.6.98-2.93v-.49c.25.26,1.04-.5,1.47,1.47Z"/>
            <path class="cls-46" d="m54.45,154.48c-1.18,1.5.36,1.62.98,2.93-.88.62-1.52,1.41-2.44,1.96-.16-2.11.51-4.37.49-4.89.32.01.66-.03.98,0Z"/>
            <path class="cls-2" d="m56.9,156.44c-.32.18-1.09.71-1.47.98-.62-1.32-2.16-1.43-.98-2.93,1.2.1,2.94.48,2.44,1.96Z"/>
            <path class="cls-62" d="m57.39,164.26c1.27.33-2.01.9-.98,2.93-2.04-.38-1.38-3.31.98-2.93Z"/>
          </g>
        </g>
      </g>
    </g>
  </g>
</svg>