<?xml version="1.0" encoding="UTF-8"?>
<svg id="plane" data-name="plane" xmlns="http://www.w3.org/2000/svg" viewBox="0 0 181.84 99.73">
  <defs>
    <style>
      .cls-1 {
        fill: #800a0f;
      }

      .cls-1, .cls-2, .cls-3, .cls-4, .cls-5, .cls-6, .cls-7, .cls-8, .cls-9, .cls-10, .cls-11, .cls-12, .cls-13, .cls-14, .cls-15, .cls-16, .cls-17, .cls-18, .cls-19, .cls-20, .cls-21, .cls-22, .cls-23, .cls-24, .cls-25, .cls-26, .cls-27, .cls-28, .cls-29, .cls-30, .cls-31, .cls-32, .cls-33, .cls-34, .cls-35, .cls-36, .cls-37, .cls-38, .cls-39, .cls-40, .cls-41, .cls-42, .cls-43, .cls-44, .cls-45, .cls-46, .cls-47, .cls-48, .cls-49, .cls-50, .cls-51, .cls-52 {
        stroke-width: 0px;
      }

      .cls-2 {
        fill: #9d171c;
      }

      .cls-3 {
        fill: #02404f;
      }

      .cls-4 {
        fill: #3c595b;
      }

      .cls-5 {
        fill: #121814;
      }

      .cls-6 {
        fill: #545558;
      }

      .cls-7 {
        fill: #2c3439;
      }

      .cls-8 {
        fill: #cf9f1c;
      }

      .cls-9 {
        fill: #cae3e7;
      }

      .cls-10 {
        fill: #321810;
      }

      .cls-11 {
        fill: #d75534;
      }

      .cls-12 {
        fill: #b58009;
      }

      .cls-13 {
        fill: #4e9294;
      }

      .cls-14 {
        fill: #6c5c53;
      }

      .cls-15 {
        fill: #a28207;
      }

      .cls-16 {
        fill: #8a5905;
      }

      .cls-17 {
        fill: #6d4004;
      }

      .cls-18 {
        fill: #2f1c09;
      }

      .cls-19 {
        fill: #786964;
      }

      .cls-20 {
        fill: #b92425;
      }

      .cls-21 {
        fill: #333233;
      }

      .cls-22 {
        fill: #091c20;
      }

      .cls-23 {
        fill: #cfcdcf;
      }

      .cls-24 {
        fill: #cd412f;
      }

      .cls-25 {
        fill: #072b32;
      }

      .cls-26 {
        fill: #393817;
      }

      .cls-27 {
        fill: #f0cd30;
      }

      .cls-28 {
        fill: #107689;
      }

      .cls-29 {
        fill: #316863;
      }

      .cls-30 {
        fill: #432202;
      }

      .cls-31 {
        fill: #68afb9;
      }

      .cls-32 {
        fill: #520f07;
      }

      .cls-33 {
        fill: #f2f1e6;
      }

      .cls-34 {
        fill: #efbd25;
      }

      .cls-35 {
        fill: #506158;
      }

      .cls-36 {
        fill: #1d1914;
      }

      .cls-37 {
        fill: #9e6f08;
      }

      .cls-38 {
        fill: #0a0a09;
      }

      .cls-39 {
        fill: #212023;
      }

      .cls-40 {
        fill: #ebebeb;
      }

      .cls-41 {
        fill: #385a52;
      }

      .cls-42 {
        fill: #c4f2f4;
      }

      .cls-43 {
        fill: #c5b497;
      }

      .cls-44 {
        fill: #7d938b;
      }

      .cls-45 {
        fill: #87cbcd;
      }

      .cls-46 {
        fill: #814100;
      }

      .cls-47 {
        fill: #0d97a3;
      }

      .cls-48 {
        fill: #e0d5b9;
      }

      .cls-49 {
        fill: #5a7169;
      }

      .cls-50 {
        fill: #444548;
      }

      .cls-51 {
        fill: #128593;
      }

      .cls-52 {
        fill: #e3f2f5;
      }
    </style>
    <script>
    const images = document.querySelectorAll('#plane');

    function logId() {
    console.log('You clicked on', this.id);
    }

    images.forEach(image => image.addEventListener('click', logId));
    </script>
  </defs>
  <g id="Layer_1-2" data-name="Layer 1">
    <g>
      <path class="cls-40" d="m146.05,86.31c.04.13-.03.33,0,.46-.35,1.13-.25,2.31-.23,3.47h-3.01c1.03-1.25,1.89-3.03,3.24-3.93Z"/>
      <g>
        <path class="cls-38" d="m138.88,41.2c.83.83-.05.73,0,1.27.12,1.34.92,4.04.69,6.13-.32-.36-.81-.79-1.16-1.16,0-.08,0-.15,0-.23-2.15-2.82-5.9-8.48-9.25-9.48l.23-.46c.65.09,3.18.86,3.24.58-3.89-1.83-8.64-2.97-12.95-3.12.83-.91,1.14-.5.69-1.85-.19-.58-1.34-1.86-1.85-2.08l.23-.23c2.82,1.08,2,3.37,2.66,3.7,7.24.5,11.88,2.57,17.47,6.94Z"/>
        <path class="cls-33" d="m118.29,34.72c.46,0,.93-.02,1.39,0,4.31.15,9.06,1.29,12.95,3.12-.06.28-2.59-.48-3.24-.58-6-.87-12.67-1.45-18.28,1.16-1.95-1.24-4.33.37-6.48-.46.62-.42,2.02-1.24,2.08-1.85,4-.47,6.86-1.38,11.57-1.39Z"/>
        <path class="cls-33" d="m149.06,58.55c.66.08,1.75.08,2.31.23.69.19,1.63.83,2.31,1.16-4.22,2.09-8.03,4.37-9.72,9.02-5.38-1.11-10.63-2.65-15.96-3.93l.69-1.39c3.36.38,5.33-1.25,8.1-2.78-.11.31-.33,1.01-.23,1.27.2.51,8.54,4.4,9.02-.69.07-.74-.11-1.12-.46-1.74-.18-.31-.65-.68-.69-.69l.23-.23c.15.01.31,0,.46,0,.2.01,2.57-.46,3.93-.23Z"/>
        <path class="cls-22" d="m151.83,83.3c.03.97-3.41.05-5.09,1.04l.23,5.44c-.42-1.08-.63-1.9-.93-3.01-.03-.13.04-.34,0-.46-.69-2.46-.18-2.24-2.78.93.42-1.46,2.07-2.73,1.27-3.01-2.03.36-17.11-2.31-17.47-1.5,0,1.5.08,3.02-.23,4.51-.12.57-.63,1.51-.93,2.08-.07.15-.15.33-.23.46.32-2.38,2.87-7.47-.23-8.33.19-.61.81-.51,1.27-.46,3.66.36,7.45,1.37,11.1,1.62,7.87.55,5.27-.52,5.21-.93.8.11.66-.23.69-.23.14,0,1.26.43,2.54-.46.16-.11.47-.18.46-.46,2.07,1.92,2.08,2.71,5.09,2.78Z"/>
        <g>
          <path class="cls-10" d="m163.63,53.46c1.2-.58,22.07-11.42,17.58-3.93-.85,1.43-14.45,13.19-17.12,15.85,12.44,6.66,5.8,22.86-7.52,18.16l-9.25.69-.35.35c.34,1.7.53,3.48.69,5.21.06.62-.17,1.27.23,1.85-.68.07-.73-1.34-.93-1.85l-.23-5.44c1.68-.99,5.12-.07,5.09-1.04,2.19.05,3.29-.69,3.47-.69.93-.04,3.11.46,3.59.93,3.96-.15,8.85-.5,10.18-5.09-.31-.15-2.61,3.55-6.01.46-1.87-1.7-1.72-4.02-1.04-6.25.11-.37.79-1,.93-1.39,3.09-2.62,5.61-.64,5.78-1.04-.87-1.01-3.17-3.65-4.4-3.82-.38-.05-1.05.07-1.39.23-.63-1.05-1.62-1.6-2.54-2.31-2.17-1.68-3.19-2.21-5.55-3.47-.07-.03-.5-.62-1.16-.93-.68-.33-1.62-.97-2.31-1.16-.17-.74-.58-1.42-.93-2.08-2.24-4.37-5.73-9.65-9.37-12.95-2.26-2.05-1.74-1.89-1.27,3.24.05.61-.07,1.25,0,1.85-.24.57-.2-.19-.23-.23.22-2.09-.57-4.79-.69-6.13-.05-.54.83-.44,0-1.27,8.5,6.65,8.41,9.87,14.23,17.58,3.62-1.53,7-3.62,10.53-5.32Z"/>
          <g>
            <path class="cls-34" d="m178.32,47.68c1.38-.18,2.96-.22,2.66,1.04-.28,1.19-15.98,14.31-17.93,16.54q-4.45-2.95-8.91-5.9c3.89-2.19,21.37-11.32,24.17-11.68Z"/>
            <g>
              <path class="cls-24" d="m162.94,71.27c.57-1.7.73-1.79.93-3.47.02-.2.33-1.02.46-1.39,1.22.17,3.53,2.81,4.4,3.82-.17.4-2.69-1.58-5.78,1.04Z"/>
              <g>
                <path class="cls-51" d="m166.87,70.35c-5.15,2.33,1.98-1.37,1.97,6.01l.81-2.54s.44-.08.46.12c.18,1.41-.58,2.5-1.39,3.59-3.03.02-6.76-3.17-4.63-6.25,1.03-.72,1.34-1.2,2.78-.93Z"/>
                <path class="cls-3" d="m164.09,71.27c-2.13,3.08,1.6,6.26,4.63,6.25-4.01,5.36-9.76-2.66-4.63-6.25Z"/>
                <path class="cls-9" d="m169.65,73.82l-.81,2.54c.02-7.38-7.12-3.68-1.97-6.01,2.02.39,2.39,1.79,2.78,3.47Z"/>
              </g>
            </g>
          </g>
        </g>
        <path class="cls-22" d="m145.12,76.59c-.25,1.65-2.31,3.64-2.08,5.09.06.41,2.67,1.47-5.21.93-3.65-.25-7.45-1.26-11.1-1.62-.46-.05-1.08-.14-1.27.46-.3-.08-1.96.02-3.01-.23-.41-.1-1.07-.53-1.04-.93-.77.67-3.1-.11-3.59-1.39,2.49.08,21.07.86,21.51-.58.08-.26-1.49-.4.12-.81,2.55-.65,5.85.17,5.67-2.54-.06.52.08,1.12,0,1.62Z"/>
        <path class="cls-33" d="m100.48,40.97c-1.27,1.81-2.69,7.26-2.78,9.48h-1.62c.71-2.16,1.76-7.06-1.16-7.87-3.5-.97-5.42,4.22-5.55,6.94-.56.37-.7.72-1.39.23,2.84-9.69-5.99-9.1-6.48-1.16l-.93-.93c1.37-9.4-8.13-4.2-6.01,3.01-1.51.94-1.63-2.06-3.01-1.85-.85-3.91-5.29-5.65-4.4-3.93-1.42-.83-1.91-.65-2.08-.69-.1-.58.08-.62.46-.93.53-.42,1.56-.64,2.08-.93q16.43-.69,32.85-1.39Z"/>
        <path class="cls-48" d="m81.51,48.6c-.36,5.89,5.02,6.14,6.48,1.16.69.49.82.14,1.39-.23-.22,4.7,3.52,6.28,6.01,2.54.33-.49.51-1.06.69-1.62h1.62c-.07,1.92-.35,3.49,1.62,4.4,1.31.61,7.94,1.09,8.33.93.25.51.72.82,1.16,1.16-12.38-1.43-24.92-1.75-37.25-3.7-.84-.13-1.74-.13-2.54-.46.18-.3.22-.22.23-.23,2.87,1,3.05-.34,2.31-3.7,1.38-.21,1.5,2.79,3.01,1.85.96,3.28,5.22,2.44,6.01-3.01l.93.93Z"/>
        <g>
          <path class="cls-34" d="m106.72,36.11c-.06.61-1.46,1.43-2.08,1.85-.79.54-1.01.35-2.31,1.62-.74.02-1.47.84-1.85,1.39q-16.43.69-32.85,1.39c2.03-1.09,5.67-3.11,7.87-3.47,1.38-.22,2.62.97,3.01-.46.92.52,2.17.23,3.01.23.79.3,1.57.54,2.43.46,7.57-1.13,15.19-2.12,22.79-3.01Z"/>
          <g>
            <path class="cls-27" d="m67.16,15.29c.9.22,2.47.51,2.78,1.62.03.11,0,.31,0,.46-.97.68-.51-.04-1.5-.23-5.31-1.02-20.23-.85-27.41-2.08,3.91-1.18,22-.76,26.14.23Z"/>
            <path class="cls-8" d="m41.02,15.06c7.18,1.23,22.1,1.06,27.41,2.08,1,.19.54.91,1.5.23-.03.67-.54,1.42-1.27,1.62-1.33.36-23.39-2.48-26.6-3.01-1.98-.33-2.88-.37-1.04-.93Z"/>
            <path class="cls-15" d="m69.01,15.06c-.4.31-.86-.11-1.85-.23-1.01-.12-2.64-.07-3.47-.23,1.49-1.63,3.78-.8,5.32.46Z"/>
            <path class="cls-46" d="m69.01,15.06c.96.79.7.56,1.16,1.62l-.23.23c-.31-1.11-1.87-1.4-2.78-1.62v-.46c.99.12,1.45.54,1.85.23Z"/>
          </g>
          <g>
            <path class="cls-24" d="m70.86,19.68c1.15,6.19.84,15.25,4.63,19.2-2.19.36-5.84,2.38-7.87,3.47-.53.28-1.55.51-2.08.93-.28.03-.21-.2-.23-.23-.08-.12-.19-.43-.35-.46-3.56-.7-6.62,2.25-1.27-5.78,2-.28,4.11-.32,6.13-.46v-.46c-1.35.03-2.7-.05-4.05,0,.98-4.68,1.18-10.53,2.08-15.04.25-1.26.47-1.18.35,0l2.66-1.16Z"/>
            <path class="cls-2" d="m67.86,20.84c-.9,4.5-1.11,10.36-2.08,15.04-7.37.26-5.52,2.89-5.32-6.01.06-2.43-.04-4.86,0-7.29l7.4-1.74Z"/>
            <path class="cls-24" d="m70.86,14.59c-2.69-1.59-5.32-1.78-8.1-.23-.24-.08-.77.14-.93-.12.22-2.44,0-11.78,1.62-13.07.18,1.19,1.98,2.23,3.24,4.28,1.99,3.23,2.81,7.65,3.01,8.1.05.12.76.33,1.16,1.04Z"/>
            <path class="cls-11" d="m74.1,17.37c-.52.19-1.1.88-1.16.93-.5.34-1.52.74-2.08,1.16-.08-.44-.13-.95-.23-1.39,1.59-1,.92-2.24.23-3.47-.39-.71-1.1-.92-1.16-1.04-.2-.45-1.02-4.86-3.01-8.1-1.26-2.05-3.06-3.09-3.24-4.28,2.18-1.75,5.68,2.84,6.71,4.51,2.26,3.67,2.94,7.59,3.93,11.68Z"/>
            <path class="cls-34" d="m72.95,18.3c.99,4.1,1.99,18.14,5.55,20.13-.39,1.43-1.63.24-3.01.46-3.79-3.95-3.47-13.01-4.63-19.2-.01-.07.01-.16,0-.23.57-.41,1.59-.82,2.08-1.16Z"/>
            <path class="cls-34" d="m81.51,38.65c-.84,0-2.08.28-3.01-.23-3.56-1.99-4.56-16.02-5.55-20.13.06-.04.64-.74,1.16-.93.9,3.73,3.01,15.96,3.93,17.93.59,1.27,2.18,2.87,3.47,3.35Z"/>
            <g>
              <path class="cls-32" d="m70.4,4.65c.62.93,2.53,5.8,2.89,6.01,14.03,1.7,20.36,2.76.81,3.35,2.27,4.86,2.25,23.06,8.21,24.17,1.78.33,23.97-2.75,28.34-3.24,2.32-.26,6.35-.31,6.48-.93.34.04,1.31.19,1.16.69-4.71,0-7.57.92-11.57,1.39-7.6.89-15.22,1.87-22.79,3.01-.85.07-1.64-.17-2.43-.46-1.29-.49-2.88-2.08-3.47-3.35-.92-1.97-3.03-14.2-3.93-17.93-.99-4.09-1.67-8.02-3.93-11.68-1.03-1.67-4.52-6.26-6.71-4.51-1.61,1.29-1.4,10.63-1.62,13.07.15.26.69.03.93.12.12.04.75.2.93.23.83.16,2.46.11,3.47.23v.46c-4.14-.99-22.23-1.41-26.14-.23-1.84.55-.94.6,1.04.93,3.21.53,25.27,3.36,26.6,3.01.73-.2,1.24-.95,1.27-1.62,0-.15.03-.35,0-.46l.23-.23c.21.48.34.88.46,1.39.1.44.15.95.23,1.39.01.07-.01.16,0,.23l-2.66,1.16c.12-1.18-.09-1.26-.35,0l-7.4,1.74c-.04,2.43.06,4.86,0,7.29l-.93-.46c.15-3.4.33-6.78.35-10.18-5.06-1.13-15.54-1.83-19.43-2.78-4.59-1.12,2.6-2.58,4.16-2.78,4.55-.58,11.43.21,16.19.46.45-.2.54-5.94.81-8.1.22-1.73.06-5.69,2.43-6.01,2.23-.31,5.26,2.96,6.36,4.63Z"/>
              <path class="cls-34" d="m73.76,11.12l11.68,1.74c-5.24-.27-13.29,1.91-11.68-1.74Z"/>
            </g>
            <path class="cls-34" d="m70.86,14.59c.68,1.23,1.36,2.47-.23,3.47-.12-.5-.26-.91-.46-1.39-.45-1.05-.2-.83-1.16-1.62-1.54-1.26-3.84-2.1-5.32-.46-.17-.03-.81-.19-.93-.23,2.77-1.55,5.4-1.36,8.1.23Z"/>
            <path class="cls-2" d="m63.69,36.8c-5.35,8.03-2.29,5.08,1.27,5.78.15.03.27.35.35.46l-6.94.23c-.39-.07-.87.05-1.27,0-.32-.14-.81-.65-1.04-.69-.62-1.38-.13-3.53,1.16-4.4,1.06-.71,5.01-1.18,6.48-1.39Z"/>
          </g>
        </g>
        <path class="cls-43" d="m71.56,48.83c.73,3.37.55,4.7-2.31,3.7,1.14-2.66.47-6.13-2.08-7.63-.89-1.71,3.54.02,4.4,3.93Z"/>
        <path class="cls-28" d="m57.22,38.19c-1.29.86-1.78,3.02-1.16,4.4-.69-.12-4.98-.44-5.09-.81.85-.85,1.77-1.77,2.78-2.43l.69-.46c.37-.2,3.15-1.58,2.78-.69Z"/>
        <path class="cls-48" d="m132.63,75.67c-.23-.41-1.03-.37-1.39-.46-8.52-2.25-16.62-5.81-25.22-7.87,3.05-.67-5.64-3.24-8.91-3.7-1.39-.2-11.27-.72-11.8-.46-.6.3.5.83.35,1.16-2.23-.21-4.48-.42-6.71-.69.07-.03.16.02.23,0,1.3-.46,2.58-.88,3.93-1.16,17.19-3.55,37.59,6.22,53.32,12.49v.46c-.21.11-3.01.11-3.82.23Z"/>
        <g>
          <path class="cls-22" d="m52.59,51.38c.48,2.29,7.47,7.77,9.14,7.63.67-.48,1.48-.77,2.2-1.16.36,1.1,4.63,1.58,7.29,2.54,2.69.98,5.14,2.7,7.98,3.24-.07.02-.16-.03-.23,0-.32.12-.61.33-.93.46-2.47-.53-9.15-.62-10.29-.93-.14-.04.18-.18-.58-.46-3.59-1.32-14.27-7.14-15.27-11.34.22.03.47-.04.69,0Z"/>
          <path class="cls-25" d="m66.01,56.47c-.11.37.34.6.58.69,5.33,2.15,10.93,4.07,16.54,5.32-1.36.28-2.63.7-3.93,1.16-2.84-.54-5.29-2.26-7.98-3.24-2.66-.96-6.93-1.44-7.29-2.54.66-.36,1.42-.96,2.08-1.39Z"/>
        </g>
        <g>
          <path class="cls-25" d="m118.75,30.56l-.23.23c-.09-.04-.31.03-.46,0-2.81-.6-3.24,3.02-2.66,3.24.57.05,1.17-.07,1.74,0-.12.61-4.15.66-6.48.93.09-4,4.43-4.48,4.63-4.97.17-.43-.22-2.2.12-2.43,1.21-.82-.12,2.4.69,2.78,1.11-.31,1.64-.16,2.66.23Z"/>
          <path class="cls-47" d="m118.06,30.79c-1.07,1.49,1.27,4,2.31,2.08.45,1.35.14.94-.69,1.85-.46-.02-.93,0-1.39,0,.16-.51-.81-.65-1.16-.69-.56-.07-1.17.05-1.74,0-.58-.22-.14-3.84,2.66-3.24Z"/>
          <path class="cls-42" d="m118.52,30.79c.52.22,1.66,1.5,1.85,2.08-1.04,1.92-3.39-.59-2.31-2.08.15.03.38-.04.46,0Z"/>
        </g>
        <g>
          <path class="cls-28" d="m154.84,60.86c-3.53.8-8.19,4.66-9.25,8.1-.48.84-.92.14-1.62,0,1.69-4.65,5.5-6.93,9.72-9.02.65.3,1.09.89,1.16.93Z"/>
          <g>
            <path class="cls-1" d="m160.16,73.12c.66-.07,1.26-.1,1.85-.46-.68,2.23-.83,4.55,1.04,6.25,3.41,3.09,5.71-.61,6.01-.46-1.33,4.59-6.22,4.94-10.18,5.09-.47-.47-2.65-.97-3.59-.93-.47-.72-1.5-1.56-1.85-2.31-1.16-2.47-1.38-5.94-.69-8.56,2.15.58,5.44,1.6,7.4,1.39Z"/>
            <path class="cls-24" d="m160.39,64.33c.92.71,1.92,1.27,2.54,2.31-.59.28-3.52,3.91-4.28,4.86l-4.05-3.24c1.45-1.99,3.14-3.69,5.78-3.93Z"/>
            <path class="cls-20" d="m164.33,66.41c-.13.37-.44,1.19-.46,1.39l-3.7,5.32c-1.96.21-5.25-.81-7.4-1.39.39-1.5.97-2.27,1.85-3.47l4.05,3.24c.76-.94,3.69-4.58,4.28-4.86.34-.16,1.01-.28,1.39-.23Z"/>
            <path class="cls-2" d="m162.94,71.27c-.13.39-.81,1.02-.93,1.39-.59.36-1.19.39-1.85.46l3.7-5.32c-.2,1.68-.35,1.77-.93,3.47Z"/>
          </g>
          <g>
            <path class="cls-34" d="m154.84,60.86c2.36,1.26,3.38,1.79,5.55,3.47-2.64.25-4.33,1.94-5.78,3.93-.88,1.2-1.46,1.97-1.85,3.47-2.4-.64-4.74-1.54-7.17-2.08.05-.2-.06-.51,0-.69,1.06-3.44,5.72-7.3,9.25-8.1Z"/>
            <path class="cls-16" d="m153.45,80.29c.35.75,1.39,1.6,1.85,2.31-.18,0-1.28.74-3.47.69-3.01-.06-3.02-.86-5.09-2.78-.02-.15.03-.33,0-.46,1.81-1.01,4.62.17,6.71.23Z"/>
            <path class="cls-37" d="m152.76,71.74c-.68,2.62-.47,6.09.69,8.56-2.09-.06-4.9-1.24-6.71-.23-.04-.19-1.21-1.46-1.62-3.47.08-.5-.06-1.1,0-1.62.22-2.02-.18-2.59.46-5.32,2.43.54,4.77,1.44,7.17,2.08Z"/>
          </g>
        </g>
        <path class="cls-3" d="m112.51,61.56c5.19,1.03,10.35,2.24,15.5,3.47,5.33,1.28,10.58,2.82,15.96,3.93.7.14,1.14.84,1.62,0-.06.18.05.49,0,.69-.64,2.73-.24,3.3-.46,5.32.19,2.71-3.12,1.89-5.67,2.54-1.61.41-.03.55-.12.81-.45,1.44-19.03.66-21.51.58-1.62-.05-4.58.16-5.44,0-4.25-.8,3.87-.52,6.48-.69.8-.05,5.27-.58,5.21-1.16,2.89-.34,5.7-.97,8.56-1.39.8-.12,3.61-.12,3.82-.23v-.46c-15.73-6.28-36.13-16.04-53.32-12.49-5.61-1.25-11.21-3.17-16.54-5.32-.24-.1-.69-.32-.58-.69.31-.2.95-.98,2.08-1.39,12.09,3.26,21.23,2.52,32.97,4.16,3.82.53,7.67,1.56,11.45,2.31Z"/>
        <path class="cls-48" d="m128.7,63.64l-.69,1.39c-5.14-1.23-10.31-2.44-15.5-3.47-.08-1.35-5.16-.09-2.08-2.31,2.13.17,3.99.99,1.62-.69.18.02,1.87-.39,3.59,0,1.72.39,8.85,4.61,13.07,5.09Z"/>
        <g>
          <path class="cls-38" d="m144.2,59.01c-9.91,1.54-1.69,6.05.93.69.36.61.53.99.46,1.74-.48,5.09-8.82,1.2-9.02.69-.1-.26.12-.97.23-1.27.88-2.52,5.25-2.83,7.4-1.85Z"/>
          <path class="cls-50" d="m145.12,59.71c-2.62,5.36-10.83.85-.93-.69.07.01.16-.02.23,0,.05.01.51.38.69.69Z"/>
        </g>
        <path class="cls-6" d="m146.05,86.31c-1.35.9-2.21,2.69-3.24,3.93-.42.51-1.09,1.21-1.62,1.62-.03-.03-.66-.45-.69-.46.25-.68.75-1.48,1.16-2.08.48-.71,1.08-1.42,1.62-2.08,2.6-3.17,2.09-3.38,2.78-.93Z"/>
        <path class="cls-36" d="m146.74,80.06c.03.13-.02.31,0,.46,0,.28-.3.35-.46.46-.24-2.65-1.66-.95-2.54.46-.04,0,.11.34-.69.23-.23-1.45,1.83-3.43,2.08-5.09.41,2.01,1.57,3.28,1.62,3.47Z"/>
        <path class="cls-25" d="m146.28,80.99c-1.28.89-2.41.46-2.54.46.88-1.42,2.31-3.11,2.54-.46Z"/>
        <g>
          <path class="cls-38" d="m90.76,75.67c-.15.33.43.66.58.69,2.99.63,9.06.86,13.19,1.62,4.32.79,8.51,2.54,12.95,2.78l.58.69c-2.68,9.49,5.6,8.33,5.09,1.85-.05-.65-.38-1.44-.93-1.85.02,0-.06-.26.23-.23,1.05.25,2.71.15,3.01.23,3.1.86.55,5.95.23,8.33-.61,1.01-1.43,2.05-2.54,2.54-.43-.12-1.38.08-1.97,0-.92-.5-1.48-.84-2.2-1.62-.5-.54-1.14-1.62-1.39-2.31-1.54-4.39-.11-6.9-.35-7.17q-7.17-1.62-14.34-3.24c-3.89.11-23.51-3.35-24.75-3.24-.32.03-.39.12-.58.35,1.11,2.97.69,8.02-.93,10.76-.4.67-1.76,1.98-2.54,2.31-1.5.65-2.25.53-3.7-.23-1.15-.6-2.25-2.05-2.78-3.24-1.61-3.66-1.46-7.83.93-11.1l.12-.46c-20.25-3.22-40.66-6.26-60.5-11.45l.46-.35c18.53,5.32,44.69,8.36,64.2,12.26,6.01.41,11.95,1.39,17.93,2.08Z"/>
          <g>
            <path class="cls-6" d="m69.82,74.28c3.36-.57,4.33,8.98.93,9.72-4.45.97-3.89-9.21-.93-9.72Z"/>
            <path class="cls-21" d="m70.86,79.37c-.63-.44-.87-.76-1.62-.46.02-.32-.45-1.16-.23-1.74.51-1.32,2.52-.59,1.85,2.2Z"/>
            <path class="cls-40" d="m70.86,79.37c-.06.24-.04.81-.23,1.04-2.28,2.65-1.4-1.31-1.39-1.5.75-.3.99.02,1.62.46Z"/>
          </g>
        </g>
        <g>
          <path class="cls-21" d="m118.98,81.22c0,.69,0,1.39,0,2.08,0,.1-.75,1.31.46,1.62-.87,1.09.73.87,1.16.12.52-.91-1.22-2.05,2.54-1.74.51,6.48-7.77,7.64-5.09-1.85.35-.28.56-.19.93-.23Z"/>
          <path class="cls-21" d="m122.22,81.45c.54.41.87,1.2.93,1.85-3.76-.31-2.02.82-2.54,1.74-.43.76-2.03.97-1.16-.12.1-.12,2.21-1.19-.46-1.62,0-.69,0-1.39,0-2.08,1.16-.14,2.19.4,3.24.23Z"/>
          <path class="cls-23" d="m119.45,84.92c-1.21-.31-.46-1.52-.46-1.62,2.67.42.56,1.5.46,1.62Z"/>
        </g>
        <g>
          <path class="cls-37" d="m71.56,53.23c-.53,2.7.62.94.93,2.08-2.33-.29-5.14-1.08-4.86-.23-.32-.11-.81-.27-.69-.69.97-.19,1.6-.83,2.08-1.62.8.33,1.7.33,2.54.46Z"/>
          <path class="cls-12" d="m108.8,56.93c1.13.87,1.81,1.42,3.24,1.62,2.37,1.68.51.86-1.62.69-11.33-.9-26.61-2.52-37.94-3.93-.31-1.14-1.46.62-.93-2.08,12.33,1.95,24.86,2.28,37.25,3.7Z"/>
          <path class="cls-26" d="m112.04,58.55c-1.43-.2-2.1-.75-3.24-1.62-.43-.33-.91-.65-1.16-1.16.02,0,.22-.22.23-.23,1.15,1.36,2.76,2.02,4.16,3.01Z"/>
        </g>
        <path class="cls-48" d="m72.48,55.31c11.32,1.41,26.61,3.03,37.94,3.93-3.08,2.23,2,.97,2.08,2.31-3.79-.75-7.63-1.78-11.45-2.31-11.73-1.64-20.87-.91-32.97-4.16-.13-.03-.35.04-.46,0-.28-.85,2.52-.06,4.86.23Z"/>
        <g>
          <path class="cls-17" d="m54.44,51.38c.82.11,1.81-.08,2.66,0,1.78,2.03,7.23,3.52,9.83,3.01-.12.43.37.58.69.69.11.04.33-.03.46,0-1.13.41-1.78,1.19-2.08,1.39-.66.43-1.42,1.03-2.08,1.39-.72.39-1.52.67-2.2,1.16-1.67.13-8.65-5.34-9.14-7.63.57.09,1.27-.08,1.85,0Z"/>
          <g>
            <path class="cls-10" d="m54.44,51.38c-.58-.08-1.28.09-1.85,0-.22-.04-.47.03-.69,0-1.44-.21-4.63-1.09-6.25-1.5,0-1.31,5.97,1.44,5.32-.81,1.19.23,4.84-.53,6.48,1.97l-3.01.35Z"/>
            <g>
              <path class="cls-30" d="m60.45,29.86c-.2,8.91-2.05,6.27,5.32,6.01,1.35-.05,2.7.03,4.05,0v.46c-2.02.14-4.13.18-6.13.46-1.47.21-5.42.68-6.48,1.39.37-.89-2.41.49-2.78.69-.44.24-.46.31-.69.46-1,.66-1.93,1.58-2.78,2.43.11.37,4.4.69,5.09.81.23.04.72.55,1.04.69.41.05.89-.07,1.27,0,1.62.28,3.8.14,6.71.93.17.05.67-.14,2.08.69,2.56,1.5,3.22,4.98,2.08,7.63,0,.02-.05-.06-.23.23-.48.79-1.11,1.43-2.08,1.62-2.6.52-8.05-.98-9.83-3.01-.85-.08-1.84.11-2.66,0l3.01-.35c-1.64-2.49-5.29-1.73-6.48-1.97-7.38-1.45-25.11-4.2-28.57-5.09-2.08-.54-5.17-1.29-1.39-2.78,5.91-2.32,21.55.5,28.45.93,2.71-3.23,5.87-4.4,9.83-5.44.33-2.42.12-4.86.23-7.29l.93.46Z"/>
              <path class="cls-34" d="m24.48,41.2c4.77-.52,35.87,2.24,40.48,3.47,5.94,1.58,5.56,9.63-.93,8.79-.95-.53,4.02-1.07,3.82-3.59-15.8-2.11-32-4-47.66-7.4.01-.29,3.78-1.22,4.28-1.27Z"/>
              <path class="cls-34" d="m65.31,43.05s-.05.26.23.23c-.38.3-.56.35-.46.93-2.91-.78-5.09-.65-6.71-.93l6.94-.23Z"/>
              <path class="cls-25" d="m54.44,38.89l-.69.46c.24-.16.26-.22.69-.46Z"/>
            </g>
          </g>
          <g>
            <path class="cls-18" d="m67.16,62.71c.76.28.44.43.58.46,1.14.31,7.83.39,10.29.93-.57.24-.89.67-1.62.46-21.78-2.9-43.79-4.33-65.58-7.17-3.44.09-7.12-.44-10.29,1.27,2.58,1.24,5.36,1.88,8.1,2.66l-.46.35c19.83,5.19,40.24,8.23,60.5,11.45l-.12.46c-15.7-2.95-50.69-7.75-63.97-12.49-11.21-4,.81-4.64,7.63-4.4q27.47,3.01,54.94,6.01Z"/>
            <path class="cls-34" d="m76.42,64.56c1.22.16,2.48.52,3.7.69,6.5.92,13.04,1.71,19.43,3.24.35,1.23,2.6,2.77,3.7,4.51.79,1.25,1.24,3.57,1.39,3.7.62.56,3.08-.02,2.31.81-5.43-.35-10.8-1.22-16.19-1.85-5.98-.7-11.92-1.67-17.93-2.08-19.51-3.9-45.66-6.94-64.2-12.26-2.73-.79-5.51-1.42-8.1-2.66,3.18-1.71,6.86-1.19,10.29-1.27,21.79,2.84,43.81,4.27,65.58,7.17Z"/>
            <path class="cls-5" d="m106.95,77.52c2.95.19,5.13.27,8.1.23,3.73-.05,5.37-.27,9.02-.69.07.57-4.4,1.1-5.21,1.16-2.61.17-10.73-.11-6.48.69.86.16,3.81-.05,5.44,0,.49,1.28,2.82,2.06,3.59,1.39-.03.4.63.83,1.04.93-.29-.02-.22.23-.23.23-1.05.17-2.08-.37-3.24-.23-.36.04-.57-.04-.93.23l-.58-.69c-4.45-.24-8.63-1.98-12.95-2.78-4.13-.76-10.2-.99-13.19-1.62-.15-.03-.73-.37-.58-.69,5.39.63,10.77,1.5,16.19,1.85Z"/>
            <path class="cls-17" d="m85.67,64.33c3.56.33,7.1.63,10.64,1.16.03.34-.42.22-.93.23-3.78.05-11.59-1.39-16.31-1.16l1.04.69c-1.22-.17-2.48-.53-3.7-.69.73.2,1.05-.23,1.62-.46.31-.13.61-.35.93-.46,2.23.27,4.48.49,6.71.69Z"/>
            <path class="cls-8" d="m109.27,71.74c2.02,1.21,4.55,3.99,5.78,6.01-2.97.04-5.14-.04-8.1-.23.77-.83-1.69-.25-2.31-.81-.15-.13-.6-2.45-1.39-3.7-1.1-1.74-3.35-3.29-3.7-4.51,3.29.79,6.77,1.47,9.72,3.24Z"/>
            <path class="cls-12" d="m95.39,65.72c3.14.86,8.87,1.96,11.57,3.47.45.25,3.53,2.42,2.31,2.54-2.95-1.77-6.43-2.45-9.72-3.24-6.4-1.53-12.93-2.32-19.43-3.24l-1.04-.69c4.72-.24,12.53,1.21,16.31,1.16Z"/>
            <path class="cls-8" d="m131.24,75.21c.35.09,1.16.06,1.39.46-2.86.42-5.67,1.05-8.56,1.39-3.65.42-5.29.64-9.02.69-1.24-2.03-3.76-4.81-5.78-6.01,1.21-.13-1.86-2.29-2.31-2.54,3.62.89,18,6.78,19.32,6.94.54.06,5.1-.36,4.97-.93Z"/>
            <path class="cls-37" d="m106.03,67.34c8.6,2.05,16.7,5.62,25.22,7.87.12.56-4.43.99-4.97.93-1.32-.16-15.69-6.05-19.32-6.94-2.7-1.51-8.43-2.61-11.57-3.47.5,0,.95.11.93-.23,3.39.5,6.38,1.06,9.72,1.85Z"/>
          </g>
        </g>
        <path class="cls-43" d="m106.03,67.34c-3.33-.8-6.33-1.35-9.72-1.85-3.54-.53-7.08-.83-10.64-1.16.15-.33-.94-.86-.35-1.16.53-.26,10.4.27,11.8.46,3.26.46,11.95,3.04,8.91,3.7Z"/>
        <g>
          <path class="cls-36" d="m146.98,89.78c.2.51.25,1.92.93,1.85,4.66,1.15,4.87,5.85.69,8.1v-.23c5.48-4.01.28-8.26-.69-7.06-.25.31,4.43,4.37.69,6.82-1.57,1.03-2.95-.04-3.93-1.39-.97-3.42,1.3-4.45,1.39-4.74.27-.94-.23-2.75-.23-2.89-.02-1.16-.11-2.34.23-3.47.29,1.11.51,1.93.93,3.01Z"/>
          <path class="cls-40" d="m148.59,99.5v-.23c3.74-2.45-.94-6.52-.69-6.82.97-1.2,6.17,3.05.69,7.06Z"/>
          <g>
            <path class="cls-19" d="m146.86,94.41c2.45-.43,2.98,3.53.69,3.7-2.38.18-2.54-3.38-.69-3.7Z"/>
            <path class="cls-36" d="m146.86,94.87c1.95-.52,2.37,2.56.69,2.78-1.79.23-1.93-2.45-.69-2.78Z"/>
          </g>
        </g>
        <g>
          <path class="cls-36" d="m140.5,91.4s.67.43.69.46c.62.76.77,2.72.23,3.59-1.67,2.67-5.39-.13-3.93-3.12.31-.64,1.83-1.39,3.01-.93Z"/>
          <path class="cls-14" d="m138.76,92.09c3.55-.89,1.32,6.96-.69,2.08,2.05,3.57,3.82-2.43.12-1.5-.12-.23.5-.56.58-.58Z"/>
        </g>
        <g>
          <path class="cls-38" d="m87.98,49.76c-1.46,4.98-6.84,4.74-6.48-1.16.49-7.94,9.32-8.53,6.48,1.16Z"/>
          <path class="cls-4" d="m87.75,44.9c-1.44,1.82-2.5,2.29-4.86,2.08.88-3.96,4.22-5.09,4.86-2.08Z"/>
          <path class="cls-7" d="m87.29,48.83h-4.63c-.06-.82.07-1.13.23-1.85,2.35.2,3.42-.26,4.86-2.08.26,1.2-.07,2.75-.46,3.93Z"/>
          <path class="cls-21" d="m87.29,48.83c-1.07,3.2-4.38,3.58-4.63,0h4.63Z"/>
        </g>
        <g>
          <path class="cls-38" d="m80.58,47.68c-.8,5.45-5.05,6.29-6.01,3.01-2.12-7.21,7.39-12.41,6.01-3.01Z"/>
          <path class="cls-4" d="m79.89,44.9c-.62,1.78-2.61,2.04-4.16,1.39.72-2.15,3.29-4.82,4.16-1.39Z"/>
          <path class="cls-21" d="m79.66,47.68c-.12.56.29.94,0,1.5-1.57,2.1-4.32,1.58-4.4-1.27l4.4-.23Z"/>
          <path class="cls-7" d="m79.66,47.68l-4.4.23c0-.08.35-1.28.46-1.62,1.55.65,3.54.39,4.16-1.39.73,2.9-.2,2.62-.23,2.78Z"/>
        </g>
        <g>
          <path class="cls-38" d="m94.92,42.59c-1.25.36-.88.66-.93.69-2.35,1.39-2.24,1.35-3.01,3.93-.35,1.17-.56,1.24-.46,2.78.18,2.86,2.76,1.75,4.86,2.08-2.5,3.73-6.23,2.15-6.01-2.54.13-2.72,2.05-7.91,5.55-6.94Z"/>
          <path class="cls-39" d="m96.08,50.45c-.18.56-.37,1.13-.69,1.62-2.1-.33-4.67.78-4.86-2.08,3.63.55,5.07,1.74,5.55-2.43.11-.96-.09-1.73-.23-2.66-.02-.16.63-2.38-1.85-1.62.05-.03-.33-.33.93-.69,2.92.81,1.87,5.7,1.16,7.87Z"/>
          <path class="cls-21" d="m90.53,49.99c-.1-1.54.11-1.6.46-2.78,1.87.15,4.01-.41,4.86-2.31.14.93.34,1.7.23,2.66-.48,4.17-1.93,2.98-5.55,2.43Z"/>
          <path class="cls-4" d="m95.85,44.9c-.85,1.91-2.99,2.46-4.86,2.31.77-2.58.66-2.55,3.01-3.93,2.48-.76,1.83,1.46,1.85,1.62Z"/>
        </g>
        <g>
          <path class="cls-31" d="m111.12,38.42c-.4.51-.15,1.08-.23,1.62-.21,1.37-.45,2.79-.69,4.16l-.93-.23c.85-4.78-.24-6.15-5.44-4.4-.95.32-1.85,1.05-2.43,1.85l-.23-.46c.33-.45.76-1,1.16-1.39,1.31-1.27,1.52-1.08,2.31-1.62,2.14.83,4.53-.78,6.48.46Z"/>
          <path class="cls-41" d="m102.33,39.58c-.39.38-.83.94-1.16,1.39-2.11,2.92-4.84,11.09-1.85,13.88-1.97-.91-1.69-2.48-1.62-4.4.09-2.23,1.51-7.67,2.78-9.48.38-.54,1.11-1.37,1.85-1.39Z"/>
          <path class="cls-13" d="m101.4,41.43c-.96,1.33-1.79,4.78-2.08,6.48-.01.08-.44,1.08-.46,1.62-.02.47-.06,1.18,0,1.62.47,3.43,6.34,4,8.1.69.17-.31.22-.22.23-.23-.03.29.22.22.23.23.37.77,1.07.75,1.16,1.27.02.12-.62,2.33-.69,2.43-.01.01-.22.23-.23.23-.39.16-7.01-.32-8.33-.93-2.99-2.79-.25-10.96,1.85-13.88l.23.46Z"/>
          <path class="cls-45" d="m110.19,44.21c-.19,1.08-.44,2.18-.69,3.24-.56,2.31-.53,4.48-2.08,4.4,0-.01-.26.05-.23-.23.05-.12.37-1.56.69-2.54.2-.59.3-1.64.46-2.31.22-.89.76-1.84.93-2.78l.93.23Z"/>
          <g>
            <path class="cls-49" d="m109.27,43.97c-.17.94-.7,1.88-.93,2.78-3-.63-5.99,1.43-9.02,1.16.3-1.69,1.13-5.15,2.08-6.48.58-.8,1.48-1.53,2.43-1.85,5.19-1.75,6.29-.38,5.44,4.4Z"/>
            <g>
              <path class="cls-21" d="m107.88,49.06c-.33.98-.64,2.42-.69,2.54,0,.01-.06-.08-.23.23-3.07-.12-4.98.62-8.1-.69-.06-.44-.02-1.15,0-1.62,3.07.23,5.97-.03,9.02-.46Z"/>
              <path class="cls-7" d="m108.34,46.75c-.17.67-.27,1.73-.46,2.31-3.05.43-5.95.69-9.02.46.03-.54.45-1.54.46-1.62,3.03.28,6.02-1.78,9.02-1.16Z"/>
              <path class="cls-38" d="m106.95,51.84c-1.75,3.31-7.63,2.74-8.1-.69,3.12,1.31,5.03.58,8.1.69Z"/>
            </g>
          </g>
        </g>
        <g>
          <path class="cls-40" d="m150.45,56.7c-.82-.01-1.55-.46-2.31-.69-.29-.09-.63-.15-.93-.23-2.88-2.66-5.35-9.05-7.4-8.79-.46-5.12-.98-5.29,1.27-3.24,3.64,3.3,7.12,8.59,9.37,12.95Z"/>
          <path class="cls-40" d="m147.21,55.77c-1.38-.37-2.75-.68-4.16-.93.12-.84-1.93-.5-2.31-.81-.21-.16-.84-4.54-.93-5.21-.07-.6.05-1.25,0-1.85,2.05-.26,4.52,6.13,7.4,8.79Z"/>
          <path class="cls-49" d="m150.45,56.7c.34.67.76,1.34.93,2.08-.57-.15-1.65-.15-2.31-.23-1.06-.12-3.56-.74-3.93.23-.15,0-.31.01-.46,0-.12,0-1.39-.65-2.31-.69.65-.96,3.88-1.14,5.78-2.08.76.23,1.49.68,2.31.69Z"/>
          <path class="cls-29" d="m129.39,37.27l-.23.46c-.74-.22-1.76-.36-2.54-.46-2.77-.36-13.32-.57-15.15,1.39-1.4,1.5.25.89,1.04.69-.12.38-.16.77-.23,1.16-.39-.2-.79.65-1.04.46-.28-.22.1-.9-.35-.93.08-.54-.17-1.11.23-1.62,5.61-2.6,12.28-2.03,18.28-1.16Z"/>
          <path class="cls-13" d="m109.96,48.83c-.75,5.25-1.03,7.15,1.62,1.85l.23.23c.12,1.38.19,4.48,1.04,5.32.72.71,15.29,7.06,18.97,6.48,1.36-.22,1.42-.89,1.5-.93,4.33-2.05,3.31-3.97,9.02-3.7.92.04,2.19.69,2.31.69l-.23.23c-.07-.02-.16.01-.23,0-2.15-.98-6.53-.67-7.4,1.85-2.77,1.52-4.73,3.16-8.1,2.78-4.22-.48-11.35-4.7-13.07-5.09-1.72-.39-3.41.02-3.59,0-1.4-.99-3.02-1.64-4.16-3.01.08-.1.72-2.3.69-2.43-.09-.52-.79-.5-1.16-1.27,1.55.08,1.52-2.09,2.08-4.4l.46,1.39Z"/>
          <path class="cls-5" d="m149.06,58.55c-1.36-.23-3.74.24-3.93.23.37-.97,2.87-.35,3.93-.23Z"/>
          <path class="cls-44" d="m122.22,55.08c1.95-.09,3.84-.57,5.78-.69.78-.05,1.52-.19,2.31-.23,5.26-.3,7.53-.21,12.72.69,1.41.24,2.78.55,4.16.93.3.08.63.14.93.23-1.9.94-5.13,1.12-5.78,2.08-5.72-.27-4.7,1.65-9.02,3.7-2.57-.11-15.24-6.77-16.19-7.87,2.06,1.48,2.79,1.27,5.09,1.16Z"/>
          <path class="cls-35" d="m115.51,52.53c.41.2.64.69.69.23.02.07.76.96.93,1.16.95,1.09,13.63,7.76,16.19,7.87-.08.04-.15.71-1.5.93-3.68.59-18.25-5.77-18.97-6.48-.85-.84-.92-3.95-1.04-5.32,1.24.51,2.51,1.02,3.7,1.62Z"/>
          <path class="cls-44" d="m112.27,40.5c-.83,4.28,1.43,8.35,3.24,12.03-1.2-.59-2.46-1.11-3.7-1.62l-.23-.23-.69-5.9h-.46c-.03,1.36-.27,2.71-.46,4.05l-.46-1.39c.26-1.06.5-2.16.69-3.24.24-1.37.49-2.79.69-4.16.45.03.06.71.35.93.25.19.65-.66,1.04-.46Z"/>
          <g>
            <path class="cls-9" d="m139.57,48.6s-.01.8.23.23c.08.67.72,5.04.93,5.21.39.31,2.43-.03,2.31.81-5.2-.9-7.47-1-12.72-.69l5.44-3.24c.74-.91,2.77-2.24,2.66-3.47.35.36.83.8,1.16,1.16Z"/>
            <path class="cls-9" d="m129.16,37.73c3.36,1.01,7.1,6.66,9.25,9.48-1-.58-2.19,1.74-3.59,2.78-4.12,3.07-7.77,3.01-6.82,4.4-1.95.13-3.83.6-5.78.69,3.68-2.76,1.79-10.13-3.35-9.02-2.26.48-3.4,4.51-2.66,6.71-.05.46-.29-.03-.69-.23-1.81-3.68-4.07-7.75-3.24-12.03.08-.38.11-.78.23-1.16,9.24-2.33,13.33-1.39,14-1.62.18-.06.12-.31.12-.46.78.1,1.8.24,2.54.46Z"/>
            <path class="cls-52" d="m138.42,47.21c0,.08,0,.15,0,.23.11,1.23-1.92,2.56-2.66,3.47l-5.44,3.24c-.79.05-1.53.18-2.31.23-.95-1.39,2.71-1.32,6.82-4.4,1.39-1.04,2.59-3.36,3.59-2.78Z"/>
            <path class="cls-31" d="m126.62,37.27c0,.15.06.4-.12.46-.67.23-4.76-.71-14,1.62-.79.2-2.44.81-1.04-.69,1.83-1.96,12.38-1.74,15.15-1.39Z"/>
          </g>
          <path class="cls-31" d="m111.58,50.68c-2.65,5.3-2.37,3.4-1.62-1.85.19-1.34.43-2.69.46-4.05h.46l.69,5.9Z"/>
          <g>
            <path class="cls-38" d="m122.22,55.08c-2.3.11-3.03.32-5.09-1.16-.17-.19-.9-1.09-.93-1.16-.74-2.2.4-6.22,2.66-6.71,5.15-1.1,7.04,6.26,3.35,9.02Z"/>
            <path class="cls-21" d="m118.87,48.6c2.84-.69,4.17,2.07,1.62,2.54-3.22.6-3.65-2.05-1.62-2.54Z"/>
          </g>
        </g>
      </g>
    </g>
  </g>
</svg>