<?xml version="1.0" encoding="UTF-8"?>
<svg id="rain" data-name="Layer 2" xmlns="http://www.w3.org/2000/svg" xmlns:xlink="http://www.w3.org/1999/xlink" viewBox="0 0 113.5 134.98">
  <defs>
    <style>
      .cls-1 {
        fill: #60bfb8;
      }

      .cls-1, .cls-2, .cls-3, .cls-4, .cls-5, .cls-6, .cls-7, .cls-8, .cls-9, .cls-10, .cls-11, .cls-12, .cls-13, .cls-14, .cls-15, .cls-16, .cls-17, .cls-18, .cls-19, .cls-20, .cls-21, .cls-22, .cls-23, .cls-24, .cls-25, .cls-26, .cls-27, .cls-28, .cls-29, .cls-30, .cls-31, .cls-32, .cls-33, .cls-34 {
        stroke-width: 0px;
      }

      .cls-2 {
        fill: #c3fcfc;
      }

      .cls-3 {
        fill: #fbfefe;
      }

      .cls-4 {
        fill: url(#linear-gradient);
      }

      .cls-5 {
        fill: #026e69;
      }

      .cls-6 {
        fill: #023d40;
      }

      .cls-7 {
        fill: #04241d;
      }

      .cls-8 {
        fill: #798d8e;
      }

      .cls-9 {
        fill: #145f5c;
      }

      .cls-10 {
        fill: #dafcfc;
      }

      .cls-11 {
        fill: #42757a;
      }

      .cls-12 {
        fill: #0f201d;
      }

      .cls-13 {
        fill: #13c1c9;
      }

      .cls-14 {
        fill: #34888d;
      }

      .cls-15 {
        fill: #90918e;
      }

      .cls-16 {
        fill: #029697;
      }

      .cls-17 {
        fill: #044a5a;
      }

      .cls-18 {
        fill: #084f40;
      }

      .cls-19 {
        fill: #0e7f7e;
      }

      .cls-20 {
        fill: #2d5154;
      }

      .cls-21 {
        fill: #a2e7e4;
      }

      .cls-22 {
        fill: #32edf7;
      }

      .cls-23 {
        fill: url(#linear-gradient-2);
      }

      .cls-24 {
        fill: #6cc1ca;
      }

      .cls-25 {
        fill: #ecfdfd;
      }

      .cls-26 {
        fill: #2faeb3;
      }

      .cls-27 {
        fill: #4ad8e5;
      }

      .cls-28 {
        fill: #289d8e;
      }

      .cls-29 {
        fill: #076773;
      }

      .cls-30 {
        fill: #07352c;
      }

      .cls-31 {
        fill: #186c56;
      }

      .cls-32 {
        fill: #2b96a4;
      }

      .cls-33 {
        fill: #06282a;
      }

      .cls-34 {
        fill: #050c0c;
      }
    </style>
    <script>
    const images = document.querySelectorAll('#rain');

    function logId() {
    console.log('You clicked on', this.id);
    }

    images.forEach(image => image.addEventListener('click', logId));
    </script>
    <linearGradient id="linear-gradient" x1="73.72" y1="7.55" x2="76.58" y2="59.49" gradientUnits="userSpaceOnUse">
      <stop offset="0" stop-color="#007f86"/>
      <stop offset=".61" stop-color="#006770"/>
      <stop offset="1" stop-color="#030909"/>
    </linearGradient>
    <linearGradient id="linear-gradient-2" x1="33.2" y1="42.8" x2="35.77" y2="63.65" gradientUnits="userSpaceOnUse">
      <stop offset="0" stop-color="#007d7f"/>
      <stop offset="1" stop-color="#040809"/>
    </linearGradient>
  </defs>
  <g id="Layer_1-2" data-name="Layer 1">
    <g>
      <g>
        <path class="cls-34" d="m36.58,113.38c-.43,5.59-8.89,6.48-6.5-1.5.54.28-.44,2.28.13,2.75.27.23,2.79-1.73,2.88-1.88.7-1.23.81-6.44,1.25-8.13.72,1.04,2.4,6.77,2.25,8.75Z"/>
        <path class="cls-26" d="m34.33,104.63c-.44,1.68-.55,6.9-1.25,8.13-.08.15-2.6,2.1-2.88,1.88-.56-.47.41-2.47-.13-2.75.06-.21.18-.29.25-.5.76-2.17,2.68-4.86,3.5-7.13.27-.26.42.26.5.38Z"/>
      </g>
      <g>
        <path class="cls-12" d="m52.09,111.38c2.09,7.37-5.5,8.34-4.5.75.78,8.11,3.25.35,1.75-5l.5-.13c.53,1.46,1.83,2.91,2.25,4.38Z"/>
        <path class="cls-27" d="m47.59,112.13c.1-.75.32-1.11.5-1.75.19-.68.83-2.94,1.25-3.25,1.5,5.35-.97,13.11-1.75,5Z"/>
      </g>
      <g>
        <path class="cls-30" d="m73.1,130.39c1.74,5.91,2.94-.22,2.5-6.25-.42-1.12.21-.5,1,1.13,1.85,3.79,2.78,10.26-.13,8.38-1.1,3.17-3.76.18-3.38-3.25Z"/>
        <path class="cls-26" d="m75.6,124.13c.44,6.03-.76,12.16-2.5,6.25.04-.39,2.02-5.83,2.5-6.25Z"/>
      </g>
      <g>
        <path class="cls-12" d="m22.83,110.13c-.75,1.46-4.7,2.07-4.25-3.75,1.16,7.33,3.22-.58,1.5-4.25.06-.09-.15-.52.25-.5,1.19,2.01,3.68,6.2,2.5,8.5Z"/>
        <path class="cls-22" d="m18.58,106.38c.1-1.28.78-3.12,1.5-4.25,1.72,3.67-.34,11.58-1.5,4.25Z"/>
      </g>
      <g>
        <path class="cls-7" d="m70.85,122.88c-.25.05-2.95,2.39-4.5-.38-1.15-2.06.6-5.46,1-7.63h.25c-2.72,7.44,1.21,11.58.75.63,0-.08.42.61,0-1.13l.5-.5c1.27,1.74,3.24,6.92,2,9Z"/>
        <path class="cls-27" d="m68.34,113.88c.02.16-.03.36,0,.5.42,1.73,0,1.05,0,1.13.46,10.95-3.47,6.81-.75-.63.15-.42.11-1.14.75-1Z"/>
      </g>
      <g>
        <path class="cls-34" d="m101.36,98.88c-.96-1.22-.94-2.77-.75-4.25.97,6.49,3.19,1.32,1.5-1.63.06-.26,2.21-.73.5-4.63.14-.35.24-.23.25-.25,1.34,2.16,3.73,5.79,3.5,8.38-.21,2.34-3.17,4.71-5,2.38Z"/>
        <path class="cls-22" d="m100.61,94.62c.08-.66.45-1.25.5-1.5.75.07,1.62-3.2,1.25-3.75-.12-1.13.23-.95.25-1,1.71,3.89-.44,4.37-.5,4.63,1.68,2.95-.53,8.12-1.5,1.63Z"/>
      </g>
      <g>
        <path class="cls-30" d="m82.35,123.13c-1.71-.92-1.69-3.1-1.5-4.75.28,3.86,3.82.46,2-5,.19-.26.17-.6.5-.75,1.62,2.6,5,11.6-1,10.5Z"/>
        <path class="cls-22" d="m80.85,118.38c.11-.94,1.41-4.18,2-5,1.82,5.46-1.73,8.87-2,5Z"/>
      </g>
      <g>
        <path class="cls-34" d="m93.6,100.88c-.2,1.41-1.49,3.41-2.75,4-2.62,1.22-5.58.13-6.25-2.75.39.22.27.79,1.25,1.5.52.38,1.04.82,1.75.75.83-.09,1.59-1.33,1.75-2,.35-1.45-.11-4.12-.75-5.5.46-1.16.49-.71.5-.75,1.43,1.88,1.47.35.5-2-.18-.43-.23-.72-.25-.75.27-.73.63-1.48.75-2.25.07-.43,0-1.02,0-1.5l.5-.25c1.73,2.87,3.48,8.2,3,11.5Z"/>
        <path class="cls-13" d="m88.6,91.62c.03,2.06.7,1.66.75,1.75.02.03.07.32.25.75-.89.27-.32,1.35-.5,2-.01.04-.04-.41-.5.75-1.31,3.32-.82,1.16-2.13,2-.99.63-.6,2.38-1.63,2-.21-1.49.65-2.6,0-2.75.66-2.3,2.41-4.55,3.75-6.5Z"/>
        <path class="cls-10" d="m90.1,91.12c-.12.77-.48,1.52-.75,2.25-.05-.09-.72.31-.75-1.75.03-.04.3-.14.5-.75l1,.25Z"/>
        <path class="cls-18" d="m90.6,89.37l-.5.25c0-.39-.11-.77.25-.75.03.03.17.37.25.5Z"/>
        <path class="cls-30" d="m89.35,102.38c-.78-.55-1.67,1.12-1.75,2-.71.07-1.23-.37-1.75-.75-.31-1.01-.84-1.57-1-2.75,1.02.38.63-1.37,1.63-2,1.31-.84.82,1.32,2.13-2,.64,1.39,1.11,4.05.75,5.5Z"/>
        <path class="cls-10" d="m89.1,96.12c.18-.65-.39-1.73.5-2,.97,2.35.93,3.88-.5,2Z"/>
        <path class="cls-33" d="m89.35,102.38c-.16.67-.92,1.92-1.75,2,.08-.88.97-2.55,1.75-2Z"/>
      </g>
      <g>
        <path class="cls-12" d="m17.58,97.37c-2.48-.46-2.55-2.86-2.25-5l.25.25c-.51,5.55,2.88,3.78,2-3.75-.02-.18-.39-.44-.25-1.25l.13-.5c1.6,3.06,4.85,7.23,1.25,10-.35.27-1.08.22-1.13.25Z"/>
        <path class="cls-1" d="m17.58,88.87c-.9-.26-1.96,3.26-2,3.75l-.25-.25c.06-.43,1.09-3.69,1.25-4,.08-.16.51-.72.75-.75-.14.81.23,1.07.25,1.25Z"/>
        <path class="cls-22" d="m17.58,88.87c.88,7.54-2.52,9.3-2,3.75.05-.49,1.1-4.01,2-3.75Z"/>
      </g>
      <g>
        <path class="cls-34" d="m44.59,77.87c.28.23,3.15,4.8,2.75,6.63-.4,1.8-4.4,3.03-4.5-1.38,3.74,4.74,1.59-2.82,1.25-4.75-.04-.24.02-.51,0-.75.13.03.42.18.5.25Z"/>
        <g>
          <path class="cls-34" d="m33.83,89.87c.39,7.79,3.53-1.1,2.25-5,7.74,10.16-4.44,13.76-2.25,5Z"/>
          <path class="cls-27" d="m33.83,89.87c.18-.7,1.88-4.8,2.25-5,1.28,3.9-1.86,12.79-2.25,5Z"/>
        </g>
        <g>
          <path class="cls-33" d="m57.09,95.87c1.17,6.6,3.16-.9,2.25-5,7.3,10.18-3.67,13.5-2.25,5Z"/>
          <path class="cls-27" d="m59.34,90.87c.91,4.1-1.08,11.6-2.25,5,.09-.53,1.63-5.39,2.25-5Z"/>
        </g>
        <g>
          <path class="cls-34" d="m75.1,90.87c.29,4.87,3.44,3.43,1-3.5,3.62,1.73,4.53,10.22-.13,8.25-2.08-.88-1.12-3.24-.88-4.75Z"/>
          <path class="cls-27" d="m75.1,90.87c.1-.64.69-3.21,1-3.5,2.43,6.93-.71,8.38-1,3.5Z"/>
        </g>
        <g>
          <path class="cls-18" d="m84.85,100.88c.16,1.19.7,1.74,1,2.75-.98-.71-.86-1.28-1.25-1.5-.36-1.57-.18-2.5.25-4,.65.15-.21,1.26,0,2.75Z"/>
          <path class="cls-21" d="m90.35,88.87c-.36-.02-.24.36-.25.75,0,.48.07,1.07,0,1.5l-1-.25c-1.3-.17.88-1.52.88-2.5.55-.09.32.44.38.5Z"/>
        </g>
        <path class="cls-28" d="m101.11,93.12c.27-1.27.82-2.53,1.25-3.75.37.55-.5,3.82-1.25,3.75Z"/>
        <g>
          <path class="cls-30" d="m64.59,103.88l.25.25c-.49,4.8,3.17,4.18,1.75-5.5,7.92,10.51-3.38,13.71-2,5.25Z"/>
          <path class="cls-22" d="m66.59,98.63c1.42,9.68-2.24,10.3-1.75,5.5.09-.85,1.86-3.64,1.25-4.5.15-.37-.33-1.15.5-1Z"/>
          <path class="cls-28" d="m64.84,104.13l-.25-.25c.07-.44,1.17-3.47,1.5-4.25.61.86-1.16,3.65-1.25,4.5Z"/>
        </g>
        <path class="cls-9" d="m68.84,113.88l-.5.5c-.03-.14.02-.34,0-.5-.4-.64-.08-.79.5,0Z"/>
        <g>
          <path class="cls-12" d="m27.46,92.37c.7,1.44,3.29,5.69,3.38,6.88.39,5.56-10.09,6.29-3.38-6.88Z"/>
          <path class="cls-27" d="m27.21,93.87c.89-.03.29,5.84-.63,6.38-2.25,1.33-.03-5.5.63-6.38Z"/>
        </g>
        <g>
          <path class="cls-34" d="m77.22,102.13c1.46,1.9,3.92,7.81,1.5,9.5-3.32,2.33-6.46-2.17-1.5-9.5Z"/>
          <path class="cls-27" d="m76.72,103.88c.91,0,.18,5.11-.38,5.88-1.48,2.03-2.08-1.78.38-5.88Z"/>
        </g>
        <g>
          <path class="cls-34" d="m42.09,98.63l.5.5c-.73,1.4.4,2.48,1.38,2.25,2.29-.55-.09-2.81-.13-3-.04-.2,0-3.53.25-4,7.74,10.63-4.38,14.77-2,4.25Z"/>
          <path class="cls-26" d="m44.09,94.37c-.25.47-.29,3.8-.25,4-1.42.23-1.09.44-1.25.75l-.5-.5c.2-.88,1.64-5.29,2-4.25Z"/>
          <path class="cls-3" d="m43.84,98.38c.03.19,2.42,2.45.13,3-.98.23-2.11-.86-1.38-2.25.16-.31-.17-.52,1.25-.75Z"/>
        </g>
      </g>
      <g>
        <path class="cls-12" d="m30.33,76.87c2.3,1.87,4.73,11.27-.75,9,1.18-1.23.72-3.03.75-3.75.02-.55.46.42,0-2-.18-.94-.64-1.59-.75-2.25-.05-.31.03-.68,0-1,.25,0,.5,0,.75,0Z"/>
        <path class="cls-9" d="m30.33,80.12c-1.4,1.23-1.78,3.21,0,2-.03.72.43,2.52-.75,3.75-2.66-1.1-1.05-6.14,0-8,.11.66.57,1.31.75,2.25Z"/>
        <path class="cls-10" d="m30.33,82.12c-1.78,1.21-1.4-.77,0-2,.46,2.42.02,1.45,0,2Z"/>
      </g>
      <g>
        <path class="cls-34" d="m12.83,86.87c-1.29,1.23-2.83,1.47-4,0v-.25c3.54-2.58,3.65-9.84,3-10l.5-.13c.53,3.14,3.32,7.68.5,10.38Z"/>
        <path class="cls-27" d="m8.82,86.62l-.25-3.25c.52-2.09,2.18-4.79,3.25-6.75.64.17.54,7.42-3,10Z"/>
        <path class="cls-31" d="m8.82,86.62v.25c-1.19-1.49-.63-1.98-.25-3.5l.25,3.25Z"/>
        <path class="cls-34" d="m65.59,82.62c.59,6.45,3.31,2.07,1.75-5.5,6.59,8.82,1.69,12.38-1.13,10.25-1.33-1-.79-3.35-.63-4.75Z"/>
        <path class="cls-12" d="m53.84,88.12c.08-1.28.1-2.46.25-3.75.17-1.45.45-3.07.75-4.5.15-.72-.32-1.66.5-2.25.85,2.51,3.43,10.85-1.5,10.5Z"/>
        <path class="cls-27" d="m42.84,83.12c-.02-1.09.54-4.16,1.25-4.75.34,1.93,2.49,9.49-1.25,4.75Z"/>
        <path class="cls-29" d="m54.09,84.37c-.15,1.29-.17,2.47-.25,3.75-3.65-.26-1.04-6.13-.5-8,.7,1.23-2.26,5.03.75,4.25Z"/>
        <path class="cls-27" d="m54.84,79.87c-.3,1.44-.58,3.05-.75,4.5-3.01.77-.05-3.02-.75-4.25.29-1,.49-.95.5-1l1,.75Z"/>
        <g>
          <path class="cls-30" d="m82.1,76.87c6.43,9.32-3.35,12.76-2.5,4.25,0,.25-.01.5,0,.75.21,5.06,3.08.67,1.75-5,.07-.09-.13-.57.13-.75.05-.01.55.64.63.75Z"/>
          <path class="cls-27" d="m81.35,76.87c1.33,5.67-1.54,10.07-1.75,5,.85-1.96.58-3.44,1.75-5Z"/>
        </g>
      </g>
      <g>
        <path class="cls-33" d="m36.58,20.1c-1.55,2.24-1.25.77-3.25.75,2.53-1.6.04-1.39-1.25-1.5-.62-.29-1.24-1.34-1.88-1.5-3.1-.78-6.87,2.15-7.13,1,.09-.13-.52-.44-.13-.75,4.84-.1,6.57-1.8,13,.75.85-.24.96-3.66,3.38-7.75h.25c-2.16,4.11-2.09,7.97-2.25,8.38-.03.09-.34.03-.75.63Z"/>
        <path class="cls-12" d="m19.08,22.6c-.17.33-.34.67-.5,1-.25,1.76-.58,3.48-.75,5.25h-4c3.71-2.11,3.35-6.66,5.25-6.25Z"/>
        <g>
          <path class="cls-13" d="m76.1,6.84c1.17.88,3.63,2.98,4.5,4,.32.37.48.47.5.5,1.5,1.93,2.78,4.31,3,6.75-.11.06-1.25,1.14-1.75,1.63,2.46-.67,5.04-1.59,7.75-1.88,2.07.66,2.56,1.41,3.5,3.25-.91,2.46-.8.09-1.38-.25-1.88.23-2.44-3.26-6.13-1-1.86,0-3.24.92-3.88.75.04-.45-.2-.85-.38-1.25,2.11-1.49-.27-1.84-.5-2-.57-.41-1.16-.65-1.75-1-.49-.29-.81-.29-1.38-.25-.86-1.51-1.13-1.45-1.63-2,1.41-1.23-.16-2.89-2-2.25-2.26-1.6-2.41-3.37-3.63-2.75.03-1.62-1.45-.74-2.38-1.63,3.29-1.77-1.89.04-1-1.88,4.17-.64,8.03,3.39,8.5,1.25Z"/>
          <path class="cls-12" d="m113.11,38.61c-.11.04-.49.22-.5.25-.93-4.77-2.84-7.65-6.5-10.75-.63-.53-5.79-4.33-6.13-4.5-.16-.08-2.65.64-2.75-1.25-.14,1.74-1.91.68-2.88,1,.16-.92-.37-1.52-.75-2.25-.94-1.84-1.43-2.59-3.5-3.25-1.98-.63-4.14-.76-6,.25-.22-2.44-1.5-4.83-3-6.75.53-1.33,2.42,2.29,3.63,4.5,5.13-1.37,7.32,2.68,7.75,2.75,1.51.26.99-2.59,3.25,3.25,9.34,1.24,15.83,7.48,17.38,16.76Z"/>
          <path class="cls-10" d="m56.59.84c4.22.45,4.44-1.57,13,2.25-3.91-.53-10.06-.85-13.88-.25-.48.08-.7.74-.75.75-1.95.35-4.33.07-5.75,1.25-2.25-.35-5.15,2.77-6.88,4.25-.68.58-1.43,1.41-2.25,1.75.99-2.28,3.7-4.38,5.75-5.75.24-.16.52-.36.75-.5,2.76-1.66,5.63-2.42,8.5-3.75,2.34-1.09.6-.1,1.5,0Z"/>
          <path class="cls-12" d="m80.6,10.85c-.87-1.02-3.33-3.13-4.5-4-2.05-1.53-4.17-2.71-6.5-3.75-8.57-3.82-8.79-1.8-13-2.25,2.45-1.87,10.7-.22,13.88,1,2.12.81,12.33,6.85,10.13,9Z"/>
          <path class="cls-33" d="m55.09.84c-2.87,1.34-5.75,2.1-8.5,3.75-1.02-2.47,1.12-1.18,1.38-1.25.68-.2,4.1-2.14,7.13-2.5Z"/>
          <path class="cls-8" d="m45.84,5.09c-2.06,1.37-4.76,3.47-5.75,5.75-.2.08-.3.22-.5.25h-.25c1.48-2.51,3.91-5.43,6.5-6Z"/>
          <path class="cls-12" d="m87.85,53.61c-.02-.19-.03-.28-.25-.25.17-1.06,0-.88,0-1.5,0-1.54-.09-2.76-.5-4.25-.75-2.72-2.28-4.59-4.5-6.25-2.61-1.96-4.64-2.79-8-2.5.06-.8-.6-1.05-1-1.5-2.54-2.85-4.1-2.62-7.75-1.75-.14-4.03-1.73-4.68-4.5-6.75-4.56-3.41-2.97-2.01-7.75-3.25-.1-.88,3.61-.64,5.63,0,2.88.91,7.04,5.03,8.5,7.75,4.26-.42,6.32,2.01,9.25,4.5,10.56.68,14.23,14.34,11.75,15.76-.11.06-.54-.04-.88,0Z"/>
          <path class="cls-27" d="m69.6,3.09c2.34,1.04,4.45,2.22,6.5,3.75-.48,2.14-4.33-1.89-8.5-1.25-1.57.16-1.92-.63-3.75-.75-1.39-.1-2.85.01-4.25,0-2.21-.02-4.33.11-6.5.5-.74.13-.8.49-.88.5-.56.1-1.52-1.39-1.13.5-1.14.07-1.73-.21-2.38,0-1.55,1.25-2.93,1.93-4.13,3.25-.15-.6.32-.86.25-1.13-.12-.48-.47.13-.5.13-1.34-.03-1.23.3-2,.5,1.73-1.48,4.63-4.6,6.88-4.25,1.42-1.18,3.8-.9,5.75-1.25.05,0,.27-.67.75-.75,3.82-.6,9.97-.28,13.88.25Z"/>
          <path class="cls-26" d="m93.6,23.85c-.42,1.7,1.04.35,5.63,1.5,2.31.58,4.46,2.37,6.88,2.75,3.66,3.1,5.57,5.99,6.5,10.75-.83,2.74.9-1.44-4.13-5.25l-3-.25c-3.43-3.94-8.02-7.56-13.5-7.5-.46-.27.21-1.02.38-1.25.25-.35.86-.58,1.25-.75Z"/>
          <path class="cls-26" d="m93.6,21.1c.38.73.91,1.33.75,2.25-.04.01-.68.47-.75.5-.39.17-1,.4-1.25.75-2.19-2.33-2.67-4.74-6.25-4.75,3.69-2.26,4.25,1.23,6.13,1,.57.34.47,2.71,1.38.25Z"/>
          <path class="cls-26" d="m63.84,4.84c-.31.4-.29,1.58-.63,1.75-.54.28-10.08-.37-12.13-.25-.39-1.89.57-.4,1.13-.5.08-.01.14-.37.88-.5.54.47,8.45.84,6.5-.5,1.4.01,2.86-.1,4.25,0Z"/>
          <path class="cls-26" d="m81.85,19.35c-.03-.07.02-.17,0-.25-.16-.58-.37-1.16-.5-1.75.23.16,2.61.51.5,2Z"/>
          <g>
            <path class="cls-4" d="m67.59,5.59c-.89,1.92,4.29.1,1,1.88.92.88,2.4,0,2.38,1.63,1.21-.62,1.37,1.15,3.63,2.75-2.22.77,1.08.53,1.38.75.07.05.56,1.42.63,1.5.49.55.77.49,1.63,2,.56-.04.88-.04,1.38.25-.31.95,1.24,2.89,2.25,2.75.02.08-.03.18,0,.25.17.4.41.8.38,1.25.63.17,2.02-.76,3.88-.75,3.58.01,4.06,2.42,6.25,4.75-.16.23-.84.98-.38,1.25,5.48-.06,10.08,3.56,13.5,7.5l3,.25c5.02,3.81,3.3,7.99,4.13,5.25,0-.03.39-.21.5-.25,1.46,8.76-1.36,10.91-5,18.13l-.13-1.38-.63,2s-.34.58-.75-.13l.63-1.13c-10.23,9.91-20.6,2.76-21.76,3-1.68,1.85-3.76,3.35-6.13,4.25-.69-.93,1.29-1.23,4.25-3.75,1.51-1.29,4.55-3.64,4.25-6,.33-.04.77.06.88,0,2.48-1.42-1.19-15.07-11.75-15.76-2.94-2.49-5-4.92-9.25-4.5-1.47-2.72-5.62-6.84-8.5-7.75-2.02-.64-5.72-.88-5.63,0-.24-.06-.6.04-.88,0-.35-.25-.42-.66-.63-1-.02-.04.54-.19,0-.88-2.03-2.54-7.9-5.83-10.75-3.88-3.83.17-4.88,3.39-4.75.25.41-.6.72-.54.75-.63.16-.41.09-4.26,2.25-8.38.2-.03.3-.17.5-.25.83-.34,1.57-1.17,2.25-1.75.77-.2.66-.53,2-.5-.32,1.11-.47,1.98.25,1,1.19-1.32,2.57-2,4.13-3.25.65-.21,1.24.07,2.38,0,2.05-.12,11.59.53,12.13.25.34-.17.32-1.35.63-1.75,1.84.13,2.18.91,3.75.75Z"/>
            <g>
              <path class="cls-33" d="m52.09,24.6c-.46-.37-1.05-.21-1.5,0-1.09-1.42-2.63-2.74-4.25-3.5-1.5-.71-3.28-1.33-5-1.25,2.85-1.96,8.73,1.34,10.75,3.88.54.68-.02.84,0,.88Z"/>
              <path class="cls-17" d="m53.71,17.6c1.64-.54,2.59,1.72,1.25,2.25-1.83.72-2.54-1.83-1.25-2.25Z"/>
              <path class="cls-26" d="m76.6,14.1c-.07-.08-.56-1.45-.63-1.5-.29-.22-3.6.02-1.38-.75,1.84-.64,3.41,1.02,2,2.25Z"/>
              <path class="cls-15" d="m87.85,53.61c.3,2.36-2.74,4.72-4.25,6l-1-.5c.07-.01.02-.59,1.38,0,1.83-1.81,2.74-2.67,3.38-5.25,0-.03.14.2.25-.5.22-.03.23.06.25.25Z"/>
              <path class="cls-32" d="m81.35,17.35c.13.59.34,1.17.5,1.75-1.01.14-2.56-1.8-2.25-2.75.59.35,1.18.59,1.75,1Z"/>
              <path class="cls-32" d="m44.59,9.6c-.72.98-.57.11-.25-1,.03,0,.38-.6.5-.13.07.27-.4.52-.25,1.13Z"/>
            </g>
          </g>
          <path class="cls-10" d="m90.1,17.85c-2.72.28-5.29,1.2-7.75,1.88.5-.48,1.64-1.57,1.75-1.63,1.86-1.01,4.02-.88,6-.25Z"/>
          <path class="cls-10" d="m106.11,28.1c-2.42-.38-4.57-2.17-6.88-2.75-4.58-1.15-6.04.2-5.63-1.5.07-.03.71-.49.75-.5.96-.32,2.74.74,2.88-1,.1,1.89,2.59,1.17,2.75,1.25.34.17,5.5,3.97,6.13,4.5Z"/>
          <path class="cls-26" d="m59.59,4.84c1.95,1.35-5.96.97-6.5.5,2.18-.39,4.3-.52,6.5-.5Z"/>
        </g>
        <g>
          <path class="cls-34" d="m82.6,59.11l1,.5c-2.96,2.53-4.94,2.82-4.25,3.75-6.52,2.48-13.97.82-19.88-2.5-1.48-.1-8.68,8.2-25.13,2,7.39,1.88,17.44,4.07,22.63-2.75,1.2-.65,2.38-.68,2.5-.75,1.85-.99,3.79-1.51,4.63-3-.28,2.48,9.22,3.2,11.63,3.25,1.91.04,5.03-.14,6.88-.5Z"/>
          <path class="cls-3" d="m52.09,24.6c.2.34.27.75.63,1,.27.04.63-.06.88,0,4.78,1.24,3.19-.16,7.75,3.25-2.67-.74-5.19-1.91-8-2-.85-.12-1.94-.11-2.75-.25l-.25-1.75s-.09-.09.25-.25c.45-.21,1.04-.37,1.5,0Z"/>
          <g>
            <path class="cls-10" d="m32.08,19.35s.18.57-.38.5c-.75-.09-2.2-4.83-13.13,3.75.16-.33.33-.67.5-1,.18-.34.54-.99.75-1.25.71.32,1.91-1.07,2.5-1.75.22-.26.55-.47.75-.75.25,1.15,4.02-1.78,7.13-1,.64.16,1.26,1.21,1.88,1.5Z"/>
            <path class="cls-11" d="m22.33,19.6c-.59.69-1.79,2.07-2.5,1.75.35-.44,1.84-1.64,2.5-1.75Z"/>
            <path class="cls-13" d="m32.08,19.35c1.29.11,3.78-.1,1.25,1.5-5.64-.06-7.81,1.52-8.75,7.38-.39.78-1.26-.48-1.5,0-.14.28.2,1.39-.13,1.63-.31.22-3.82-.69-6.63,3.25-1.45.12-2.9.52-4.38.25-6.58,2.7-9.11,8.56-9.75,8.75-.32.09-.37-.25-.63-.25.29-2.09,1.12-3.86,2-5.75.38-.04.48-.47.5-.5,3.8-4.23,7.42-4.83,13-4.75l1-.63-.5-.13c1.04-.72.24-1.17.25-1.25.17-1.77.5-3.5.75-5.25,10.93-8.58,12.38-3.84,13.13-3.75.56.07.34-.5.38-.5Z"/>
          </g>
          <g>
            <path class="cls-33" d="m4.07,35.6s-.14-.27-.5.5c-.88,1.89-1.71,3.66-2,5.75-.56,4,.26,8.45,1.25,7.63.27-1.01.61-1.78,1.25-2.63-.88,3.91-.76,7.39,2,10.5h-.25c-7.08-6.37-8.05-17.36-1-24.01-.81,1.31-.7,2.15-.75,2.25Z"/>
            <path class="cls-3" d="m17.83,28.85c0,.08.79.53-.25,1.25-.9-.02-1.28.23-.5.75-5.59-.08-9.2.52-13,4.75.05-.11-.06-.94.75-2.25,1.07.16.61-.06,1.25-.5,4.66-3.22,5.95-3.08,6.75-3.5.34-.18.66-.3,1-.5h4Z"/>
            <path class="cls-20" d="m12.83,29.35c-.81.42-2.1.29-6.75,3.5.26-2.99.98-1.42,1.63-1.75,1.31-.67,3.6-2.37,5.13-1.75Z"/>
            <path class="cls-32" d="m8.07,38.61c-.76,1.57.02.93,0,1-.29,1.16-.74,1.06-.75,1.13.58,1.41-.4,3.09.5,4.38-1.24.52-1.58-.09-3,.75-.24.14-.49.65-.75,1-.64.85-.98,1.61-1.25,2.63-.99.82-1.81-3.63-1.25-7.63.26,0,.31.35.63.25.64-.19,3.17-6.05,9.75-8.75,1.48.27,2.92-.13,4.38-.25.16-.01.71-.25.75-.13.67,2.28-7.4-.73-9,5.63Z"/>
            <path class="cls-3" d="m4.07,35.6s-.12.46-.5.5c.36-.77.48-.47.5-.5Z"/>
            <path class="cls-24" d="m17.58,30.1l.5.13-1,.63c-.78-.52-.4-.77.5-.75Z"/>
          </g>
          <path class="cls-12" d="m64.09,46.86c3.57,3.1,1.04,6.79,3.13,7.5,2.85.97,16-.14,20.13-.5-.64,2.58-1.55,3.45-3.38,5.25-1.35-.59-1.31-.01-1.38,0-1.85.36-4.97.54-6.88.5-2.41-.05-11.91-.77-11.63-3.25,1.33-2.35,1.37-5.61-.5-7.75-1.74-2-3.74-2.25-6.25-2.25-.04-1.45-.8-2.91-1.75-4-.88-1-.87-.68-1-.75-.06-.04-.19-.59-1.25-.75.48-1.81,4.55,1.4,5.63,4.25,1.44-.18,4.1.86,5.13,1.75Z"/>
          <path class="cls-6" d="m87.6,51.86c0,.62.17.44,0,1.5-.11.7-.24.47-.25.5-4.13.36-17.28,1.47-20.13.5-2.09-.71.45-4.4-3.13-7.5,1.77-.09,3.61-.42,5.38-.5,13.87-.63,13.33,2.68,14,3,2.41,1.15,3.55-1.71,4.13,2.5Z"/>
          <path class="cls-13" d="m82.6,41.36c2.22,1.67,3.75,3.53,4.5,6.25-.22-.01-.25.22-.5.25-1.09-1-.22-1.43-.63-1.75-.3-.24-.72.28-.75.25-.97-.8-.53-1.77-2.63-1-2.99-4.47-4.74-3.63-8-5.5,2.76.29,5.32.83,8,1.5Z"/>
          <path class="cls-26" d="m61.34,28.85c2.77,2.07,4.36,2.72,4.5,6.75-.27-.15-.74-3.12-2.38-4.5,2.32,6.3-1.72-3.49-10.63-3-.58-.79.01-.74.5-1.25,2.82.09,5.33,1.26,8,2Z"/>
          <path class="cls-25" d="m74.6,38.86c3.37-.28,5.39.55,8,2.5-2.68-.67-5.24-1.22-8-1.5-.63-.07-1.46.1-2,0-.68-.41.91-.91,2-1Z"/>
          <path class="cls-2" d="m73.6,37.35c-.65-.21-1.04-.52-1.75-.75-3.3-1.08-3.9-.19-6,0v-1c3.66-.86,5.21-1.1,7.75,1.75Z"/>
          <path class="cls-16" d="m73.6,37.35c.4.45,1.06.7,1,1.5-1.09.09-2.68.59-2,1-1.05-.2-1.41.22-.75-3.25.71.23,1.1.54,1.75.75Z"/>
          <path class="cls-26" d="m45.84,21.35c-2.72,1.46-1.32,2.91-4.13,3l.13.5c.24.44,1.13.4,1.5.5-2.43,1.66-6.16,2.38-8.88,4.25q-11.25,3.75-22.51,7.5c-1.17,1.02-2.31,2.14-3.88,2.5.02-.07-.76.57,0-1,1.61-3.32,4.92-4.01,8.38-3.75,1-.33.58-4.61,7.75-4.5,1.72-3.33,9.36-2.42,10.5-3,.84-.87,1.13-2.08,1.88-3,.66,1.07,1.77-.15,2.63-1.25l.25.5,1.13-2.25c1.82-.51,3.48-.87,5.25,0Z"/>
          <g>
            <path class="cls-10" d="m41.34,19.85c1.72-.08,3.5.54,5,1.25.02.39-.38.19-.5.25-1.77-.87-3.43-.51-5.25,0-2.54.71-2.47,1.13-4,3-.75.92-1.04,2.14-1.88,3-1.14.58-8.79-.33-10.5,3-7.17-.11-6.76,4.17-7.75,4.5-3.46-.26-6.77.43-8.38,3.75,1.6-6.36,9.68-3.35,9-5.63-.04-.12-.59.11-.75.13,2.81-3.94,6.31-3.03,6.63-3.25.32-.23-.02-1.34.13-1.63.24-.48,1.11.78,1.5,0,.94-5.85,3.11-7.44,8.75-7.38,2,.02,1.7,1.49,3.25-.75-.13,3.14.92-.08,4.75-.25Z"/>
            <path class="cls-13" d="m31.71,21.6c4.68-.14,4.91,2.56,2,5.5-4.18-.59-7.83,1.29-8.25,1.25-1.87-.18,1.61-6.61,6.25-6.75Z"/>
          </g>
          <path class="cls-26" d="m50.59,24.6c-.34.16-.24.24-.25.25-1,.7-1.19,1.46-1.38,1.5-.36.09-3.72-1.83-7.13-1.5l-.13-.5c2.81-.09,1.4-1.54,4.13-3,.12-.06.52.14.5-.25,1.63.76,3.16,2.08,4.25,3.5Z"/>
          <path class="cls-13" d="m40.59,21.35l-1.13,2.25-.25-.5c-.86,1.1-1.96,2.32-2.63,1.25,1.53-1.87,1.46-2.29,4-3Z"/>
          <path class="cls-26" d="m50.59,26.6c.81.14,1.9.13,2.75.25-.49.51-1.08.46-.5,1.25-1.14.39-2.34.48-3.5.75-1.64-1.39-10.45,1.19-12.13,2.25-3.68,2.32-3.98,8.15-8.38,10.75-1.08-.04-2.4.79-4.75-.25-.09-.04-.27-.68-1.5-1.25-.35-.16-.23-.24-.25-.25l.5-.13c-2.64-2.33-5.32-.22-5.88-.13-1.04.18-3.87-1.82-8.13,5-.14.05-.57-.11-.75.5-.16-.11-.14-.09-.25-.25-.9-1.29.08-2.96-.5-4.38,0-.07.47.03.75-1.13,1.56-.37,2.7-1.48,3.88-2.5q11.25-3.75,22.51-7.5c2.72-1.87,6.45-2.59,8.88-4.25,2.48.69,4.87.84,7.25,1.25Z"/>
          <path class="cls-21" d="m50.34,24.85l.25,1.75c-2.38-.41-4.78-.56-7.25-1.25-.37-.1-1.26-.06-1.5-.5,3.41-.33,6.77,1.59,7.13,1.5.18-.04.37-.81,1.38-1.5Z"/>
          <path class="cls-32" d="m49.34,28.85c-1.12.27-1.96.47-3,1-2.6,1.31-2.03,2.56-7.88,4l-.63.63c.35.75-1.68,7.5-2,7.75-.19.15-1.67.16-2.5.38-.03,0-.03.38-.5.5-.41-1.59-2.66-1.2-4-1.25,4.4-2.61,4.7-8.43,8.38-10.75,1.68-1.06,10.48-3.64,12.13-2.25Z"/>
          <path class="cls-19" d="m52.84,28.1c8.91-.49,12.95,9.31,10.63,3,1.64,1.38,2.11,4.36,2.38,4.5v1c-.62.06-1.08.55-2.13,0-2.04-4.61-3.16-7.13-8.5-8-.81,1.28-4.29,1.77-6.5,2.5-.73.24-4.2,2.41-4.63,1.38l2.25-2.63c1.04-.53,1.88-.73,3-1,1.16-.28,2.36-.36,3.5-.75Z"/>
          <path class="cls-32" d="m86.6,47.86c-.49.05-1.54.06-2,0l-1.5-1c-.11-.17-.4-1.35-.5-1.5,2.09-.77,1.66.2,2.63,1,.03.03.45-.49.75-.25.4.32-.47.75.63,1.75Z"/>
          <g>
            <path class="cls-29" d="m65.84,36.6c2.1-.19,2.7-1.08,6,0-.66,3.47-.3,3.05.75,3.25.54.1,1.37-.07,2,0,3.26,1.87,5.01,1.03,8,5.5.1.15.39,1.34.5,1.5.03.04.15.89.38,1,.15.08.72-.06,1.13,0,.46.06,1.51.05,2,0,.25-.03.28-.26.5-.25.41,1.49.49,2.71.5,4.25-.58-4.21-1.71-1.35-4.13-2.5-.68-.32-.14-3.63-14-3-1.76.08-3.6.41-5.38.5-1.03-.89-3.68-1.93-5.13-1.75-1.07-2.85-5.15-6.06-5.63-4.25-1.65-.25-2.76-.12-3.75,1.25-.6-.36-1.64-1.09-2.25-1.25-4.49-1.15-5.22,1.56-5.88,1.75-.77.22-6.65.37-8.13,0,.83-.22,2.31-.22,2.5-.38.32-.25,2.35-7.01,2-7.75l.63-.63c5.85-1.44,5.28-2.69,7.88-4l-2.25,2.63c.42,1.03,3.9-1.13,4.63-1.38,2.21-.73,5.69-1.22,6.5-2.5,5.35.88,6.46,3.4,8.5,8,1.04.55,1.5.06,2.13,0Z"/>
            <path class="cls-14" d="m84.6,47.86c-.41-.06-.97.08-1.13,0-.22-.11-.35-.96-.38-1l1.5,1Z"/>
            <path class="cls-10" d="m38.96,34.85c.58-.03.29,1.3-.25,1-.35-.19,0-.99.25-1Z"/>
          </g>
          <g>
            <path class="cls-6" d="m28.83,41.86c1.34.05,3.59-.34,4,1.25-.78.65-2.23-1.27-4.88-.75-.96.19-2.82,1.94-3.88,2.5-.49.26-1,.49-1.5.75-.19-1.26,2.23.65,1.5-4,2.35,1.04,3.67.21,4.75.25Z"/>
            <g>
              <path class="cls-13" d="m49.59,42.11c-.22.3-.55.59-.5,1-1.37.28-2.75-.17-4.13,0-2.75,1.18-8.87,1.39-11.13,2-.08.02-.17-.02-.25,0l-.75-1c3.12-.44,6.23-1.08,9.38-1.25,1-2.16,3.37-1.47,5.13-2,.61.16,1.65.89,2.25,1.25Z"/>
              <path class="cls-16" d="m33.83,45.11c2.88,1.94-4.53,4.2-4.75,3.88.06-.69-.09-1.46,0-2.13,1.75.7,2.01-.94,2.13-1,.19-.1,1.82-.59,2.38-.75.08-.02.17.02.25,0Z"/>
              <path class="cls-17" d="m57.34,46.36c-.87,0-1.64.17-2.5.25-2.54-2.17-2.61.47.75-4.25.96,1.09,1.71,2.55,1.75,4Z"/>
              <path class="cls-26" d="m32.83,44.11l.75,1c-.56.16-2.18.65-2.38.75-.12.06-.38,1.7-2.13,1,.01-.08.23-.95.25-1,.03-.07,1.03-.38.5-1,.39-.05.6-.2,1-.25.45-.06.81-.33,2-.5Z"/>
              <path class="cls-21" d="m47.34,40.86c-1.76.53-4.13-.16-5.13,2-3.15.17-6.26.81-9.38,1.25-1.19.17-1.55.44-2,.5,1.74-1.95-1.95-2.35-5.75.25-.05,0-.46.7-1,0,1.05-.56,2.92-2.31,3.88-2.5,2.65-.52,4.09,1.4,4.88.75.47-.12.47-.49.5-.5,1.48.37,7.36.22,8.13,0,.66-.19,1.38-2.9,5.88-1.75Z"/>
            </g>
            <g>
              <path class="cls-10" d="m22.33,40.11s-.1.09.25.25c-2.1-.22-3.52-1-5.38.75-5.39-.44-5.36,2.19-8.13,4.5-.33-.08-.54.07-1-.25.18-.61.62-.45.75-.5,2.09-.73,2.74-3.65,5.13-4.5,3.57.13,5.1-1.47,8.38-.25Z"/>
              <path class="cls-3" d="m25.08,44.86c1.45-.17,3.33.18,4.75,0,.53.62-.48.93-.5,1-1.13.15-6.61.73-6.75-.25.5-.26,1.01-.49,1.5-.75.54.7.95,0,1,0Z"/>
              <g>
                <path class="cls-23" d="m22.58,40.36c1.23.57,1.41,1.21,1.5,1.25.73,4.65-1.69,2.74-1.5,4,.15.98,5.62.4,6.75.25-.02.05-.24.92-.25,1-.09.67.06,1.44,0,2.13.22.33,7.63-1.94,4.75-3.88,2.26-.62,8.38-.82,11.13-2,1.38-.17,2.76.28,4.13,0,2.1-.43,1.86-2.69,5.5-1.5.13.07.12-.25,1,.75-3.36,4.72-3.29,2.08-.75,4.25.03.02-.6.54.13.75.89.25,5.05-1.15,8.63,1.25,1.87,2.14,1.83,5.4.5,7.75-.84,1.49-2.78,2.01-4.63,3-.12.07-1.3.1-2.5.75-5.19,6.83-15.24,4.63-22.63,2.75-1.42-.54-2.71-1.28-3.88-2.25-6.77,1.2-19.39,2.37-24.38-3.25-2.76-3.11-2.88-6.59-2-10.5.26-.35.51-.86.75-1,.76.37,3.88.77,4.38.75,4.56-.21,1.61-.55-.13-1,2.77-2.31,2.74-4.94,8.13-4.5,1.85-1.75,3.27-.97,5.38-.75Z"/>
                <path class="cls-10" d="m57.34,46.36c2.51,0,4.51.25,6.25,2.25-3.58-2.4-7.73-1-8.63-1.25-.73-.21-.1-.73-.13-.75.86-.08,1.63-.25,2.5-.25Z"/>
                <path class="cls-3" d="m8.07,45.36c.46.32.67.17,1,.25,1.74.45,4.69.79.13,1-.49.02-3.62-.38-4.38-.75,1.43-.85,1.76-.23,3-.75.11.16.09.14.25.25Z"/>
                <path class="cls-10" d="m34.96,47.36c.18,3.52-3.67,2.49-4.5,2.75-.3.09-2.4,3.41-1.38.38.78-2.3,4.71.42,5.88-3.13Z"/>
                <path class="cls-10" d="m53.34,40.86c1.06.16,1.19.71,1.25.75-3.64-1.18-3.4,1.07-5.5,1.5-.05-.41.28-.7.5-1,.99-1.37,2.1-1.5,3.75-1.25Z"/>
              </g>
              <path class="cls-32" d="m22.33,40.11c-3.28-1.22-4.81.38-8.38.25-2.38.85-3.03,3.78-5.13,4.5,4.26-6.82,7.09-4.82,8.13-5,.55-.1,3.24-2.2,5.88.13l-.5.13Z"/>
            </g>
            <path class="cls-5" d="m30.83,44.61c-.4.05-.61.2-1,.25-1.42.18-3.31-.17-4.75,0,3.8-2.6,7.49-2.2,5.75-.25Z"/>
          </g>
        </g>
      </g>
    </g>
  </g>
</svg>