<svg xmlns="http://www.w3.org/2000/svg" width="23.21" height="24.039" viewBox="0 0 23.21 24.039">
  <g id="Icon_akar-arrow-shuffle" data-name="Icon akar-arrow-shuffle" transform="translate(1 1.414)">
    <path id="Path_1156" data-name="Path 1156" d="M3,22.347H7.144a2.121,2.121,0,0,0,1.784-.975l4.147-6.449,4.147-6.45A2.121,2.121,0,0,1,19,7.5H24.21m0,14.847h-5.2a2.121,2.121,0,0,1-1.784-.975l-2.1-3.267M3,7.5H7.144a2.121,2.121,0,0,1,1.784.974l2.1,3.269" transform="translate(-3 -4.318)" fill="none" stroke="#fff" stroke-linecap="round" stroke-linejoin="round" stroke-width="2"/>
    <path id="Path_1157" data-name="Path 1157" d="M28.5,3l3.182,3.182L28.5,9.363m0,8.484,3.182,3.182L28.5,24.21" transform="translate(-10.471 -3)" fill="none" stroke="#fff" stroke-linecap="round" stroke-linejoin="round" stroke-width="2"/>
  </g>
</svg>
